%FSLAX45Y45*%
G04 Gerber Fmt 4.5, Leading zero omitted, Abs format (unit mm)*
G04 Created by KiCad (PCBNEW (6.0.0-rc1-dev-1444-gad0d9f8df)) date 02/01/2019 13:45:16*
%MOMM*%
%LPD*%
G04 APERTURE LIST*
%ADD10C,0.050000*%
%ADD11C,0.200000*%
%ADD12C,0.300000*%
G04 APERTURE END LIST*
D10*
X10950000Y-4250000D02*
X25180000Y-4250000D01*
X25180000Y-13160000D02*
X25180000Y-4250000D01*
X10950000Y-13160000D02*
X25180000Y-13160000D01*
X10950000Y-4250000D02*
X10950000Y-13160000D01*
D11*
X11405500Y-4674500D02*
X11835500Y-5104500D01*
X11835500Y-4674500D02*
X11405500Y-5104500D01*
X11405500Y-12358000D02*
X11835500Y-12788000D01*
X11835500Y-12358000D02*
X11405500Y-12788000D01*
X24232500Y-4674500D02*
X24662500Y-5104500D01*
X24662500Y-4674500D02*
X24232500Y-5104500D01*
X24359500Y-12358000D02*
X24789500Y-12788000D01*
X24789500Y-12358000D02*
X24359500Y-12788000D01*
D12*
X11233928Y-13628214D02*
X11233928Y-13328214D01*
X11305357Y-13328214D01*
X11348214Y-13342500D01*
X11376786Y-13371071D01*
X11391071Y-13399643D01*
X11405357Y-13456786D01*
X11405357Y-13499643D01*
X11391071Y-13556786D01*
X11376786Y-13585357D01*
X11348214Y-13613929D01*
X11305357Y-13628214D01*
X11233928Y-13628214D01*
X11533928Y-13628214D02*
X11533928Y-13428214D01*
X11533928Y-13485357D02*
X11548214Y-13456786D01*
X11562500Y-13442500D01*
X11591071Y-13428214D01*
X11619643Y-13428214D01*
X11719643Y-13628214D02*
X11719643Y-13428214D01*
X11719643Y-13328214D02*
X11705357Y-13342500D01*
X11719643Y-13356786D01*
X11733928Y-13342500D01*
X11719643Y-13328214D01*
X11719643Y-13356786D01*
X11905357Y-13628214D02*
X11876786Y-13613929D01*
X11862500Y-13585357D01*
X11862500Y-13328214D01*
X12062500Y-13628214D02*
X12033928Y-13613929D01*
X12019643Y-13585357D01*
X12019643Y-13328214D01*
X12405357Y-13628214D02*
X12405357Y-13328214D01*
X12505357Y-13542500D01*
X12605357Y-13328214D01*
X12605357Y-13628214D01*
X12876786Y-13628214D02*
X12876786Y-13471071D01*
X12862500Y-13442500D01*
X12833928Y-13428214D01*
X12776786Y-13428214D01*
X12748214Y-13442500D01*
X12876786Y-13613929D02*
X12848214Y-13628214D01*
X12776786Y-13628214D01*
X12748214Y-13613929D01*
X12733928Y-13585357D01*
X12733928Y-13556786D01*
X12748214Y-13528214D01*
X12776786Y-13513929D01*
X12848214Y-13513929D01*
X12876786Y-13499643D01*
X13019643Y-13428214D02*
X13019643Y-13728214D01*
X13019643Y-13442500D02*
X13048214Y-13428214D01*
X13105357Y-13428214D01*
X13133928Y-13442500D01*
X13148214Y-13456786D01*
X13162500Y-13485357D01*
X13162500Y-13571071D01*
X13148214Y-13599643D01*
X13133928Y-13613929D01*
X13105357Y-13628214D01*
X13048214Y-13628214D01*
X13019643Y-13613929D01*
X13291071Y-13599643D02*
X13305357Y-13613929D01*
X13291071Y-13628214D01*
X13276786Y-13613929D01*
X13291071Y-13599643D01*
X13291071Y-13628214D01*
X13291071Y-13442500D02*
X13305357Y-13456786D01*
X13291071Y-13471071D01*
X13276786Y-13456786D01*
X13291071Y-13442500D01*
X13291071Y-13471071D01*
X10517500Y-13907500D02*
X10947500Y-14337500D01*
X10947500Y-13907500D02*
X10517500Y-14337500D01*
X11362500Y-14058214D02*
X11362500Y-14258214D01*
X11291071Y-13943929D02*
X11219643Y-14158214D01*
X11405357Y-14158214D01*
X11519643Y-14229643D02*
X11533928Y-14243929D01*
X11519643Y-14258214D01*
X11505357Y-14243929D01*
X11519643Y-14229643D01*
X11519643Y-14258214D01*
X11633928Y-13958214D02*
X11819643Y-13958214D01*
X11719643Y-14072500D01*
X11762500Y-14072500D01*
X11791071Y-14086786D01*
X11805357Y-14101071D01*
X11819643Y-14129643D01*
X11819643Y-14201071D01*
X11805357Y-14229643D01*
X11791071Y-14243929D01*
X11762500Y-14258214D01*
X11676786Y-14258214D01*
X11648214Y-14243929D01*
X11633928Y-14229643D01*
X12005357Y-13958214D02*
X12033928Y-13958214D01*
X12062500Y-13972500D01*
X12076786Y-13986786D01*
X12091071Y-14015357D01*
X12105357Y-14072500D01*
X12105357Y-14143929D01*
X12091071Y-14201071D01*
X12076786Y-14229643D01*
X12062500Y-14243929D01*
X12033928Y-14258214D01*
X12005357Y-14258214D01*
X11976786Y-14243929D01*
X11962500Y-14229643D01*
X11948214Y-14201071D01*
X11933928Y-14143929D01*
X11933928Y-14072500D01*
X11948214Y-14015357D01*
X11962500Y-13986786D01*
X11976786Y-13972500D01*
X12005357Y-13958214D01*
X12233928Y-14258214D02*
X12233928Y-14058214D01*
X12233928Y-14086786D02*
X12248214Y-14072500D01*
X12276786Y-14058214D01*
X12319643Y-14058214D01*
X12348214Y-14072500D01*
X12362500Y-14101071D01*
X12362500Y-14258214D01*
X12362500Y-14101071D02*
X12376786Y-14072500D01*
X12405357Y-14058214D01*
X12448214Y-14058214D01*
X12476786Y-14072500D01*
X12491071Y-14101071D01*
X12491071Y-14258214D01*
X12633928Y-14258214D02*
X12633928Y-14058214D01*
X12633928Y-14086786D02*
X12648214Y-14072500D01*
X12676786Y-14058214D01*
X12719643Y-14058214D01*
X12748214Y-14072500D01*
X12762500Y-14101071D01*
X12762500Y-14258214D01*
X12762500Y-14101071D02*
X12776786Y-14072500D01*
X12805357Y-14058214D01*
X12848214Y-14058214D01*
X12876786Y-14072500D01*
X12891071Y-14101071D01*
X12891071Y-14258214D01*
X13476786Y-13943929D02*
X13219643Y-14329643D01*
X13862500Y-13958214D02*
X13891071Y-13958214D01*
X13919643Y-13972500D01*
X13933928Y-13986786D01*
X13948214Y-14015357D01*
X13962500Y-14072500D01*
X13962500Y-14143929D01*
X13948214Y-14201071D01*
X13933928Y-14229643D01*
X13919643Y-14243929D01*
X13891071Y-14258214D01*
X13862500Y-14258214D01*
X13833928Y-14243929D01*
X13819643Y-14229643D01*
X13805357Y-14201071D01*
X13791071Y-14143929D01*
X13791071Y-14072500D01*
X13805357Y-14015357D01*
X13819643Y-13986786D01*
X13833928Y-13972500D01*
X13862500Y-13958214D01*
X14091071Y-14229643D02*
X14105357Y-14243929D01*
X14091071Y-14258214D01*
X14076786Y-14243929D01*
X14091071Y-14229643D01*
X14091071Y-14258214D01*
X14391071Y-14258214D02*
X14219643Y-14258214D01*
X14305357Y-14258214D02*
X14305357Y-13958214D01*
X14276786Y-14001071D01*
X14248214Y-14029643D01*
X14219643Y-14043929D01*
X14648214Y-13958214D02*
X14591071Y-13958214D01*
X14562500Y-13972500D01*
X14548214Y-13986786D01*
X14519643Y-14029643D01*
X14505357Y-14086786D01*
X14505357Y-14201071D01*
X14519643Y-14229643D01*
X14533928Y-14243929D01*
X14562500Y-14258214D01*
X14619643Y-14258214D01*
X14648214Y-14243929D01*
X14662500Y-14229643D01*
X14676786Y-14201071D01*
X14676786Y-14129643D01*
X14662500Y-14101071D01*
X14648214Y-14086786D01*
X14619643Y-14072500D01*
X14562500Y-14072500D01*
X14533928Y-14086786D01*
X14519643Y-14101071D01*
X14505357Y-14129643D01*
X14819643Y-14258214D02*
X14876786Y-14258214D01*
X14905357Y-14243929D01*
X14919643Y-14229643D01*
X14948214Y-14186786D01*
X14962500Y-14129643D01*
X14962500Y-14015357D01*
X14948214Y-13986786D01*
X14933928Y-13972500D01*
X14905357Y-13958214D01*
X14848214Y-13958214D01*
X14819643Y-13972500D01*
X14805357Y-13986786D01*
X14791071Y-14015357D01*
X14791071Y-14086786D01*
X14805357Y-14115357D01*
X14819643Y-14129643D01*
X14848214Y-14143929D01*
X14905357Y-14143929D01*
X14933928Y-14129643D01*
X14948214Y-14115357D01*
X14962500Y-14086786D01*
X15076786Y-13958214D02*
X15076786Y-14015357D01*
X15191071Y-13958214D02*
X15191071Y-14015357D01*
X15633928Y-14372500D02*
X15619643Y-14358214D01*
X15591071Y-14315357D01*
X15576786Y-14286786D01*
X15562500Y-14243929D01*
X15548214Y-14172500D01*
X15548214Y-14115357D01*
X15562500Y-14043929D01*
X15576786Y-14001071D01*
X15591071Y-13972500D01*
X15619643Y-13929643D01*
X15633928Y-13915357D01*
X15876786Y-14058214D02*
X15876786Y-14258214D01*
X15805357Y-13943929D02*
X15733928Y-14158214D01*
X15919643Y-14158214D01*
X16262500Y-14258214D02*
X16262500Y-13958214D01*
X16391071Y-14258214D02*
X16391071Y-14101071D01*
X16376786Y-14072500D01*
X16348214Y-14058214D01*
X16305357Y-14058214D01*
X16276786Y-14072500D01*
X16262500Y-14086786D01*
X16576786Y-14258214D02*
X16548214Y-14243929D01*
X16533928Y-14229643D01*
X16519643Y-14201071D01*
X16519643Y-14115357D01*
X16533928Y-14086786D01*
X16548214Y-14072500D01*
X16576786Y-14058214D01*
X16619643Y-14058214D01*
X16648214Y-14072500D01*
X16662500Y-14086786D01*
X16676786Y-14115357D01*
X16676786Y-14201071D01*
X16662500Y-14229643D01*
X16648214Y-14243929D01*
X16619643Y-14258214D01*
X16576786Y-14258214D01*
X16848214Y-14258214D02*
X16819643Y-14243929D01*
X16805357Y-14215357D01*
X16805357Y-13958214D01*
X17076786Y-14243929D02*
X17048214Y-14258214D01*
X16991071Y-14258214D01*
X16962500Y-14243929D01*
X16948214Y-14215357D01*
X16948214Y-14101071D01*
X16962500Y-14072500D01*
X16991071Y-14058214D01*
X17048214Y-14058214D01*
X17076786Y-14072500D01*
X17091071Y-14101071D01*
X17091071Y-14129643D01*
X16948214Y-14158214D01*
X17205357Y-14243929D02*
X17233928Y-14258214D01*
X17291071Y-14258214D01*
X17319643Y-14243929D01*
X17333928Y-14215357D01*
X17333928Y-14201071D01*
X17319643Y-14172500D01*
X17291071Y-14158214D01*
X17248214Y-14158214D01*
X17219643Y-14143929D01*
X17205357Y-14115357D01*
X17205357Y-14101071D01*
X17219643Y-14072500D01*
X17248214Y-14058214D01*
X17291071Y-14058214D01*
X17319643Y-14072500D01*
X17433928Y-14372500D02*
X17448214Y-14358214D01*
X17476786Y-14315357D01*
X17491071Y-14286786D01*
X17505357Y-14243929D01*
X17519643Y-14172500D01*
X17519643Y-14115357D01*
X17505357Y-14043929D01*
X17491071Y-14001071D01*
X17476786Y-13972500D01*
X17448214Y-13929643D01*
X17433928Y-13915357D01*
X17976786Y-14372500D02*
X17962500Y-14358214D01*
X17933928Y-14315357D01*
X17919643Y-14286786D01*
X17905357Y-14243929D01*
X17891071Y-14172500D01*
X17891071Y-14115357D01*
X17905357Y-14043929D01*
X17919643Y-14001071D01*
X17933928Y-13972500D01*
X17962500Y-13929643D01*
X17976786Y-13915357D01*
X18091071Y-14058214D02*
X18091071Y-14258214D01*
X18091071Y-14086786D02*
X18105357Y-14072500D01*
X18133928Y-14058214D01*
X18176786Y-14058214D01*
X18205357Y-14072500D01*
X18219643Y-14101071D01*
X18219643Y-14258214D01*
X18405357Y-14258214D02*
X18376786Y-14243929D01*
X18362500Y-14229643D01*
X18348214Y-14201071D01*
X18348214Y-14115357D01*
X18362500Y-14086786D01*
X18376786Y-14072500D01*
X18405357Y-14058214D01*
X18448214Y-14058214D01*
X18476786Y-14072500D01*
X18491071Y-14086786D01*
X18505357Y-14115357D01*
X18505357Y-14201071D01*
X18491071Y-14229643D01*
X18476786Y-14243929D01*
X18448214Y-14258214D01*
X18405357Y-14258214D01*
X18591071Y-14058214D02*
X18705357Y-14058214D01*
X18633928Y-13958214D02*
X18633928Y-14215357D01*
X18648214Y-14243929D01*
X18676786Y-14258214D01*
X18705357Y-14258214D01*
X19033928Y-14058214D02*
X19033928Y-14358214D01*
X19033928Y-14072500D02*
X19062500Y-14058214D01*
X19119643Y-14058214D01*
X19148214Y-14072500D01*
X19162500Y-14086786D01*
X19176786Y-14115357D01*
X19176786Y-14201071D01*
X19162500Y-14229643D01*
X19148214Y-14243929D01*
X19119643Y-14258214D01*
X19062500Y-14258214D01*
X19033928Y-14243929D01*
X19348214Y-14258214D02*
X19319643Y-14243929D01*
X19305357Y-14215357D01*
X19305357Y-13958214D01*
X19591071Y-14258214D02*
X19591071Y-14101071D01*
X19576786Y-14072500D01*
X19548214Y-14058214D01*
X19491071Y-14058214D01*
X19462500Y-14072500D01*
X19591071Y-14243929D02*
X19562500Y-14258214D01*
X19491071Y-14258214D01*
X19462500Y-14243929D01*
X19448214Y-14215357D01*
X19448214Y-14186786D01*
X19462500Y-14158214D01*
X19491071Y-14143929D01*
X19562500Y-14143929D01*
X19591071Y-14129643D01*
X19691071Y-14058214D02*
X19805357Y-14058214D01*
X19733928Y-13958214D02*
X19733928Y-14215357D01*
X19748214Y-14243929D01*
X19776786Y-14258214D01*
X19805357Y-14258214D01*
X20019643Y-14243929D02*
X19991071Y-14258214D01*
X19933928Y-14258214D01*
X19905357Y-14243929D01*
X19891071Y-14215357D01*
X19891071Y-14101071D01*
X19905357Y-14072500D01*
X19933928Y-14058214D01*
X19991071Y-14058214D01*
X20019643Y-14072500D01*
X20033928Y-14101071D01*
X20033928Y-14129643D01*
X19891071Y-14158214D01*
X20291071Y-14258214D02*
X20291071Y-13958214D01*
X20291071Y-14243929D02*
X20262500Y-14258214D01*
X20205357Y-14258214D01*
X20176786Y-14243929D01*
X20162500Y-14229643D01*
X20148214Y-14201071D01*
X20148214Y-14115357D01*
X20162500Y-14086786D01*
X20176786Y-14072500D01*
X20205357Y-14058214D01*
X20262500Y-14058214D01*
X20291071Y-14072500D01*
X20405357Y-14372500D02*
X20419643Y-14358214D01*
X20448214Y-14315357D01*
X20462500Y-14286786D01*
X20476786Y-14243929D01*
X20491071Y-14172500D01*
X20491071Y-14115357D01*
X20476786Y-14043929D01*
X20462500Y-14001071D01*
X20448214Y-13972500D01*
X20419643Y-13929643D01*
X20405357Y-13915357D01*
M02*
