%FSLAX45Y45*%
G04 Gerber Fmt 4.5, Leading zero omitted, Abs format (unit mm)*
G04 Created by KiCad (PCBNEW (6.0.0-rc1-dev-1444-gad0d9f8df)) date 02/01/2019 13:45:16*
%MOMM*%
%LPD*%
G04 APERTURE LIST*
%ADD10C,0.050000*%
%ADD11C,0.200000*%
%ADD12C,0.300000*%
G04 APERTURE END LIST*
D10*
X10950000Y-4250000D02*
X25180000Y-4250000D01*
X25180000Y-13160000D02*
X25180000Y-4250000D01*
X10950000Y-13160000D02*
X25180000Y-13160000D01*
X10950000Y-4250000D02*
X10950000Y-13160000D01*
D11*
X14209000Y-7287500D02*
X14239000Y-7317500D01*
X14239000Y-7287500D02*
X14209000Y-7317500D01*
X14717000Y-6208000D02*
X14747000Y-6238000D01*
X14747000Y-6208000D02*
X14717000Y-6238000D01*
X14717000Y-8113000D02*
X14747000Y-8143000D01*
X14747000Y-8113000D02*
X14717000Y-8143000D01*
X15479000Y-12050000D02*
X15509000Y-12080000D01*
X15509000Y-12050000D02*
X15479000Y-12080000D01*
X15669500Y-12050000D02*
X15699500Y-12080000D01*
X15699500Y-12050000D02*
X15669500Y-12080000D01*
X15923500Y-12050000D02*
X15953500Y-12080000D01*
X15953500Y-12050000D02*
X15923500Y-12080000D01*
X15923500Y-12240500D02*
X15953500Y-12270500D01*
X15953500Y-12240500D02*
X15923500Y-12270500D01*
X16177500Y-12050000D02*
X16207500Y-12080000D01*
X16207500Y-12050000D02*
X16177500Y-12080000D01*
X16368000Y-12050000D02*
X16398000Y-12080000D01*
X16398000Y-12050000D02*
X16368000Y-12080000D01*
X16558500Y-7160500D02*
X16588500Y-7190500D01*
X16588500Y-7160500D02*
X16558500Y-7190500D01*
X16749000Y-7160500D02*
X16779000Y-7190500D01*
X16779000Y-7160500D02*
X16749000Y-7190500D01*
X16985000Y-8665000D02*
X17015000Y-8695000D01*
X17015000Y-8665000D02*
X16985000Y-8695000D01*
X17516880Y-6632590D02*
X17546880Y-6662590D01*
X17546880Y-6632590D02*
X17516880Y-6662590D01*
X17638000Y-5001500D02*
X17668000Y-5031500D01*
X17668000Y-5001500D02*
X17638000Y-5031500D01*
X17701500Y-11351500D02*
X17731500Y-11381500D01*
X17731500Y-11351500D02*
X17701500Y-11381500D01*
X17828500Y-5001500D02*
X17858500Y-5031500D01*
X17858500Y-5001500D02*
X17828500Y-5031500D01*
X17828500Y-5319000D02*
X17858500Y-5349000D01*
X17858500Y-5319000D02*
X17828500Y-5349000D01*
X17828500Y-5509500D02*
X17858500Y-5539500D01*
X17858500Y-5509500D02*
X17828500Y-5539500D01*
X17892000Y-11351500D02*
X17922000Y-11381500D01*
X17922000Y-11351500D02*
X17892000Y-11381500D01*
X18765000Y-6215000D02*
X18795000Y-6245000D01*
X18795000Y-6215000D02*
X18765000Y-6245000D01*
X18781000Y-8811500D02*
X18811000Y-8841500D01*
X18811000Y-8811500D02*
X18781000Y-8841500D01*
X18781000Y-9065500D02*
X18811000Y-9095500D01*
X18811000Y-9065500D02*
X18781000Y-9095500D01*
X18781000Y-9319500D02*
X18811000Y-9349500D01*
X18811000Y-9319500D02*
X18781000Y-9349500D01*
X18781000Y-9573500D02*
X18811000Y-9603500D01*
X18811000Y-9573500D02*
X18781000Y-9603500D01*
X18781000Y-9827500D02*
X18811000Y-9857500D01*
X18811000Y-9827500D02*
X18781000Y-9857500D01*
X18781000Y-10081500D02*
X18811000Y-10111500D01*
X18811000Y-10081500D02*
X18781000Y-10111500D01*
X18781000Y-10335500D02*
X18811000Y-10365500D01*
X18811000Y-10335500D02*
X18781000Y-10365500D01*
X18781000Y-10589500D02*
X18811000Y-10619500D01*
X18811000Y-10589500D02*
X18781000Y-10619500D01*
X18781000Y-10843500D02*
X18811000Y-10873500D01*
X18811000Y-10843500D02*
X18781000Y-10873500D01*
X18781000Y-11097500D02*
X18811000Y-11127500D01*
X18811000Y-11097500D02*
X18781000Y-11127500D01*
X18781000Y-11415000D02*
X18811000Y-11445000D01*
X18811000Y-11415000D02*
X18781000Y-11445000D01*
X18971500Y-8811500D02*
X19001500Y-8841500D01*
X19001500Y-8811500D02*
X18971500Y-8841500D01*
X18971500Y-9065500D02*
X19001500Y-9095500D01*
X19001500Y-9065500D02*
X18971500Y-9095500D01*
X18971500Y-9319500D02*
X19001500Y-9349500D01*
X19001500Y-9319500D02*
X18971500Y-9349500D01*
X18971500Y-9573500D02*
X19001500Y-9603500D01*
X19001500Y-9573500D02*
X18971500Y-9603500D01*
X18971500Y-9827500D02*
X19001500Y-9857500D01*
X19001500Y-9827500D02*
X18971500Y-9857500D01*
X18971500Y-10081500D02*
X19001500Y-10111500D01*
X19001500Y-10081500D02*
X18971500Y-10111500D01*
X18971500Y-10335500D02*
X19001500Y-10365500D01*
X19001500Y-10335500D02*
X18971500Y-10365500D01*
X18971500Y-10589500D02*
X19001500Y-10619500D01*
X19001500Y-10589500D02*
X18971500Y-10619500D01*
X18971500Y-10843500D02*
X19001500Y-10873500D01*
X19001500Y-10843500D02*
X18971500Y-10873500D01*
X18971500Y-11097500D02*
X19001500Y-11127500D01*
X19001500Y-11097500D02*
X18971500Y-11127500D01*
X18971500Y-11415000D02*
X19001500Y-11445000D01*
X19001500Y-11415000D02*
X18971500Y-11445000D01*
X19035000Y-5001500D02*
X19065000Y-5031500D01*
X19065000Y-5001500D02*
X19035000Y-5031500D01*
X19035000Y-5319000D02*
X19065000Y-5349000D01*
X19065000Y-5319000D02*
X19035000Y-5349000D01*
X19035000Y-5509500D02*
X19065000Y-5539500D01*
X19065000Y-5509500D02*
X19035000Y-5539500D01*
X19225500Y-5001500D02*
X19255500Y-5031500D01*
X19255500Y-5001500D02*
X19225500Y-5031500D01*
X19835000Y-6385000D02*
X19865000Y-6415000D01*
X19865000Y-6385000D02*
X19835000Y-6415000D01*
X20039910Y-6703530D02*
X20069910Y-6733530D01*
X20069910Y-6703530D02*
X20039910Y-6733530D01*
X20184760Y-6904920D02*
X20214760Y-6934920D01*
X20214760Y-6904920D02*
X20184760Y-6934920D01*
X20652660Y-12248490D02*
X20682660Y-12278490D01*
X20682660Y-12248490D02*
X20652660Y-12278490D01*
X21181140Y-12248490D02*
X21211140Y-12278490D01*
X21211140Y-12248490D02*
X21181140Y-12278490D01*
X21400210Y-7980230D02*
X21430210Y-8010230D01*
X21430210Y-7980230D02*
X21400210Y-8010230D01*
X21484870Y-12332170D02*
X21514870Y-12362170D01*
X21514870Y-12332170D02*
X21484870Y-12362170D01*
X21565000Y-4845000D02*
X21595000Y-4875000D01*
X21595000Y-4845000D02*
X21565000Y-4875000D01*
X22083000Y-5700000D02*
X22113000Y-5730000D01*
X22113000Y-5700000D02*
X22083000Y-5730000D01*
X22103020Y-12190490D02*
X22133020Y-12220490D01*
X22133020Y-12190490D02*
X22103020Y-12220490D01*
X22273500Y-5700000D02*
X22303500Y-5730000D01*
X22303500Y-5700000D02*
X22273500Y-5730000D01*
X22400500Y-9065500D02*
X22430500Y-9095500D01*
X22430500Y-9065500D02*
X22400500Y-9095500D01*
X22400500Y-9319500D02*
X22430500Y-9349500D01*
X22430500Y-9319500D02*
X22400500Y-9349500D01*
X22400500Y-9827500D02*
X22430500Y-9857500D01*
X22430500Y-9827500D02*
X22400500Y-9857500D01*
X22400500Y-10081500D02*
X22430500Y-10111500D01*
X22430500Y-10081500D02*
X22400500Y-10111500D01*
X22400500Y-10335500D02*
X22430500Y-10365500D01*
X22430500Y-10335500D02*
X22400500Y-10365500D01*
X22400500Y-10843500D02*
X22430500Y-10873500D01*
X22430500Y-10843500D02*
X22400500Y-10873500D01*
X22400500Y-11097500D02*
X22430500Y-11127500D01*
X22430500Y-11097500D02*
X22400500Y-11127500D01*
X22527500Y-11415000D02*
X22557500Y-11445000D01*
X22557500Y-11415000D02*
X22527500Y-11445000D01*
X22591000Y-5509500D02*
X22621000Y-5539500D01*
X22621000Y-5509500D02*
X22591000Y-5539500D01*
X22591000Y-5700000D02*
X22621000Y-5730000D01*
X22621000Y-5700000D02*
X22591000Y-5730000D01*
X22591000Y-9065500D02*
X22621000Y-9095500D01*
X22621000Y-9065500D02*
X22591000Y-9095500D01*
X22591000Y-9319500D02*
X22621000Y-9349500D01*
X22621000Y-9319500D02*
X22591000Y-9349500D01*
X22591000Y-9827500D02*
X22621000Y-9857500D01*
X22621000Y-9827500D02*
X22591000Y-9857500D01*
X22591000Y-10081500D02*
X22621000Y-10111500D01*
X22621000Y-10081500D02*
X22591000Y-10111500D01*
X22591000Y-10335500D02*
X22621000Y-10365500D01*
X22621000Y-10335500D02*
X22591000Y-10365500D01*
X22591000Y-10843500D02*
X22621000Y-10873500D01*
X22621000Y-10843500D02*
X22591000Y-10873500D01*
X22591000Y-11097500D02*
X22621000Y-11127500D01*
X22621000Y-11097500D02*
X22591000Y-11127500D01*
X22718000Y-11415000D02*
X22748000Y-11445000D01*
X22748000Y-11415000D02*
X22718000Y-11445000D01*
X22950610Y-11316140D02*
X22980610Y-11346140D01*
X22980610Y-11316140D02*
X22950610Y-11346140D01*
X23151910Y-6044850D02*
X23181910Y-6074850D01*
X23181910Y-6044850D02*
X23151910Y-6074850D01*
X23226000Y-10653000D02*
X23256000Y-10683000D01*
X23256000Y-10653000D02*
X23226000Y-10683000D01*
X23226000Y-11351500D02*
X23256000Y-11381500D01*
X23256000Y-11351500D02*
X23226000Y-11381500D01*
X23226000Y-11859500D02*
X23256000Y-11889500D01*
X23256000Y-11859500D02*
X23226000Y-11889500D01*
X23289500Y-9827500D02*
X23319500Y-9857500D01*
X23319500Y-9827500D02*
X23289500Y-9857500D01*
X23289500Y-12367500D02*
X23319500Y-12397500D01*
X23319500Y-12367500D02*
X23289500Y-12397500D01*
X23416500Y-10653000D02*
X23446500Y-10683000D01*
X23446500Y-10653000D02*
X23416500Y-10683000D01*
X23416500Y-11351500D02*
X23446500Y-11381500D01*
X23446500Y-11351500D02*
X23416500Y-11381500D01*
X23416500Y-11859500D02*
X23446500Y-11889500D01*
X23446500Y-11859500D02*
X23416500Y-11889500D01*
X23480000Y-9827500D02*
X23510000Y-9857500D01*
X23510000Y-9827500D02*
X23480000Y-9857500D01*
X23480000Y-12367500D02*
X23510000Y-12397500D01*
X23510000Y-12367500D02*
X23480000Y-12397500D01*
X23683800Y-9442520D02*
X23713800Y-9472520D01*
X23713800Y-9442520D02*
X23683800Y-9472520D01*
X23734000Y-8176500D02*
X23764000Y-8206500D01*
X23764000Y-8176500D02*
X23734000Y-8206500D01*
X23874300Y-9442520D02*
X23904300Y-9472520D01*
X23904300Y-9442520D02*
X23874300Y-9472520D01*
X23924500Y-8176500D02*
X23954500Y-8206500D01*
X23954500Y-8176500D02*
X23924500Y-8206500D01*
X24242000Y-5636500D02*
X24272000Y-5666500D01*
X24272000Y-5636500D02*
X24242000Y-5666500D01*
X24339500Y-9425060D02*
X24369500Y-9455060D01*
X24369500Y-9425060D02*
X24339500Y-9455060D01*
X24432500Y-5636500D02*
X24462500Y-5666500D01*
X24462500Y-5636500D02*
X24432500Y-5666500D01*
X24530000Y-9425060D02*
X24560000Y-9455060D01*
X24560000Y-9425060D02*
X24530000Y-9455060D01*
X24623000Y-8621000D02*
X24653000Y-8651000D01*
X24653000Y-8621000D02*
X24623000Y-8651000D01*
X24715300Y-11099300D02*
X24745300Y-11129300D01*
X24745300Y-11099300D02*
X24715300Y-11129300D01*
X24715300Y-11289800D02*
X24745300Y-11319800D01*
X24745300Y-11289800D02*
X24715300Y-11319800D01*
X24775400Y-9840200D02*
X24805400Y-9870200D01*
X24805400Y-9840200D02*
X24775400Y-9870200D01*
X24775400Y-10043400D02*
X24805400Y-10073400D01*
X24805400Y-10043400D02*
X24775400Y-10073400D01*
X24785400Y-10490200D02*
X24815400Y-10520200D01*
X24815400Y-10490200D02*
X24785400Y-10520200D01*
X24785400Y-10680700D02*
X24815400Y-10710700D01*
X24815400Y-10680700D02*
X24785400Y-10710700D01*
X24813500Y-8621000D02*
X24843500Y-8651000D01*
X24843500Y-8621000D02*
X24813500Y-8651000D01*
X18715000Y-5031000D02*
X18745000Y-5061000D01*
X18745000Y-5031000D02*
X18715000Y-5061000D01*
X18715000Y-5285000D02*
X18745000Y-5315000D01*
X18745000Y-5285000D02*
X18715000Y-5315000D01*
X13175000Y-6705000D02*
X13205000Y-6735000D01*
X13205000Y-6705000D02*
X13175000Y-6735000D01*
X15655000Y-11635000D02*
X15685000Y-11665000D01*
X15685000Y-11635000D02*
X15655000Y-11665000D01*
X15909000Y-11635000D02*
X15939000Y-11665000D01*
X15939000Y-11635000D02*
X15909000Y-11665000D01*
X16163000Y-11635000D02*
X16193000Y-11665000D01*
X16193000Y-11635000D02*
X16163000Y-11665000D01*
X23162500Y-8824200D02*
X23192500Y-8854200D01*
X23192500Y-8824200D02*
X23162500Y-8854200D01*
X23416500Y-8824200D02*
X23446500Y-8854200D01*
X23446500Y-8824200D02*
X23416500Y-8854200D01*
X14440400Y-6200800D02*
X14470400Y-6230800D01*
X14470400Y-6200800D02*
X14440400Y-6230800D01*
X14440400Y-7293000D02*
X14470400Y-7323000D01*
X14470400Y-7293000D02*
X14440400Y-7323000D01*
X14440400Y-8105800D02*
X14470400Y-8135800D01*
X14470400Y-8105800D02*
X14440400Y-8135800D01*
X15431000Y-6404000D02*
X15461000Y-6434000D01*
X15461000Y-6404000D02*
X15431000Y-6434000D01*
X15431000Y-7902600D02*
X15461000Y-7932600D01*
X15461000Y-7902600D02*
X15431000Y-7932600D01*
X18145000Y-5031000D02*
X18175000Y-5061000D01*
X18175000Y-5031000D02*
X18145000Y-5061000D01*
X18145000Y-5285000D02*
X18175000Y-5315000D01*
X18175000Y-5285000D02*
X18145000Y-5315000D01*
X13807000Y-4805000D02*
X13837000Y-4835000D01*
X13837000Y-4805000D02*
X13807000Y-4835000D01*
X14315000Y-4805000D02*
X14345000Y-4835000D01*
X14345000Y-4805000D02*
X14315000Y-4835000D01*
X23965000Y-8595000D02*
X23995000Y-8625000D01*
X23995000Y-8595000D02*
X23965000Y-8625000D01*
X24219000Y-8595000D02*
X24249000Y-8625000D01*
X24249000Y-8595000D02*
X24219000Y-8625000D01*
X22972000Y-8367000D02*
X23002000Y-8397000D01*
X23002000Y-8367000D02*
X22972000Y-8397000D01*
X23226000Y-8367000D02*
X23256000Y-8397000D01*
X23256000Y-8367000D02*
X23226000Y-8397000D01*
X18209500Y-8557500D02*
X18239500Y-8587500D01*
X18239500Y-8557500D02*
X18209500Y-8587500D01*
X18463500Y-8557500D02*
X18493500Y-8587500D01*
X18493500Y-8557500D02*
X18463500Y-8587500D01*
X22972000Y-10335500D02*
X23002000Y-10365500D01*
X23002000Y-10335500D02*
X22972000Y-10365500D01*
X23226000Y-10335500D02*
X23256000Y-10365500D01*
X23256000Y-10335500D02*
X23226000Y-10365500D01*
X18527000Y-7986000D02*
X18557000Y-8016000D01*
X18557000Y-7986000D02*
X18527000Y-8016000D01*
X18781000Y-7986000D02*
X18811000Y-8016000D01*
X18811000Y-7986000D02*
X18781000Y-8016000D01*
X16475000Y-6240000D02*
X16505000Y-6270000D01*
X16505000Y-6240000D02*
X16475000Y-6270000D01*
X22317000Y-6058000D02*
X22347000Y-6088000D01*
X22347000Y-6058000D02*
X22317000Y-6088000D01*
X22571000Y-6058000D02*
X22601000Y-6088000D01*
X22601000Y-6058000D02*
X22571000Y-6088000D01*
X22825000Y-6058000D02*
X22855000Y-6088000D01*
X22855000Y-6058000D02*
X22825000Y-6088000D01*
X12205000Y-9255000D02*
X12235000Y-9285000D01*
X12235000Y-9255000D02*
X12205000Y-9285000D01*
X12205000Y-10755000D02*
X12235000Y-10785000D01*
X12235000Y-10755000D02*
X12205000Y-10785000D01*
X13705000Y-9755000D02*
X13735000Y-9785000D01*
X13735000Y-9755000D02*
X13705000Y-9785000D01*
X13705000Y-10255000D02*
X13735000Y-10285000D01*
X13735000Y-10255000D02*
X13705000Y-10285000D01*
X23099000Y-9510000D02*
X23129000Y-9540000D01*
X23129000Y-9510000D02*
X23099000Y-9540000D01*
X23353000Y-9510000D02*
X23383000Y-9540000D01*
X23383000Y-9510000D02*
X23353000Y-9540000D01*
X19485545Y-7825140D02*
X19515545Y-7855140D01*
X19515545Y-7825140D02*
X19485545Y-7855140D01*
X19485545Y-8079140D02*
X19515545Y-8109140D01*
X19515545Y-8079140D02*
X19485545Y-8109140D01*
X19485545Y-8333140D02*
X19515545Y-8363140D01*
X19515545Y-8333140D02*
X19485545Y-8363140D01*
X19485545Y-8587141D02*
X19515545Y-8617141D01*
X19515545Y-8587141D02*
X19485545Y-8617141D01*
X19485545Y-8841141D02*
X19515545Y-8871141D01*
X19515545Y-8841141D02*
X19485545Y-8871141D01*
X19485545Y-9095141D02*
X19515545Y-9125141D01*
X19515545Y-9095141D02*
X19485545Y-9125141D01*
X19485545Y-9349141D02*
X19515545Y-9379141D01*
X19515545Y-9349141D02*
X19485545Y-9379141D01*
X19485545Y-9603141D02*
X19515545Y-9633141D01*
X19515545Y-9603141D02*
X19485545Y-9633141D01*
X19485545Y-9857141D02*
X19515545Y-9887141D01*
X19515545Y-9857141D02*
X19485545Y-9887141D01*
X19485545Y-10111141D02*
X19515545Y-10141141D01*
X19515545Y-10111141D02*
X19485545Y-10141141D01*
X19485545Y-10365141D02*
X19515545Y-10395141D01*
X19515545Y-10365141D02*
X19485545Y-10395141D01*
X19485545Y-10619141D02*
X19515545Y-10649141D01*
X19515545Y-10619141D02*
X19485545Y-10649141D01*
X19485545Y-10873141D02*
X19515545Y-10903141D01*
X19515545Y-10873141D02*
X19485545Y-10903141D01*
X19485545Y-11127141D02*
X19515545Y-11157141D01*
X19515545Y-11127141D02*
X19485545Y-11157141D01*
X19485545Y-11381140D02*
X19515545Y-11411140D01*
X19515545Y-11381140D02*
X19485545Y-11411140D01*
X21864732Y-7817011D02*
X21894732Y-7847011D01*
X21894732Y-7817011D02*
X21864732Y-7847011D01*
X21864732Y-8071011D02*
X21894732Y-8101011D01*
X21894732Y-8071011D02*
X21864732Y-8101011D01*
X21864732Y-8325011D02*
X21894732Y-8355011D01*
X21894732Y-8325011D02*
X21864732Y-8355011D01*
X21864732Y-8579012D02*
X21894732Y-8609012D01*
X21894732Y-8579012D02*
X21864732Y-8609012D01*
X21864732Y-8833012D02*
X21894732Y-8863012D01*
X21894732Y-8833012D02*
X21864732Y-8863012D01*
X21864732Y-9087012D02*
X21894732Y-9117012D01*
X21894732Y-9087012D02*
X21864732Y-9117012D01*
X21864732Y-9341012D02*
X21894732Y-9371012D01*
X21894732Y-9341012D02*
X21864732Y-9371012D01*
X21864732Y-9595012D02*
X21894732Y-9625012D01*
X21894732Y-9595012D02*
X21864732Y-9625012D01*
X21864732Y-9849012D02*
X21894732Y-9879012D01*
X21894732Y-9849012D02*
X21864732Y-9879012D01*
X21864732Y-10103012D02*
X21894732Y-10133012D01*
X21894732Y-10103012D02*
X21864732Y-10133012D01*
X21864732Y-10357012D02*
X21894732Y-10387012D01*
X21894732Y-10357012D02*
X21864732Y-10387012D01*
X21864732Y-10611012D02*
X21894732Y-10641012D01*
X21894732Y-10611012D02*
X21864732Y-10641012D01*
X21864732Y-10865012D02*
X21894732Y-10895012D01*
X21894732Y-10865012D02*
X21864732Y-10895012D01*
X21864732Y-11119012D02*
X21894732Y-11149012D01*
X21894732Y-11119012D02*
X21864732Y-11149012D01*
X21864732Y-11373011D02*
X21894732Y-11403011D01*
X21894732Y-11373011D02*
X21864732Y-11403011D01*
X23945000Y-10149000D02*
X23975000Y-10179000D01*
X23975000Y-10149000D02*
X23945000Y-10179000D01*
X23945000Y-10403000D02*
X23975000Y-10433000D01*
X23975000Y-10403000D02*
X23945000Y-10433000D01*
X23945000Y-10657000D02*
X23975000Y-10687000D01*
X23975000Y-10657000D02*
X23945000Y-10687000D01*
X23945000Y-10911000D02*
X23975000Y-10941000D01*
X23975000Y-10911000D02*
X23945000Y-10941000D01*
X23945000Y-11165000D02*
X23975000Y-11195000D01*
X23975000Y-11165000D02*
X23945000Y-11195000D01*
X24199000Y-10149000D02*
X24229000Y-10179000D01*
X24229000Y-10149000D02*
X24199000Y-10179000D01*
X24199000Y-10403000D02*
X24229000Y-10433000D01*
X24229000Y-10403000D02*
X24199000Y-10433000D01*
X24199000Y-10657000D02*
X24229000Y-10687000D01*
X24229000Y-10657000D02*
X24199000Y-10687000D01*
X24199000Y-10911000D02*
X24229000Y-10941000D01*
X24229000Y-10911000D02*
X24199000Y-10941000D01*
X24199000Y-11165000D02*
X24229000Y-11195000D01*
X24229000Y-11165000D02*
X24199000Y-11195000D01*
X15463000Y-4785000D02*
X15493000Y-4815000D01*
X15493000Y-4785000D02*
X15463000Y-4815000D01*
X15463000Y-5125000D02*
X15493000Y-5155000D01*
X15493000Y-5125000D02*
X15463000Y-5155000D01*
X16455000Y-4785000D02*
X16485000Y-4815000D01*
X16485000Y-4785000D02*
X16455000Y-4815000D01*
X16455000Y-5125000D02*
X16485000Y-5155000D01*
X16485000Y-5125000D02*
X16455000Y-5155000D01*
X12015000Y-6415000D02*
X12045000Y-6445000D01*
X12045000Y-6415000D02*
X12015000Y-6445000D01*
X12015000Y-6923000D02*
X12045000Y-6953000D01*
X12045000Y-6923000D02*
X12015000Y-6953000D01*
X11965000Y-9045000D02*
X11995000Y-9075000D01*
X11995000Y-9045000D02*
X11965000Y-9075000D01*
X11965000Y-11045000D02*
X11995000Y-11075000D01*
X11995000Y-11045000D02*
X11965000Y-11075000D01*
X13965000Y-9545000D02*
X13995000Y-9575000D01*
X13995000Y-9545000D02*
X13965000Y-9575000D01*
X13965000Y-10545000D02*
X13995000Y-10575000D01*
X13995000Y-10545000D02*
X13965000Y-10575000D01*
D12*
X11233928Y-13628214D02*
X11233928Y-13328214D01*
X11305357Y-13328214D01*
X11348214Y-13342500D01*
X11376786Y-13371071D01*
X11391071Y-13399643D01*
X11405357Y-13456786D01*
X11405357Y-13499643D01*
X11391071Y-13556786D01*
X11376786Y-13585357D01*
X11348214Y-13613929D01*
X11305357Y-13628214D01*
X11233928Y-13628214D01*
X11533928Y-13628214D02*
X11533928Y-13428214D01*
X11533928Y-13485357D02*
X11548214Y-13456786D01*
X11562500Y-13442500D01*
X11591071Y-13428214D01*
X11619643Y-13428214D01*
X11719643Y-13628214D02*
X11719643Y-13428214D01*
X11719643Y-13328214D02*
X11705357Y-13342500D01*
X11719643Y-13356786D01*
X11733928Y-13342500D01*
X11719643Y-13328214D01*
X11719643Y-13356786D01*
X11905357Y-13628214D02*
X11876786Y-13613929D01*
X11862500Y-13585357D01*
X11862500Y-13328214D01*
X12062500Y-13628214D02*
X12033928Y-13613929D01*
X12019643Y-13585357D01*
X12019643Y-13328214D01*
X12405357Y-13628214D02*
X12405357Y-13328214D01*
X12505357Y-13542500D01*
X12605357Y-13328214D01*
X12605357Y-13628214D01*
X12876786Y-13628214D02*
X12876786Y-13471071D01*
X12862500Y-13442500D01*
X12833928Y-13428214D01*
X12776786Y-13428214D01*
X12748214Y-13442500D01*
X12876786Y-13613929D02*
X12848214Y-13628214D01*
X12776786Y-13628214D01*
X12748214Y-13613929D01*
X12733928Y-13585357D01*
X12733928Y-13556786D01*
X12748214Y-13528214D01*
X12776786Y-13513929D01*
X12848214Y-13513929D01*
X12876786Y-13499643D01*
X13019643Y-13428214D02*
X13019643Y-13728214D01*
X13019643Y-13442500D02*
X13048214Y-13428214D01*
X13105357Y-13428214D01*
X13133928Y-13442500D01*
X13148214Y-13456786D01*
X13162500Y-13485357D01*
X13162500Y-13571071D01*
X13148214Y-13599643D01*
X13133928Y-13613929D01*
X13105357Y-13628214D01*
X13048214Y-13628214D01*
X13019643Y-13613929D01*
X13291071Y-13599643D02*
X13305357Y-13613929D01*
X13291071Y-13628214D01*
X13276786Y-13613929D01*
X13291071Y-13599643D01*
X13291071Y-13628214D01*
X13291071Y-13442500D02*
X13305357Y-13456786D01*
X13291071Y-13471071D01*
X13276786Y-13456786D01*
X13291071Y-13442500D01*
X13291071Y-13471071D01*
X10917500Y-14107500D02*
X10947500Y-14137500D01*
X10947500Y-14107500D02*
X10917500Y-14137500D01*
X11291071Y-13958214D02*
X11319643Y-13958214D01*
X11348214Y-13972500D01*
X11362500Y-13986786D01*
X11376786Y-14015357D01*
X11391071Y-14072500D01*
X11391071Y-14143929D01*
X11376786Y-14201071D01*
X11362500Y-14229643D01*
X11348214Y-14243929D01*
X11319643Y-14258214D01*
X11291071Y-14258214D01*
X11262500Y-14243929D01*
X11248214Y-14229643D01*
X11233928Y-14201071D01*
X11219643Y-14143929D01*
X11219643Y-14072500D01*
X11233928Y-14015357D01*
X11248214Y-13986786D01*
X11262500Y-13972500D01*
X11291071Y-13958214D01*
X11519643Y-14229643D02*
X11533928Y-14243929D01*
X11519643Y-14258214D01*
X11505357Y-14243929D01*
X11519643Y-14229643D01*
X11519643Y-14258214D01*
X11633928Y-13958214D02*
X11819643Y-13958214D01*
X11719643Y-14072500D01*
X11762500Y-14072500D01*
X11791071Y-14086786D01*
X11805357Y-14101071D01*
X11819643Y-14129643D01*
X11819643Y-14201071D01*
X11805357Y-14229643D01*
X11791071Y-14243929D01*
X11762500Y-14258214D01*
X11676786Y-14258214D01*
X11648214Y-14243929D01*
X11633928Y-14229643D01*
X12005357Y-13958214D02*
X12033928Y-13958214D01*
X12062500Y-13972500D01*
X12076786Y-13986786D01*
X12091071Y-14015357D01*
X12105357Y-14072500D01*
X12105357Y-14143929D01*
X12091071Y-14201071D01*
X12076786Y-14229643D01*
X12062500Y-14243929D01*
X12033928Y-14258214D01*
X12005357Y-14258214D01*
X11976786Y-14243929D01*
X11962500Y-14229643D01*
X11948214Y-14201071D01*
X11933928Y-14143929D01*
X11933928Y-14072500D01*
X11948214Y-14015357D01*
X11962500Y-13986786D01*
X11976786Y-13972500D01*
X12005357Y-13958214D01*
X12233928Y-14258214D02*
X12233928Y-14058214D01*
X12233928Y-14086786D02*
X12248214Y-14072500D01*
X12276786Y-14058214D01*
X12319643Y-14058214D01*
X12348214Y-14072500D01*
X12362500Y-14101071D01*
X12362500Y-14258214D01*
X12362500Y-14101071D02*
X12376786Y-14072500D01*
X12405357Y-14058214D01*
X12448214Y-14058214D01*
X12476786Y-14072500D01*
X12491071Y-14101071D01*
X12491071Y-14258214D01*
X12633928Y-14258214D02*
X12633928Y-14058214D01*
X12633928Y-14086786D02*
X12648214Y-14072500D01*
X12676786Y-14058214D01*
X12719643Y-14058214D01*
X12748214Y-14072500D01*
X12762500Y-14101071D01*
X12762500Y-14258214D01*
X12762500Y-14101071D02*
X12776786Y-14072500D01*
X12805357Y-14058214D01*
X12848214Y-14058214D01*
X12876786Y-14072500D01*
X12891071Y-14101071D01*
X12891071Y-14258214D01*
X13476786Y-13943929D02*
X13219643Y-14329643D01*
X13862500Y-13958214D02*
X13891071Y-13958214D01*
X13919643Y-13972500D01*
X13933928Y-13986786D01*
X13948214Y-14015357D01*
X13962500Y-14072500D01*
X13962500Y-14143929D01*
X13948214Y-14201071D01*
X13933928Y-14229643D01*
X13919643Y-14243929D01*
X13891071Y-14258214D01*
X13862500Y-14258214D01*
X13833928Y-14243929D01*
X13819643Y-14229643D01*
X13805357Y-14201071D01*
X13791071Y-14143929D01*
X13791071Y-14072500D01*
X13805357Y-14015357D01*
X13819643Y-13986786D01*
X13833928Y-13972500D01*
X13862500Y-13958214D01*
X14091071Y-14229643D02*
X14105357Y-14243929D01*
X14091071Y-14258214D01*
X14076786Y-14243929D01*
X14091071Y-14229643D01*
X14091071Y-14258214D01*
X14291071Y-13958214D02*
X14319643Y-13958214D01*
X14348214Y-13972500D01*
X14362500Y-13986786D01*
X14376786Y-14015357D01*
X14391071Y-14072500D01*
X14391071Y-14143929D01*
X14376786Y-14201071D01*
X14362500Y-14229643D01*
X14348214Y-14243929D01*
X14319643Y-14258214D01*
X14291071Y-14258214D01*
X14262500Y-14243929D01*
X14248214Y-14229643D01*
X14233928Y-14201071D01*
X14219643Y-14143929D01*
X14219643Y-14072500D01*
X14233928Y-14015357D01*
X14248214Y-13986786D01*
X14262500Y-13972500D01*
X14291071Y-13958214D01*
X14676786Y-14258214D02*
X14505357Y-14258214D01*
X14591071Y-14258214D02*
X14591071Y-13958214D01*
X14562500Y-14001071D01*
X14533928Y-14029643D01*
X14505357Y-14043929D01*
X14791071Y-13986786D02*
X14805357Y-13972500D01*
X14833928Y-13958214D01*
X14905357Y-13958214D01*
X14933928Y-13972500D01*
X14948214Y-13986786D01*
X14962500Y-14015357D01*
X14962500Y-14043929D01*
X14948214Y-14086786D01*
X14776786Y-14258214D01*
X14962500Y-14258214D01*
X15076786Y-13958214D02*
X15076786Y-14015357D01*
X15191071Y-13958214D02*
X15191071Y-14015357D01*
X15633928Y-14372500D02*
X15619643Y-14358214D01*
X15591071Y-14315357D01*
X15576786Y-14286786D01*
X15562500Y-14243929D01*
X15548214Y-14172500D01*
X15548214Y-14115357D01*
X15562500Y-14043929D01*
X15576786Y-14001071D01*
X15591071Y-13972500D01*
X15619643Y-13929643D01*
X15633928Y-13915357D01*
X15905357Y-14258214D02*
X15733928Y-14258214D01*
X15819643Y-14258214D02*
X15819643Y-13958214D01*
X15791071Y-14001071D01*
X15762500Y-14029643D01*
X15733928Y-14043929D01*
X16048214Y-14258214D02*
X16105357Y-14258214D01*
X16133928Y-14243929D01*
X16148214Y-14229643D01*
X16176786Y-14186786D01*
X16191071Y-14129643D01*
X16191071Y-14015357D01*
X16176786Y-13986786D01*
X16162500Y-13972500D01*
X16133928Y-13958214D01*
X16076786Y-13958214D01*
X16048214Y-13972500D01*
X16033928Y-13986786D01*
X16019643Y-14015357D01*
X16019643Y-14086786D01*
X16033928Y-14115357D01*
X16048214Y-14129643D01*
X16076786Y-14143929D01*
X16133928Y-14143929D01*
X16162500Y-14129643D01*
X16176786Y-14115357D01*
X16191071Y-14086786D01*
X16376786Y-13958214D02*
X16405357Y-13958214D01*
X16433928Y-13972500D01*
X16448214Y-13986786D01*
X16462500Y-14015357D01*
X16476786Y-14072500D01*
X16476786Y-14143929D01*
X16462500Y-14201071D01*
X16448214Y-14229643D01*
X16433928Y-14243929D01*
X16405357Y-14258214D01*
X16376786Y-14258214D01*
X16348214Y-14243929D01*
X16333928Y-14229643D01*
X16319643Y-14201071D01*
X16305357Y-14143929D01*
X16305357Y-14072500D01*
X16319643Y-14015357D01*
X16333928Y-13986786D01*
X16348214Y-13972500D01*
X16376786Y-13958214D01*
X16833928Y-14258214D02*
X16833928Y-13958214D01*
X16962500Y-14258214D02*
X16962500Y-14101071D01*
X16948214Y-14072500D01*
X16919643Y-14058214D01*
X16876786Y-14058214D01*
X16848214Y-14072500D01*
X16833928Y-14086786D01*
X17148214Y-14258214D02*
X17119643Y-14243929D01*
X17105357Y-14229643D01*
X17091071Y-14201071D01*
X17091071Y-14115357D01*
X17105357Y-14086786D01*
X17119643Y-14072500D01*
X17148214Y-14058214D01*
X17191071Y-14058214D01*
X17219643Y-14072500D01*
X17233928Y-14086786D01*
X17248214Y-14115357D01*
X17248214Y-14201071D01*
X17233928Y-14229643D01*
X17219643Y-14243929D01*
X17191071Y-14258214D01*
X17148214Y-14258214D01*
X17419643Y-14258214D02*
X17391071Y-14243929D01*
X17376786Y-14215357D01*
X17376786Y-13958214D01*
X17648214Y-14243929D02*
X17619643Y-14258214D01*
X17562500Y-14258214D01*
X17533928Y-14243929D01*
X17519643Y-14215357D01*
X17519643Y-14101071D01*
X17533928Y-14072500D01*
X17562500Y-14058214D01*
X17619643Y-14058214D01*
X17648214Y-14072500D01*
X17662500Y-14101071D01*
X17662500Y-14129643D01*
X17519643Y-14158214D01*
X17776786Y-14243929D02*
X17805357Y-14258214D01*
X17862500Y-14258214D01*
X17891071Y-14243929D01*
X17905357Y-14215357D01*
X17905357Y-14201071D01*
X17891071Y-14172500D01*
X17862500Y-14158214D01*
X17819643Y-14158214D01*
X17791071Y-14143929D01*
X17776786Y-14115357D01*
X17776786Y-14101071D01*
X17791071Y-14072500D01*
X17819643Y-14058214D01*
X17862500Y-14058214D01*
X17891071Y-14072500D01*
X18005357Y-14372500D02*
X18019643Y-14358214D01*
X18048214Y-14315357D01*
X18062500Y-14286786D01*
X18076786Y-14243929D01*
X18091071Y-14172500D01*
X18091071Y-14115357D01*
X18076786Y-14043929D01*
X18062500Y-14001071D01*
X18048214Y-13972500D01*
X18019643Y-13929643D01*
X18005357Y-13915357D01*
M02*
