%FSLAX45Y45*%
G04 Gerber Fmt 4.5, Leading zero omitted, Abs format (unit mm)*
G04 Created by KiCad (PCBNEW (6.0.0-rc1-dev-1444-gad0d9f8df)) date 02/01/2019 13:44:04*
%MOMM*%
%LPD*%
G04 APERTURE LIST*
%ADD10C,0.050000*%
%ADD11C,0.200000*%
%ADD12C,0.300000*%
G04 APERTURE END LIST*
D10*
X10950000Y-4250000D02*
X25180000Y-4250000D01*
X25180000Y-13160000D02*
X25180000Y-4250000D01*
X10950000Y-13160000D02*
X25180000Y-13160000D01*
X10950000Y-4250000D02*
X10950000Y-13160000D01*
D11*
X14417300Y-7269900D02*
X14493500Y-7346100D01*
X14493500Y-7269900D02*
X14417300Y-7346100D01*
X19540545Y-7840140D02*
G75*
G03X19540545Y-7840140I-40000J0D01*
G01*
X19540545Y-8094140D02*
G75*
G03X19540545Y-8094140I-40000J0D01*
G01*
X19540545Y-8348140D02*
G75*
G03X19540545Y-8348140I-40000J0D01*
G01*
X19540545Y-8602141D02*
G75*
G03X19540545Y-8602141I-40000J0D01*
G01*
X19540545Y-8856141D02*
G75*
G03X19540545Y-8856141I-40000J0D01*
G01*
X19540545Y-9110141D02*
G75*
G03X19540545Y-9110141I-40000J0D01*
G01*
X19540545Y-9364141D02*
G75*
G03X19540545Y-9364141I-40000J0D01*
G01*
X19540545Y-9618141D02*
G75*
G03X19540545Y-9618141I-40000J0D01*
G01*
X19540545Y-9872141D02*
G75*
G03X19540545Y-9872141I-40000J0D01*
G01*
X19540545Y-10126141D02*
G75*
G03X19540545Y-10126141I-40000J0D01*
G01*
X19540545Y-10380141D02*
G75*
G03X19540545Y-10380141I-40000J0D01*
G01*
X19540545Y-10634141D02*
G75*
G03X19540545Y-10634141I-40000J0D01*
G01*
X19540545Y-10888141D02*
G75*
G03X19540545Y-10888141I-40000J0D01*
G01*
X19540545Y-11142141D02*
G75*
G03X19540545Y-11142141I-40000J0D01*
G01*
X19540545Y-11396140D02*
G75*
G03X19540545Y-11396140I-40000J0D01*
G01*
X21919732Y-7832011D02*
G75*
G03X21919732Y-7832011I-40000J0D01*
G01*
X21919732Y-8086011D02*
G75*
G03X21919732Y-8086011I-40000J0D01*
G01*
X21919732Y-8340011D02*
G75*
G03X21919732Y-8340011I-40000J0D01*
G01*
X21919732Y-8594012D02*
G75*
G03X21919732Y-8594012I-40000J0D01*
G01*
X21919732Y-8848012D02*
G75*
G03X21919732Y-8848012I-40000J0D01*
G01*
X21919732Y-9102012D02*
G75*
G03X21919732Y-9102012I-40000J0D01*
G01*
X21919732Y-9356012D02*
G75*
G03X21919732Y-9356012I-40000J0D01*
G01*
X21919732Y-9610012D02*
G75*
G03X21919732Y-9610012I-40000J0D01*
G01*
X21919732Y-9864012D02*
G75*
G03X21919732Y-9864012I-40000J0D01*
G01*
X21919732Y-10118012D02*
G75*
G03X21919732Y-10118012I-40000J0D01*
G01*
X21919732Y-10372012D02*
G75*
G03X21919732Y-10372012I-40000J0D01*
G01*
X21919732Y-10626012D02*
G75*
G03X21919732Y-10626012I-40000J0D01*
G01*
X21919732Y-10880012D02*
G75*
G03X21919732Y-10880012I-40000J0D01*
G01*
X21919732Y-11134012D02*
G75*
G03X21919732Y-11134012I-40000J0D01*
G01*
X21919732Y-11388011D02*
G75*
G03X21919732Y-11388011I-40000J0D01*
G01*
X15710000Y-11650000D02*
G75*
G03X15710000Y-11650000I-40000J0D01*
G01*
X15964000Y-11650000D02*
G75*
G03X15964000Y-11650000I-40000J0D01*
G01*
X16218000Y-11650000D02*
G75*
G03X16218000Y-11650000I-40000J0D01*
G01*
X14455400Y-6175300D02*
X14455400Y-6256300D01*
X14414900Y-6215800D02*
X14495900Y-6215800D01*
X14455400Y-8080300D02*
X14455400Y-8161300D01*
X14414900Y-8120800D02*
X14495900Y-8120800D01*
X15446000Y-6378500D02*
X15446000Y-6459500D01*
X15405500Y-6419000D02*
X15486500Y-6419000D01*
X15446000Y-7877100D02*
X15446000Y-7958100D01*
X15405500Y-7917600D02*
X15486500Y-7917600D01*
X14255820Y-7334320D02*
X14255820Y-7270680D01*
X14192180Y-7270680D01*
X14192180Y-7334320D01*
X14255820Y-7334320D01*
X14763820Y-6254820D02*
X14763820Y-6191180D01*
X14700180Y-6191180D01*
X14700180Y-6254820D01*
X14763820Y-6254820D01*
X14763820Y-8159820D02*
X14763820Y-8096180D01*
X14700180Y-8096180D01*
X14700180Y-8159820D01*
X14763820Y-8159820D01*
X15525820Y-12096820D02*
X15525820Y-12033180D01*
X15462180Y-12033180D01*
X15462180Y-12096820D01*
X15525820Y-12096820D01*
X15716320Y-12096820D02*
X15716320Y-12033180D01*
X15652680Y-12033180D01*
X15652680Y-12096820D01*
X15716320Y-12096820D01*
X15970320Y-12096820D02*
X15970320Y-12033180D01*
X15906680Y-12033180D01*
X15906680Y-12096820D01*
X15970320Y-12096820D01*
X15970320Y-12287320D02*
X15970320Y-12223680D01*
X15906680Y-12223680D01*
X15906680Y-12287320D01*
X15970320Y-12287320D01*
X16224320Y-12096820D02*
X16224320Y-12033180D01*
X16160680Y-12033180D01*
X16160680Y-12096820D01*
X16224320Y-12096820D01*
X16414820Y-12096820D02*
X16414820Y-12033180D01*
X16351180Y-12033180D01*
X16351180Y-12096820D01*
X16414820Y-12096820D01*
X16605320Y-7207320D02*
X16605320Y-7143680D01*
X16541680Y-7143680D01*
X16541680Y-7207320D01*
X16605320Y-7207320D01*
X16795820Y-7207320D02*
X16795820Y-7143680D01*
X16732180Y-7143680D01*
X16732180Y-7207320D01*
X16795820Y-7207320D01*
X17031820Y-8711820D02*
X17031820Y-8648180D01*
X16968180Y-8648180D01*
X16968180Y-8711820D01*
X17031820Y-8711820D01*
X17563700Y-6679410D02*
X17563700Y-6615770D01*
X17500060Y-6615770D01*
X17500060Y-6679410D01*
X17563700Y-6679410D01*
X17684820Y-5048320D02*
X17684820Y-4984680D01*
X17621180Y-4984680D01*
X17621180Y-5048320D01*
X17684820Y-5048320D01*
X17748320Y-11398320D02*
X17748320Y-11334680D01*
X17684680Y-11334680D01*
X17684680Y-11398320D01*
X17748320Y-11398320D01*
X17875320Y-5048320D02*
X17875320Y-4984680D01*
X17811680Y-4984680D01*
X17811680Y-5048320D01*
X17875320Y-5048320D01*
X17875320Y-5365820D02*
X17875320Y-5302180D01*
X17811680Y-5302180D01*
X17811680Y-5365820D01*
X17875320Y-5365820D01*
X17875320Y-5556320D02*
X17875320Y-5492680D01*
X17811680Y-5492680D01*
X17811680Y-5556320D01*
X17875320Y-5556320D01*
X17938820Y-11398320D02*
X17938820Y-11334680D01*
X17875180Y-11334680D01*
X17875180Y-11398320D01*
X17938820Y-11398320D01*
X18811820Y-6261820D02*
X18811820Y-6198180D01*
X18748180Y-6198180D01*
X18748180Y-6261820D01*
X18811820Y-6261820D01*
X18827820Y-8858320D02*
X18827820Y-8794680D01*
X18764180Y-8794680D01*
X18764180Y-8858320D01*
X18827820Y-8858320D01*
X18827820Y-9112320D02*
X18827820Y-9048680D01*
X18764180Y-9048680D01*
X18764180Y-9112320D01*
X18827820Y-9112320D01*
X18827820Y-9366320D02*
X18827820Y-9302680D01*
X18764180Y-9302680D01*
X18764180Y-9366320D01*
X18827820Y-9366320D01*
X18827820Y-9620320D02*
X18827820Y-9556680D01*
X18764180Y-9556680D01*
X18764180Y-9620320D01*
X18827820Y-9620320D01*
X18827820Y-9874320D02*
X18827820Y-9810680D01*
X18764180Y-9810680D01*
X18764180Y-9874320D01*
X18827820Y-9874320D01*
X18827820Y-10128320D02*
X18827820Y-10064680D01*
X18764180Y-10064680D01*
X18764180Y-10128320D01*
X18827820Y-10128320D01*
X18827820Y-10382320D02*
X18827820Y-10318680D01*
X18764180Y-10318680D01*
X18764180Y-10382320D01*
X18827820Y-10382320D01*
X18827820Y-10636320D02*
X18827820Y-10572680D01*
X18764180Y-10572680D01*
X18764180Y-10636320D01*
X18827820Y-10636320D01*
X18827820Y-10890320D02*
X18827820Y-10826680D01*
X18764180Y-10826680D01*
X18764180Y-10890320D01*
X18827820Y-10890320D01*
X18827820Y-11144320D02*
X18827820Y-11080680D01*
X18764180Y-11080680D01*
X18764180Y-11144320D01*
X18827820Y-11144320D01*
X18827820Y-11461820D02*
X18827820Y-11398180D01*
X18764180Y-11398180D01*
X18764180Y-11461820D01*
X18827820Y-11461820D01*
X19018320Y-8858320D02*
X19018320Y-8794680D01*
X18954680Y-8794680D01*
X18954680Y-8858320D01*
X19018320Y-8858320D01*
X19018320Y-9112320D02*
X19018320Y-9048680D01*
X18954680Y-9048680D01*
X18954680Y-9112320D01*
X19018320Y-9112320D01*
X19018320Y-9366320D02*
X19018320Y-9302680D01*
X18954680Y-9302680D01*
X18954680Y-9366320D01*
X19018320Y-9366320D01*
X19018320Y-9620320D02*
X19018320Y-9556680D01*
X18954680Y-9556680D01*
X18954680Y-9620320D01*
X19018320Y-9620320D01*
X19018320Y-9874320D02*
X19018320Y-9810680D01*
X18954680Y-9810680D01*
X18954680Y-9874320D01*
X19018320Y-9874320D01*
X19018320Y-10128320D02*
X19018320Y-10064680D01*
X18954680Y-10064680D01*
X18954680Y-10128320D01*
X19018320Y-10128320D01*
X19018320Y-10382320D02*
X19018320Y-10318680D01*
X18954680Y-10318680D01*
X18954680Y-10382320D01*
X19018320Y-10382320D01*
X19018320Y-10636320D02*
X19018320Y-10572680D01*
X18954680Y-10572680D01*
X18954680Y-10636320D01*
X19018320Y-10636320D01*
X19018320Y-10890320D02*
X19018320Y-10826680D01*
X18954680Y-10826680D01*
X18954680Y-10890320D01*
X19018320Y-10890320D01*
X19018320Y-11144320D02*
X19018320Y-11080680D01*
X18954680Y-11080680D01*
X18954680Y-11144320D01*
X19018320Y-11144320D01*
X19018320Y-11461820D02*
X19018320Y-11398180D01*
X18954680Y-11398180D01*
X18954680Y-11461820D01*
X19018320Y-11461820D01*
X19081820Y-5048320D02*
X19081820Y-4984680D01*
X19018180Y-4984680D01*
X19018180Y-5048320D01*
X19081820Y-5048320D01*
X19081820Y-5365820D02*
X19081820Y-5302180D01*
X19018180Y-5302180D01*
X19018180Y-5365820D01*
X19081820Y-5365820D01*
X19081820Y-5556320D02*
X19081820Y-5492680D01*
X19018180Y-5492680D01*
X19018180Y-5556320D01*
X19081820Y-5556320D01*
X19272320Y-5048320D02*
X19272320Y-4984680D01*
X19208680Y-4984680D01*
X19208680Y-5048320D01*
X19272320Y-5048320D01*
X19881820Y-6431820D02*
X19881820Y-6368180D01*
X19818180Y-6368180D01*
X19818180Y-6431820D01*
X19881820Y-6431820D01*
X20086730Y-6750350D02*
X20086730Y-6686710D01*
X20023090Y-6686710D01*
X20023090Y-6750350D01*
X20086730Y-6750350D01*
X20231580Y-6951740D02*
X20231580Y-6888100D01*
X20167940Y-6888100D01*
X20167940Y-6951740D01*
X20231580Y-6951740D01*
X20699480Y-12295310D02*
X20699480Y-12231670D01*
X20635840Y-12231670D01*
X20635840Y-12295310D01*
X20699480Y-12295310D01*
X21227960Y-12295310D02*
X21227960Y-12231670D01*
X21164320Y-12231670D01*
X21164320Y-12295310D01*
X21227960Y-12295310D01*
X21447030Y-8027050D02*
X21447030Y-7963410D01*
X21383390Y-7963410D01*
X21383390Y-8027050D01*
X21447030Y-8027050D01*
X21531690Y-12378990D02*
X21531690Y-12315350D01*
X21468050Y-12315350D01*
X21468050Y-12378990D01*
X21531690Y-12378990D01*
X21611820Y-4891820D02*
X21611820Y-4828180D01*
X21548180Y-4828180D01*
X21548180Y-4891820D01*
X21611820Y-4891820D01*
X22129820Y-5746820D02*
X22129820Y-5683180D01*
X22066180Y-5683180D01*
X22066180Y-5746820D01*
X22129820Y-5746820D01*
X22149840Y-12237310D02*
X22149840Y-12173670D01*
X22086200Y-12173670D01*
X22086200Y-12237310D01*
X22149840Y-12237310D01*
X22320320Y-5746820D02*
X22320320Y-5683180D01*
X22256680Y-5683180D01*
X22256680Y-5746820D01*
X22320320Y-5746820D01*
X22447320Y-9112320D02*
X22447320Y-9048680D01*
X22383680Y-9048680D01*
X22383680Y-9112320D01*
X22447320Y-9112320D01*
X22447320Y-9366320D02*
X22447320Y-9302680D01*
X22383680Y-9302680D01*
X22383680Y-9366320D01*
X22447320Y-9366320D01*
X22447320Y-9874320D02*
X22447320Y-9810680D01*
X22383680Y-9810680D01*
X22383680Y-9874320D01*
X22447320Y-9874320D01*
X22447320Y-10128320D02*
X22447320Y-10064680D01*
X22383680Y-10064680D01*
X22383680Y-10128320D01*
X22447320Y-10128320D01*
X22447320Y-10382320D02*
X22447320Y-10318680D01*
X22383680Y-10318680D01*
X22383680Y-10382320D01*
X22447320Y-10382320D01*
X22447320Y-10890320D02*
X22447320Y-10826680D01*
X22383680Y-10826680D01*
X22383680Y-10890320D01*
X22447320Y-10890320D01*
X22447320Y-11144320D02*
X22447320Y-11080680D01*
X22383680Y-11080680D01*
X22383680Y-11144320D01*
X22447320Y-11144320D01*
X22574320Y-11461820D02*
X22574320Y-11398180D01*
X22510680Y-11398180D01*
X22510680Y-11461820D01*
X22574320Y-11461820D01*
X22637820Y-5556320D02*
X22637820Y-5492680D01*
X22574180Y-5492680D01*
X22574180Y-5556320D01*
X22637820Y-5556320D01*
X22637820Y-5746820D02*
X22637820Y-5683180D01*
X22574180Y-5683180D01*
X22574180Y-5746820D01*
X22637820Y-5746820D01*
X22637820Y-9112320D02*
X22637820Y-9048680D01*
X22574180Y-9048680D01*
X22574180Y-9112320D01*
X22637820Y-9112320D01*
X22637820Y-9366320D02*
X22637820Y-9302680D01*
X22574180Y-9302680D01*
X22574180Y-9366320D01*
X22637820Y-9366320D01*
X22637820Y-9874320D02*
X22637820Y-9810680D01*
X22574180Y-9810680D01*
X22574180Y-9874320D01*
X22637820Y-9874320D01*
X22637820Y-10128320D02*
X22637820Y-10064680D01*
X22574180Y-10064680D01*
X22574180Y-10128320D01*
X22637820Y-10128320D01*
X22637820Y-10382320D02*
X22637820Y-10318680D01*
X22574180Y-10318680D01*
X22574180Y-10382320D01*
X22637820Y-10382320D01*
X22637820Y-10890320D02*
X22637820Y-10826680D01*
X22574180Y-10826680D01*
X22574180Y-10890320D01*
X22637820Y-10890320D01*
X22637820Y-11144320D02*
X22637820Y-11080680D01*
X22574180Y-11080680D01*
X22574180Y-11144320D01*
X22637820Y-11144320D01*
X22764820Y-11461820D02*
X22764820Y-11398180D01*
X22701180Y-11398180D01*
X22701180Y-11461820D01*
X22764820Y-11461820D01*
X22997430Y-11362960D02*
X22997430Y-11299320D01*
X22933790Y-11299320D01*
X22933790Y-11362960D01*
X22997430Y-11362960D01*
X23198730Y-6091670D02*
X23198730Y-6028030D01*
X23135090Y-6028030D01*
X23135090Y-6091670D01*
X23198730Y-6091670D01*
X23272820Y-10699820D02*
X23272820Y-10636180D01*
X23209180Y-10636180D01*
X23209180Y-10699820D01*
X23272820Y-10699820D01*
X23272820Y-11398320D02*
X23272820Y-11334680D01*
X23209180Y-11334680D01*
X23209180Y-11398320D01*
X23272820Y-11398320D01*
X23272820Y-11906320D02*
X23272820Y-11842680D01*
X23209180Y-11842680D01*
X23209180Y-11906320D01*
X23272820Y-11906320D01*
X23336320Y-9874320D02*
X23336320Y-9810680D01*
X23272680Y-9810680D01*
X23272680Y-9874320D01*
X23336320Y-9874320D01*
X23336320Y-12414320D02*
X23336320Y-12350680D01*
X23272680Y-12350680D01*
X23272680Y-12414320D01*
X23336320Y-12414320D01*
X23463320Y-10699820D02*
X23463320Y-10636180D01*
X23399680Y-10636180D01*
X23399680Y-10699820D01*
X23463320Y-10699820D01*
X23463320Y-11398320D02*
X23463320Y-11334680D01*
X23399680Y-11334680D01*
X23399680Y-11398320D01*
X23463320Y-11398320D01*
X23463320Y-11906320D02*
X23463320Y-11842680D01*
X23399680Y-11842680D01*
X23399680Y-11906320D01*
X23463320Y-11906320D01*
X23526820Y-9874320D02*
X23526820Y-9810680D01*
X23463180Y-9810680D01*
X23463180Y-9874320D01*
X23526820Y-9874320D01*
X23526820Y-12414320D02*
X23526820Y-12350680D01*
X23463180Y-12350680D01*
X23463180Y-12414320D01*
X23526820Y-12414320D01*
X23730620Y-9489340D02*
X23730620Y-9425700D01*
X23666980Y-9425700D01*
X23666980Y-9489340D01*
X23730620Y-9489340D01*
X23780820Y-8223320D02*
X23780820Y-8159680D01*
X23717180Y-8159680D01*
X23717180Y-8223320D01*
X23780820Y-8223320D01*
X23921120Y-9489340D02*
X23921120Y-9425700D01*
X23857480Y-9425700D01*
X23857480Y-9489340D01*
X23921120Y-9489340D01*
X23971320Y-8223320D02*
X23971320Y-8159680D01*
X23907680Y-8159680D01*
X23907680Y-8223320D01*
X23971320Y-8223320D01*
X24288820Y-5683320D02*
X24288820Y-5619680D01*
X24225180Y-5619680D01*
X24225180Y-5683320D01*
X24288820Y-5683320D01*
X24386320Y-9471880D02*
X24386320Y-9408240D01*
X24322680Y-9408240D01*
X24322680Y-9471880D01*
X24386320Y-9471880D01*
X24479320Y-5683320D02*
X24479320Y-5619680D01*
X24415680Y-5619680D01*
X24415680Y-5683320D01*
X24479320Y-5683320D01*
X24576820Y-9471880D02*
X24576820Y-9408240D01*
X24513180Y-9408240D01*
X24513180Y-9471880D01*
X24576820Y-9471880D01*
X24669820Y-8667820D02*
X24669820Y-8604180D01*
X24606180Y-8604180D01*
X24606180Y-8667820D01*
X24669820Y-8667820D01*
X24762120Y-11146120D02*
X24762120Y-11082480D01*
X24698480Y-11082480D01*
X24698480Y-11146120D01*
X24762120Y-11146120D01*
X24762120Y-11336620D02*
X24762120Y-11272980D01*
X24698480Y-11272980D01*
X24698480Y-11336620D01*
X24762120Y-11336620D01*
X24822220Y-9887020D02*
X24822220Y-9823380D01*
X24758580Y-9823380D01*
X24758580Y-9887020D01*
X24822220Y-9887020D01*
X24822220Y-10090220D02*
X24822220Y-10026580D01*
X24758580Y-10026580D01*
X24758580Y-10090220D01*
X24822220Y-10090220D01*
X24832220Y-10537020D02*
X24832220Y-10473380D01*
X24768580Y-10473380D01*
X24768580Y-10537020D01*
X24832220Y-10537020D01*
X24832220Y-10727520D02*
X24832220Y-10663880D01*
X24768580Y-10663880D01*
X24768580Y-10727520D01*
X24832220Y-10727520D01*
X24860320Y-8667820D02*
X24860320Y-8604180D01*
X24796680Y-8604180D01*
X24796680Y-8667820D01*
X24860320Y-8667820D01*
X12011820Y-9091820D02*
X12011820Y-9028180D01*
X11948180Y-9028180D01*
X11948180Y-9091820D01*
X12011820Y-9091820D01*
X12011820Y-11091820D02*
X12011820Y-11028180D01*
X11948180Y-11028180D01*
X11948180Y-11091820D01*
X12011820Y-11091820D01*
X14011820Y-9591820D02*
X14011820Y-9528180D01*
X13948180Y-9528180D01*
X13948180Y-9591820D01*
X14011820Y-9591820D01*
X14011820Y-10591820D02*
X14011820Y-10528180D01*
X13948180Y-10528180D01*
X13948180Y-10591820D01*
X14011820Y-10591820D01*
X12251820Y-9301820D02*
X12251820Y-9238180D01*
X12188180Y-9238180D01*
X12188180Y-9301820D01*
X12251820Y-9301820D01*
X12251820Y-10801820D02*
X12251820Y-10738180D01*
X12188180Y-10738180D01*
X12188180Y-10801820D01*
X12251820Y-10801820D01*
X13751820Y-9801820D02*
X13751820Y-9738180D01*
X13688180Y-9738180D01*
X13688180Y-9801820D01*
X13751820Y-9801820D01*
X13751820Y-10301820D02*
X13751820Y-10238180D01*
X13688180Y-10238180D01*
X13688180Y-10301820D01*
X13751820Y-10301820D01*
X23114000Y-9575000D02*
X23164000Y-9525000D01*
X23114000Y-9475000D01*
X23064000Y-9525000D01*
X23114000Y-9575000D01*
X23368000Y-9575000D02*
X23418000Y-9525000D01*
X23368000Y-9475000D01*
X23318000Y-9525000D01*
X23368000Y-9575000D01*
X18542000Y-8051000D02*
X18592000Y-8001000D01*
X18542000Y-7951000D01*
X18492000Y-8001000D01*
X18542000Y-8051000D01*
X18796000Y-8051000D02*
X18846000Y-8001000D01*
X18796000Y-7951000D01*
X18746000Y-8001000D01*
X18796000Y-8051000D01*
X23177500Y-8889200D02*
X23227500Y-8839200D01*
X23177500Y-8789200D01*
X23127500Y-8839200D01*
X23177500Y-8889200D01*
X23431500Y-8889200D02*
X23481500Y-8839200D01*
X23431500Y-8789200D01*
X23381500Y-8839200D01*
X23431500Y-8889200D01*
X23980000Y-8660000D02*
X24030000Y-8610000D01*
X23980000Y-8560000D01*
X23930000Y-8610000D01*
X23980000Y-8660000D01*
X24234000Y-8660000D02*
X24284000Y-8610000D01*
X24234000Y-8560000D01*
X24184000Y-8610000D01*
X24234000Y-8660000D01*
X18160000Y-5096000D02*
X18210000Y-5046000D01*
X18160000Y-4996000D01*
X18110000Y-5046000D01*
X18160000Y-5096000D01*
X18160000Y-5350000D02*
X18210000Y-5300000D01*
X18160000Y-5250000D01*
X18110000Y-5300000D01*
X18160000Y-5350000D01*
X18730000Y-5096000D02*
X18780000Y-5046000D01*
X18730000Y-4996000D01*
X18680000Y-5046000D01*
X18730000Y-5096000D01*
X18730000Y-5350000D02*
X18780000Y-5300000D01*
X18730000Y-5250000D01*
X18680000Y-5300000D01*
X18730000Y-5350000D01*
X18224500Y-8622500D02*
X18274500Y-8572500D01*
X18224500Y-8522500D01*
X18174500Y-8572500D01*
X18224500Y-8622500D01*
X18478500Y-8622500D02*
X18528500Y-8572500D01*
X18478500Y-8522500D01*
X18428500Y-8572500D01*
X18478500Y-8622500D01*
X22987000Y-8432000D02*
X23037000Y-8382000D01*
X22987000Y-8332000D01*
X22937000Y-8382000D01*
X22987000Y-8432000D01*
X23241000Y-8432000D02*
X23291000Y-8382000D01*
X23241000Y-8332000D01*
X23191000Y-8382000D01*
X23241000Y-8432000D01*
X22332000Y-6123000D02*
X22382000Y-6073000D01*
X22332000Y-6023000D01*
X22282000Y-6073000D01*
X22332000Y-6123000D01*
X22586000Y-6123000D02*
X22636000Y-6073000D01*
X22586000Y-6023000D01*
X22536000Y-6073000D01*
X22586000Y-6123000D01*
X22840000Y-6123000D02*
X22890000Y-6073000D01*
X22840000Y-6023000D01*
X22790000Y-6073000D01*
X22840000Y-6123000D01*
X22987000Y-10400500D02*
X23037000Y-10350500D01*
X22987000Y-10300500D01*
X22937000Y-10350500D01*
X22987000Y-10400500D01*
X23241000Y-10400500D02*
X23291000Y-10350500D01*
X23241000Y-10300500D01*
X23191000Y-10350500D01*
X23241000Y-10400500D01*
X23909200Y-10113200D02*
X24010800Y-10214800D01*
X24010800Y-10113200D02*
X23909200Y-10214800D01*
X24010800Y-10164000D02*
G75*
G03X24010800Y-10164000I-50800J0D01*
G01*
X23909200Y-10367200D02*
X24010800Y-10468800D01*
X24010800Y-10367200D02*
X23909200Y-10468800D01*
X24010800Y-10418000D02*
G75*
G03X24010800Y-10418000I-50800J0D01*
G01*
X23909200Y-10621200D02*
X24010800Y-10722800D01*
X24010800Y-10621200D02*
X23909200Y-10722800D01*
X24010800Y-10672000D02*
G75*
G03X24010800Y-10672000I-50800J0D01*
G01*
X23909200Y-10875200D02*
X24010800Y-10976800D01*
X24010800Y-10875200D02*
X23909200Y-10976800D01*
X24010800Y-10926000D02*
G75*
G03X24010800Y-10926000I-50800J0D01*
G01*
X23909200Y-11129200D02*
X24010800Y-11230800D01*
X24010800Y-11129200D02*
X23909200Y-11230800D01*
X24010800Y-11180000D02*
G75*
G03X24010800Y-11180000I-50800J0D01*
G01*
X24163200Y-10113200D02*
X24264800Y-10214800D01*
X24264800Y-10113200D02*
X24163200Y-10214800D01*
X24264800Y-10164000D02*
G75*
G03X24264800Y-10164000I-50800J0D01*
G01*
X24163200Y-10367200D02*
X24264800Y-10468800D01*
X24264800Y-10367200D02*
X24163200Y-10468800D01*
X24264800Y-10418000D02*
G75*
G03X24264800Y-10418000I-50800J0D01*
G01*
X24163200Y-10621200D02*
X24264800Y-10722800D01*
X24264800Y-10621200D02*
X24163200Y-10722800D01*
X24264800Y-10672000D02*
G75*
G03X24264800Y-10672000I-50800J0D01*
G01*
X24163200Y-10875200D02*
X24264800Y-10976800D01*
X24264800Y-10875200D02*
X24163200Y-10976800D01*
X24264800Y-10926000D02*
G75*
G03X24264800Y-10926000I-50800J0D01*
G01*
X24163200Y-11129200D02*
X24264800Y-11230800D01*
X24264800Y-11129200D02*
X24163200Y-11230800D01*
X24264800Y-11180000D02*
G75*
G03X24264800Y-11180000I-50800J0D01*
G01*
X11954000Y-6354000D02*
X12106000Y-6506000D01*
X12106000Y-6354000D02*
X11954000Y-6506000D01*
X12030000Y-6354000D02*
X12030000Y-6506000D01*
X11954000Y-6430000D02*
X12106000Y-6430000D01*
X11954000Y-6862000D02*
X12106000Y-7014000D01*
X12106000Y-6862000D02*
X11954000Y-7014000D01*
X12030000Y-6862000D02*
X12030000Y-7014000D01*
X11954000Y-6938000D02*
X12106000Y-6938000D01*
X13746000Y-4744000D02*
X13898000Y-4896000D01*
X13898000Y-4744000D02*
X13746000Y-4896000D01*
X13822000Y-4744000D02*
X13822000Y-4896000D01*
X13746000Y-4820000D02*
X13898000Y-4820000D01*
X14254000Y-4744000D02*
X14406000Y-4896000D01*
X14406000Y-4744000D02*
X14254000Y-4896000D01*
X14330000Y-4744000D02*
X14330000Y-4896000D01*
X14254000Y-4820000D02*
X14406000Y-4820000D01*
X15389000Y-4711000D02*
X15567000Y-4889000D01*
X15567000Y-4711000D02*
X15389000Y-4889000D01*
X15540933Y-4862933D02*
X15540933Y-4737067D01*
X15415067Y-4737067D01*
X15415067Y-4862933D01*
X15540933Y-4862933D01*
X15389000Y-5051000D02*
X15567000Y-5229000D01*
X15567000Y-5051000D02*
X15389000Y-5229000D01*
X15540933Y-5202933D02*
X15540933Y-5077067D01*
X15415067Y-5077067D01*
X15415067Y-5202933D01*
X15540933Y-5202933D01*
X16381000Y-4711000D02*
X16559000Y-4889000D01*
X16559000Y-4711000D02*
X16381000Y-4889000D01*
X16532933Y-4862933D02*
X16532933Y-4737067D01*
X16407067Y-4737067D01*
X16407067Y-4862933D01*
X16532933Y-4862933D01*
X16381000Y-5051000D02*
X16559000Y-5229000D01*
X16559000Y-5051000D02*
X16381000Y-5229000D01*
X16532933Y-5202933D02*
X16532933Y-5077067D01*
X16407067Y-5077067D01*
X16407067Y-5202933D01*
X16532933Y-5202933D01*
X16365032Y-6130032D02*
X16614968Y-6379968D01*
X16614968Y-6130032D02*
X16365032Y-6379968D01*
X16490000Y-6379968D02*
X16614968Y-6255000D01*
X16490000Y-6130032D01*
X16365032Y-6255000D01*
X16490000Y-6379968D01*
X13065032Y-6595032D02*
X13314968Y-6844968D01*
X13314968Y-6595032D02*
X13065032Y-6844968D01*
X13190000Y-6844968D02*
X13314968Y-6720000D01*
X13190000Y-6595032D01*
X13065032Y-6720000D01*
X13190000Y-6844968D01*
D12*
X11233928Y-13628214D02*
X11233928Y-13328214D01*
X11305357Y-13328214D01*
X11348214Y-13342500D01*
X11376786Y-13371071D01*
X11391071Y-13399643D01*
X11405357Y-13456786D01*
X11405357Y-13499643D01*
X11391071Y-13556786D01*
X11376786Y-13585357D01*
X11348214Y-13613929D01*
X11305357Y-13628214D01*
X11233928Y-13628214D01*
X11533928Y-13628214D02*
X11533928Y-13428214D01*
X11533928Y-13485357D02*
X11548214Y-13456786D01*
X11562500Y-13442500D01*
X11591071Y-13428214D01*
X11619643Y-13428214D01*
X11719643Y-13628214D02*
X11719643Y-13428214D01*
X11719643Y-13328214D02*
X11705357Y-13342500D01*
X11719643Y-13356786D01*
X11733928Y-13342500D01*
X11719643Y-13328214D01*
X11719643Y-13356786D01*
X11905357Y-13628214D02*
X11876786Y-13613929D01*
X11862500Y-13585357D01*
X11862500Y-13328214D01*
X12062500Y-13628214D02*
X12033928Y-13613929D01*
X12019643Y-13585357D01*
X12019643Y-13328214D01*
X12405357Y-13628214D02*
X12405357Y-13328214D01*
X12505357Y-13542500D01*
X12605357Y-13328214D01*
X12605357Y-13628214D01*
X12876786Y-13628214D02*
X12876786Y-13471071D01*
X12862500Y-13442500D01*
X12833928Y-13428214D01*
X12776786Y-13428214D01*
X12748214Y-13442500D01*
X12876786Y-13613929D02*
X12848214Y-13628214D01*
X12776786Y-13628214D01*
X12748214Y-13613929D01*
X12733928Y-13585357D01*
X12733928Y-13556786D01*
X12748214Y-13528214D01*
X12776786Y-13513929D01*
X12848214Y-13513929D01*
X12876786Y-13499643D01*
X13019643Y-13428214D02*
X13019643Y-13728214D01*
X13019643Y-13442500D02*
X13048214Y-13428214D01*
X13105357Y-13428214D01*
X13133928Y-13442500D01*
X13148214Y-13456786D01*
X13162500Y-13485357D01*
X13162500Y-13571071D01*
X13148214Y-13599643D01*
X13133928Y-13613929D01*
X13105357Y-13628214D01*
X13048214Y-13628214D01*
X13019643Y-13613929D01*
X13291071Y-13599643D02*
X13305357Y-13613929D01*
X13291071Y-13628214D01*
X13276786Y-13613929D01*
X13291071Y-13599643D01*
X13291071Y-13628214D01*
X13291071Y-13442500D02*
X13305357Y-13456786D01*
X13291071Y-13471071D01*
X13276786Y-13456786D01*
X13291071Y-13442500D01*
X13291071Y-13471071D01*
X10871300Y-14084400D02*
X10947500Y-14160600D01*
X10947500Y-14084400D02*
X10871300Y-14160600D01*
X11291071Y-13958214D02*
X11319643Y-13958214D01*
X11348214Y-13972500D01*
X11362500Y-13986786D01*
X11376786Y-14015357D01*
X11391071Y-14072500D01*
X11391071Y-14143929D01*
X11376786Y-14201071D01*
X11362500Y-14229643D01*
X11348214Y-14243929D01*
X11319643Y-14258214D01*
X11291071Y-14258214D01*
X11262500Y-14243929D01*
X11248214Y-14229643D01*
X11233928Y-14201071D01*
X11219643Y-14143929D01*
X11219643Y-14072500D01*
X11233928Y-14015357D01*
X11248214Y-13986786D01*
X11262500Y-13972500D01*
X11291071Y-13958214D01*
X11519643Y-14229643D02*
X11533928Y-14243929D01*
X11519643Y-14258214D01*
X11505357Y-14243929D01*
X11519643Y-14229643D01*
X11519643Y-14258214D01*
X11633928Y-13958214D02*
X11833928Y-13958214D01*
X11705357Y-14258214D01*
X12076786Y-13958214D02*
X12019643Y-13958214D01*
X11991071Y-13972500D01*
X11976786Y-13986786D01*
X11948214Y-14029643D01*
X11933928Y-14086786D01*
X11933928Y-14201071D01*
X11948214Y-14229643D01*
X11962500Y-14243929D01*
X11991071Y-14258214D01*
X12048214Y-14258214D01*
X12076786Y-14243929D01*
X12091071Y-14229643D01*
X12105357Y-14201071D01*
X12105357Y-14129643D01*
X12091071Y-14101071D01*
X12076786Y-14086786D01*
X12048214Y-14072500D01*
X11991071Y-14072500D01*
X11962500Y-14086786D01*
X11948214Y-14101071D01*
X11933928Y-14129643D01*
X12233928Y-14258214D02*
X12233928Y-14058214D01*
X12233928Y-14086786D02*
X12248214Y-14072500D01*
X12276786Y-14058214D01*
X12319643Y-14058214D01*
X12348214Y-14072500D01*
X12362500Y-14101071D01*
X12362500Y-14258214D01*
X12362500Y-14101071D02*
X12376786Y-14072500D01*
X12405357Y-14058214D01*
X12448214Y-14058214D01*
X12476786Y-14072500D01*
X12491071Y-14101071D01*
X12491071Y-14258214D01*
X12633928Y-14258214D02*
X12633928Y-14058214D01*
X12633928Y-14086786D02*
X12648214Y-14072500D01*
X12676786Y-14058214D01*
X12719643Y-14058214D01*
X12748214Y-14072500D01*
X12762500Y-14101071D01*
X12762500Y-14258214D01*
X12762500Y-14101071D02*
X12776786Y-14072500D01*
X12805357Y-14058214D01*
X12848214Y-14058214D01*
X12876786Y-14072500D01*
X12891071Y-14101071D01*
X12891071Y-14258214D01*
X13476786Y-13943929D02*
X13219643Y-14329643D01*
X13862500Y-13958214D02*
X13891071Y-13958214D01*
X13919643Y-13972500D01*
X13933928Y-13986786D01*
X13948214Y-14015357D01*
X13962500Y-14072500D01*
X13962500Y-14143929D01*
X13948214Y-14201071D01*
X13933928Y-14229643D01*
X13919643Y-14243929D01*
X13891071Y-14258214D01*
X13862500Y-14258214D01*
X13833928Y-14243929D01*
X13819643Y-14229643D01*
X13805357Y-14201071D01*
X13791071Y-14143929D01*
X13791071Y-14072500D01*
X13805357Y-14015357D01*
X13819643Y-13986786D01*
X13833928Y-13972500D01*
X13862500Y-13958214D01*
X14091071Y-14229643D02*
X14105357Y-14243929D01*
X14091071Y-14258214D01*
X14076786Y-14243929D01*
X14091071Y-14229643D01*
X14091071Y-14258214D01*
X14291071Y-13958214D02*
X14319643Y-13958214D01*
X14348214Y-13972500D01*
X14362500Y-13986786D01*
X14376786Y-14015357D01*
X14391071Y-14072500D01*
X14391071Y-14143929D01*
X14376786Y-14201071D01*
X14362500Y-14229643D01*
X14348214Y-14243929D01*
X14319643Y-14258214D01*
X14291071Y-14258214D01*
X14262500Y-14243929D01*
X14248214Y-14229643D01*
X14233928Y-14201071D01*
X14219643Y-14143929D01*
X14219643Y-14072500D01*
X14233928Y-14015357D01*
X14248214Y-13986786D01*
X14262500Y-13972500D01*
X14291071Y-13958214D01*
X14491071Y-13958214D02*
X14676786Y-13958214D01*
X14576786Y-14072500D01*
X14619643Y-14072500D01*
X14648214Y-14086786D01*
X14662500Y-14101071D01*
X14676786Y-14129643D01*
X14676786Y-14201071D01*
X14662500Y-14229643D01*
X14648214Y-14243929D01*
X14619643Y-14258214D01*
X14533928Y-14258214D01*
X14505357Y-14243929D01*
X14491071Y-14229643D01*
X14862500Y-13958214D02*
X14891071Y-13958214D01*
X14919643Y-13972500D01*
X14933928Y-13986786D01*
X14948214Y-14015357D01*
X14962500Y-14072500D01*
X14962500Y-14143929D01*
X14948214Y-14201071D01*
X14933928Y-14229643D01*
X14919643Y-14243929D01*
X14891071Y-14258214D01*
X14862500Y-14258214D01*
X14833928Y-14243929D01*
X14819643Y-14229643D01*
X14805357Y-14201071D01*
X14791071Y-14143929D01*
X14791071Y-14072500D01*
X14805357Y-14015357D01*
X14819643Y-13986786D01*
X14833928Y-13972500D01*
X14862500Y-13958214D01*
X15076786Y-13958214D02*
X15076786Y-14015357D01*
X15191071Y-13958214D02*
X15191071Y-14015357D01*
X15633928Y-14372500D02*
X15619643Y-14358214D01*
X15591071Y-14315357D01*
X15576786Y-14286786D01*
X15562500Y-14243929D01*
X15548214Y-14172500D01*
X15548214Y-14115357D01*
X15562500Y-14043929D01*
X15576786Y-14001071D01*
X15591071Y-13972500D01*
X15619643Y-13929643D01*
X15633928Y-13915357D01*
X15905357Y-14258214D02*
X15733928Y-14258214D01*
X15819643Y-14258214D02*
X15819643Y-13958214D01*
X15791071Y-14001071D01*
X15762500Y-14029643D01*
X15733928Y-14043929D01*
X16262500Y-14258214D02*
X16262500Y-13958214D01*
X16391071Y-14258214D02*
X16391071Y-14101071D01*
X16376786Y-14072500D01*
X16348214Y-14058214D01*
X16305357Y-14058214D01*
X16276786Y-14072500D01*
X16262500Y-14086786D01*
X16576786Y-14258214D02*
X16548214Y-14243929D01*
X16533928Y-14229643D01*
X16519643Y-14201071D01*
X16519643Y-14115357D01*
X16533928Y-14086786D01*
X16548214Y-14072500D01*
X16576786Y-14058214D01*
X16619643Y-14058214D01*
X16648214Y-14072500D01*
X16662500Y-14086786D01*
X16676786Y-14115357D01*
X16676786Y-14201071D01*
X16662500Y-14229643D01*
X16648214Y-14243929D01*
X16619643Y-14258214D01*
X16576786Y-14258214D01*
X16848214Y-14258214D02*
X16819643Y-14243929D01*
X16805357Y-14215357D01*
X16805357Y-13958214D01*
X17076786Y-14243929D02*
X17048214Y-14258214D01*
X16991071Y-14258214D01*
X16962500Y-14243929D01*
X16948214Y-14215357D01*
X16948214Y-14101071D01*
X16962500Y-14072500D01*
X16991071Y-14058214D01*
X17048214Y-14058214D01*
X17076786Y-14072500D01*
X17091071Y-14101071D01*
X17091071Y-14129643D01*
X16948214Y-14158214D01*
X17191071Y-14372500D02*
X17205357Y-14358214D01*
X17233928Y-14315357D01*
X17248214Y-14286786D01*
X17262500Y-14243929D01*
X17276786Y-14172500D01*
X17276786Y-14115357D01*
X17262500Y-14043929D01*
X17248214Y-14001071D01*
X17233928Y-13972500D01*
X17205357Y-13929643D01*
X17191071Y-13915357D01*
X10947500Y-14518500D02*
G75*
G03X10947500Y-14518500I-40000J0D01*
G01*
X11291071Y-14354214D02*
X11319643Y-14354214D01*
X11348214Y-14368500D01*
X11362500Y-14382786D01*
X11376786Y-14411357D01*
X11391071Y-14468500D01*
X11391071Y-14539929D01*
X11376786Y-14597071D01*
X11362500Y-14625643D01*
X11348214Y-14639929D01*
X11319643Y-14654214D01*
X11291071Y-14654214D01*
X11262500Y-14639929D01*
X11248214Y-14625643D01*
X11233928Y-14597071D01*
X11219643Y-14539929D01*
X11219643Y-14468500D01*
X11233928Y-14411357D01*
X11248214Y-14382786D01*
X11262500Y-14368500D01*
X11291071Y-14354214D01*
X11519643Y-14625643D02*
X11533928Y-14639929D01*
X11519643Y-14654214D01*
X11505357Y-14639929D01*
X11519643Y-14625643D01*
X11519643Y-14654214D01*
X11705357Y-14482786D02*
X11676786Y-14468500D01*
X11662500Y-14454214D01*
X11648214Y-14425643D01*
X11648214Y-14411357D01*
X11662500Y-14382786D01*
X11676786Y-14368500D01*
X11705357Y-14354214D01*
X11762500Y-14354214D01*
X11791071Y-14368500D01*
X11805357Y-14382786D01*
X11819643Y-14411357D01*
X11819643Y-14425643D01*
X11805357Y-14454214D01*
X11791071Y-14468500D01*
X11762500Y-14482786D01*
X11705357Y-14482786D01*
X11676786Y-14497071D01*
X11662500Y-14511357D01*
X11648214Y-14539929D01*
X11648214Y-14597071D01*
X11662500Y-14625643D01*
X11676786Y-14639929D01*
X11705357Y-14654214D01*
X11762500Y-14654214D01*
X11791071Y-14639929D01*
X11805357Y-14625643D01*
X11819643Y-14597071D01*
X11819643Y-14539929D01*
X11805357Y-14511357D01*
X11791071Y-14497071D01*
X11762500Y-14482786D01*
X12005357Y-14354214D02*
X12033928Y-14354214D01*
X12062500Y-14368500D01*
X12076786Y-14382786D01*
X12091071Y-14411357D01*
X12105357Y-14468500D01*
X12105357Y-14539929D01*
X12091071Y-14597071D01*
X12076786Y-14625643D01*
X12062500Y-14639929D01*
X12033928Y-14654214D01*
X12005357Y-14654214D01*
X11976786Y-14639929D01*
X11962500Y-14625643D01*
X11948214Y-14597071D01*
X11933928Y-14539929D01*
X11933928Y-14468500D01*
X11948214Y-14411357D01*
X11962500Y-14382786D01*
X11976786Y-14368500D01*
X12005357Y-14354214D01*
X12233928Y-14654214D02*
X12233928Y-14454214D01*
X12233928Y-14482786D02*
X12248214Y-14468500D01*
X12276786Y-14454214D01*
X12319643Y-14454214D01*
X12348214Y-14468500D01*
X12362500Y-14497071D01*
X12362500Y-14654214D01*
X12362500Y-14497071D02*
X12376786Y-14468500D01*
X12405357Y-14454214D01*
X12448214Y-14454214D01*
X12476786Y-14468500D01*
X12491071Y-14497071D01*
X12491071Y-14654214D01*
X12633928Y-14654214D02*
X12633928Y-14454214D01*
X12633928Y-14482786D02*
X12648214Y-14468500D01*
X12676786Y-14454214D01*
X12719643Y-14454214D01*
X12748214Y-14468500D01*
X12762500Y-14497071D01*
X12762500Y-14654214D01*
X12762500Y-14497071D02*
X12776786Y-14468500D01*
X12805357Y-14454214D01*
X12848214Y-14454214D01*
X12876786Y-14468500D01*
X12891071Y-14497071D01*
X12891071Y-14654214D01*
X13476786Y-14339929D02*
X13219643Y-14725643D01*
X13862500Y-14354214D02*
X13891071Y-14354214D01*
X13919643Y-14368500D01*
X13933928Y-14382786D01*
X13948214Y-14411357D01*
X13962500Y-14468500D01*
X13962500Y-14539929D01*
X13948214Y-14597071D01*
X13933928Y-14625643D01*
X13919643Y-14639929D01*
X13891071Y-14654214D01*
X13862500Y-14654214D01*
X13833928Y-14639929D01*
X13819643Y-14625643D01*
X13805357Y-14597071D01*
X13791071Y-14539929D01*
X13791071Y-14468500D01*
X13805357Y-14411357D01*
X13819643Y-14382786D01*
X13833928Y-14368500D01*
X13862500Y-14354214D01*
X14091071Y-14625643D02*
X14105357Y-14639929D01*
X14091071Y-14654214D01*
X14076786Y-14639929D01*
X14091071Y-14625643D01*
X14091071Y-14654214D01*
X14291071Y-14354214D02*
X14319643Y-14354214D01*
X14348214Y-14368500D01*
X14362500Y-14382786D01*
X14376786Y-14411357D01*
X14391071Y-14468500D01*
X14391071Y-14539929D01*
X14376786Y-14597071D01*
X14362500Y-14625643D01*
X14348214Y-14639929D01*
X14319643Y-14654214D01*
X14291071Y-14654214D01*
X14262500Y-14639929D01*
X14248214Y-14625643D01*
X14233928Y-14597071D01*
X14219643Y-14539929D01*
X14219643Y-14468500D01*
X14233928Y-14411357D01*
X14248214Y-14382786D01*
X14262500Y-14368500D01*
X14291071Y-14354214D01*
X14491071Y-14354214D02*
X14676786Y-14354214D01*
X14576786Y-14468500D01*
X14619643Y-14468500D01*
X14648214Y-14482786D01*
X14662500Y-14497071D01*
X14676786Y-14525643D01*
X14676786Y-14597071D01*
X14662500Y-14625643D01*
X14648214Y-14639929D01*
X14619643Y-14654214D01*
X14533928Y-14654214D01*
X14505357Y-14639929D01*
X14491071Y-14625643D01*
X14962500Y-14654214D02*
X14791071Y-14654214D01*
X14876786Y-14654214D02*
X14876786Y-14354214D01*
X14848214Y-14397071D01*
X14819643Y-14425643D01*
X14791071Y-14439929D01*
X15076786Y-14354214D02*
X15076786Y-14411357D01*
X15191071Y-14354214D02*
X15191071Y-14411357D01*
X15633928Y-14768500D02*
X15619643Y-14754214D01*
X15591071Y-14711357D01*
X15576786Y-14682786D01*
X15562500Y-14639929D01*
X15548214Y-14568500D01*
X15548214Y-14511357D01*
X15562500Y-14439929D01*
X15576786Y-14397071D01*
X15591071Y-14368500D01*
X15619643Y-14325643D01*
X15633928Y-14311357D01*
X15719643Y-14354214D02*
X15905357Y-14354214D01*
X15805357Y-14468500D01*
X15848214Y-14468500D01*
X15876786Y-14482786D01*
X15891071Y-14497071D01*
X15905357Y-14525643D01*
X15905357Y-14597071D01*
X15891071Y-14625643D01*
X15876786Y-14639929D01*
X15848214Y-14654214D01*
X15762500Y-14654214D01*
X15733928Y-14639929D01*
X15719643Y-14625643D01*
X16005357Y-14354214D02*
X16191071Y-14354214D01*
X16091071Y-14468500D01*
X16133928Y-14468500D01*
X16162500Y-14482786D01*
X16176786Y-14497071D01*
X16191071Y-14525643D01*
X16191071Y-14597071D01*
X16176786Y-14625643D01*
X16162500Y-14639929D01*
X16133928Y-14654214D01*
X16048214Y-14654214D01*
X16019643Y-14639929D01*
X16005357Y-14625643D01*
X16548214Y-14654214D02*
X16548214Y-14354214D01*
X16676786Y-14654214D02*
X16676786Y-14497071D01*
X16662500Y-14468500D01*
X16633928Y-14454214D01*
X16591071Y-14454214D01*
X16562500Y-14468500D01*
X16548214Y-14482786D01*
X16862500Y-14654214D02*
X16833928Y-14639929D01*
X16819643Y-14625643D01*
X16805357Y-14597071D01*
X16805357Y-14511357D01*
X16819643Y-14482786D01*
X16833928Y-14468500D01*
X16862500Y-14454214D01*
X16905357Y-14454214D01*
X16933928Y-14468500D01*
X16948214Y-14482786D01*
X16962500Y-14511357D01*
X16962500Y-14597071D01*
X16948214Y-14625643D01*
X16933928Y-14639929D01*
X16905357Y-14654214D01*
X16862500Y-14654214D01*
X17133928Y-14654214D02*
X17105357Y-14639929D01*
X17091071Y-14611357D01*
X17091071Y-14354214D01*
X17362500Y-14639929D02*
X17333928Y-14654214D01*
X17276786Y-14654214D01*
X17248214Y-14639929D01*
X17233928Y-14611357D01*
X17233928Y-14497071D01*
X17248214Y-14468500D01*
X17276786Y-14454214D01*
X17333928Y-14454214D01*
X17362500Y-14468500D01*
X17376786Y-14497071D01*
X17376786Y-14525643D01*
X17233928Y-14554214D01*
X17491071Y-14639929D02*
X17519643Y-14654214D01*
X17576786Y-14654214D01*
X17605357Y-14639929D01*
X17619643Y-14611357D01*
X17619643Y-14597071D01*
X17605357Y-14568500D01*
X17576786Y-14554214D01*
X17533928Y-14554214D01*
X17505357Y-14539929D01*
X17491071Y-14511357D01*
X17491071Y-14497071D01*
X17505357Y-14468500D01*
X17533928Y-14454214D01*
X17576786Y-14454214D01*
X17605357Y-14468500D01*
X17719643Y-14768500D02*
X17733928Y-14754214D01*
X17762500Y-14711357D01*
X17776786Y-14682786D01*
X17791071Y-14639929D01*
X17805357Y-14568500D01*
X17805357Y-14511357D01*
X17791071Y-14439929D01*
X17776786Y-14397071D01*
X17762500Y-14368500D01*
X17733928Y-14325643D01*
X17719643Y-14311357D01*
X10907000Y-14874000D02*
X10907000Y-14955000D01*
X10866500Y-14914500D02*
X10947500Y-14914500D01*
X11291071Y-14750214D02*
X11319643Y-14750214D01*
X11348214Y-14764500D01*
X11362500Y-14778786D01*
X11376786Y-14807357D01*
X11391071Y-14864500D01*
X11391071Y-14935929D01*
X11376786Y-14993071D01*
X11362500Y-15021643D01*
X11348214Y-15035929D01*
X11319643Y-15050214D01*
X11291071Y-15050214D01*
X11262500Y-15035929D01*
X11248214Y-15021643D01*
X11233928Y-14993071D01*
X11219643Y-14935929D01*
X11219643Y-14864500D01*
X11233928Y-14807357D01*
X11248214Y-14778786D01*
X11262500Y-14764500D01*
X11291071Y-14750214D01*
X11519643Y-15021643D02*
X11533928Y-15035929D01*
X11519643Y-15050214D01*
X11505357Y-15035929D01*
X11519643Y-15021643D01*
X11519643Y-15050214D01*
X11705357Y-14878786D02*
X11676786Y-14864500D01*
X11662500Y-14850214D01*
X11648214Y-14821643D01*
X11648214Y-14807357D01*
X11662500Y-14778786D01*
X11676786Y-14764500D01*
X11705357Y-14750214D01*
X11762500Y-14750214D01*
X11791071Y-14764500D01*
X11805357Y-14778786D01*
X11819643Y-14807357D01*
X11819643Y-14821643D01*
X11805357Y-14850214D01*
X11791071Y-14864500D01*
X11762500Y-14878786D01*
X11705357Y-14878786D01*
X11676786Y-14893071D01*
X11662500Y-14907357D01*
X11648214Y-14935929D01*
X11648214Y-14993071D01*
X11662500Y-15021643D01*
X11676786Y-15035929D01*
X11705357Y-15050214D01*
X11762500Y-15050214D01*
X11791071Y-15035929D01*
X11805357Y-15021643D01*
X11819643Y-14993071D01*
X11819643Y-14935929D01*
X11805357Y-14907357D01*
X11791071Y-14893071D01*
X11762500Y-14878786D01*
X12105357Y-15050214D02*
X11933928Y-15050214D01*
X12019643Y-15050214D02*
X12019643Y-14750214D01*
X11991071Y-14793071D01*
X11962500Y-14821643D01*
X11933928Y-14835929D01*
X12233928Y-15050214D02*
X12233928Y-14850214D01*
X12233928Y-14878786D02*
X12248214Y-14864500D01*
X12276786Y-14850214D01*
X12319643Y-14850214D01*
X12348214Y-14864500D01*
X12362500Y-14893071D01*
X12362500Y-15050214D01*
X12362500Y-14893071D02*
X12376786Y-14864500D01*
X12405357Y-14850214D01*
X12448214Y-14850214D01*
X12476786Y-14864500D01*
X12491071Y-14893071D01*
X12491071Y-15050214D01*
X12633928Y-15050214D02*
X12633928Y-14850214D01*
X12633928Y-14878786D02*
X12648214Y-14864500D01*
X12676786Y-14850214D01*
X12719643Y-14850214D01*
X12748214Y-14864500D01*
X12762500Y-14893071D01*
X12762500Y-15050214D01*
X12762500Y-14893071D02*
X12776786Y-14864500D01*
X12805357Y-14850214D01*
X12848214Y-14850214D01*
X12876786Y-14864500D01*
X12891071Y-14893071D01*
X12891071Y-15050214D01*
X13476786Y-14735929D02*
X13219643Y-15121643D01*
X13862500Y-14750214D02*
X13891071Y-14750214D01*
X13919643Y-14764500D01*
X13933928Y-14778786D01*
X13948214Y-14807357D01*
X13962500Y-14864500D01*
X13962500Y-14935929D01*
X13948214Y-14993071D01*
X13933928Y-15021643D01*
X13919643Y-15035929D01*
X13891071Y-15050214D01*
X13862500Y-15050214D01*
X13833928Y-15035929D01*
X13819643Y-15021643D01*
X13805357Y-14993071D01*
X13791071Y-14935929D01*
X13791071Y-14864500D01*
X13805357Y-14807357D01*
X13819643Y-14778786D01*
X13833928Y-14764500D01*
X13862500Y-14750214D01*
X14091071Y-15021643D02*
X14105357Y-15035929D01*
X14091071Y-15050214D01*
X14076786Y-15035929D01*
X14091071Y-15021643D01*
X14091071Y-15050214D01*
X14291071Y-14750214D02*
X14319643Y-14750214D01*
X14348214Y-14764500D01*
X14362500Y-14778786D01*
X14376786Y-14807357D01*
X14391071Y-14864500D01*
X14391071Y-14935929D01*
X14376786Y-14993071D01*
X14362500Y-15021643D01*
X14348214Y-15035929D01*
X14319643Y-15050214D01*
X14291071Y-15050214D01*
X14262500Y-15035929D01*
X14248214Y-15021643D01*
X14233928Y-14993071D01*
X14219643Y-14935929D01*
X14219643Y-14864500D01*
X14233928Y-14807357D01*
X14248214Y-14778786D01*
X14262500Y-14764500D01*
X14291071Y-14750214D01*
X14491071Y-14750214D02*
X14676786Y-14750214D01*
X14576786Y-14864500D01*
X14619643Y-14864500D01*
X14648214Y-14878786D01*
X14662500Y-14893071D01*
X14676786Y-14921643D01*
X14676786Y-14993071D01*
X14662500Y-15021643D01*
X14648214Y-15035929D01*
X14619643Y-15050214D01*
X14533928Y-15050214D01*
X14505357Y-15035929D01*
X14491071Y-15021643D01*
X14791071Y-14778786D02*
X14805357Y-14764500D01*
X14833928Y-14750214D01*
X14905357Y-14750214D01*
X14933928Y-14764500D01*
X14948214Y-14778786D01*
X14962500Y-14807357D01*
X14962500Y-14835929D01*
X14948214Y-14878786D01*
X14776786Y-15050214D01*
X14962500Y-15050214D01*
X15076786Y-14750214D02*
X15076786Y-14807357D01*
X15191071Y-14750214D02*
X15191071Y-14807357D01*
X15633928Y-15164500D02*
X15619643Y-15150214D01*
X15591071Y-15107357D01*
X15576786Y-15078786D01*
X15562500Y-15035929D01*
X15548214Y-14964500D01*
X15548214Y-14907357D01*
X15562500Y-14835929D01*
X15576786Y-14793071D01*
X15591071Y-14764500D01*
X15619643Y-14721643D01*
X15633928Y-14707357D01*
X15876786Y-14850214D02*
X15876786Y-15050214D01*
X15805357Y-14735929D02*
X15733928Y-14950214D01*
X15919643Y-14950214D01*
X16262500Y-15050214D02*
X16262500Y-14750214D01*
X16391071Y-15050214D02*
X16391071Y-14893071D01*
X16376786Y-14864500D01*
X16348214Y-14850214D01*
X16305357Y-14850214D01*
X16276786Y-14864500D01*
X16262500Y-14878786D01*
X16576786Y-15050214D02*
X16548214Y-15035929D01*
X16533928Y-15021643D01*
X16519643Y-14993071D01*
X16519643Y-14907357D01*
X16533928Y-14878786D01*
X16548214Y-14864500D01*
X16576786Y-14850214D01*
X16619643Y-14850214D01*
X16648214Y-14864500D01*
X16662500Y-14878786D01*
X16676786Y-14907357D01*
X16676786Y-14993071D01*
X16662500Y-15021643D01*
X16648214Y-15035929D01*
X16619643Y-15050214D01*
X16576786Y-15050214D01*
X16848214Y-15050214D02*
X16819643Y-15035929D01*
X16805357Y-15007357D01*
X16805357Y-14750214D01*
X17076786Y-15035929D02*
X17048214Y-15050214D01*
X16991071Y-15050214D01*
X16962500Y-15035929D01*
X16948214Y-15007357D01*
X16948214Y-14893071D01*
X16962500Y-14864500D01*
X16991071Y-14850214D01*
X17048214Y-14850214D01*
X17076786Y-14864500D01*
X17091071Y-14893071D01*
X17091071Y-14921643D01*
X16948214Y-14950214D01*
X17205357Y-15035929D02*
X17233928Y-15050214D01*
X17291071Y-15050214D01*
X17319643Y-15035929D01*
X17333928Y-15007357D01*
X17333928Y-14993071D01*
X17319643Y-14964500D01*
X17291071Y-14950214D01*
X17248214Y-14950214D01*
X17219643Y-14935929D01*
X17205357Y-14907357D01*
X17205357Y-14893071D01*
X17219643Y-14864500D01*
X17248214Y-14850214D01*
X17291071Y-14850214D01*
X17319643Y-14864500D01*
X17433928Y-15164500D02*
X17448214Y-15150214D01*
X17476786Y-15107357D01*
X17491071Y-15078786D01*
X17505357Y-15035929D01*
X17519643Y-14964500D01*
X17519643Y-14907357D01*
X17505357Y-14835929D01*
X17491071Y-14793071D01*
X17476786Y-14764500D01*
X17448214Y-14721643D01*
X17433928Y-14707357D01*
X10934320Y-15342320D02*
X10934320Y-15278680D01*
X10870680Y-15278680D01*
X10870680Y-15342320D01*
X10934320Y-15342320D01*
X11291071Y-15146214D02*
X11319643Y-15146214D01*
X11348214Y-15160500D01*
X11362500Y-15174786D01*
X11376786Y-15203357D01*
X11391071Y-15260500D01*
X11391071Y-15331929D01*
X11376786Y-15389071D01*
X11362500Y-15417643D01*
X11348214Y-15431929D01*
X11319643Y-15446214D01*
X11291071Y-15446214D01*
X11262500Y-15431929D01*
X11248214Y-15417643D01*
X11233928Y-15389071D01*
X11219643Y-15331929D01*
X11219643Y-15260500D01*
X11233928Y-15203357D01*
X11248214Y-15174786D01*
X11262500Y-15160500D01*
X11291071Y-15146214D01*
X11519643Y-15417643D02*
X11533928Y-15431929D01*
X11519643Y-15446214D01*
X11505357Y-15431929D01*
X11519643Y-15417643D01*
X11519643Y-15446214D01*
X11676786Y-15446214D02*
X11733928Y-15446214D01*
X11762500Y-15431929D01*
X11776786Y-15417643D01*
X11805357Y-15374786D01*
X11819643Y-15317643D01*
X11819643Y-15203357D01*
X11805357Y-15174786D01*
X11791071Y-15160500D01*
X11762500Y-15146214D01*
X11705357Y-15146214D01*
X11676786Y-15160500D01*
X11662500Y-15174786D01*
X11648214Y-15203357D01*
X11648214Y-15274786D01*
X11662500Y-15303357D01*
X11676786Y-15317643D01*
X11705357Y-15331929D01*
X11762500Y-15331929D01*
X11791071Y-15317643D01*
X11805357Y-15303357D01*
X11819643Y-15274786D01*
X12005357Y-15146214D02*
X12033928Y-15146214D01*
X12062500Y-15160500D01*
X12076786Y-15174786D01*
X12091071Y-15203357D01*
X12105357Y-15260500D01*
X12105357Y-15331929D01*
X12091071Y-15389071D01*
X12076786Y-15417643D01*
X12062500Y-15431929D01*
X12033928Y-15446214D01*
X12005357Y-15446214D01*
X11976786Y-15431929D01*
X11962500Y-15417643D01*
X11948214Y-15389071D01*
X11933928Y-15331929D01*
X11933928Y-15260500D01*
X11948214Y-15203357D01*
X11962500Y-15174786D01*
X11976786Y-15160500D01*
X12005357Y-15146214D01*
X12233928Y-15446214D02*
X12233928Y-15246214D01*
X12233928Y-15274786D02*
X12248214Y-15260500D01*
X12276786Y-15246214D01*
X12319643Y-15246214D01*
X12348214Y-15260500D01*
X12362500Y-15289071D01*
X12362500Y-15446214D01*
X12362500Y-15289071D02*
X12376786Y-15260500D01*
X12405357Y-15246214D01*
X12448214Y-15246214D01*
X12476786Y-15260500D01*
X12491071Y-15289071D01*
X12491071Y-15446214D01*
X12633928Y-15446214D02*
X12633928Y-15246214D01*
X12633928Y-15274786D02*
X12648214Y-15260500D01*
X12676786Y-15246214D01*
X12719643Y-15246214D01*
X12748214Y-15260500D01*
X12762500Y-15289071D01*
X12762500Y-15446214D01*
X12762500Y-15289071D02*
X12776786Y-15260500D01*
X12805357Y-15246214D01*
X12848214Y-15246214D01*
X12876786Y-15260500D01*
X12891071Y-15289071D01*
X12891071Y-15446214D01*
X13476786Y-15131929D02*
X13219643Y-15517643D01*
X13862500Y-15146214D02*
X13891071Y-15146214D01*
X13919643Y-15160500D01*
X13933928Y-15174786D01*
X13948214Y-15203357D01*
X13962500Y-15260500D01*
X13962500Y-15331929D01*
X13948214Y-15389071D01*
X13933928Y-15417643D01*
X13919643Y-15431929D01*
X13891071Y-15446214D01*
X13862500Y-15446214D01*
X13833928Y-15431929D01*
X13819643Y-15417643D01*
X13805357Y-15389071D01*
X13791071Y-15331929D01*
X13791071Y-15260500D01*
X13805357Y-15203357D01*
X13819643Y-15174786D01*
X13833928Y-15160500D01*
X13862500Y-15146214D01*
X14091071Y-15417643D02*
X14105357Y-15431929D01*
X14091071Y-15446214D01*
X14076786Y-15431929D01*
X14091071Y-15417643D01*
X14091071Y-15446214D01*
X14291071Y-15146214D02*
X14319643Y-15146214D01*
X14348214Y-15160500D01*
X14362500Y-15174786D01*
X14376786Y-15203357D01*
X14391071Y-15260500D01*
X14391071Y-15331929D01*
X14376786Y-15389071D01*
X14362500Y-15417643D01*
X14348214Y-15431929D01*
X14319643Y-15446214D01*
X14291071Y-15446214D01*
X14262500Y-15431929D01*
X14248214Y-15417643D01*
X14233928Y-15389071D01*
X14219643Y-15331929D01*
X14219643Y-15260500D01*
X14233928Y-15203357D01*
X14248214Y-15174786D01*
X14262500Y-15160500D01*
X14291071Y-15146214D01*
X14491071Y-15146214D02*
X14676786Y-15146214D01*
X14576786Y-15260500D01*
X14619643Y-15260500D01*
X14648214Y-15274786D01*
X14662500Y-15289071D01*
X14676786Y-15317643D01*
X14676786Y-15389071D01*
X14662500Y-15417643D01*
X14648214Y-15431929D01*
X14619643Y-15446214D01*
X14533928Y-15446214D01*
X14505357Y-15431929D01*
X14491071Y-15417643D01*
X14948214Y-15146214D02*
X14805357Y-15146214D01*
X14791071Y-15289071D01*
X14805357Y-15274786D01*
X14833928Y-15260500D01*
X14905357Y-15260500D01*
X14933928Y-15274786D01*
X14948214Y-15289071D01*
X14962500Y-15317643D01*
X14962500Y-15389071D01*
X14948214Y-15417643D01*
X14933928Y-15431929D01*
X14905357Y-15446214D01*
X14833928Y-15446214D01*
X14805357Y-15431929D01*
X14791071Y-15417643D01*
X15076786Y-15146214D02*
X15076786Y-15203357D01*
X15191071Y-15146214D02*
X15191071Y-15203357D01*
X15633928Y-15560500D02*
X15619643Y-15546214D01*
X15591071Y-15503357D01*
X15576786Y-15474786D01*
X15562500Y-15431929D01*
X15548214Y-15360500D01*
X15548214Y-15303357D01*
X15562500Y-15231929D01*
X15576786Y-15189071D01*
X15591071Y-15160500D01*
X15619643Y-15117643D01*
X15633928Y-15103357D01*
X15905357Y-15446214D02*
X15733928Y-15446214D01*
X15819643Y-15446214D02*
X15819643Y-15146214D01*
X15791071Y-15189071D01*
X15762500Y-15217643D01*
X15733928Y-15231929D01*
X16191071Y-15446214D02*
X16019643Y-15446214D01*
X16105357Y-15446214D02*
X16105357Y-15146214D01*
X16076786Y-15189071D01*
X16048214Y-15217643D01*
X16019643Y-15231929D01*
X16476786Y-15446214D02*
X16305357Y-15446214D01*
X16391071Y-15446214D02*
X16391071Y-15146214D01*
X16362500Y-15189071D01*
X16333928Y-15217643D01*
X16305357Y-15231929D01*
X16833928Y-15446214D02*
X16833928Y-15146214D01*
X16962500Y-15446214D02*
X16962500Y-15289071D01*
X16948214Y-15260500D01*
X16919643Y-15246214D01*
X16876786Y-15246214D01*
X16848214Y-15260500D01*
X16833928Y-15274786D01*
X17148214Y-15446214D02*
X17119643Y-15431929D01*
X17105357Y-15417643D01*
X17091071Y-15389071D01*
X17091071Y-15303357D01*
X17105357Y-15274786D01*
X17119643Y-15260500D01*
X17148214Y-15246214D01*
X17191071Y-15246214D01*
X17219643Y-15260500D01*
X17233928Y-15274786D01*
X17248214Y-15303357D01*
X17248214Y-15389071D01*
X17233928Y-15417643D01*
X17219643Y-15431929D01*
X17191071Y-15446214D01*
X17148214Y-15446214D01*
X17419643Y-15446214D02*
X17391071Y-15431929D01*
X17376786Y-15403357D01*
X17376786Y-15146214D01*
X17648214Y-15431929D02*
X17619643Y-15446214D01*
X17562500Y-15446214D01*
X17533928Y-15431929D01*
X17519643Y-15403357D01*
X17519643Y-15289071D01*
X17533928Y-15260500D01*
X17562500Y-15246214D01*
X17619643Y-15246214D01*
X17648214Y-15260500D01*
X17662500Y-15289071D01*
X17662500Y-15317643D01*
X17519643Y-15346214D01*
X17776786Y-15431929D02*
X17805357Y-15446214D01*
X17862500Y-15446214D01*
X17891071Y-15431929D01*
X17905357Y-15403357D01*
X17905357Y-15389071D01*
X17891071Y-15360500D01*
X17862500Y-15346214D01*
X17819643Y-15346214D01*
X17791071Y-15331929D01*
X17776786Y-15303357D01*
X17776786Y-15289071D01*
X17791071Y-15260500D01*
X17819643Y-15246214D01*
X17862500Y-15246214D01*
X17891071Y-15260500D01*
X18005357Y-15560500D02*
X18019643Y-15546214D01*
X18048214Y-15503357D01*
X18062500Y-15474786D01*
X18076786Y-15431929D01*
X18091071Y-15360500D01*
X18091071Y-15303357D01*
X18076786Y-15231929D01*
X18062500Y-15189071D01*
X18048214Y-15160500D01*
X18019643Y-15117643D01*
X18005357Y-15103357D01*
X10897500Y-15756500D02*
X10947500Y-15706500D01*
X10897500Y-15656500D01*
X10847500Y-15706500D01*
X10897500Y-15756500D01*
X11391071Y-15842214D02*
X11219643Y-15842214D01*
X11305357Y-15842214D02*
X11305357Y-15542214D01*
X11276786Y-15585071D01*
X11248214Y-15613643D01*
X11219643Y-15627929D01*
X11519643Y-15813643D02*
X11533928Y-15827929D01*
X11519643Y-15842214D01*
X11505357Y-15827929D01*
X11519643Y-15813643D01*
X11519643Y-15842214D01*
X11719643Y-15542214D02*
X11748214Y-15542214D01*
X11776786Y-15556500D01*
X11791071Y-15570786D01*
X11805357Y-15599357D01*
X11819643Y-15656500D01*
X11819643Y-15727929D01*
X11805357Y-15785071D01*
X11791071Y-15813643D01*
X11776786Y-15827929D01*
X11748214Y-15842214D01*
X11719643Y-15842214D01*
X11691071Y-15827929D01*
X11676786Y-15813643D01*
X11662500Y-15785071D01*
X11648214Y-15727929D01*
X11648214Y-15656500D01*
X11662500Y-15599357D01*
X11676786Y-15570786D01*
X11691071Y-15556500D01*
X11719643Y-15542214D01*
X12005357Y-15542214D02*
X12033928Y-15542214D01*
X12062500Y-15556500D01*
X12076786Y-15570786D01*
X12091071Y-15599357D01*
X12105357Y-15656500D01*
X12105357Y-15727929D01*
X12091071Y-15785071D01*
X12076786Y-15813643D01*
X12062500Y-15827929D01*
X12033928Y-15842214D01*
X12005357Y-15842214D01*
X11976786Y-15827929D01*
X11962500Y-15813643D01*
X11948214Y-15785071D01*
X11933928Y-15727929D01*
X11933928Y-15656500D01*
X11948214Y-15599357D01*
X11962500Y-15570786D01*
X11976786Y-15556500D01*
X12005357Y-15542214D01*
X12233928Y-15842214D02*
X12233928Y-15642214D01*
X12233928Y-15670786D02*
X12248214Y-15656500D01*
X12276786Y-15642214D01*
X12319643Y-15642214D01*
X12348214Y-15656500D01*
X12362500Y-15685071D01*
X12362500Y-15842214D01*
X12362500Y-15685071D02*
X12376786Y-15656500D01*
X12405357Y-15642214D01*
X12448214Y-15642214D01*
X12476786Y-15656500D01*
X12491071Y-15685071D01*
X12491071Y-15842214D01*
X12633928Y-15842214D02*
X12633928Y-15642214D01*
X12633928Y-15670786D02*
X12648214Y-15656500D01*
X12676786Y-15642214D01*
X12719643Y-15642214D01*
X12748214Y-15656500D01*
X12762500Y-15685071D01*
X12762500Y-15842214D01*
X12762500Y-15685071D02*
X12776786Y-15656500D01*
X12805357Y-15642214D01*
X12848214Y-15642214D01*
X12876786Y-15656500D01*
X12891071Y-15685071D01*
X12891071Y-15842214D01*
X13476786Y-15527929D02*
X13219643Y-15913643D01*
X13862500Y-15542214D02*
X13891071Y-15542214D01*
X13919643Y-15556500D01*
X13933928Y-15570786D01*
X13948214Y-15599357D01*
X13962500Y-15656500D01*
X13962500Y-15727929D01*
X13948214Y-15785071D01*
X13933928Y-15813643D01*
X13919643Y-15827929D01*
X13891071Y-15842214D01*
X13862500Y-15842214D01*
X13833928Y-15827929D01*
X13819643Y-15813643D01*
X13805357Y-15785071D01*
X13791071Y-15727929D01*
X13791071Y-15656500D01*
X13805357Y-15599357D01*
X13819643Y-15570786D01*
X13833928Y-15556500D01*
X13862500Y-15542214D01*
X14091071Y-15813643D02*
X14105357Y-15827929D01*
X14091071Y-15842214D01*
X14076786Y-15827929D01*
X14091071Y-15813643D01*
X14091071Y-15842214D01*
X14291071Y-15542214D02*
X14319643Y-15542214D01*
X14348214Y-15556500D01*
X14362500Y-15570786D01*
X14376786Y-15599357D01*
X14391071Y-15656500D01*
X14391071Y-15727929D01*
X14376786Y-15785071D01*
X14362500Y-15813643D01*
X14348214Y-15827929D01*
X14319643Y-15842214D01*
X14291071Y-15842214D01*
X14262500Y-15827929D01*
X14248214Y-15813643D01*
X14233928Y-15785071D01*
X14219643Y-15727929D01*
X14219643Y-15656500D01*
X14233928Y-15599357D01*
X14248214Y-15570786D01*
X14262500Y-15556500D01*
X14291071Y-15542214D01*
X14491071Y-15542214D02*
X14676786Y-15542214D01*
X14576786Y-15656500D01*
X14619643Y-15656500D01*
X14648214Y-15670786D01*
X14662500Y-15685071D01*
X14676786Y-15713643D01*
X14676786Y-15785071D01*
X14662500Y-15813643D01*
X14648214Y-15827929D01*
X14619643Y-15842214D01*
X14533928Y-15842214D01*
X14505357Y-15827929D01*
X14491071Y-15813643D01*
X14819643Y-15842214D02*
X14876786Y-15842214D01*
X14905357Y-15827929D01*
X14919643Y-15813643D01*
X14948214Y-15770786D01*
X14962500Y-15713643D01*
X14962500Y-15599357D01*
X14948214Y-15570786D01*
X14933928Y-15556500D01*
X14905357Y-15542214D01*
X14848214Y-15542214D01*
X14819643Y-15556500D01*
X14805357Y-15570786D01*
X14791071Y-15599357D01*
X14791071Y-15670786D01*
X14805357Y-15699357D01*
X14819643Y-15713643D01*
X14848214Y-15727929D01*
X14905357Y-15727929D01*
X14933928Y-15713643D01*
X14948214Y-15699357D01*
X14962500Y-15670786D01*
X15076786Y-15542214D02*
X15076786Y-15599357D01*
X15191071Y-15542214D02*
X15191071Y-15599357D01*
X15633928Y-15956500D02*
X15619643Y-15942214D01*
X15591071Y-15899357D01*
X15576786Y-15870786D01*
X15562500Y-15827929D01*
X15548214Y-15756500D01*
X15548214Y-15699357D01*
X15562500Y-15627929D01*
X15576786Y-15585071D01*
X15591071Y-15556500D01*
X15619643Y-15513643D01*
X15633928Y-15499357D01*
X15733928Y-15570786D02*
X15748214Y-15556500D01*
X15776786Y-15542214D01*
X15848214Y-15542214D01*
X15876786Y-15556500D01*
X15891071Y-15570786D01*
X15905357Y-15599357D01*
X15905357Y-15627929D01*
X15891071Y-15670786D01*
X15719643Y-15842214D01*
X15905357Y-15842214D01*
X16191071Y-15842214D02*
X16019643Y-15842214D01*
X16105357Y-15842214D02*
X16105357Y-15542214D01*
X16076786Y-15585071D01*
X16048214Y-15613643D01*
X16019643Y-15627929D01*
X16548214Y-15842214D02*
X16548214Y-15542214D01*
X16676786Y-15842214D02*
X16676786Y-15685071D01*
X16662500Y-15656500D01*
X16633928Y-15642214D01*
X16591071Y-15642214D01*
X16562500Y-15656500D01*
X16548214Y-15670786D01*
X16862500Y-15842214D02*
X16833928Y-15827929D01*
X16819643Y-15813643D01*
X16805357Y-15785071D01*
X16805357Y-15699357D01*
X16819643Y-15670786D01*
X16833928Y-15656500D01*
X16862500Y-15642214D01*
X16905357Y-15642214D01*
X16933928Y-15656500D01*
X16948214Y-15670786D01*
X16962500Y-15699357D01*
X16962500Y-15785071D01*
X16948214Y-15813643D01*
X16933928Y-15827929D01*
X16905357Y-15842214D01*
X16862500Y-15842214D01*
X17133928Y-15842214D02*
X17105357Y-15827929D01*
X17091071Y-15799357D01*
X17091071Y-15542214D01*
X17362500Y-15827929D02*
X17333928Y-15842214D01*
X17276786Y-15842214D01*
X17248214Y-15827929D01*
X17233928Y-15799357D01*
X17233928Y-15685071D01*
X17248214Y-15656500D01*
X17276786Y-15642214D01*
X17333928Y-15642214D01*
X17362500Y-15656500D01*
X17376786Y-15685071D01*
X17376786Y-15713643D01*
X17233928Y-15742214D01*
X17491071Y-15827929D02*
X17519643Y-15842214D01*
X17576786Y-15842214D01*
X17605357Y-15827929D01*
X17619643Y-15799357D01*
X17619643Y-15785071D01*
X17605357Y-15756500D01*
X17576786Y-15742214D01*
X17533928Y-15742214D01*
X17505357Y-15727929D01*
X17491071Y-15699357D01*
X17491071Y-15685071D01*
X17505357Y-15656500D01*
X17533928Y-15642214D01*
X17576786Y-15642214D01*
X17605357Y-15656500D01*
X17719643Y-15956500D02*
X17733928Y-15942214D01*
X17762500Y-15899357D01*
X17776786Y-15870786D01*
X17791071Y-15827929D01*
X17805357Y-15756500D01*
X17805357Y-15699357D01*
X17791071Y-15627929D01*
X17776786Y-15585071D01*
X17762500Y-15556500D01*
X17733928Y-15513643D01*
X17719643Y-15499357D01*
X10845900Y-16051700D02*
X10947500Y-16153300D01*
X10947500Y-16051700D02*
X10845900Y-16153300D01*
X10947500Y-16102500D02*
G75*
G03X10947500Y-16102500I-50800J0D01*
G01*
X11391071Y-16238214D02*
X11219643Y-16238214D01*
X11305357Y-16238214D02*
X11305357Y-15938214D01*
X11276786Y-15981071D01*
X11248214Y-16009643D01*
X11219643Y-16023929D01*
X11519643Y-16209643D02*
X11533928Y-16223929D01*
X11519643Y-16238214D01*
X11505357Y-16223929D01*
X11519643Y-16209643D01*
X11519643Y-16238214D01*
X11719643Y-15938214D02*
X11748214Y-15938214D01*
X11776786Y-15952500D01*
X11791071Y-15966786D01*
X11805357Y-15995357D01*
X11819643Y-16052500D01*
X11819643Y-16123929D01*
X11805357Y-16181071D01*
X11791071Y-16209643D01*
X11776786Y-16223929D01*
X11748214Y-16238214D01*
X11719643Y-16238214D01*
X11691071Y-16223929D01*
X11676786Y-16209643D01*
X11662500Y-16181071D01*
X11648214Y-16123929D01*
X11648214Y-16052500D01*
X11662500Y-15995357D01*
X11676786Y-15966786D01*
X11691071Y-15952500D01*
X11719643Y-15938214D01*
X11933928Y-15966786D02*
X11948214Y-15952500D01*
X11976786Y-15938214D01*
X12048214Y-15938214D01*
X12076786Y-15952500D01*
X12091071Y-15966786D01*
X12105357Y-15995357D01*
X12105357Y-16023929D01*
X12091071Y-16066786D01*
X11919643Y-16238214D01*
X12105357Y-16238214D01*
X12233928Y-16238214D02*
X12233928Y-16038214D01*
X12233928Y-16066786D02*
X12248214Y-16052500D01*
X12276786Y-16038214D01*
X12319643Y-16038214D01*
X12348214Y-16052500D01*
X12362500Y-16081071D01*
X12362500Y-16238214D01*
X12362500Y-16081071D02*
X12376786Y-16052500D01*
X12405357Y-16038214D01*
X12448214Y-16038214D01*
X12476786Y-16052500D01*
X12491071Y-16081071D01*
X12491071Y-16238214D01*
X12633928Y-16238214D02*
X12633928Y-16038214D01*
X12633928Y-16066786D02*
X12648214Y-16052500D01*
X12676786Y-16038214D01*
X12719643Y-16038214D01*
X12748214Y-16052500D01*
X12762500Y-16081071D01*
X12762500Y-16238214D01*
X12762500Y-16081071D02*
X12776786Y-16052500D01*
X12805357Y-16038214D01*
X12848214Y-16038214D01*
X12876786Y-16052500D01*
X12891071Y-16081071D01*
X12891071Y-16238214D01*
X13476786Y-15923929D02*
X13219643Y-16309643D01*
X13862500Y-15938214D02*
X13891071Y-15938214D01*
X13919643Y-15952500D01*
X13933928Y-15966786D01*
X13948214Y-15995357D01*
X13962500Y-16052500D01*
X13962500Y-16123929D01*
X13948214Y-16181071D01*
X13933928Y-16209643D01*
X13919643Y-16223929D01*
X13891071Y-16238214D01*
X13862500Y-16238214D01*
X13833928Y-16223929D01*
X13819643Y-16209643D01*
X13805357Y-16181071D01*
X13791071Y-16123929D01*
X13791071Y-16052500D01*
X13805357Y-15995357D01*
X13819643Y-15966786D01*
X13833928Y-15952500D01*
X13862500Y-15938214D01*
X14091071Y-16209643D02*
X14105357Y-16223929D01*
X14091071Y-16238214D01*
X14076786Y-16223929D01*
X14091071Y-16209643D01*
X14091071Y-16238214D01*
X14291071Y-15938214D02*
X14319643Y-15938214D01*
X14348214Y-15952500D01*
X14362500Y-15966786D01*
X14376786Y-15995357D01*
X14391071Y-16052500D01*
X14391071Y-16123929D01*
X14376786Y-16181071D01*
X14362500Y-16209643D01*
X14348214Y-16223929D01*
X14319643Y-16238214D01*
X14291071Y-16238214D01*
X14262500Y-16223929D01*
X14248214Y-16209643D01*
X14233928Y-16181071D01*
X14219643Y-16123929D01*
X14219643Y-16052500D01*
X14233928Y-15995357D01*
X14248214Y-15966786D01*
X14262500Y-15952500D01*
X14291071Y-15938214D01*
X14648214Y-16038214D02*
X14648214Y-16238214D01*
X14576786Y-15923929D02*
X14505357Y-16138214D01*
X14691071Y-16138214D01*
X14862500Y-15938214D02*
X14891071Y-15938214D01*
X14919643Y-15952500D01*
X14933928Y-15966786D01*
X14948214Y-15995357D01*
X14962500Y-16052500D01*
X14962500Y-16123929D01*
X14948214Y-16181071D01*
X14933928Y-16209643D01*
X14919643Y-16223929D01*
X14891071Y-16238214D01*
X14862500Y-16238214D01*
X14833928Y-16223929D01*
X14819643Y-16209643D01*
X14805357Y-16181071D01*
X14791071Y-16123929D01*
X14791071Y-16052500D01*
X14805357Y-15995357D01*
X14819643Y-15966786D01*
X14833928Y-15952500D01*
X14862500Y-15938214D01*
X15076786Y-15938214D02*
X15076786Y-15995357D01*
X15191071Y-15938214D02*
X15191071Y-15995357D01*
X15633928Y-16352500D02*
X15619643Y-16338214D01*
X15591071Y-16295357D01*
X15576786Y-16266786D01*
X15562500Y-16223929D01*
X15548214Y-16152500D01*
X15548214Y-16095357D01*
X15562500Y-16023929D01*
X15576786Y-15981071D01*
X15591071Y-15952500D01*
X15619643Y-15909643D01*
X15633928Y-15895357D01*
X15905357Y-16238214D02*
X15733928Y-16238214D01*
X15819643Y-16238214D02*
X15819643Y-15938214D01*
X15791071Y-15981071D01*
X15762500Y-16009643D01*
X15733928Y-16023929D01*
X16091071Y-15938214D02*
X16119643Y-15938214D01*
X16148214Y-15952500D01*
X16162500Y-15966786D01*
X16176786Y-15995357D01*
X16191071Y-16052500D01*
X16191071Y-16123929D01*
X16176786Y-16181071D01*
X16162500Y-16209643D01*
X16148214Y-16223929D01*
X16119643Y-16238214D01*
X16091071Y-16238214D01*
X16062500Y-16223929D01*
X16048214Y-16209643D01*
X16033928Y-16181071D01*
X16019643Y-16123929D01*
X16019643Y-16052500D01*
X16033928Y-15995357D01*
X16048214Y-15966786D01*
X16062500Y-15952500D01*
X16091071Y-15938214D01*
X16548214Y-16238214D02*
X16548214Y-15938214D01*
X16676786Y-16238214D02*
X16676786Y-16081071D01*
X16662500Y-16052500D01*
X16633928Y-16038214D01*
X16591071Y-16038214D01*
X16562500Y-16052500D01*
X16548214Y-16066786D01*
X16862500Y-16238214D02*
X16833928Y-16223929D01*
X16819643Y-16209643D01*
X16805357Y-16181071D01*
X16805357Y-16095357D01*
X16819643Y-16066786D01*
X16833928Y-16052500D01*
X16862500Y-16038214D01*
X16905357Y-16038214D01*
X16933928Y-16052500D01*
X16948214Y-16066786D01*
X16962500Y-16095357D01*
X16962500Y-16181071D01*
X16948214Y-16209643D01*
X16933928Y-16223929D01*
X16905357Y-16238214D01*
X16862500Y-16238214D01*
X17133928Y-16238214D02*
X17105357Y-16223929D01*
X17091071Y-16195357D01*
X17091071Y-15938214D01*
X17362500Y-16223929D02*
X17333928Y-16238214D01*
X17276786Y-16238214D01*
X17248214Y-16223929D01*
X17233928Y-16195357D01*
X17233928Y-16081071D01*
X17248214Y-16052500D01*
X17276786Y-16038214D01*
X17333928Y-16038214D01*
X17362500Y-16052500D01*
X17376786Y-16081071D01*
X17376786Y-16109643D01*
X17233928Y-16138214D01*
X17491071Y-16223929D02*
X17519643Y-16238214D01*
X17576786Y-16238214D01*
X17605357Y-16223929D01*
X17619643Y-16195357D01*
X17619643Y-16181071D01*
X17605357Y-16152500D01*
X17576786Y-16138214D01*
X17533928Y-16138214D01*
X17505357Y-16123929D01*
X17491071Y-16095357D01*
X17491071Y-16081071D01*
X17505357Y-16052500D01*
X17533928Y-16038214D01*
X17576786Y-16038214D01*
X17605357Y-16052500D01*
X17719643Y-16352500D02*
X17733928Y-16338214D01*
X17762500Y-16295357D01*
X17776786Y-16266786D01*
X17791071Y-16223929D01*
X17805357Y-16152500D01*
X17805357Y-16095357D01*
X17791071Y-16023929D01*
X17776786Y-15981071D01*
X17762500Y-15952500D01*
X17733928Y-15909643D01*
X17719643Y-15895357D01*
X10795500Y-16422500D02*
X10947500Y-16574500D01*
X10947500Y-16422500D02*
X10795500Y-16574500D01*
X10871500Y-16422500D02*
X10871500Y-16574500D01*
X10795500Y-16498500D02*
X10947500Y-16498500D01*
X11391071Y-16634214D02*
X11219643Y-16634214D01*
X11305357Y-16634214D02*
X11305357Y-16334214D01*
X11276786Y-16377071D01*
X11248214Y-16405643D01*
X11219643Y-16419929D01*
X11519643Y-16605643D02*
X11533928Y-16619929D01*
X11519643Y-16634214D01*
X11505357Y-16619929D01*
X11519643Y-16605643D01*
X11519643Y-16634214D01*
X11805357Y-16334214D02*
X11662500Y-16334214D01*
X11648214Y-16477071D01*
X11662500Y-16462786D01*
X11691071Y-16448500D01*
X11762500Y-16448500D01*
X11791071Y-16462786D01*
X11805357Y-16477071D01*
X11819643Y-16505643D01*
X11819643Y-16577071D01*
X11805357Y-16605643D01*
X11791071Y-16619929D01*
X11762500Y-16634214D01*
X11691071Y-16634214D01*
X11662500Y-16619929D01*
X11648214Y-16605643D01*
X11933928Y-16362786D02*
X11948214Y-16348500D01*
X11976786Y-16334214D01*
X12048214Y-16334214D01*
X12076786Y-16348500D01*
X12091071Y-16362786D01*
X12105357Y-16391357D01*
X12105357Y-16419929D01*
X12091071Y-16462786D01*
X11919643Y-16634214D01*
X12105357Y-16634214D01*
X12233928Y-16634214D02*
X12233928Y-16434214D01*
X12233928Y-16462786D02*
X12248214Y-16448500D01*
X12276786Y-16434214D01*
X12319643Y-16434214D01*
X12348214Y-16448500D01*
X12362500Y-16477071D01*
X12362500Y-16634214D01*
X12362500Y-16477071D02*
X12376786Y-16448500D01*
X12405357Y-16434214D01*
X12448214Y-16434214D01*
X12476786Y-16448500D01*
X12491071Y-16477071D01*
X12491071Y-16634214D01*
X12633928Y-16634214D02*
X12633928Y-16434214D01*
X12633928Y-16462786D02*
X12648214Y-16448500D01*
X12676786Y-16434214D01*
X12719643Y-16434214D01*
X12748214Y-16448500D01*
X12762500Y-16477071D01*
X12762500Y-16634214D01*
X12762500Y-16477071D02*
X12776786Y-16448500D01*
X12805357Y-16434214D01*
X12848214Y-16434214D01*
X12876786Y-16448500D01*
X12891071Y-16477071D01*
X12891071Y-16634214D01*
X13476786Y-16319929D02*
X13219643Y-16705643D01*
X13862500Y-16334214D02*
X13891071Y-16334214D01*
X13919643Y-16348500D01*
X13933928Y-16362786D01*
X13948214Y-16391357D01*
X13962500Y-16448500D01*
X13962500Y-16519929D01*
X13948214Y-16577071D01*
X13933928Y-16605643D01*
X13919643Y-16619929D01*
X13891071Y-16634214D01*
X13862500Y-16634214D01*
X13833928Y-16619929D01*
X13819643Y-16605643D01*
X13805357Y-16577071D01*
X13791071Y-16519929D01*
X13791071Y-16448500D01*
X13805357Y-16391357D01*
X13819643Y-16362786D01*
X13833928Y-16348500D01*
X13862500Y-16334214D01*
X14091071Y-16605643D02*
X14105357Y-16619929D01*
X14091071Y-16634214D01*
X14076786Y-16619929D01*
X14091071Y-16605643D01*
X14091071Y-16634214D01*
X14291071Y-16334214D02*
X14319643Y-16334214D01*
X14348214Y-16348500D01*
X14362500Y-16362786D01*
X14376786Y-16391357D01*
X14391071Y-16448500D01*
X14391071Y-16519929D01*
X14376786Y-16577071D01*
X14362500Y-16605643D01*
X14348214Y-16619929D01*
X14319643Y-16634214D01*
X14291071Y-16634214D01*
X14262500Y-16619929D01*
X14248214Y-16605643D01*
X14233928Y-16577071D01*
X14219643Y-16519929D01*
X14219643Y-16448500D01*
X14233928Y-16391357D01*
X14248214Y-16362786D01*
X14262500Y-16348500D01*
X14291071Y-16334214D01*
X14648214Y-16334214D02*
X14591071Y-16334214D01*
X14562500Y-16348500D01*
X14548214Y-16362786D01*
X14519643Y-16405643D01*
X14505357Y-16462786D01*
X14505357Y-16577071D01*
X14519643Y-16605643D01*
X14533928Y-16619929D01*
X14562500Y-16634214D01*
X14619643Y-16634214D01*
X14648214Y-16619929D01*
X14662500Y-16605643D01*
X14676786Y-16577071D01*
X14676786Y-16505643D01*
X14662500Y-16477071D01*
X14648214Y-16462786D01*
X14619643Y-16448500D01*
X14562500Y-16448500D01*
X14533928Y-16462786D01*
X14519643Y-16477071D01*
X14505357Y-16505643D01*
X14862500Y-16334214D02*
X14891071Y-16334214D01*
X14919643Y-16348500D01*
X14933928Y-16362786D01*
X14948214Y-16391357D01*
X14962500Y-16448500D01*
X14962500Y-16519929D01*
X14948214Y-16577071D01*
X14933928Y-16605643D01*
X14919643Y-16619929D01*
X14891071Y-16634214D01*
X14862500Y-16634214D01*
X14833928Y-16619929D01*
X14819643Y-16605643D01*
X14805357Y-16577071D01*
X14791071Y-16519929D01*
X14791071Y-16448500D01*
X14805357Y-16391357D01*
X14819643Y-16362786D01*
X14833928Y-16348500D01*
X14862500Y-16334214D01*
X15076786Y-16334214D02*
X15076786Y-16391357D01*
X15191071Y-16334214D02*
X15191071Y-16391357D01*
X15633928Y-16748500D02*
X15619643Y-16734214D01*
X15591071Y-16691357D01*
X15576786Y-16662786D01*
X15562500Y-16619929D01*
X15548214Y-16548500D01*
X15548214Y-16491357D01*
X15562500Y-16419929D01*
X15576786Y-16377071D01*
X15591071Y-16348500D01*
X15619643Y-16305643D01*
X15633928Y-16291357D01*
X15876786Y-16434214D02*
X15876786Y-16634214D01*
X15805357Y-16319929D02*
X15733928Y-16534214D01*
X15919643Y-16534214D01*
X16262500Y-16634214D02*
X16262500Y-16334214D01*
X16391071Y-16634214D02*
X16391071Y-16477071D01*
X16376786Y-16448500D01*
X16348214Y-16434214D01*
X16305357Y-16434214D01*
X16276786Y-16448500D01*
X16262500Y-16462786D01*
X16576786Y-16634214D02*
X16548214Y-16619929D01*
X16533928Y-16605643D01*
X16519643Y-16577071D01*
X16519643Y-16491357D01*
X16533928Y-16462786D01*
X16548214Y-16448500D01*
X16576786Y-16434214D01*
X16619643Y-16434214D01*
X16648214Y-16448500D01*
X16662500Y-16462786D01*
X16676786Y-16491357D01*
X16676786Y-16577071D01*
X16662500Y-16605643D01*
X16648214Y-16619929D01*
X16619643Y-16634214D01*
X16576786Y-16634214D01*
X16848214Y-16634214D02*
X16819643Y-16619929D01*
X16805357Y-16591357D01*
X16805357Y-16334214D01*
X17076786Y-16619929D02*
X17048214Y-16634214D01*
X16991071Y-16634214D01*
X16962500Y-16619929D01*
X16948214Y-16591357D01*
X16948214Y-16477071D01*
X16962500Y-16448500D01*
X16991071Y-16434214D01*
X17048214Y-16434214D01*
X17076786Y-16448500D01*
X17091071Y-16477071D01*
X17091071Y-16505643D01*
X16948214Y-16534214D01*
X17205357Y-16619929D02*
X17233928Y-16634214D01*
X17291071Y-16634214D01*
X17319643Y-16619929D01*
X17333928Y-16591357D01*
X17333928Y-16577071D01*
X17319643Y-16548500D01*
X17291071Y-16534214D01*
X17248214Y-16534214D01*
X17219643Y-16519929D01*
X17205357Y-16491357D01*
X17205357Y-16477071D01*
X17219643Y-16448500D01*
X17248214Y-16434214D01*
X17291071Y-16434214D01*
X17319643Y-16448500D01*
X17433928Y-16748500D02*
X17448214Y-16734214D01*
X17476786Y-16691357D01*
X17491071Y-16662786D01*
X17505357Y-16619929D01*
X17519643Y-16548500D01*
X17519643Y-16491357D01*
X17505357Y-16419929D01*
X17491071Y-16377071D01*
X17476786Y-16348500D01*
X17448214Y-16305643D01*
X17433928Y-16291357D01*
X10769500Y-16805500D02*
X10947500Y-16983500D01*
X10947500Y-16805500D02*
X10769500Y-16983500D01*
X10921433Y-16957433D02*
X10921433Y-16831567D01*
X10795567Y-16831567D01*
X10795567Y-16957433D01*
X10921433Y-16957433D01*
X11391071Y-17030214D02*
X11219643Y-17030214D01*
X11305357Y-17030214D02*
X11305357Y-16730214D01*
X11276786Y-16773071D01*
X11248214Y-16801643D01*
X11219643Y-16815929D01*
X11519643Y-17001643D02*
X11533928Y-17015929D01*
X11519643Y-17030214D01*
X11505357Y-17015929D01*
X11519643Y-17001643D01*
X11519643Y-17030214D01*
X11633928Y-16730214D02*
X11833928Y-16730214D01*
X11705357Y-17030214D01*
X11991071Y-16858786D02*
X11962500Y-16844500D01*
X11948214Y-16830214D01*
X11933928Y-16801643D01*
X11933928Y-16787357D01*
X11948214Y-16758786D01*
X11962500Y-16744500D01*
X11991071Y-16730214D01*
X12048214Y-16730214D01*
X12076786Y-16744500D01*
X12091071Y-16758786D01*
X12105357Y-16787357D01*
X12105357Y-16801643D01*
X12091071Y-16830214D01*
X12076786Y-16844500D01*
X12048214Y-16858786D01*
X11991071Y-16858786D01*
X11962500Y-16873072D01*
X11948214Y-16887357D01*
X11933928Y-16915929D01*
X11933928Y-16973072D01*
X11948214Y-17001643D01*
X11962500Y-17015929D01*
X11991071Y-17030214D01*
X12048214Y-17030214D01*
X12076786Y-17015929D01*
X12091071Y-17001643D01*
X12105357Y-16973072D01*
X12105357Y-16915929D01*
X12091071Y-16887357D01*
X12076786Y-16873072D01*
X12048214Y-16858786D01*
X12233928Y-17030214D02*
X12233928Y-16830214D01*
X12233928Y-16858786D02*
X12248214Y-16844500D01*
X12276786Y-16830214D01*
X12319643Y-16830214D01*
X12348214Y-16844500D01*
X12362500Y-16873072D01*
X12362500Y-17030214D01*
X12362500Y-16873072D02*
X12376786Y-16844500D01*
X12405357Y-16830214D01*
X12448214Y-16830214D01*
X12476786Y-16844500D01*
X12491071Y-16873072D01*
X12491071Y-17030214D01*
X12633928Y-17030214D02*
X12633928Y-16830214D01*
X12633928Y-16858786D02*
X12648214Y-16844500D01*
X12676786Y-16830214D01*
X12719643Y-16830214D01*
X12748214Y-16844500D01*
X12762500Y-16873072D01*
X12762500Y-17030214D01*
X12762500Y-16873072D02*
X12776786Y-16844500D01*
X12805357Y-16830214D01*
X12848214Y-16830214D01*
X12876786Y-16844500D01*
X12891071Y-16873072D01*
X12891071Y-17030214D01*
X13476786Y-16715929D02*
X13219643Y-17101643D01*
X13862500Y-16730214D02*
X13891071Y-16730214D01*
X13919643Y-16744500D01*
X13933928Y-16758786D01*
X13948214Y-16787357D01*
X13962500Y-16844500D01*
X13962500Y-16915929D01*
X13948214Y-16973072D01*
X13933928Y-17001643D01*
X13919643Y-17015929D01*
X13891071Y-17030214D01*
X13862500Y-17030214D01*
X13833928Y-17015929D01*
X13819643Y-17001643D01*
X13805357Y-16973072D01*
X13791071Y-16915929D01*
X13791071Y-16844500D01*
X13805357Y-16787357D01*
X13819643Y-16758786D01*
X13833928Y-16744500D01*
X13862500Y-16730214D01*
X14091071Y-17001643D02*
X14105357Y-17015929D01*
X14091071Y-17030214D01*
X14076786Y-17015929D01*
X14091071Y-17001643D01*
X14091071Y-17030214D01*
X14291071Y-16730214D02*
X14319643Y-16730214D01*
X14348214Y-16744500D01*
X14362500Y-16758786D01*
X14376786Y-16787357D01*
X14391071Y-16844500D01*
X14391071Y-16915929D01*
X14376786Y-16973072D01*
X14362500Y-17001643D01*
X14348214Y-17015929D01*
X14319643Y-17030214D01*
X14291071Y-17030214D01*
X14262500Y-17015929D01*
X14248214Y-17001643D01*
X14233928Y-16973072D01*
X14219643Y-16915929D01*
X14219643Y-16844500D01*
X14233928Y-16787357D01*
X14248214Y-16758786D01*
X14262500Y-16744500D01*
X14291071Y-16730214D01*
X14491071Y-16730214D02*
X14691071Y-16730214D01*
X14562500Y-17030214D01*
X14862500Y-16730214D02*
X14891071Y-16730214D01*
X14919643Y-16744500D01*
X14933928Y-16758786D01*
X14948214Y-16787357D01*
X14962500Y-16844500D01*
X14962500Y-16915929D01*
X14948214Y-16973072D01*
X14933928Y-17001643D01*
X14919643Y-17015929D01*
X14891071Y-17030214D01*
X14862500Y-17030214D01*
X14833928Y-17015929D01*
X14819643Y-17001643D01*
X14805357Y-16973072D01*
X14791071Y-16915929D01*
X14791071Y-16844500D01*
X14805357Y-16787357D01*
X14819643Y-16758786D01*
X14833928Y-16744500D01*
X14862500Y-16730214D01*
X15076786Y-16730214D02*
X15076786Y-16787357D01*
X15191071Y-16730214D02*
X15191071Y-16787357D01*
X15633928Y-17144500D02*
X15619643Y-17130214D01*
X15591071Y-17087357D01*
X15576786Y-17058786D01*
X15562500Y-17015929D01*
X15548214Y-16944500D01*
X15548214Y-16887357D01*
X15562500Y-16815929D01*
X15576786Y-16773071D01*
X15591071Y-16744500D01*
X15619643Y-16701643D01*
X15633928Y-16687357D01*
X15876786Y-16830214D02*
X15876786Y-17030214D01*
X15805357Y-16715929D02*
X15733928Y-16930214D01*
X15919643Y-16930214D01*
X16262500Y-17030214D02*
X16262500Y-16730214D01*
X16391071Y-17030214D02*
X16391071Y-16873072D01*
X16376786Y-16844500D01*
X16348214Y-16830214D01*
X16305357Y-16830214D01*
X16276786Y-16844500D01*
X16262500Y-16858786D01*
X16576786Y-17030214D02*
X16548214Y-17015929D01*
X16533928Y-17001643D01*
X16519643Y-16973072D01*
X16519643Y-16887357D01*
X16533928Y-16858786D01*
X16548214Y-16844500D01*
X16576786Y-16830214D01*
X16619643Y-16830214D01*
X16648214Y-16844500D01*
X16662500Y-16858786D01*
X16676786Y-16887357D01*
X16676786Y-16973072D01*
X16662500Y-17001643D01*
X16648214Y-17015929D01*
X16619643Y-17030214D01*
X16576786Y-17030214D01*
X16848214Y-17030214D02*
X16819643Y-17015929D01*
X16805357Y-16987357D01*
X16805357Y-16730214D01*
X17076786Y-17015929D02*
X17048214Y-17030214D01*
X16991071Y-17030214D01*
X16962500Y-17015929D01*
X16948214Y-16987357D01*
X16948214Y-16873072D01*
X16962500Y-16844500D01*
X16991071Y-16830214D01*
X17048214Y-16830214D01*
X17076786Y-16844500D01*
X17091071Y-16873072D01*
X17091071Y-16901643D01*
X16948214Y-16930214D01*
X17205357Y-17015929D02*
X17233928Y-17030214D01*
X17291071Y-17030214D01*
X17319643Y-17015929D01*
X17333928Y-16987357D01*
X17333928Y-16973072D01*
X17319643Y-16944500D01*
X17291071Y-16930214D01*
X17248214Y-16930214D01*
X17219643Y-16915929D01*
X17205357Y-16887357D01*
X17205357Y-16873072D01*
X17219643Y-16844500D01*
X17248214Y-16830214D01*
X17291071Y-16830214D01*
X17319643Y-16844500D01*
X17433928Y-17144500D02*
X17448214Y-17130214D01*
X17476786Y-17087357D01*
X17491071Y-17058786D01*
X17505357Y-17015929D01*
X17519643Y-16944500D01*
X17519643Y-16887357D01*
X17505357Y-16815929D01*
X17491071Y-16773071D01*
X17476786Y-16744500D01*
X17448214Y-16701643D01*
X17433928Y-16687357D01*
X10697564Y-17165532D02*
X10947500Y-17415468D01*
X10947500Y-17165532D02*
X10697564Y-17415468D01*
X10822532Y-17415468D02*
X10947500Y-17290500D01*
X10822532Y-17165532D01*
X10697564Y-17290500D01*
X10822532Y-17415468D01*
X11219643Y-17154786D02*
X11233928Y-17140500D01*
X11262500Y-17126214D01*
X11333928Y-17126214D01*
X11362500Y-17140500D01*
X11376786Y-17154786D01*
X11391071Y-17183357D01*
X11391071Y-17211929D01*
X11376786Y-17254786D01*
X11205357Y-17426214D01*
X11391071Y-17426214D01*
X11519643Y-17397643D02*
X11533928Y-17411929D01*
X11519643Y-17426214D01*
X11505357Y-17411929D01*
X11519643Y-17397643D01*
X11519643Y-17426214D01*
X11805357Y-17126214D02*
X11662500Y-17126214D01*
X11648214Y-17269072D01*
X11662500Y-17254786D01*
X11691071Y-17240500D01*
X11762500Y-17240500D01*
X11791071Y-17254786D01*
X11805357Y-17269072D01*
X11819643Y-17297643D01*
X11819643Y-17369072D01*
X11805357Y-17397643D01*
X11791071Y-17411929D01*
X11762500Y-17426214D01*
X11691071Y-17426214D01*
X11662500Y-17411929D01*
X11648214Y-17397643D01*
X12005357Y-17126214D02*
X12033928Y-17126214D01*
X12062500Y-17140500D01*
X12076786Y-17154786D01*
X12091071Y-17183357D01*
X12105357Y-17240500D01*
X12105357Y-17311929D01*
X12091071Y-17369072D01*
X12076786Y-17397643D01*
X12062500Y-17411929D01*
X12033928Y-17426214D01*
X12005357Y-17426214D01*
X11976786Y-17411929D01*
X11962500Y-17397643D01*
X11948214Y-17369072D01*
X11933928Y-17311929D01*
X11933928Y-17240500D01*
X11948214Y-17183357D01*
X11962500Y-17154786D01*
X11976786Y-17140500D01*
X12005357Y-17126214D01*
X12233928Y-17426214D02*
X12233928Y-17226214D01*
X12233928Y-17254786D02*
X12248214Y-17240500D01*
X12276786Y-17226214D01*
X12319643Y-17226214D01*
X12348214Y-17240500D01*
X12362500Y-17269072D01*
X12362500Y-17426214D01*
X12362500Y-17269072D02*
X12376786Y-17240500D01*
X12405357Y-17226214D01*
X12448214Y-17226214D01*
X12476786Y-17240500D01*
X12491071Y-17269072D01*
X12491071Y-17426214D01*
X12633928Y-17426214D02*
X12633928Y-17226214D01*
X12633928Y-17254786D02*
X12648214Y-17240500D01*
X12676786Y-17226214D01*
X12719643Y-17226214D01*
X12748214Y-17240500D01*
X12762500Y-17269072D01*
X12762500Y-17426214D01*
X12762500Y-17269072D02*
X12776786Y-17240500D01*
X12805357Y-17226214D01*
X12848214Y-17226214D01*
X12876786Y-17240500D01*
X12891071Y-17269072D01*
X12891071Y-17426214D01*
X13476786Y-17111929D02*
X13219643Y-17497643D01*
X13862500Y-17126214D02*
X13891071Y-17126214D01*
X13919643Y-17140500D01*
X13933928Y-17154786D01*
X13948214Y-17183357D01*
X13962500Y-17240500D01*
X13962500Y-17311929D01*
X13948214Y-17369072D01*
X13933928Y-17397643D01*
X13919643Y-17411929D01*
X13891071Y-17426214D01*
X13862500Y-17426214D01*
X13833928Y-17411929D01*
X13819643Y-17397643D01*
X13805357Y-17369072D01*
X13791071Y-17311929D01*
X13791071Y-17240500D01*
X13805357Y-17183357D01*
X13819643Y-17154786D01*
X13833928Y-17140500D01*
X13862500Y-17126214D01*
X14091071Y-17397643D02*
X14105357Y-17411929D01*
X14091071Y-17426214D01*
X14076786Y-17411929D01*
X14091071Y-17397643D01*
X14091071Y-17426214D01*
X14291071Y-17126214D02*
X14319643Y-17126214D01*
X14348214Y-17140500D01*
X14362500Y-17154786D01*
X14376786Y-17183357D01*
X14391071Y-17240500D01*
X14391071Y-17311929D01*
X14376786Y-17369072D01*
X14362500Y-17397643D01*
X14348214Y-17411929D01*
X14319643Y-17426214D01*
X14291071Y-17426214D01*
X14262500Y-17411929D01*
X14248214Y-17397643D01*
X14233928Y-17369072D01*
X14219643Y-17311929D01*
X14219643Y-17240500D01*
X14233928Y-17183357D01*
X14248214Y-17154786D01*
X14262500Y-17140500D01*
X14291071Y-17126214D01*
X14533928Y-17426214D02*
X14591071Y-17426214D01*
X14619643Y-17411929D01*
X14633928Y-17397643D01*
X14662500Y-17354786D01*
X14676786Y-17297643D01*
X14676786Y-17183357D01*
X14662500Y-17154786D01*
X14648214Y-17140500D01*
X14619643Y-17126214D01*
X14562500Y-17126214D01*
X14533928Y-17140500D01*
X14519643Y-17154786D01*
X14505357Y-17183357D01*
X14505357Y-17254786D01*
X14519643Y-17283357D01*
X14533928Y-17297643D01*
X14562500Y-17311929D01*
X14619643Y-17311929D01*
X14648214Y-17297643D01*
X14662500Y-17283357D01*
X14676786Y-17254786D01*
X14848214Y-17254786D02*
X14819643Y-17240500D01*
X14805357Y-17226214D01*
X14791071Y-17197643D01*
X14791071Y-17183357D01*
X14805357Y-17154786D01*
X14819643Y-17140500D01*
X14848214Y-17126214D01*
X14905357Y-17126214D01*
X14933928Y-17140500D01*
X14948214Y-17154786D01*
X14962500Y-17183357D01*
X14962500Y-17197643D01*
X14948214Y-17226214D01*
X14933928Y-17240500D01*
X14905357Y-17254786D01*
X14848214Y-17254786D01*
X14819643Y-17269072D01*
X14805357Y-17283357D01*
X14791071Y-17311929D01*
X14791071Y-17369072D01*
X14805357Y-17397643D01*
X14819643Y-17411929D01*
X14848214Y-17426214D01*
X14905357Y-17426214D01*
X14933928Y-17411929D01*
X14948214Y-17397643D01*
X14962500Y-17369072D01*
X14962500Y-17311929D01*
X14948214Y-17283357D01*
X14933928Y-17269072D01*
X14905357Y-17254786D01*
X15076786Y-17126214D02*
X15076786Y-17183357D01*
X15191071Y-17126214D02*
X15191071Y-17183357D01*
X15633928Y-17540500D02*
X15619643Y-17526214D01*
X15591071Y-17483357D01*
X15576786Y-17454786D01*
X15562500Y-17411929D01*
X15548214Y-17340500D01*
X15548214Y-17283357D01*
X15562500Y-17211929D01*
X15576786Y-17169072D01*
X15591071Y-17140500D01*
X15619643Y-17097643D01*
X15633928Y-17083357D01*
X15733928Y-17154786D02*
X15748214Y-17140500D01*
X15776786Y-17126214D01*
X15848214Y-17126214D01*
X15876786Y-17140500D01*
X15891071Y-17154786D01*
X15905357Y-17183357D01*
X15905357Y-17211929D01*
X15891071Y-17254786D01*
X15719643Y-17426214D01*
X15905357Y-17426214D01*
X16262500Y-17426214D02*
X16262500Y-17126214D01*
X16391071Y-17426214D02*
X16391071Y-17269072D01*
X16376786Y-17240500D01*
X16348214Y-17226214D01*
X16305357Y-17226214D01*
X16276786Y-17240500D01*
X16262500Y-17254786D01*
X16576786Y-17426214D02*
X16548214Y-17411929D01*
X16533928Y-17397643D01*
X16519643Y-17369072D01*
X16519643Y-17283357D01*
X16533928Y-17254786D01*
X16548214Y-17240500D01*
X16576786Y-17226214D01*
X16619643Y-17226214D01*
X16648214Y-17240500D01*
X16662500Y-17254786D01*
X16676786Y-17283357D01*
X16676786Y-17369072D01*
X16662500Y-17397643D01*
X16648214Y-17411929D01*
X16619643Y-17426214D01*
X16576786Y-17426214D01*
X16848214Y-17426214D02*
X16819643Y-17411929D01*
X16805357Y-17383357D01*
X16805357Y-17126214D01*
X17076786Y-17411929D02*
X17048214Y-17426214D01*
X16991071Y-17426214D01*
X16962500Y-17411929D01*
X16948214Y-17383357D01*
X16948214Y-17269072D01*
X16962500Y-17240500D01*
X16991071Y-17226214D01*
X17048214Y-17226214D01*
X17076786Y-17240500D01*
X17091071Y-17269072D01*
X17091071Y-17297643D01*
X16948214Y-17326214D01*
X17205357Y-17411929D02*
X17233928Y-17426214D01*
X17291071Y-17426214D01*
X17319643Y-17411929D01*
X17333928Y-17383357D01*
X17333928Y-17369072D01*
X17319643Y-17340500D01*
X17291071Y-17326214D01*
X17248214Y-17326214D01*
X17219643Y-17311929D01*
X17205357Y-17283357D01*
X17205357Y-17269072D01*
X17219643Y-17240500D01*
X17248214Y-17226214D01*
X17291071Y-17226214D01*
X17319643Y-17240500D01*
X17433928Y-17540500D02*
X17448214Y-17526214D01*
X17476786Y-17483357D01*
X17491071Y-17454786D01*
X17505357Y-17411929D01*
X17519643Y-17340500D01*
X17519643Y-17283357D01*
X17505357Y-17211929D01*
X17491071Y-17169072D01*
X17476786Y-17140500D01*
X17448214Y-17097643D01*
X17433928Y-17083357D01*
M02*
