%TF.GenerationSoftware,KiCad,Pcbnew,(6.0.0-rc1-dev-1444-gad0d9f8df)*%
%TF.CreationDate,2019-01-02T13:44:12+02:00*%
%TF.ProjectId,digiTOS-COMOD-SinBoard-routed-2,64696769-544f-4532-9d43-4f4d4f442d53,rev?*%
%TF.SameCoordinates,Original*%
%TF.FileFunction,Other,Fab,Top*%
%FSLAX46Y46*%
G04 Gerber Fmt 4.6, Leading zero omitted, Abs format (unit mm)*
G04 Created by KiCad (PCBNEW (6.0.0-rc1-dev-1444-gad0d9f8df)) date 02/01/2019 13:44:12*
%MOMM*%
%LPD*%
G04 APERTURE LIST*
%ADD10C,0.100000*%
%ADD11C,0.150000*%
%ADD12C,0.120000*%
G04 APERTURE END LIST*
D10*
%TO.C,C1*%
X215100000Y-55500000D02*
X215100000Y-52300000D01*
X216700000Y-55500000D02*
X215100000Y-55500000D01*
X216700000Y-52300000D02*
X216700000Y-55500000D01*
X215100000Y-52300000D02*
X216700000Y-52300000D01*
%TO.C,C2*%
X211127000Y-52117100D02*
X212727000Y-52117100D01*
X212727000Y-52117100D02*
X212727000Y-55317100D01*
X212727000Y-55317100D02*
X211127000Y-55317100D01*
X211127000Y-55317100D02*
X211127000Y-52117100D01*
%TO.C,C3*%
X201677000Y-60917100D02*
X201677000Y-59317100D01*
X201677000Y-59317100D02*
X204877000Y-59317100D01*
X204877000Y-59317100D02*
X204877000Y-60917100D01*
X204877000Y-60917100D02*
X201677000Y-60917100D01*
%TO.C,C4*%
X204900000Y-64800000D02*
X201700000Y-64800000D01*
X204900000Y-63200000D02*
X204900000Y-64800000D01*
X201700000Y-63200000D02*
X204900000Y-63200000D01*
X201700000Y-64800000D02*
X201700000Y-63200000D01*
%TO.C,D1*%
X205435000Y-128435000D02*
X205435000Y-126835000D01*
X202235000Y-128435000D02*
X205435000Y-128435000D01*
X202235000Y-127235000D02*
X202235000Y-128435000D01*
X202635000Y-126835000D02*
X202235000Y-127235000D01*
X205435000Y-126835000D02*
X202635000Y-126835000D01*
%TO.C,D2*%
X190805000Y-128435000D02*
X193605000Y-128435000D01*
X193605000Y-128435000D02*
X194005000Y-128035000D01*
X194005000Y-128035000D02*
X194005000Y-126835000D01*
X194005000Y-126835000D02*
X190805000Y-126835000D01*
X190805000Y-126835000D02*
X190805000Y-128435000D01*
%TO.C,D3*%
X213055000Y-128435000D02*
X213055000Y-126835000D01*
X209855000Y-128435000D02*
X213055000Y-128435000D01*
X209855000Y-127235000D02*
X209855000Y-128435000D01*
X210255000Y-126835000D02*
X209855000Y-127235000D01*
X213055000Y-126835000D02*
X210255000Y-126835000D01*
%TO.C,D4*%
X221945000Y-126835000D02*
X219145000Y-126835000D01*
X219145000Y-126835000D02*
X218745000Y-127235000D01*
X218745000Y-127235000D02*
X218745000Y-128435000D01*
X218745000Y-128435000D02*
X221945000Y-128435000D01*
X221945000Y-128435000D02*
X221945000Y-126835000D01*
%TO.C,R1*%
X203120000Y-120435000D02*
X203120000Y-123635000D01*
X201520000Y-120435000D02*
X203120000Y-120435000D01*
X201520000Y-123635000D02*
X201520000Y-120435000D01*
X203120000Y-123635000D02*
X201520000Y-123635000D01*
%TO.C,R2*%
X194910000Y-124135000D02*
X193310000Y-124135000D01*
X193310000Y-124135000D02*
X193310000Y-120935000D01*
X193310000Y-120935000D02*
X194910000Y-120935000D01*
X194910000Y-120935000D02*
X194910000Y-124135000D01*
%TO.C,R3*%
X210400000Y-120300000D02*
X210400000Y-123500000D01*
X208800000Y-120300000D02*
X210400000Y-120300000D01*
X208800000Y-123500000D02*
X208800000Y-120300000D01*
X210400000Y-123500000D02*
X208800000Y-123500000D01*
%TO.C,R4*%
X219100000Y-123300000D02*
X217500000Y-123300000D01*
X217500000Y-123300000D02*
X217500000Y-120100000D01*
X217500000Y-120100000D02*
X219100000Y-120100000D01*
X219100000Y-120100000D02*
X219100000Y-123300000D01*
%TO.C,U1*%
X206719000Y-56216500D02*
X205719000Y-57216500D01*
X206719000Y-56216500D02*
X206719000Y-50516500D01*
X205719000Y-57216500D02*
X203019000Y-57216500D01*
X206719000Y-50516500D02*
X203019000Y-50516500D01*
X203019000Y-57216500D02*
X203019000Y-50516500D01*
%TO.C,D5*%
X208585000Y-91605000D02*
X211385000Y-91605000D01*
X211385000Y-91605000D02*
X211785000Y-91205000D01*
X211785000Y-91205000D02*
X211785000Y-90005000D01*
X211785000Y-90005000D02*
X208585000Y-90005000D01*
X208585000Y-90005000D02*
X208585000Y-91605000D01*
%TO.C,D6*%
X202895000Y-92240000D02*
X202895000Y-90640000D01*
X199695000Y-92240000D02*
X202895000Y-92240000D01*
X199695000Y-91040000D02*
X199695000Y-92240000D01*
X200095000Y-90640000D02*
X199695000Y-91040000D01*
X202895000Y-90640000D02*
X200095000Y-90640000D01*
%TO.C,R5*%
X221693000Y-69596700D02*
X221693000Y-66396700D01*
X223293000Y-69596700D02*
X221693000Y-69596700D01*
X223293000Y-66396700D02*
X223293000Y-69596700D01*
X221693000Y-66396700D02*
X223293000Y-66396700D01*
%TO.C,R6*%
X225593000Y-66396700D02*
X227193000Y-66396700D01*
X227193000Y-66396700D02*
X227193000Y-69596700D01*
X227193000Y-69596700D02*
X225593000Y-69596700D01*
X225593000Y-69596700D02*
X225593000Y-66396700D01*
%TO.C,D7*%
X208585000Y-110020000D02*
X211385000Y-110020000D01*
X211385000Y-110020000D02*
X211785000Y-109620000D01*
X211785000Y-109620000D02*
X211785000Y-108420000D01*
X211785000Y-108420000D02*
X208585000Y-108420000D01*
X208585000Y-108420000D02*
X208585000Y-110020000D01*
%TO.C,D8*%
X208585000Y-112865000D02*
X208585000Y-114465000D01*
X211785000Y-112865000D02*
X208585000Y-112865000D01*
X211785000Y-114065000D02*
X211785000Y-112865000D01*
X211385000Y-114465000D02*
X211785000Y-114065000D01*
X208585000Y-114465000D02*
X211385000Y-114465000D01*
%TO.C,D9*%
X202895000Y-109690000D02*
X200095000Y-109690000D01*
X200095000Y-109690000D02*
X199695000Y-110090000D01*
X199695000Y-110090000D02*
X199695000Y-111290000D01*
X199695000Y-111290000D02*
X202895000Y-111290000D01*
X202895000Y-111290000D02*
X202895000Y-109690000D01*
%TO.C,D10*%
X202895000Y-115100000D02*
X202895000Y-113500000D01*
X199695000Y-115100000D02*
X202895000Y-115100000D01*
X199695000Y-113900000D02*
X199695000Y-115100000D01*
X200095000Y-113500000D02*
X199695000Y-113900000D01*
X202895000Y-113500000D02*
X200095000Y-113500000D01*
%TO.C,D11*%
X208585000Y-97955000D02*
X211385000Y-97955000D01*
X211385000Y-97955000D02*
X211785000Y-97555000D01*
X211785000Y-97555000D02*
X211785000Y-96355000D01*
X211785000Y-96355000D02*
X208585000Y-96355000D01*
X208585000Y-96355000D02*
X208585000Y-97955000D01*
%TO.C,D12*%
X202895000Y-105575000D02*
X202895000Y-103975000D01*
X199695000Y-105575000D02*
X202895000Y-105575000D01*
X199695000Y-104375000D02*
X199695000Y-105575000D01*
X200095000Y-103975000D02*
X199695000Y-104375000D01*
X202895000Y-103975000D02*
X200095000Y-103975000D01*
%TO.C,D13*%
X202895000Y-99530000D02*
X200095000Y-99530000D01*
X200095000Y-99530000D02*
X199695000Y-99930000D01*
X199695000Y-99930000D02*
X199695000Y-101130000D01*
X199695000Y-101130000D02*
X202895000Y-101130000D01*
X202895000Y-101130000D02*
X202895000Y-99530000D01*
%TO.C,D14*%
X202678000Y-95085000D02*
X199878000Y-95085000D01*
X199878000Y-95085000D02*
X199478000Y-95485000D01*
X199478000Y-95485000D02*
X199478000Y-96685000D01*
X199478000Y-96685000D02*
X202678000Y-96685000D01*
X202678000Y-96685000D02*
X202678000Y-95085000D01*
%TO.C,D15*%
X202895000Y-88430000D02*
X202895000Y-86830000D01*
X199695000Y-88430000D02*
X202895000Y-88430000D01*
X199695000Y-87230000D02*
X199695000Y-88430000D01*
X200095000Y-86830000D02*
X199695000Y-87230000D01*
X202895000Y-86830000D02*
X200095000Y-86830000D01*
%TO.C,R7*%
X177400000Y-62400000D02*
X177400000Y-59200000D01*
X179000000Y-62400000D02*
X177400000Y-62400000D01*
X179000000Y-59200000D02*
X179000000Y-62400000D01*
X177400000Y-59200000D02*
X179000000Y-59200000D01*
%TO.C,R8*%
X182900000Y-59100000D02*
X184500000Y-59100000D01*
X184500000Y-59100000D02*
X184500000Y-62300000D01*
X184500000Y-62300000D02*
X182900000Y-62300000D01*
X182900000Y-62300000D02*
X182900000Y-59100000D01*
%TO.C,C5*%
X180100000Y-74400000D02*
X178500000Y-74400000D01*
X178500000Y-74400000D02*
X178500000Y-71200000D01*
X178500000Y-71200000D02*
X180100000Y-71200000D01*
X180100000Y-71200000D02*
X180100000Y-74400000D01*
%TO.C,R9*%
X170650000Y-71425000D02*
X172250000Y-71425000D01*
X172250000Y-71425000D02*
X172250000Y-74625000D01*
X172250000Y-74625000D02*
X170650000Y-74625000D01*
X170650000Y-74625000D02*
X170650000Y-71425000D01*
%TO.C,R10*%
X189700000Y-67600000D02*
X189700000Y-69200000D01*
X189700000Y-69200000D02*
X186500000Y-69200000D01*
X186500000Y-69200000D02*
X186500000Y-67600000D01*
X186500000Y-67600000D02*
X189700000Y-67600000D01*
%TO.C,R11*%
X179300000Y-67600000D02*
X182500000Y-67600000D01*
X179300000Y-69200000D02*
X179300000Y-67600000D01*
X182500000Y-69200000D02*
X179300000Y-69200000D01*
X182500000Y-67600000D02*
X182500000Y-69200000D01*
%TO.C,C6*%
X164788000Y-96600000D02*
X164788000Y-98200000D01*
X164788000Y-98200000D02*
X161588000Y-98200000D01*
X161588000Y-98200000D02*
X161588000Y-96600000D01*
X161588000Y-96600000D02*
X164788000Y-96600000D01*
%TO.C,R12*%
X156600000Y-102900000D02*
X155000000Y-102900000D01*
X155000000Y-102900000D02*
X155000000Y-99700000D01*
X155000000Y-99700000D02*
X156600000Y-99700000D01*
X156600000Y-99700000D02*
X156600000Y-102900000D01*
%TO.C,R13*%
X162612000Y-108800000D02*
X159412000Y-108800000D01*
X162612000Y-107200000D02*
X162612000Y-108800000D01*
X159412000Y-107200000D02*
X162612000Y-107200000D01*
X159412000Y-108800000D02*
X159412000Y-107200000D01*
%TO.C,R14*%
X163300000Y-104300000D02*
X161700000Y-104300000D01*
X161700000Y-104300000D02*
X161700000Y-101100000D01*
X161700000Y-101100000D02*
X163300000Y-101100000D01*
X163300000Y-101100000D02*
X163300000Y-104300000D01*
%TO.C,R15*%
X169200000Y-90100000D02*
X170800000Y-90100000D01*
X170800000Y-90100000D02*
X170800000Y-93300000D01*
X170800000Y-93300000D02*
X169200000Y-93300000D01*
X169200000Y-93300000D02*
X169200000Y-90100000D01*
%TO.C,R16*%
X161600000Y-92300000D02*
X164800000Y-92300000D01*
X161600000Y-93900000D02*
X161600000Y-92300000D01*
X164800000Y-93900000D02*
X161600000Y-93900000D01*
X164800000Y-92300000D02*
X164800000Y-93900000D01*
%TO.C,D16*%
X237800000Y-74550000D02*
X237800000Y-69950000D01*
X237800000Y-69950000D02*
X241800000Y-69950000D01*
X241800000Y-74550000D02*
X237800000Y-74550000D01*
X241800000Y-74550000D02*
X241800000Y-69950000D01*
X239798980Y-71600560D02*
X239798980Y-70698860D01*
X239798980Y-72751180D02*
X239798980Y-73749400D01*
X240599080Y-71600560D02*
X238998880Y-71600560D01*
X239049680Y-72751180D02*
X240599080Y-72751180D01*
X239798980Y-71600560D02*
X239049680Y-72751180D01*
X239798980Y-71600560D02*
X240599080Y-72751180D01*
%TO.C,R17*%
X174300000Y-112700000D02*
X174300000Y-114300000D01*
X174300000Y-114300000D02*
X171100000Y-114300000D01*
X171100000Y-114300000D02*
X171100000Y-112700000D01*
X171100000Y-112700000D02*
X174300000Y-112700000D01*
%TO.C,R18*%
X171100000Y-103300000D02*
X174300000Y-103300000D01*
X171100000Y-104900000D02*
X171100000Y-103300000D01*
X174300000Y-104900000D02*
X171100000Y-104900000D01*
X174300000Y-103300000D02*
X174300000Y-104900000D01*
%TO.C,R19*%
X167200000Y-107600000D02*
X165600000Y-107600000D01*
X165600000Y-107600000D02*
X165600000Y-104400000D01*
X165600000Y-104400000D02*
X167200000Y-104400000D01*
X167200000Y-104400000D02*
X167200000Y-107600000D01*
%TD*%
%TO.C,H1*%
D11*
X240959285Y-131482380D02*
X240959285Y-130482380D01*
X241292619Y-131196666D01*
X241625952Y-130482380D01*
X241625952Y-131482380D01*
X242245000Y-131482380D02*
X242149761Y-131434761D01*
X242102142Y-131387142D01*
X242054523Y-131291904D01*
X242054523Y-131006190D01*
X242102142Y-130910952D01*
X242149761Y-130863333D01*
X242245000Y-130815714D01*
X242387857Y-130815714D01*
X242483095Y-130863333D01*
X242530714Y-130910952D01*
X242578333Y-131006190D01*
X242578333Y-131291904D01*
X242530714Y-131387142D01*
X242483095Y-131434761D01*
X242387857Y-131482380D01*
X242245000Y-131482380D01*
X243435476Y-130815714D02*
X243435476Y-131482380D01*
X243006904Y-130815714D02*
X243006904Y-131339523D01*
X243054523Y-131434761D01*
X243149761Y-131482380D01*
X243292619Y-131482380D01*
X243387857Y-131434761D01*
X243435476Y-131387142D01*
X243911666Y-130815714D02*
X243911666Y-131482380D01*
X243911666Y-130910952D02*
X243959285Y-130863333D01*
X244054523Y-130815714D01*
X244197380Y-130815714D01*
X244292619Y-130863333D01*
X244340238Y-130958571D01*
X244340238Y-131482380D01*
X244673571Y-130815714D02*
X245054523Y-130815714D01*
X244816428Y-130482380D02*
X244816428Y-131339523D01*
X244864047Y-131434761D01*
X244959285Y-131482380D01*
X245054523Y-131482380D01*
X245387857Y-131482380D02*
X245387857Y-130815714D01*
X245387857Y-130482380D02*
X245340238Y-130530000D01*
X245387857Y-130577619D01*
X245435476Y-130530000D01*
X245387857Y-130482380D01*
X245387857Y-130577619D01*
X245864047Y-130815714D02*
X245864047Y-131482380D01*
X245864047Y-130910952D02*
X245911666Y-130863333D01*
X246006904Y-130815714D01*
X246149761Y-130815714D01*
X246245000Y-130863333D01*
X246292619Y-130958571D01*
X246292619Y-131482380D01*
X247197380Y-130815714D02*
X247197380Y-131625238D01*
X247149761Y-131720476D01*
X247102142Y-131768095D01*
X247006904Y-131815714D01*
X246864047Y-131815714D01*
X246768809Y-131768095D01*
X247197380Y-131434761D02*
X247102142Y-131482380D01*
X246911666Y-131482380D01*
X246816428Y-131434761D01*
X246768809Y-131387142D01*
X246721190Y-131291904D01*
X246721190Y-131006190D01*
X246768809Y-130910952D01*
X246816428Y-130863333D01*
X246911666Y-130815714D01*
X247102142Y-130815714D01*
X247197380Y-130863333D01*
X247673571Y-131482380D02*
X247673571Y-130482380D01*
X247673571Y-130958571D02*
X248245000Y-130958571D01*
X248245000Y-131482380D02*
X248245000Y-130482380D01*
X248864047Y-131482380D02*
X248768809Y-131434761D01*
X248721190Y-131387142D01*
X248673571Y-131291904D01*
X248673571Y-131006190D01*
X248721190Y-130910952D01*
X248768809Y-130863333D01*
X248864047Y-130815714D01*
X249006904Y-130815714D01*
X249102142Y-130863333D01*
X249149761Y-130910952D01*
X249197380Y-131006190D01*
X249197380Y-131291904D01*
X249149761Y-131387142D01*
X249102142Y-131434761D01*
X249006904Y-131482380D01*
X248864047Y-131482380D01*
X249768809Y-131482380D02*
X249673571Y-131434761D01*
X249625952Y-131339523D01*
X249625952Y-130482380D01*
X250530714Y-131434761D02*
X250435476Y-131482380D01*
X250245000Y-131482380D01*
X250149761Y-131434761D01*
X250102142Y-131339523D01*
X250102142Y-130958571D01*
X250149761Y-130863333D01*
X250245000Y-130815714D01*
X250435476Y-130815714D01*
X250530714Y-130863333D01*
X250578333Y-130958571D01*
X250578333Y-131053809D01*
X250102142Y-131149047D01*
X245283095Y-126182380D02*
X245283095Y-125182380D01*
X245283095Y-125658571D02*
X245854523Y-125658571D01*
X245854523Y-126182380D02*
X245854523Y-125182380D01*
X246854523Y-126182380D02*
X246283095Y-126182380D01*
X246568809Y-126182380D02*
X246568809Y-125182380D01*
X246473571Y-125325238D01*
X246378333Y-125420476D01*
X246283095Y-125468095D01*
%TO.C,H2*%
X110149285Y-131262380D02*
X110149285Y-130262380D01*
X110482619Y-130976666D01*
X110815952Y-130262380D01*
X110815952Y-131262380D01*
X111435000Y-131262380D02*
X111339761Y-131214761D01*
X111292142Y-131167142D01*
X111244523Y-131071904D01*
X111244523Y-130786190D01*
X111292142Y-130690952D01*
X111339761Y-130643333D01*
X111435000Y-130595714D01*
X111577857Y-130595714D01*
X111673095Y-130643333D01*
X111720714Y-130690952D01*
X111768333Y-130786190D01*
X111768333Y-131071904D01*
X111720714Y-131167142D01*
X111673095Y-131214761D01*
X111577857Y-131262380D01*
X111435000Y-131262380D01*
X112625476Y-130595714D02*
X112625476Y-131262380D01*
X112196904Y-130595714D02*
X112196904Y-131119523D01*
X112244523Y-131214761D01*
X112339761Y-131262380D01*
X112482619Y-131262380D01*
X112577857Y-131214761D01*
X112625476Y-131167142D01*
X113101666Y-130595714D02*
X113101666Y-131262380D01*
X113101666Y-130690952D02*
X113149285Y-130643333D01*
X113244523Y-130595714D01*
X113387380Y-130595714D01*
X113482619Y-130643333D01*
X113530238Y-130738571D01*
X113530238Y-131262380D01*
X113863571Y-130595714D02*
X114244523Y-130595714D01*
X114006428Y-130262380D02*
X114006428Y-131119523D01*
X114054047Y-131214761D01*
X114149285Y-131262380D01*
X114244523Y-131262380D01*
X114577857Y-131262380D02*
X114577857Y-130595714D01*
X114577857Y-130262380D02*
X114530238Y-130310000D01*
X114577857Y-130357619D01*
X114625476Y-130310000D01*
X114577857Y-130262380D01*
X114577857Y-130357619D01*
X115054047Y-130595714D02*
X115054047Y-131262380D01*
X115054047Y-130690952D02*
X115101666Y-130643333D01*
X115196904Y-130595714D01*
X115339761Y-130595714D01*
X115435000Y-130643333D01*
X115482619Y-130738571D01*
X115482619Y-131262380D01*
X116387380Y-130595714D02*
X116387380Y-131405238D01*
X116339761Y-131500476D01*
X116292142Y-131548095D01*
X116196904Y-131595714D01*
X116054047Y-131595714D01*
X115958809Y-131548095D01*
X116387380Y-131214761D02*
X116292142Y-131262380D01*
X116101666Y-131262380D01*
X116006428Y-131214761D01*
X115958809Y-131167142D01*
X115911190Y-131071904D01*
X115911190Y-130786190D01*
X115958809Y-130690952D01*
X116006428Y-130643333D01*
X116101666Y-130595714D01*
X116292142Y-130595714D01*
X116387380Y-130643333D01*
X116863571Y-131262380D02*
X116863571Y-130262380D01*
X116863571Y-130738571D02*
X117435000Y-130738571D01*
X117435000Y-131262380D02*
X117435000Y-130262380D01*
X118054047Y-131262380D02*
X117958809Y-131214761D01*
X117911190Y-131167142D01*
X117863571Y-131071904D01*
X117863571Y-130786190D01*
X117911190Y-130690952D01*
X117958809Y-130643333D01*
X118054047Y-130595714D01*
X118196904Y-130595714D01*
X118292142Y-130643333D01*
X118339761Y-130690952D01*
X118387380Y-130786190D01*
X118387380Y-131071904D01*
X118339761Y-131167142D01*
X118292142Y-131214761D01*
X118196904Y-131262380D01*
X118054047Y-131262380D01*
X118958809Y-131262380D02*
X118863571Y-131214761D01*
X118815952Y-131119523D01*
X118815952Y-130262380D01*
X119720714Y-131214761D02*
X119625476Y-131262380D01*
X119435000Y-131262380D01*
X119339761Y-131214761D01*
X119292142Y-131119523D01*
X119292142Y-130738571D01*
X119339761Y-130643333D01*
X119435000Y-130595714D01*
X119625476Y-130595714D01*
X119720714Y-130643333D01*
X119768333Y-130738571D01*
X119768333Y-130833809D01*
X119292142Y-130929047D01*
X115743095Y-126182380D02*
X115743095Y-125182380D01*
X115743095Y-125658571D02*
X116314523Y-125658571D01*
X116314523Y-126182380D02*
X116314523Y-125182380D01*
X116743095Y-125277619D02*
X116790714Y-125230000D01*
X116885952Y-125182380D01*
X117124047Y-125182380D01*
X117219285Y-125230000D01*
X117266904Y-125277619D01*
X117314523Y-125372857D01*
X117314523Y-125468095D01*
X117266904Y-125610952D01*
X116695476Y-126182380D01*
X117314523Y-126182380D01*
%TO.C,H3*%
X239689285Y-54647380D02*
X239689285Y-53647380D01*
X240022619Y-54361666D01*
X240355952Y-53647380D01*
X240355952Y-54647380D01*
X240975000Y-54647380D02*
X240879761Y-54599761D01*
X240832142Y-54552142D01*
X240784523Y-54456904D01*
X240784523Y-54171190D01*
X240832142Y-54075952D01*
X240879761Y-54028333D01*
X240975000Y-53980714D01*
X241117857Y-53980714D01*
X241213095Y-54028333D01*
X241260714Y-54075952D01*
X241308333Y-54171190D01*
X241308333Y-54456904D01*
X241260714Y-54552142D01*
X241213095Y-54599761D01*
X241117857Y-54647380D01*
X240975000Y-54647380D01*
X242165476Y-53980714D02*
X242165476Y-54647380D01*
X241736904Y-53980714D02*
X241736904Y-54504523D01*
X241784523Y-54599761D01*
X241879761Y-54647380D01*
X242022619Y-54647380D01*
X242117857Y-54599761D01*
X242165476Y-54552142D01*
X242641666Y-53980714D02*
X242641666Y-54647380D01*
X242641666Y-54075952D02*
X242689285Y-54028333D01*
X242784523Y-53980714D01*
X242927380Y-53980714D01*
X243022619Y-54028333D01*
X243070238Y-54123571D01*
X243070238Y-54647380D01*
X243403571Y-53980714D02*
X243784523Y-53980714D01*
X243546428Y-53647380D02*
X243546428Y-54504523D01*
X243594047Y-54599761D01*
X243689285Y-54647380D01*
X243784523Y-54647380D01*
X244117857Y-54647380D02*
X244117857Y-53980714D01*
X244117857Y-53647380D02*
X244070238Y-53695000D01*
X244117857Y-53742619D01*
X244165476Y-53695000D01*
X244117857Y-53647380D01*
X244117857Y-53742619D01*
X244594047Y-53980714D02*
X244594047Y-54647380D01*
X244594047Y-54075952D02*
X244641666Y-54028333D01*
X244736904Y-53980714D01*
X244879761Y-53980714D01*
X244975000Y-54028333D01*
X245022619Y-54123571D01*
X245022619Y-54647380D01*
X245927380Y-53980714D02*
X245927380Y-54790238D01*
X245879761Y-54885476D01*
X245832142Y-54933095D01*
X245736904Y-54980714D01*
X245594047Y-54980714D01*
X245498809Y-54933095D01*
X245927380Y-54599761D02*
X245832142Y-54647380D01*
X245641666Y-54647380D01*
X245546428Y-54599761D01*
X245498809Y-54552142D01*
X245451190Y-54456904D01*
X245451190Y-54171190D01*
X245498809Y-54075952D01*
X245546428Y-54028333D01*
X245641666Y-53980714D01*
X245832142Y-53980714D01*
X245927380Y-54028333D01*
X246403571Y-54647380D02*
X246403571Y-53647380D01*
X246403571Y-54123571D02*
X246975000Y-54123571D01*
X246975000Y-54647380D02*
X246975000Y-53647380D01*
X247594047Y-54647380D02*
X247498809Y-54599761D01*
X247451190Y-54552142D01*
X247403571Y-54456904D01*
X247403571Y-54171190D01*
X247451190Y-54075952D01*
X247498809Y-54028333D01*
X247594047Y-53980714D01*
X247736904Y-53980714D01*
X247832142Y-54028333D01*
X247879761Y-54075952D01*
X247927380Y-54171190D01*
X247927380Y-54456904D01*
X247879761Y-54552142D01*
X247832142Y-54599761D01*
X247736904Y-54647380D01*
X247594047Y-54647380D01*
X248498809Y-54647380D02*
X248403571Y-54599761D01*
X248355952Y-54504523D01*
X248355952Y-53647380D01*
X249260714Y-54599761D02*
X249165476Y-54647380D01*
X248975000Y-54647380D01*
X248879761Y-54599761D01*
X248832142Y-54504523D01*
X248832142Y-54123571D01*
X248879761Y-54028333D01*
X248975000Y-53980714D01*
X249165476Y-53980714D01*
X249260714Y-54028333D01*
X249308333Y-54123571D01*
X249308333Y-54218809D01*
X248832142Y-54314047D01*
X244013095Y-49347380D02*
X244013095Y-48347380D01*
X244013095Y-48823571D02*
X244584523Y-48823571D01*
X244584523Y-49347380D02*
X244584523Y-48347380D01*
X244965476Y-48347380D02*
X245584523Y-48347380D01*
X245251190Y-48728333D01*
X245394047Y-48728333D01*
X245489285Y-48775952D01*
X245536904Y-48823571D01*
X245584523Y-48918809D01*
X245584523Y-49156904D01*
X245536904Y-49252142D01*
X245489285Y-49299761D01*
X245394047Y-49347380D01*
X245108333Y-49347380D01*
X245013095Y-49299761D01*
X244965476Y-49252142D01*
%TO.C,H4*%
X111419285Y-54647380D02*
X111419285Y-53647380D01*
X111752619Y-54361666D01*
X112085952Y-53647380D01*
X112085952Y-54647380D01*
X112705000Y-54647380D02*
X112609761Y-54599761D01*
X112562142Y-54552142D01*
X112514523Y-54456904D01*
X112514523Y-54171190D01*
X112562142Y-54075952D01*
X112609761Y-54028333D01*
X112705000Y-53980714D01*
X112847857Y-53980714D01*
X112943095Y-54028333D01*
X112990714Y-54075952D01*
X113038333Y-54171190D01*
X113038333Y-54456904D01*
X112990714Y-54552142D01*
X112943095Y-54599761D01*
X112847857Y-54647380D01*
X112705000Y-54647380D01*
X113895476Y-53980714D02*
X113895476Y-54647380D01*
X113466904Y-53980714D02*
X113466904Y-54504523D01*
X113514523Y-54599761D01*
X113609761Y-54647380D01*
X113752619Y-54647380D01*
X113847857Y-54599761D01*
X113895476Y-54552142D01*
X114371666Y-53980714D02*
X114371666Y-54647380D01*
X114371666Y-54075952D02*
X114419285Y-54028333D01*
X114514523Y-53980714D01*
X114657380Y-53980714D01*
X114752619Y-54028333D01*
X114800238Y-54123571D01*
X114800238Y-54647380D01*
X115133571Y-53980714D02*
X115514523Y-53980714D01*
X115276428Y-53647380D02*
X115276428Y-54504523D01*
X115324047Y-54599761D01*
X115419285Y-54647380D01*
X115514523Y-54647380D01*
X115847857Y-54647380D02*
X115847857Y-53980714D01*
X115847857Y-53647380D02*
X115800238Y-53695000D01*
X115847857Y-53742619D01*
X115895476Y-53695000D01*
X115847857Y-53647380D01*
X115847857Y-53742619D01*
X116324047Y-53980714D02*
X116324047Y-54647380D01*
X116324047Y-54075952D02*
X116371666Y-54028333D01*
X116466904Y-53980714D01*
X116609761Y-53980714D01*
X116705000Y-54028333D01*
X116752619Y-54123571D01*
X116752619Y-54647380D01*
X117657380Y-53980714D02*
X117657380Y-54790238D01*
X117609761Y-54885476D01*
X117562142Y-54933095D01*
X117466904Y-54980714D01*
X117324047Y-54980714D01*
X117228809Y-54933095D01*
X117657380Y-54599761D02*
X117562142Y-54647380D01*
X117371666Y-54647380D01*
X117276428Y-54599761D01*
X117228809Y-54552142D01*
X117181190Y-54456904D01*
X117181190Y-54171190D01*
X117228809Y-54075952D01*
X117276428Y-54028333D01*
X117371666Y-53980714D01*
X117562142Y-53980714D01*
X117657380Y-54028333D01*
X118133571Y-54647380D02*
X118133571Y-53647380D01*
X118133571Y-54123571D02*
X118705000Y-54123571D01*
X118705000Y-54647380D02*
X118705000Y-53647380D01*
X119324047Y-54647380D02*
X119228809Y-54599761D01*
X119181190Y-54552142D01*
X119133571Y-54456904D01*
X119133571Y-54171190D01*
X119181190Y-54075952D01*
X119228809Y-54028333D01*
X119324047Y-53980714D01*
X119466904Y-53980714D01*
X119562142Y-54028333D01*
X119609761Y-54075952D01*
X119657380Y-54171190D01*
X119657380Y-54456904D01*
X119609761Y-54552142D01*
X119562142Y-54599761D01*
X119466904Y-54647380D01*
X119324047Y-54647380D01*
X120228809Y-54647380D02*
X120133571Y-54599761D01*
X120085952Y-54504523D01*
X120085952Y-53647380D01*
X120990714Y-54599761D02*
X120895476Y-54647380D01*
X120705000Y-54647380D01*
X120609761Y-54599761D01*
X120562142Y-54504523D01*
X120562142Y-54123571D01*
X120609761Y-54028333D01*
X120705000Y-53980714D01*
X120895476Y-53980714D01*
X120990714Y-54028333D01*
X121038333Y-54123571D01*
X121038333Y-54218809D01*
X120562142Y-54314047D01*
X115743095Y-49347380D02*
X115743095Y-48347380D01*
X115743095Y-48823571D02*
X116314523Y-48823571D01*
X116314523Y-49347380D02*
X116314523Y-48347380D01*
X117219285Y-48680714D02*
X117219285Y-49347380D01*
X116981190Y-48299761D02*
X116743095Y-49014047D01*
X117362142Y-49014047D01*
%TO.C,T1*%
X128128571Y-105092857D02*
X128176190Y-104950000D01*
X128223809Y-104902380D01*
X128319047Y-104854761D01*
X128461904Y-104854761D01*
X128557142Y-104902380D01*
X128604761Y-104950000D01*
X128652380Y-105045238D01*
X128652380Y-105426190D01*
X127652380Y-105426190D01*
X127652380Y-105092857D01*
X127700000Y-104997619D01*
X127747619Y-104950000D01*
X127842857Y-104902380D01*
X127938095Y-104902380D01*
X128033333Y-104950000D01*
X128080952Y-104997619D01*
X128128571Y-105092857D01*
X128128571Y-105426190D01*
X127652380Y-104569047D02*
X128652380Y-104235714D01*
X127652380Y-103902380D01*
X127747619Y-103616666D02*
X127700000Y-103569047D01*
X127652380Y-103473809D01*
X127652380Y-103235714D01*
X127700000Y-103140476D01*
X127747619Y-103092857D01*
X127842857Y-103045238D01*
X127938095Y-103045238D01*
X128080952Y-103092857D01*
X128652380Y-103664285D01*
X128652380Y-103045238D01*
X127652380Y-102426190D02*
X127652380Y-102330952D01*
X127700000Y-102235714D01*
X127747619Y-102188095D01*
X127842857Y-102140476D01*
X128033333Y-102092857D01*
X128271428Y-102092857D01*
X128461904Y-102140476D01*
X128557142Y-102188095D01*
X128604761Y-102235714D01*
X128652380Y-102330952D01*
X128652380Y-102426190D01*
X128604761Y-102521428D01*
X128557142Y-102569047D01*
X128461904Y-102616666D01*
X128271428Y-102664285D01*
X128033333Y-102664285D01*
X127842857Y-102616666D01*
X127747619Y-102569047D01*
X127700000Y-102521428D01*
X127652380Y-102426190D01*
X127747619Y-101711904D02*
X127700000Y-101664285D01*
X127652380Y-101569047D01*
X127652380Y-101330952D01*
X127700000Y-101235714D01*
X127747619Y-101188095D01*
X127842857Y-101140476D01*
X127938095Y-101140476D01*
X128080952Y-101188095D01*
X128652380Y-101759523D01*
X128652380Y-101140476D01*
X128604761Y-100759523D02*
X128652380Y-100616666D01*
X128652380Y-100378571D01*
X128604761Y-100283333D01*
X128557142Y-100235714D01*
X128461904Y-100188095D01*
X128366666Y-100188095D01*
X128271428Y-100235714D01*
X128223809Y-100283333D01*
X128176190Y-100378571D01*
X128128571Y-100569047D01*
X128080952Y-100664285D01*
X128033333Y-100711904D01*
X127938095Y-100759523D01*
X127842857Y-100759523D01*
X127747619Y-100711904D01*
X127700000Y-100664285D01*
X127652380Y-100569047D01*
X127652380Y-100330952D01*
X127700000Y-100188095D01*
X127652380Y-99569047D02*
X127652380Y-99473809D01*
X127700000Y-99378571D01*
X127747619Y-99330952D01*
X127842857Y-99283333D01*
X128033333Y-99235714D01*
X128271428Y-99235714D01*
X128461904Y-99283333D01*
X128557142Y-99330952D01*
X128604761Y-99378571D01*
X128652380Y-99473809D01*
X128652380Y-99569047D01*
X128604761Y-99664285D01*
X128557142Y-99711904D01*
X128461904Y-99759523D01*
X128271428Y-99807142D01*
X128033333Y-99807142D01*
X127842857Y-99759523D01*
X127747619Y-99711904D01*
X127700000Y-99664285D01*
X127652380Y-99569047D01*
X128652380Y-98759523D02*
X128652380Y-98569047D01*
X128604761Y-98473809D01*
X128557142Y-98426190D01*
X128414285Y-98330952D01*
X128223809Y-98283333D01*
X127842857Y-98283333D01*
X127747619Y-98330952D01*
X127700000Y-98378571D01*
X127652380Y-98473809D01*
X127652380Y-98664285D01*
X127700000Y-98759523D01*
X127747619Y-98807142D01*
X127842857Y-98854761D01*
X128080952Y-98854761D01*
X128176190Y-98807142D01*
X128223809Y-98759523D01*
X128271428Y-98664285D01*
X128271428Y-98473809D01*
X128223809Y-98378571D01*
X128176190Y-98330952D01*
X128080952Y-98283333D01*
X127652380Y-97664285D02*
X127652380Y-97569047D01*
X127700000Y-97473809D01*
X127747619Y-97426190D01*
X127842857Y-97378571D01*
X128033333Y-97330952D01*
X128271428Y-97330952D01*
X128461904Y-97378571D01*
X128557142Y-97426190D01*
X128604761Y-97473809D01*
X128652380Y-97569047D01*
X128652380Y-97664285D01*
X128604761Y-97759523D01*
X128557142Y-97807142D01*
X128461904Y-97854761D01*
X128271428Y-97902380D01*
X128033333Y-97902380D01*
X127842857Y-97854761D01*
X127747619Y-97807142D01*
X127700000Y-97759523D01*
X127652380Y-97664285D01*
X127652380Y-96711904D02*
X127652380Y-96616666D01*
X127700000Y-96521428D01*
X127747619Y-96473809D01*
X127842857Y-96426190D01*
X128033333Y-96378571D01*
X128271428Y-96378571D01*
X128461904Y-96426190D01*
X128557142Y-96473809D01*
X128604761Y-96521428D01*
X128652380Y-96616666D01*
X128652380Y-96711904D01*
X128604761Y-96807142D01*
X128557142Y-96854761D01*
X128461904Y-96902380D01*
X128271428Y-96950000D01*
X128033333Y-96950000D01*
X127842857Y-96902380D01*
X127747619Y-96854761D01*
X127700000Y-96807142D01*
X127652380Y-96711904D01*
X127652380Y-95521428D02*
X127652380Y-95711904D01*
X127700000Y-95807142D01*
X127747619Y-95854761D01*
X127890476Y-95950000D01*
X128080952Y-95997619D01*
X128461904Y-95997619D01*
X128557142Y-95950000D01*
X128604761Y-95902380D01*
X128652380Y-95807142D01*
X128652380Y-95616666D01*
X128604761Y-95521428D01*
X128557142Y-95473809D01*
X128461904Y-95426190D01*
X128223809Y-95426190D01*
X128128571Y-95473809D01*
X128080952Y-95521428D01*
X128033333Y-95616666D01*
X128033333Y-95807142D01*
X128080952Y-95902380D01*
X128128571Y-95950000D01*
X128223809Y-95997619D01*
%TO.C,J3*%
X158114285Y-67987142D02*
X158066666Y-68034761D01*
X157923809Y-68082380D01*
X157828571Y-68082380D01*
X157685714Y-68034761D01*
X157590476Y-67939523D01*
X157542857Y-67844285D01*
X157495238Y-67653809D01*
X157495238Y-67510952D01*
X157542857Y-67320476D01*
X157590476Y-67225238D01*
X157685714Y-67130000D01*
X157828571Y-67082380D01*
X157923809Y-67082380D01*
X158066666Y-67130000D01*
X158114285Y-67177619D01*
X158685714Y-68082380D02*
X158590476Y-68034761D01*
X158542857Y-67987142D01*
X158495238Y-67891904D01*
X158495238Y-67606190D01*
X158542857Y-67510952D01*
X158590476Y-67463333D01*
X158685714Y-67415714D01*
X158828571Y-67415714D01*
X158923809Y-67463333D01*
X158971428Y-67510952D01*
X159019047Y-67606190D01*
X159019047Y-67891904D01*
X158971428Y-67987142D01*
X158923809Y-68034761D01*
X158828571Y-68082380D01*
X158685714Y-68082380D01*
X159447619Y-67415714D02*
X159447619Y-68082380D01*
X159447619Y-67510952D02*
X159495238Y-67463333D01*
X159590476Y-67415714D01*
X159733333Y-67415714D01*
X159828571Y-67463333D01*
X159876190Y-67558571D01*
X159876190Y-68082380D01*
X160352380Y-67415714D02*
X160352380Y-68082380D01*
X160352380Y-67510952D02*
X160400000Y-67463333D01*
X160495238Y-67415714D01*
X160638095Y-67415714D01*
X160733333Y-67463333D01*
X160780952Y-67558571D01*
X160780952Y-68082380D01*
X161019047Y-68177619D02*
X161780952Y-68177619D01*
X162209523Y-67082380D02*
X162304761Y-67082380D01*
X162400000Y-67130000D01*
X162447619Y-67177619D01*
X162495238Y-67272857D01*
X162542857Y-67463333D01*
X162542857Y-67701428D01*
X162495238Y-67891904D01*
X162447619Y-67987142D01*
X162400000Y-68034761D01*
X162304761Y-68082380D01*
X162209523Y-68082380D01*
X162114285Y-68034761D01*
X162066666Y-67987142D01*
X162019047Y-67891904D01*
X161971428Y-67701428D01*
X161971428Y-67463333D01*
X162019047Y-67272857D01*
X162066666Y-67177619D01*
X162114285Y-67130000D01*
X162209523Y-67082380D01*
X163495238Y-68082380D02*
X162923809Y-68082380D01*
X163209523Y-68082380D02*
X163209523Y-67082380D01*
X163114285Y-67225238D01*
X163019047Y-67320476D01*
X162923809Y-67368095D01*
X163828571Y-68082380D02*
X164352380Y-67415714D01*
X163828571Y-67415714D02*
X164352380Y-68082380D01*
X164923809Y-67082380D02*
X165019047Y-67082380D01*
X165114285Y-67130000D01*
X165161904Y-67177619D01*
X165209523Y-67272857D01*
X165257142Y-67463333D01*
X165257142Y-67701428D01*
X165209523Y-67891904D01*
X165161904Y-67987142D01*
X165114285Y-68034761D01*
X165019047Y-68082380D01*
X164923809Y-68082380D01*
X164828571Y-68034761D01*
X164780952Y-67987142D01*
X164733333Y-67891904D01*
X164685714Y-67701428D01*
X164685714Y-67463333D01*
X164733333Y-67272857D01*
X164780952Y-67177619D01*
X164828571Y-67130000D01*
X164923809Y-67082380D01*
X166209523Y-68082380D02*
X165638095Y-68082380D01*
X165923809Y-68082380D02*
X165923809Y-67082380D01*
X165828571Y-67225238D01*
X165733333Y-67320476D01*
X165638095Y-67368095D01*
X166400000Y-68177619D02*
X167161904Y-68177619D01*
X167733333Y-67558571D02*
X167400000Y-67558571D01*
X167400000Y-68082380D02*
X167400000Y-67082380D01*
X167876190Y-67082380D01*
X168638095Y-68034761D02*
X168542857Y-68082380D01*
X168352380Y-68082380D01*
X168257142Y-68034761D01*
X168209523Y-67939523D01*
X168209523Y-67558571D01*
X168257142Y-67463333D01*
X168352380Y-67415714D01*
X168542857Y-67415714D01*
X168638095Y-67463333D01*
X168685714Y-67558571D01*
X168685714Y-67653809D01*
X168209523Y-67749047D01*
X169114285Y-68082380D02*
X169114285Y-67415714D01*
X169114285Y-67510952D02*
X169161904Y-67463333D01*
X169257142Y-67415714D01*
X169400000Y-67415714D01*
X169495238Y-67463333D01*
X169542857Y-67558571D01*
X169542857Y-68082380D01*
X169542857Y-67558571D02*
X169590476Y-67463333D01*
X169685714Y-67415714D01*
X169828571Y-67415714D01*
X169923809Y-67463333D01*
X169971428Y-67558571D01*
X169971428Y-68082380D01*
X170876190Y-68082380D02*
X170876190Y-67558571D01*
X170828571Y-67463333D01*
X170733333Y-67415714D01*
X170542857Y-67415714D01*
X170447619Y-67463333D01*
X170876190Y-68034761D02*
X170780952Y-68082380D01*
X170542857Y-68082380D01*
X170447619Y-68034761D01*
X170400000Y-67939523D01*
X170400000Y-67844285D01*
X170447619Y-67749047D01*
X170542857Y-67701428D01*
X170780952Y-67701428D01*
X170876190Y-67653809D01*
X171495238Y-68082380D02*
X171400000Y-68034761D01*
X171352380Y-67939523D01*
X171352380Y-67082380D01*
X172257142Y-68034761D02*
X172161904Y-68082380D01*
X171971428Y-68082380D01*
X171876190Y-68034761D01*
X171828571Y-67939523D01*
X171828571Y-67558571D01*
X171876190Y-67463333D01*
X171971428Y-67415714D01*
X172161904Y-67415714D01*
X172257142Y-67463333D01*
X172304761Y-67558571D01*
X172304761Y-67653809D01*
X171828571Y-67749047D01*
X164566666Y-62002380D02*
X164566666Y-62716666D01*
X164519047Y-62859523D01*
X164423809Y-62954761D01*
X164280952Y-63002380D01*
X164185714Y-63002380D01*
X164947619Y-62002380D02*
X165566666Y-62002380D01*
X165233333Y-62383333D01*
X165376190Y-62383333D01*
X165471428Y-62430952D01*
X165519047Y-62478571D01*
X165566666Y-62573809D01*
X165566666Y-62811904D01*
X165519047Y-62907142D01*
X165471428Y-62954761D01*
X165376190Y-63002380D01*
X165090476Y-63002380D01*
X164995238Y-62954761D01*
X164947619Y-62907142D01*
%TO.C,J4*%
X125114285Y-72637142D02*
X125066666Y-72684761D01*
X124923809Y-72732380D01*
X124828571Y-72732380D01*
X124685714Y-72684761D01*
X124590476Y-72589523D01*
X124542857Y-72494285D01*
X124495238Y-72303809D01*
X124495238Y-72160952D01*
X124542857Y-71970476D01*
X124590476Y-71875238D01*
X124685714Y-71780000D01*
X124828571Y-71732380D01*
X124923809Y-71732380D01*
X125066666Y-71780000D01*
X125114285Y-71827619D01*
X125685714Y-72732380D02*
X125590476Y-72684761D01*
X125542857Y-72637142D01*
X125495238Y-72541904D01*
X125495238Y-72256190D01*
X125542857Y-72160952D01*
X125590476Y-72113333D01*
X125685714Y-72065714D01*
X125828571Y-72065714D01*
X125923809Y-72113333D01*
X125971428Y-72160952D01*
X126019047Y-72256190D01*
X126019047Y-72541904D01*
X125971428Y-72637142D01*
X125923809Y-72684761D01*
X125828571Y-72732380D01*
X125685714Y-72732380D01*
X126447619Y-72065714D02*
X126447619Y-72732380D01*
X126447619Y-72160952D02*
X126495238Y-72113333D01*
X126590476Y-72065714D01*
X126733333Y-72065714D01*
X126828571Y-72113333D01*
X126876190Y-72208571D01*
X126876190Y-72732380D01*
X127352380Y-72065714D02*
X127352380Y-72732380D01*
X127352380Y-72160952D02*
X127400000Y-72113333D01*
X127495238Y-72065714D01*
X127638095Y-72065714D01*
X127733333Y-72113333D01*
X127780952Y-72208571D01*
X127780952Y-72732380D01*
X128019047Y-72827619D02*
X128780952Y-72827619D01*
X129209523Y-71732380D02*
X129304761Y-71732380D01*
X129400000Y-71780000D01*
X129447619Y-71827619D01*
X129495238Y-71922857D01*
X129542857Y-72113333D01*
X129542857Y-72351428D01*
X129495238Y-72541904D01*
X129447619Y-72637142D01*
X129400000Y-72684761D01*
X129304761Y-72732380D01*
X129209523Y-72732380D01*
X129114285Y-72684761D01*
X129066666Y-72637142D01*
X129019047Y-72541904D01*
X128971428Y-72351428D01*
X128971428Y-72113333D01*
X129019047Y-71922857D01*
X129066666Y-71827619D01*
X129114285Y-71780000D01*
X129209523Y-71732380D01*
X130495238Y-72732380D02*
X129923809Y-72732380D01*
X130209523Y-72732380D02*
X130209523Y-71732380D01*
X130114285Y-71875238D01*
X130019047Y-71970476D01*
X129923809Y-72018095D01*
X130828571Y-72732380D02*
X131352380Y-72065714D01*
X130828571Y-72065714D02*
X131352380Y-72732380D01*
X131923809Y-71732380D02*
X132019047Y-71732380D01*
X132114285Y-71780000D01*
X132161904Y-71827619D01*
X132209523Y-71922857D01*
X132257142Y-72113333D01*
X132257142Y-72351428D01*
X132209523Y-72541904D01*
X132161904Y-72637142D01*
X132114285Y-72684761D01*
X132019047Y-72732380D01*
X131923809Y-72732380D01*
X131828571Y-72684761D01*
X131780952Y-72637142D01*
X131733333Y-72541904D01*
X131685714Y-72351428D01*
X131685714Y-72113333D01*
X131733333Y-71922857D01*
X131780952Y-71827619D01*
X131828571Y-71780000D01*
X131923809Y-71732380D01*
X133209523Y-72732380D02*
X132638095Y-72732380D01*
X132923809Y-72732380D02*
X132923809Y-71732380D01*
X132828571Y-71875238D01*
X132733333Y-71970476D01*
X132638095Y-72018095D01*
X133400000Y-72827619D02*
X134161904Y-72827619D01*
X134733333Y-72208571D02*
X134400000Y-72208571D01*
X134400000Y-72732380D02*
X134400000Y-71732380D01*
X134876190Y-71732380D01*
X135638095Y-72684761D02*
X135542857Y-72732380D01*
X135352380Y-72732380D01*
X135257142Y-72684761D01*
X135209523Y-72589523D01*
X135209523Y-72208571D01*
X135257142Y-72113333D01*
X135352380Y-72065714D01*
X135542857Y-72065714D01*
X135638095Y-72113333D01*
X135685714Y-72208571D01*
X135685714Y-72303809D01*
X135209523Y-72399047D01*
X136114285Y-72732380D02*
X136114285Y-72065714D01*
X136114285Y-72160952D02*
X136161904Y-72113333D01*
X136257142Y-72065714D01*
X136400000Y-72065714D01*
X136495238Y-72113333D01*
X136542857Y-72208571D01*
X136542857Y-72732380D01*
X136542857Y-72208571D02*
X136590476Y-72113333D01*
X136685714Y-72065714D01*
X136828571Y-72065714D01*
X136923809Y-72113333D01*
X136971428Y-72208571D01*
X136971428Y-72732380D01*
X137876190Y-72732380D02*
X137876190Y-72208571D01*
X137828571Y-72113333D01*
X137733333Y-72065714D01*
X137542857Y-72065714D01*
X137447619Y-72113333D01*
X137876190Y-72684761D02*
X137780952Y-72732380D01*
X137542857Y-72732380D01*
X137447619Y-72684761D01*
X137400000Y-72589523D01*
X137400000Y-72494285D01*
X137447619Y-72399047D01*
X137542857Y-72351428D01*
X137780952Y-72351428D01*
X137876190Y-72303809D01*
X138495238Y-72732380D02*
X138400000Y-72684761D01*
X138352380Y-72589523D01*
X138352380Y-71732380D01*
X139257142Y-72684761D02*
X139161904Y-72732380D01*
X138971428Y-72732380D01*
X138876190Y-72684761D01*
X138828571Y-72589523D01*
X138828571Y-72208571D01*
X138876190Y-72113333D01*
X138971428Y-72065714D01*
X139161904Y-72065714D01*
X139257142Y-72113333D01*
X139304761Y-72208571D01*
X139304761Y-72303809D01*
X138828571Y-72399047D01*
X131566666Y-66652380D02*
X131566666Y-67366666D01*
X131519047Y-67509523D01*
X131423809Y-67604761D01*
X131280952Y-67652380D01*
X131185714Y-67652380D01*
X132471428Y-66985714D02*
X132471428Y-67652380D01*
X132233333Y-66604761D02*
X131995238Y-67319047D01*
X132614285Y-67319047D01*
%TO.C,C1*%
X213627619Y-55400000D02*
X213580000Y-55352380D01*
X213532380Y-55257142D01*
X213532380Y-55019047D01*
X213580000Y-54923809D01*
X213627619Y-54876190D01*
X213722857Y-54828571D01*
X213818095Y-54828571D01*
X213960952Y-54876190D01*
X214532380Y-55447619D01*
X214532380Y-54828571D01*
X213627619Y-54447619D02*
X213580000Y-54400000D01*
X213532380Y-54304761D01*
X213532380Y-54066666D01*
X213580000Y-53971428D01*
X213627619Y-53923809D01*
X213722857Y-53876190D01*
X213818095Y-53876190D01*
X213960952Y-53923809D01*
X214532380Y-54495238D01*
X214532380Y-53876190D01*
X213865714Y-53019047D02*
X214532380Y-53019047D01*
X213865714Y-53447619D02*
X214389523Y-53447619D01*
X214484761Y-53400000D01*
X214532380Y-53304761D01*
X214532380Y-53161904D01*
X214484761Y-53066666D01*
X214437142Y-53019047D01*
X213865714Y-52685714D02*
X213865714Y-52304761D01*
X214532380Y-52542857D02*
X213675238Y-52542857D01*
X213580000Y-52495238D01*
X213532380Y-52400000D01*
X213532380Y-52304761D01*
D12*
X216185714Y-54033333D02*
X216223809Y-54071428D01*
X216261904Y-54185714D01*
X216261904Y-54261904D01*
X216223809Y-54376190D01*
X216147619Y-54452380D01*
X216071428Y-54490476D01*
X215919047Y-54528571D01*
X215804761Y-54528571D01*
X215652380Y-54490476D01*
X215576190Y-54452380D01*
X215500000Y-54376190D01*
X215461904Y-54261904D01*
X215461904Y-54185714D01*
X215500000Y-54071428D01*
X215538095Y-54033333D01*
X216261904Y-53271428D02*
X216261904Y-53728571D01*
X216261904Y-53500000D02*
X215461904Y-53500000D01*
X215576190Y-53576190D01*
X215652380Y-53652380D01*
X215690476Y-53728571D01*
%TO.C,C2*%
D11*
X209559380Y-55217100D02*
X209559380Y-55121861D01*
X209607000Y-55026623D01*
X209654619Y-54979004D01*
X209749857Y-54931385D01*
X209940333Y-54883766D01*
X210178428Y-54883766D01*
X210368904Y-54931385D01*
X210464142Y-54979004D01*
X210511761Y-55026623D01*
X210559380Y-55121861D01*
X210559380Y-55217100D01*
X210511761Y-55312338D01*
X210464142Y-55359957D01*
X210368904Y-55407576D01*
X210178428Y-55455195D01*
X209940333Y-55455195D01*
X209749857Y-55407576D01*
X209654619Y-55359957D01*
X209607000Y-55312338D01*
X209559380Y-55217100D01*
X210511761Y-54407576D02*
X210559380Y-54407576D01*
X210654619Y-54455195D01*
X210702238Y-54502814D01*
X210559380Y-53455195D02*
X210559380Y-54026623D01*
X210559380Y-53740909D02*
X209559380Y-53740909D01*
X209702238Y-53836147D01*
X209797476Y-53931385D01*
X209845095Y-54026623D01*
X209892714Y-52598052D02*
X210559380Y-52598052D01*
X209892714Y-53026623D02*
X210416523Y-53026623D01*
X210511761Y-52979004D01*
X210559380Y-52883766D01*
X210559380Y-52740909D01*
X210511761Y-52645671D01*
X210464142Y-52598052D01*
X209892714Y-52264719D02*
X209892714Y-51883766D01*
X210559380Y-52121861D02*
X209702238Y-52121861D01*
X209607000Y-52074242D01*
X209559380Y-51979004D01*
X209559380Y-51883766D01*
D12*
X212212714Y-53850433D02*
X212250809Y-53888528D01*
X212288904Y-54002814D01*
X212288904Y-54079004D01*
X212250809Y-54193290D01*
X212174619Y-54269480D01*
X212098428Y-54307576D01*
X211946047Y-54345671D01*
X211831761Y-54345671D01*
X211679380Y-54307576D01*
X211603190Y-54269480D01*
X211527000Y-54193290D01*
X211488904Y-54079004D01*
X211488904Y-54002814D01*
X211527000Y-53888528D01*
X211565095Y-53850433D01*
X211565095Y-53545671D02*
X211527000Y-53507576D01*
X211488904Y-53431385D01*
X211488904Y-53240909D01*
X211527000Y-53164719D01*
X211565095Y-53126623D01*
X211641285Y-53088528D01*
X211717476Y-53088528D01*
X211831761Y-53126623D01*
X212288904Y-53583766D01*
X212288904Y-53088528D01*
%TO.C,C3*%
D11*
X201777000Y-61389480D02*
X201872238Y-61389480D01*
X201967476Y-61437100D01*
X202015095Y-61484719D01*
X202062714Y-61579957D01*
X202110333Y-61770433D01*
X202110333Y-62008528D01*
X202062714Y-62199004D01*
X202015095Y-62294242D01*
X201967476Y-62341861D01*
X201872238Y-62389480D01*
X201777000Y-62389480D01*
X201681761Y-62341861D01*
X201634142Y-62294242D01*
X201586523Y-62199004D01*
X201538904Y-62008528D01*
X201538904Y-61770433D01*
X201586523Y-61579957D01*
X201634142Y-61484719D01*
X201681761Y-61437100D01*
X201777000Y-61389480D01*
X202586523Y-62341861D02*
X202586523Y-62389480D01*
X202538904Y-62484719D01*
X202491285Y-62532338D01*
X203538904Y-62389480D02*
X202967476Y-62389480D01*
X203253190Y-62389480D02*
X203253190Y-61389480D01*
X203157952Y-61532338D01*
X203062714Y-61627576D01*
X202967476Y-61675195D01*
X204396047Y-61722814D02*
X204396047Y-62389480D01*
X203967476Y-61722814D02*
X203967476Y-62246623D01*
X204015095Y-62341861D01*
X204110333Y-62389480D01*
X204253190Y-62389480D01*
X204348428Y-62341861D01*
X204396047Y-62294242D01*
X204729380Y-61722814D02*
X205110333Y-61722814D01*
X204872238Y-62389480D02*
X204872238Y-61532338D01*
X204919857Y-61437100D01*
X205015095Y-61389480D01*
X205110333Y-61389480D01*
D12*
X203143666Y-60402814D02*
X203105571Y-60440909D01*
X202991285Y-60479004D01*
X202915095Y-60479004D01*
X202800809Y-60440909D01*
X202724619Y-60364719D01*
X202686523Y-60288528D01*
X202648428Y-60136147D01*
X202648428Y-60021861D01*
X202686523Y-59869480D01*
X202724619Y-59793290D01*
X202800809Y-59717100D01*
X202915095Y-59679004D01*
X202991285Y-59679004D01*
X203105571Y-59717100D01*
X203143666Y-59755195D01*
X203410333Y-59679004D02*
X203905571Y-59679004D01*
X203638904Y-59983766D01*
X203753190Y-59983766D01*
X203829380Y-60021861D01*
X203867476Y-60059957D01*
X203905571Y-60136147D01*
X203905571Y-60326623D01*
X203867476Y-60402814D01*
X203829380Y-60440909D01*
X203753190Y-60479004D01*
X203524619Y-60479004D01*
X203448428Y-60440909D01*
X203410333Y-60402814D01*
%TO.C,C4*%
D11*
X201800000Y-65367619D02*
X201847619Y-65320000D01*
X201942857Y-65272380D01*
X202180952Y-65272380D01*
X202276190Y-65320000D01*
X202323809Y-65367619D01*
X202371428Y-65462857D01*
X202371428Y-65558095D01*
X202323809Y-65700952D01*
X201752380Y-66272380D01*
X202371428Y-66272380D01*
X202752380Y-65367619D02*
X202800000Y-65320000D01*
X202895238Y-65272380D01*
X203133333Y-65272380D01*
X203228571Y-65320000D01*
X203276190Y-65367619D01*
X203323809Y-65462857D01*
X203323809Y-65558095D01*
X203276190Y-65700952D01*
X202704761Y-66272380D01*
X203323809Y-66272380D01*
X204180952Y-65605714D02*
X204180952Y-66272380D01*
X203752380Y-65605714D02*
X203752380Y-66129523D01*
X203800000Y-66224761D01*
X203895238Y-66272380D01*
X204038095Y-66272380D01*
X204133333Y-66224761D01*
X204180952Y-66177142D01*
X204514285Y-65605714D02*
X204895238Y-65605714D01*
X204657142Y-66272380D02*
X204657142Y-65415238D01*
X204704761Y-65320000D01*
X204800000Y-65272380D01*
X204895238Y-65272380D01*
D12*
X203166666Y-64285714D02*
X203128571Y-64323809D01*
X203014285Y-64361904D01*
X202938095Y-64361904D01*
X202823809Y-64323809D01*
X202747619Y-64247619D01*
X202709523Y-64171428D01*
X202671428Y-64019047D01*
X202671428Y-63904761D01*
X202709523Y-63752380D01*
X202747619Y-63676190D01*
X202823809Y-63600000D01*
X202938095Y-63561904D01*
X203014285Y-63561904D01*
X203128571Y-63600000D01*
X203166666Y-63638095D01*
X203852380Y-63828571D02*
X203852380Y-64361904D01*
X203661904Y-63523809D02*
X203471428Y-64095238D01*
X203966666Y-64095238D01*
%TO.C,D1*%
D11*
X203192142Y-129907380D02*
X202715952Y-129907380D01*
X202715952Y-128907380D01*
X203525476Y-129383571D02*
X203858809Y-129383571D01*
X204001666Y-129907380D02*
X203525476Y-129907380D01*
X203525476Y-128907380D01*
X204001666Y-128907380D01*
X204430238Y-129907380D02*
X204430238Y-128907380D01*
X204668333Y-128907380D01*
X204811190Y-128955000D01*
X204906428Y-129050238D01*
X204954047Y-129145476D01*
X205001666Y-129335952D01*
X205001666Y-129478809D01*
X204954047Y-129669285D01*
X204906428Y-129764523D01*
X204811190Y-129859761D01*
X204668333Y-129907380D01*
X204430238Y-129907380D01*
D12*
X203244523Y-128631904D02*
X203244523Y-127831904D01*
X203435000Y-127831904D01*
X203549285Y-127870000D01*
X203625476Y-127946190D01*
X203663571Y-128022380D01*
X203701666Y-128174761D01*
X203701666Y-128289047D01*
X203663571Y-128441428D01*
X203625476Y-128517619D01*
X203549285Y-128593809D01*
X203435000Y-128631904D01*
X203244523Y-128631904D01*
X204463571Y-128631904D02*
X204006428Y-128631904D01*
X204235000Y-128631904D02*
X204235000Y-127831904D01*
X204158809Y-127946190D01*
X204082619Y-128022380D01*
X204006428Y-128060476D01*
%TO.C,D2*%
D11*
X191762142Y-126267380D02*
X191285952Y-126267380D01*
X191285952Y-125267380D01*
X192095476Y-125743571D02*
X192428809Y-125743571D01*
X192571666Y-126267380D02*
X192095476Y-126267380D01*
X192095476Y-125267380D01*
X192571666Y-125267380D01*
X193000238Y-126267380D02*
X193000238Y-125267380D01*
X193238333Y-125267380D01*
X193381190Y-125315000D01*
X193476428Y-125410238D01*
X193524047Y-125505476D01*
X193571666Y-125695952D01*
X193571666Y-125838809D01*
X193524047Y-126029285D01*
X193476428Y-126124523D01*
X193381190Y-126219761D01*
X193238333Y-126267380D01*
X193000238Y-126267380D01*
D12*
X191814523Y-127996904D02*
X191814523Y-127196904D01*
X192005000Y-127196904D01*
X192119285Y-127235000D01*
X192195476Y-127311190D01*
X192233571Y-127387380D01*
X192271666Y-127539761D01*
X192271666Y-127654047D01*
X192233571Y-127806428D01*
X192195476Y-127882619D01*
X192119285Y-127958809D01*
X192005000Y-127996904D01*
X191814523Y-127996904D01*
X192576428Y-127273095D02*
X192614523Y-127235000D01*
X192690714Y-127196904D01*
X192881190Y-127196904D01*
X192957380Y-127235000D01*
X192995476Y-127273095D01*
X193033571Y-127349285D01*
X193033571Y-127425476D01*
X192995476Y-127539761D01*
X192538333Y-127996904D01*
X193033571Y-127996904D01*
%TO.C,D3*%
D11*
X210812142Y-129907380D02*
X210335952Y-129907380D01*
X210335952Y-128907380D01*
X211145476Y-129383571D02*
X211478809Y-129383571D01*
X211621666Y-129907380D02*
X211145476Y-129907380D01*
X211145476Y-128907380D01*
X211621666Y-128907380D01*
X212050238Y-129907380D02*
X212050238Y-128907380D01*
X212288333Y-128907380D01*
X212431190Y-128955000D01*
X212526428Y-129050238D01*
X212574047Y-129145476D01*
X212621666Y-129335952D01*
X212621666Y-129478809D01*
X212574047Y-129669285D01*
X212526428Y-129764523D01*
X212431190Y-129859761D01*
X212288333Y-129907380D01*
X212050238Y-129907380D01*
D12*
X210864523Y-127996904D02*
X210864523Y-127196904D01*
X211055000Y-127196904D01*
X211169285Y-127235000D01*
X211245476Y-127311190D01*
X211283571Y-127387380D01*
X211321666Y-127539761D01*
X211321666Y-127654047D01*
X211283571Y-127806428D01*
X211245476Y-127882619D01*
X211169285Y-127958809D01*
X211055000Y-127996904D01*
X210864523Y-127996904D01*
X211588333Y-127196904D02*
X212083571Y-127196904D01*
X211816904Y-127501666D01*
X211931190Y-127501666D01*
X212007380Y-127539761D01*
X212045476Y-127577857D01*
X212083571Y-127654047D01*
X212083571Y-127844523D01*
X212045476Y-127920714D01*
X212007380Y-127958809D01*
X211931190Y-127996904D01*
X211702619Y-127996904D01*
X211626428Y-127958809D01*
X211588333Y-127920714D01*
%TO.C,D4*%
D11*
X219702142Y-129907380D02*
X219225952Y-129907380D01*
X219225952Y-128907380D01*
X220035476Y-129383571D02*
X220368809Y-129383571D01*
X220511666Y-129907380D02*
X220035476Y-129907380D01*
X220035476Y-128907380D01*
X220511666Y-128907380D01*
X220940238Y-129907380D02*
X220940238Y-128907380D01*
X221178333Y-128907380D01*
X221321190Y-128955000D01*
X221416428Y-129050238D01*
X221464047Y-129145476D01*
X221511666Y-129335952D01*
X221511666Y-129478809D01*
X221464047Y-129669285D01*
X221416428Y-129764523D01*
X221321190Y-129859761D01*
X221178333Y-129907380D01*
X220940238Y-129907380D01*
D12*
X219854523Y-127796904D02*
X219854523Y-126996904D01*
X220045000Y-126996904D01*
X220159285Y-127035000D01*
X220235476Y-127111190D01*
X220273571Y-127187380D01*
X220311666Y-127339761D01*
X220311666Y-127454047D01*
X220273571Y-127606428D01*
X220235476Y-127682619D01*
X220159285Y-127758809D01*
X220045000Y-127796904D01*
X219854523Y-127796904D01*
X220997380Y-127263571D02*
X220997380Y-127796904D01*
X220806904Y-126958809D02*
X220616428Y-127530238D01*
X221111666Y-127530238D01*
%TO.C,R1*%
D11*
X203592380Y-125344523D02*
X203592380Y-124725476D01*
X203973333Y-125058809D01*
X203973333Y-124915952D01*
X204020952Y-124820714D01*
X204068571Y-124773095D01*
X204163809Y-124725476D01*
X204401904Y-124725476D01*
X204497142Y-124773095D01*
X204544761Y-124820714D01*
X204592380Y-124915952D01*
X204592380Y-125201666D01*
X204544761Y-125296904D01*
X204497142Y-125344523D01*
X203592380Y-124392142D02*
X203592380Y-123773095D01*
X203973333Y-124106428D01*
X203973333Y-123963571D01*
X204020952Y-123868333D01*
X204068571Y-123820714D01*
X204163809Y-123773095D01*
X204401904Y-123773095D01*
X204497142Y-123820714D01*
X204544761Y-123868333D01*
X204592380Y-123963571D01*
X204592380Y-124249285D01*
X204544761Y-124344523D01*
X204497142Y-124392142D01*
X203592380Y-123154047D02*
X203592380Y-123058809D01*
X203640000Y-122963571D01*
X203687619Y-122915952D01*
X203782857Y-122868333D01*
X203973333Y-122820714D01*
X204211428Y-122820714D01*
X204401904Y-122868333D01*
X204497142Y-122915952D01*
X204544761Y-122963571D01*
X204592380Y-123058809D01*
X204592380Y-123154047D01*
X204544761Y-123249285D01*
X204497142Y-123296904D01*
X204401904Y-123344523D01*
X204211428Y-123392142D01*
X203973333Y-123392142D01*
X203782857Y-123344523D01*
X203687619Y-123296904D01*
X203640000Y-123249285D01*
X203592380Y-123154047D01*
X203592380Y-121439761D02*
X203592380Y-121249285D01*
X203640000Y-121154047D01*
X203735238Y-121058809D01*
X203925714Y-121011190D01*
X204259047Y-121011190D01*
X204449523Y-121058809D01*
X204544761Y-121154047D01*
X204592380Y-121249285D01*
X204592380Y-121439761D01*
X204544761Y-121535000D01*
X204449523Y-121630238D01*
X204259047Y-121677857D01*
X203925714Y-121677857D01*
X203735238Y-121630238D01*
X203640000Y-121535000D01*
X203592380Y-121439761D01*
X204592380Y-120582619D02*
X203592380Y-120582619D01*
X204592380Y-120154047D02*
X204068571Y-120154047D01*
X203973333Y-120201666D01*
X203925714Y-120296904D01*
X203925714Y-120439761D01*
X203973333Y-120535000D01*
X204020952Y-120582619D01*
X204592380Y-119677857D02*
X203925714Y-119677857D01*
X204020952Y-119677857D02*
X203973333Y-119630238D01*
X203925714Y-119535000D01*
X203925714Y-119392142D01*
X203973333Y-119296904D01*
X204068571Y-119249285D01*
X204592380Y-119249285D01*
X204068571Y-119249285D02*
X203973333Y-119201666D01*
X203925714Y-119106428D01*
X203925714Y-118963571D01*
X203973333Y-118868333D01*
X204068571Y-118820714D01*
X204592380Y-118820714D01*
D12*
X202681904Y-122168333D02*
X202300952Y-122435000D01*
X202681904Y-122625476D02*
X201881904Y-122625476D01*
X201881904Y-122320714D01*
X201920000Y-122244523D01*
X201958095Y-122206428D01*
X202034285Y-122168333D01*
X202148571Y-122168333D01*
X202224761Y-122206428D01*
X202262857Y-122244523D01*
X202300952Y-122320714D01*
X202300952Y-122625476D01*
X202681904Y-121406428D02*
X202681904Y-121863571D01*
X202681904Y-121635000D02*
X201881904Y-121635000D01*
X201996190Y-121711190D01*
X202072380Y-121787380D01*
X202110476Y-121863571D01*
%TO.C,R2*%
D11*
X195382380Y-125844523D02*
X195382380Y-125225476D01*
X195763333Y-125558809D01*
X195763333Y-125415952D01*
X195810952Y-125320714D01*
X195858571Y-125273095D01*
X195953809Y-125225476D01*
X196191904Y-125225476D01*
X196287142Y-125273095D01*
X196334761Y-125320714D01*
X196382380Y-125415952D01*
X196382380Y-125701666D01*
X196334761Y-125796904D01*
X196287142Y-125844523D01*
X195382380Y-124892142D02*
X195382380Y-124273095D01*
X195763333Y-124606428D01*
X195763333Y-124463571D01*
X195810952Y-124368333D01*
X195858571Y-124320714D01*
X195953809Y-124273095D01*
X196191904Y-124273095D01*
X196287142Y-124320714D01*
X196334761Y-124368333D01*
X196382380Y-124463571D01*
X196382380Y-124749285D01*
X196334761Y-124844523D01*
X196287142Y-124892142D01*
X195382380Y-123654047D02*
X195382380Y-123558809D01*
X195430000Y-123463571D01*
X195477619Y-123415952D01*
X195572857Y-123368333D01*
X195763333Y-123320714D01*
X196001428Y-123320714D01*
X196191904Y-123368333D01*
X196287142Y-123415952D01*
X196334761Y-123463571D01*
X196382380Y-123558809D01*
X196382380Y-123654047D01*
X196334761Y-123749285D01*
X196287142Y-123796904D01*
X196191904Y-123844523D01*
X196001428Y-123892142D01*
X195763333Y-123892142D01*
X195572857Y-123844523D01*
X195477619Y-123796904D01*
X195430000Y-123749285D01*
X195382380Y-123654047D01*
X195382380Y-121939761D02*
X195382380Y-121749285D01*
X195430000Y-121654047D01*
X195525238Y-121558809D01*
X195715714Y-121511190D01*
X196049047Y-121511190D01*
X196239523Y-121558809D01*
X196334761Y-121654047D01*
X196382380Y-121749285D01*
X196382380Y-121939761D01*
X196334761Y-122035000D01*
X196239523Y-122130238D01*
X196049047Y-122177857D01*
X195715714Y-122177857D01*
X195525238Y-122130238D01*
X195430000Y-122035000D01*
X195382380Y-121939761D01*
X196382380Y-121082619D02*
X195382380Y-121082619D01*
X196382380Y-120654047D02*
X195858571Y-120654047D01*
X195763333Y-120701666D01*
X195715714Y-120796904D01*
X195715714Y-120939761D01*
X195763333Y-121035000D01*
X195810952Y-121082619D01*
X196382380Y-120177857D02*
X195715714Y-120177857D01*
X195810952Y-120177857D02*
X195763333Y-120130238D01*
X195715714Y-120035000D01*
X195715714Y-119892142D01*
X195763333Y-119796904D01*
X195858571Y-119749285D01*
X196382380Y-119749285D01*
X195858571Y-119749285D02*
X195763333Y-119701666D01*
X195715714Y-119606428D01*
X195715714Y-119463571D01*
X195763333Y-119368333D01*
X195858571Y-119320714D01*
X196382380Y-119320714D01*
D12*
X194771904Y-122468333D02*
X194390952Y-122735000D01*
X194771904Y-122925476D02*
X193971904Y-122925476D01*
X193971904Y-122620714D01*
X194010000Y-122544523D01*
X194048095Y-122506428D01*
X194124285Y-122468333D01*
X194238571Y-122468333D01*
X194314761Y-122506428D01*
X194352857Y-122544523D01*
X194390952Y-122620714D01*
X194390952Y-122925476D01*
X194048095Y-122163571D02*
X194010000Y-122125476D01*
X193971904Y-122049285D01*
X193971904Y-121858809D01*
X194010000Y-121782619D01*
X194048095Y-121744523D01*
X194124285Y-121706428D01*
X194200476Y-121706428D01*
X194314761Y-121744523D01*
X194771904Y-122201666D01*
X194771904Y-121706428D01*
%TO.C,R3*%
D11*
X210872380Y-125209523D02*
X210872380Y-124590476D01*
X211253333Y-124923809D01*
X211253333Y-124780952D01*
X211300952Y-124685714D01*
X211348571Y-124638095D01*
X211443809Y-124590476D01*
X211681904Y-124590476D01*
X211777142Y-124638095D01*
X211824761Y-124685714D01*
X211872380Y-124780952D01*
X211872380Y-125066666D01*
X211824761Y-125161904D01*
X211777142Y-125209523D01*
X210872380Y-124257142D02*
X210872380Y-123638095D01*
X211253333Y-123971428D01*
X211253333Y-123828571D01*
X211300952Y-123733333D01*
X211348571Y-123685714D01*
X211443809Y-123638095D01*
X211681904Y-123638095D01*
X211777142Y-123685714D01*
X211824761Y-123733333D01*
X211872380Y-123828571D01*
X211872380Y-124114285D01*
X211824761Y-124209523D01*
X211777142Y-124257142D01*
X210872380Y-123019047D02*
X210872380Y-122923809D01*
X210920000Y-122828571D01*
X210967619Y-122780952D01*
X211062857Y-122733333D01*
X211253333Y-122685714D01*
X211491428Y-122685714D01*
X211681904Y-122733333D01*
X211777142Y-122780952D01*
X211824761Y-122828571D01*
X211872380Y-122923809D01*
X211872380Y-123019047D01*
X211824761Y-123114285D01*
X211777142Y-123161904D01*
X211681904Y-123209523D01*
X211491428Y-123257142D01*
X211253333Y-123257142D01*
X211062857Y-123209523D01*
X210967619Y-123161904D01*
X210920000Y-123114285D01*
X210872380Y-123019047D01*
X210872380Y-121304761D02*
X210872380Y-121114285D01*
X210920000Y-121019047D01*
X211015238Y-120923809D01*
X211205714Y-120876190D01*
X211539047Y-120876190D01*
X211729523Y-120923809D01*
X211824761Y-121019047D01*
X211872380Y-121114285D01*
X211872380Y-121304761D01*
X211824761Y-121400000D01*
X211729523Y-121495238D01*
X211539047Y-121542857D01*
X211205714Y-121542857D01*
X211015238Y-121495238D01*
X210920000Y-121400000D01*
X210872380Y-121304761D01*
X211872380Y-120447619D02*
X210872380Y-120447619D01*
X211872380Y-120019047D02*
X211348571Y-120019047D01*
X211253333Y-120066666D01*
X211205714Y-120161904D01*
X211205714Y-120304761D01*
X211253333Y-120400000D01*
X211300952Y-120447619D01*
X211872380Y-119542857D02*
X211205714Y-119542857D01*
X211300952Y-119542857D02*
X211253333Y-119495238D01*
X211205714Y-119400000D01*
X211205714Y-119257142D01*
X211253333Y-119161904D01*
X211348571Y-119114285D01*
X211872380Y-119114285D01*
X211348571Y-119114285D02*
X211253333Y-119066666D01*
X211205714Y-118971428D01*
X211205714Y-118828571D01*
X211253333Y-118733333D01*
X211348571Y-118685714D01*
X211872380Y-118685714D01*
D12*
X209961904Y-122033333D02*
X209580952Y-122300000D01*
X209961904Y-122490476D02*
X209161904Y-122490476D01*
X209161904Y-122185714D01*
X209200000Y-122109523D01*
X209238095Y-122071428D01*
X209314285Y-122033333D01*
X209428571Y-122033333D01*
X209504761Y-122071428D01*
X209542857Y-122109523D01*
X209580952Y-122185714D01*
X209580952Y-122490476D01*
X209161904Y-121766666D02*
X209161904Y-121271428D01*
X209466666Y-121538095D01*
X209466666Y-121423809D01*
X209504761Y-121347619D01*
X209542857Y-121309523D01*
X209619047Y-121271428D01*
X209809523Y-121271428D01*
X209885714Y-121309523D01*
X209923809Y-121347619D01*
X209961904Y-121423809D01*
X209961904Y-121652380D01*
X209923809Y-121728571D01*
X209885714Y-121766666D01*
%TO.C,R4*%
D11*
X219572380Y-125009523D02*
X219572380Y-124390476D01*
X219953333Y-124723809D01*
X219953333Y-124580952D01*
X220000952Y-124485714D01*
X220048571Y-124438095D01*
X220143809Y-124390476D01*
X220381904Y-124390476D01*
X220477142Y-124438095D01*
X220524761Y-124485714D01*
X220572380Y-124580952D01*
X220572380Y-124866666D01*
X220524761Y-124961904D01*
X220477142Y-125009523D01*
X219572380Y-124057142D02*
X219572380Y-123438095D01*
X219953333Y-123771428D01*
X219953333Y-123628571D01*
X220000952Y-123533333D01*
X220048571Y-123485714D01*
X220143809Y-123438095D01*
X220381904Y-123438095D01*
X220477142Y-123485714D01*
X220524761Y-123533333D01*
X220572380Y-123628571D01*
X220572380Y-123914285D01*
X220524761Y-124009523D01*
X220477142Y-124057142D01*
X219572380Y-122819047D02*
X219572380Y-122723809D01*
X219620000Y-122628571D01*
X219667619Y-122580952D01*
X219762857Y-122533333D01*
X219953333Y-122485714D01*
X220191428Y-122485714D01*
X220381904Y-122533333D01*
X220477142Y-122580952D01*
X220524761Y-122628571D01*
X220572380Y-122723809D01*
X220572380Y-122819047D01*
X220524761Y-122914285D01*
X220477142Y-122961904D01*
X220381904Y-123009523D01*
X220191428Y-123057142D01*
X219953333Y-123057142D01*
X219762857Y-123009523D01*
X219667619Y-122961904D01*
X219620000Y-122914285D01*
X219572380Y-122819047D01*
X219572380Y-121104761D02*
X219572380Y-120914285D01*
X219620000Y-120819047D01*
X219715238Y-120723809D01*
X219905714Y-120676190D01*
X220239047Y-120676190D01*
X220429523Y-120723809D01*
X220524761Y-120819047D01*
X220572380Y-120914285D01*
X220572380Y-121104761D01*
X220524761Y-121200000D01*
X220429523Y-121295238D01*
X220239047Y-121342857D01*
X219905714Y-121342857D01*
X219715238Y-121295238D01*
X219620000Y-121200000D01*
X219572380Y-121104761D01*
X220572380Y-120247619D02*
X219572380Y-120247619D01*
X220572380Y-119819047D02*
X220048571Y-119819047D01*
X219953333Y-119866666D01*
X219905714Y-119961904D01*
X219905714Y-120104761D01*
X219953333Y-120200000D01*
X220000952Y-120247619D01*
X220572380Y-119342857D02*
X219905714Y-119342857D01*
X220000952Y-119342857D02*
X219953333Y-119295238D01*
X219905714Y-119200000D01*
X219905714Y-119057142D01*
X219953333Y-118961904D01*
X220048571Y-118914285D01*
X220572380Y-118914285D01*
X220048571Y-118914285D02*
X219953333Y-118866666D01*
X219905714Y-118771428D01*
X219905714Y-118628571D01*
X219953333Y-118533333D01*
X220048571Y-118485714D01*
X220572380Y-118485714D01*
D12*
X218661904Y-121833333D02*
X218280952Y-122100000D01*
X218661904Y-122290476D02*
X217861904Y-122290476D01*
X217861904Y-121985714D01*
X217900000Y-121909523D01*
X217938095Y-121871428D01*
X218014285Y-121833333D01*
X218128571Y-121833333D01*
X218204761Y-121871428D01*
X218242857Y-121909523D01*
X218280952Y-121985714D01*
X218280952Y-122290476D01*
X218128571Y-121147619D02*
X218661904Y-121147619D01*
X217823809Y-121338095D02*
X218395238Y-121528571D01*
X218395238Y-121033333D01*
%TO.C,U1*%
D11*
X199869000Y-49533166D02*
X200345190Y-49533166D01*
X199773761Y-49818880D02*
X200107095Y-48818880D01*
X200440428Y-49818880D01*
X200773761Y-49818880D02*
X200773761Y-48818880D01*
X201107095Y-49533166D01*
X201440428Y-48818880D01*
X201440428Y-49818880D01*
X201869000Y-49771261D02*
X202011857Y-49818880D01*
X202249952Y-49818880D01*
X202345190Y-49771261D01*
X202392809Y-49723642D01*
X202440428Y-49628404D01*
X202440428Y-49533166D01*
X202392809Y-49437928D01*
X202345190Y-49390309D01*
X202249952Y-49342690D01*
X202059476Y-49295071D01*
X201964238Y-49247452D01*
X201916619Y-49199833D01*
X201869000Y-49104595D01*
X201869000Y-49009357D01*
X201916619Y-48914119D01*
X201964238Y-48866500D01*
X202059476Y-48818880D01*
X202297571Y-48818880D01*
X202440428Y-48866500D01*
X203392809Y-49818880D02*
X202821380Y-49818880D01*
X203107095Y-49818880D02*
X203107095Y-48818880D01*
X203011857Y-48961738D01*
X202916619Y-49056976D01*
X202821380Y-49104595D01*
X204345190Y-49818880D02*
X203773761Y-49818880D01*
X204059476Y-49818880D02*
X204059476Y-48818880D01*
X203964238Y-48961738D01*
X203869000Y-49056976D01*
X203773761Y-49104595D01*
X205297571Y-49818880D02*
X204726142Y-49818880D01*
X205011857Y-49818880D02*
X205011857Y-48818880D01*
X204916619Y-48961738D01*
X204821380Y-49056976D01*
X204726142Y-49104595D01*
X205630904Y-48818880D02*
X206297571Y-48818880D01*
X205869000Y-49818880D01*
X206678523Y-49437928D02*
X207440428Y-49437928D01*
X207821380Y-48818880D02*
X208440428Y-48818880D01*
X208107095Y-49199833D01*
X208249952Y-49199833D01*
X208345190Y-49247452D01*
X208392809Y-49295071D01*
X208440428Y-49390309D01*
X208440428Y-49628404D01*
X208392809Y-49723642D01*
X208345190Y-49771261D01*
X208249952Y-49818880D01*
X207964238Y-49818880D01*
X207869000Y-49771261D01*
X207821380Y-49723642D01*
X208869000Y-49723642D02*
X208916619Y-49771261D01*
X208869000Y-49818880D01*
X208821380Y-49771261D01*
X208869000Y-49723642D01*
X208869000Y-49818880D01*
X209249952Y-48818880D02*
X209869000Y-48818880D01*
X209535666Y-49199833D01*
X209678523Y-49199833D01*
X209773761Y-49247452D01*
X209821380Y-49295071D01*
X209869000Y-49390309D01*
X209869000Y-49628404D01*
X209821380Y-49723642D01*
X209773761Y-49771261D01*
X209678523Y-49818880D01*
X209392809Y-49818880D01*
X209297571Y-49771261D01*
X209249952Y-49723642D01*
D12*
X205307095Y-53256976D02*
X204659476Y-53256976D01*
X204583285Y-53295071D01*
X204545190Y-53333166D01*
X204507095Y-53409357D01*
X204507095Y-53561738D01*
X204545190Y-53637928D01*
X204583285Y-53676023D01*
X204659476Y-53714119D01*
X205307095Y-53714119D01*
X204507095Y-54514119D02*
X204507095Y-54056976D01*
X204507095Y-54285547D02*
X205307095Y-54285547D01*
X205192809Y-54209357D01*
X205116619Y-54133166D01*
X205078523Y-54056976D01*
%TO.C,D5*%
D11*
X208232619Y-88437380D02*
X208899285Y-88437380D01*
X208232619Y-89437380D01*
X208899285Y-89437380D01*
X209661190Y-89389761D02*
X209565952Y-89437380D01*
X209375476Y-89437380D01*
X209280238Y-89389761D01*
X209232619Y-89294523D01*
X209232619Y-88913571D01*
X209280238Y-88818333D01*
X209375476Y-88770714D01*
X209565952Y-88770714D01*
X209661190Y-88818333D01*
X209708809Y-88913571D01*
X209708809Y-89008809D01*
X209232619Y-89104047D01*
X210137380Y-88770714D02*
X210137380Y-89437380D01*
X210137380Y-88865952D02*
X210185000Y-88818333D01*
X210280238Y-88770714D01*
X210423095Y-88770714D01*
X210518333Y-88818333D01*
X210565952Y-88913571D01*
X210565952Y-89437380D01*
X211423095Y-89389761D02*
X211327857Y-89437380D01*
X211137380Y-89437380D01*
X211042142Y-89389761D01*
X210994523Y-89294523D01*
X210994523Y-88913571D01*
X211042142Y-88818333D01*
X211137380Y-88770714D01*
X211327857Y-88770714D01*
X211423095Y-88818333D01*
X211470714Y-88913571D01*
X211470714Y-89008809D01*
X210994523Y-89104047D01*
X211899285Y-89437380D02*
X211899285Y-88770714D01*
X211899285Y-88961190D02*
X211946904Y-88865952D01*
X211994523Y-88818333D01*
X212089761Y-88770714D01*
X212185000Y-88770714D01*
D12*
X209594523Y-91166904D02*
X209594523Y-90366904D01*
X209785000Y-90366904D01*
X209899285Y-90405000D01*
X209975476Y-90481190D01*
X210013571Y-90557380D01*
X210051666Y-90709761D01*
X210051666Y-90824047D01*
X210013571Y-90976428D01*
X209975476Y-91052619D01*
X209899285Y-91128809D01*
X209785000Y-91166904D01*
X209594523Y-91166904D01*
X210775476Y-90366904D02*
X210394523Y-90366904D01*
X210356428Y-90747857D01*
X210394523Y-90709761D01*
X210470714Y-90671666D01*
X210661190Y-90671666D01*
X210737380Y-90709761D01*
X210775476Y-90747857D01*
X210813571Y-90824047D01*
X210813571Y-91014523D01*
X210775476Y-91090714D01*
X210737380Y-91128809D01*
X210661190Y-91166904D01*
X210470714Y-91166904D01*
X210394523Y-91128809D01*
X210356428Y-91090714D01*
%TO.C,D6*%
D11*
X199342619Y-92712380D02*
X200009285Y-92712380D01*
X199342619Y-93712380D01*
X200009285Y-93712380D01*
X200771190Y-93664761D02*
X200675952Y-93712380D01*
X200485476Y-93712380D01*
X200390238Y-93664761D01*
X200342619Y-93569523D01*
X200342619Y-93188571D01*
X200390238Y-93093333D01*
X200485476Y-93045714D01*
X200675952Y-93045714D01*
X200771190Y-93093333D01*
X200818809Y-93188571D01*
X200818809Y-93283809D01*
X200342619Y-93379047D01*
X201247380Y-93045714D02*
X201247380Y-93712380D01*
X201247380Y-93140952D02*
X201295000Y-93093333D01*
X201390238Y-93045714D01*
X201533095Y-93045714D01*
X201628333Y-93093333D01*
X201675952Y-93188571D01*
X201675952Y-93712380D01*
X202533095Y-93664761D02*
X202437857Y-93712380D01*
X202247380Y-93712380D01*
X202152142Y-93664761D01*
X202104523Y-93569523D01*
X202104523Y-93188571D01*
X202152142Y-93093333D01*
X202247380Y-93045714D01*
X202437857Y-93045714D01*
X202533095Y-93093333D01*
X202580714Y-93188571D01*
X202580714Y-93283809D01*
X202104523Y-93379047D01*
X203009285Y-93712380D02*
X203009285Y-93045714D01*
X203009285Y-93236190D02*
X203056904Y-93140952D01*
X203104523Y-93093333D01*
X203199761Y-93045714D01*
X203295000Y-93045714D01*
D12*
X200704523Y-91801904D02*
X200704523Y-91001904D01*
X200895000Y-91001904D01*
X201009285Y-91040000D01*
X201085476Y-91116190D01*
X201123571Y-91192380D01*
X201161666Y-91344761D01*
X201161666Y-91459047D01*
X201123571Y-91611428D01*
X201085476Y-91687619D01*
X201009285Y-91763809D01*
X200895000Y-91801904D01*
X200704523Y-91801904D01*
X201847380Y-91001904D02*
X201695000Y-91001904D01*
X201618809Y-91040000D01*
X201580714Y-91078095D01*
X201504523Y-91192380D01*
X201466428Y-91344761D01*
X201466428Y-91649523D01*
X201504523Y-91725714D01*
X201542619Y-91763809D01*
X201618809Y-91801904D01*
X201771190Y-91801904D01*
X201847380Y-91763809D01*
X201885476Y-91725714D01*
X201923571Y-91649523D01*
X201923571Y-91459047D01*
X201885476Y-91382857D01*
X201847380Y-91344761D01*
X201771190Y-91306666D01*
X201618809Y-91306666D01*
X201542619Y-91344761D01*
X201504523Y-91382857D01*
X201466428Y-91459047D01*
%TO.C,R5*%
D11*
X221125380Y-70687176D02*
X221125380Y-71258604D01*
X221125380Y-70972890D02*
X220125380Y-70972890D01*
X220268238Y-71068128D01*
X220363476Y-71163366D01*
X220411095Y-71258604D01*
X220125380Y-70068128D02*
X220125380Y-69972890D01*
X220173000Y-69877652D01*
X220220619Y-69830033D01*
X220315857Y-69782414D01*
X220506333Y-69734795D01*
X220744428Y-69734795D01*
X220934904Y-69782414D01*
X221030142Y-69830033D01*
X221077761Y-69877652D01*
X221125380Y-69972890D01*
X221125380Y-70068128D01*
X221077761Y-70163366D01*
X221030142Y-70210985D01*
X220934904Y-70258604D01*
X220744428Y-70306223D01*
X220506333Y-70306223D01*
X220315857Y-70258604D01*
X220220619Y-70210985D01*
X220173000Y-70163366D01*
X220125380Y-70068128D01*
X220125380Y-69115747D02*
X220125380Y-69020509D01*
X220173000Y-68925271D01*
X220220619Y-68877652D01*
X220315857Y-68830033D01*
X220506333Y-68782414D01*
X220744428Y-68782414D01*
X220934904Y-68830033D01*
X221030142Y-68877652D01*
X221077761Y-68925271D01*
X221125380Y-69020509D01*
X221125380Y-69115747D01*
X221077761Y-69210985D01*
X221030142Y-69258604D01*
X220934904Y-69306223D01*
X220744428Y-69353842D01*
X220506333Y-69353842D01*
X220315857Y-69306223D01*
X220220619Y-69258604D01*
X220173000Y-69210985D01*
X220125380Y-69115747D01*
X220125380Y-67401461D02*
X220125380Y-67210985D01*
X220173000Y-67115747D01*
X220268238Y-67020509D01*
X220458714Y-66972890D01*
X220792047Y-66972890D01*
X220982523Y-67020509D01*
X221077761Y-67115747D01*
X221125380Y-67210985D01*
X221125380Y-67401461D01*
X221077761Y-67496700D01*
X220982523Y-67591938D01*
X220792047Y-67639557D01*
X220458714Y-67639557D01*
X220268238Y-67591938D01*
X220173000Y-67496700D01*
X220125380Y-67401461D01*
X221125380Y-66544319D02*
X220125380Y-66544319D01*
X221125380Y-66115747D02*
X220601571Y-66115747D01*
X220506333Y-66163366D01*
X220458714Y-66258604D01*
X220458714Y-66401461D01*
X220506333Y-66496700D01*
X220553952Y-66544319D01*
X221125380Y-65639557D02*
X220458714Y-65639557D01*
X220553952Y-65639557D02*
X220506333Y-65591938D01*
X220458714Y-65496700D01*
X220458714Y-65353842D01*
X220506333Y-65258604D01*
X220601571Y-65210985D01*
X221125380Y-65210985D01*
X220601571Y-65210985D02*
X220506333Y-65163366D01*
X220458714Y-65068128D01*
X220458714Y-64925271D01*
X220506333Y-64830033D01*
X220601571Y-64782414D01*
X221125380Y-64782414D01*
D12*
X222854904Y-68130033D02*
X222473952Y-68396700D01*
X222854904Y-68587176D02*
X222054904Y-68587176D01*
X222054904Y-68282414D01*
X222093000Y-68206223D01*
X222131095Y-68168128D01*
X222207285Y-68130033D01*
X222321571Y-68130033D01*
X222397761Y-68168128D01*
X222435857Y-68206223D01*
X222473952Y-68282414D01*
X222473952Y-68587176D01*
X222054904Y-67406223D02*
X222054904Y-67787176D01*
X222435857Y-67825271D01*
X222397761Y-67787176D01*
X222359666Y-67710985D01*
X222359666Y-67520509D01*
X222397761Y-67444319D01*
X222435857Y-67406223D01*
X222512047Y-67368128D01*
X222702523Y-67368128D01*
X222778714Y-67406223D01*
X222816809Y-67444319D01*
X222854904Y-67520509D01*
X222854904Y-67710985D01*
X222816809Y-67787176D01*
X222778714Y-67825271D01*
%TO.C,R6*%
D11*
X225025380Y-70687176D02*
X225025380Y-71258604D01*
X225025380Y-70972890D02*
X224025380Y-70972890D01*
X224168238Y-71068128D01*
X224263476Y-71163366D01*
X224311095Y-71258604D01*
X224025380Y-70068128D02*
X224025380Y-69972890D01*
X224073000Y-69877652D01*
X224120619Y-69830033D01*
X224215857Y-69782414D01*
X224406333Y-69734795D01*
X224644428Y-69734795D01*
X224834904Y-69782414D01*
X224930142Y-69830033D01*
X224977761Y-69877652D01*
X225025380Y-69972890D01*
X225025380Y-70068128D01*
X224977761Y-70163366D01*
X224930142Y-70210985D01*
X224834904Y-70258604D01*
X224644428Y-70306223D01*
X224406333Y-70306223D01*
X224215857Y-70258604D01*
X224120619Y-70210985D01*
X224073000Y-70163366D01*
X224025380Y-70068128D01*
X224025380Y-69115747D02*
X224025380Y-69020509D01*
X224073000Y-68925271D01*
X224120619Y-68877652D01*
X224215857Y-68830033D01*
X224406333Y-68782414D01*
X224644428Y-68782414D01*
X224834904Y-68830033D01*
X224930142Y-68877652D01*
X224977761Y-68925271D01*
X225025380Y-69020509D01*
X225025380Y-69115747D01*
X224977761Y-69210985D01*
X224930142Y-69258604D01*
X224834904Y-69306223D01*
X224644428Y-69353842D01*
X224406333Y-69353842D01*
X224215857Y-69306223D01*
X224120619Y-69258604D01*
X224073000Y-69210985D01*
X224025380Y-69115747D01*
X224025380Y-67401461D02*
X224025380Y-67210985D01*
X224073000Y-67115747D01*
X224168238Y-67020509D01*
X224358714Y-66972890D01*
X224692047Y-66972890D01*
X224882523Y-67020509D01*
X224977761Y-67115747D01*
X225025380Y-67210985D01*
X225025380Y-67401461D01*
X224977761Y-67496700D01*
X224882523Y-67591938D01*
X224692047Y-67639557D01*
X224358714Y-67639557D01*
X224168238Y-67591938D01*
X224073000Y-67496700D01*
X224025380Y-67401461D01*
X225025380Y-66544319D02*
X224025380Y-66544319D01*
X225025380Y-66115747D02*
X224501571Y-66115747D01*
X224406333Y-66163366D01*
X224358714Y-66258604D01*
X224358714Y-66401461D01*
X224406333Y-66496700D01*
X224453952Y-66544319D01*
X225025380Y-65639557D02*
X224358714Y-65639557D01*
X224453952Y-65639557D02*
X224406333Y-65591938D01*
X224358714Y-65496700D01*
X224358714Y-65353842D01*
X224406333Y-65258604D01*
X224501571Y-65210985D01*
X225025380Y-65210985D01*
X224501571Y-65210985D02*
X224406333Y-65163366D01*
X224358714Y-65068128D01*
X224358714Y-64925271D01*
X224406333Y-64830033D01*
X224501571Y-64782414D01*
X225025380Y-64782414D01*
D12*
X226754904Y-68130033D02*
X226373952Y-68396700D01*
X226754904Y-68587176D02*
X225954904Y-68587176D01*
X225954904Y-68282414D01*
X225993000Y-68206223D01*
X226031095Y-68168128D01*
X226107285Y-68130033D01*
X226221571Y-68130033D01*
X226297761Y-68168128D01*
X226335857Y-68206223D01*
X226373952Y-68282414D01*
X226373952Y-68587176D01*
X225954904Y-67444319D02*
X225954904Y-67596700D01*
X225993000Y-67672890D01*
X226031095Y-67710985D01*
X226145380Y-67787176D01*
X226297761Y-67825271D01*
X226602523Y-67825271D01*
X226678714Y-67787176D01*
X226716809Y-67749080D01*
X226754904Y-67672890D01*
X226754904Y-67520509D01*
X226716809Y-67444319D01*
X226678714Y-67406223D01*
X226602523Y-67368128D01*
X226412047Y-67368128D01*
X226335857Y-67406223D01*
X226297761Y-67444319D01*
X226259666Y-67520509D01*
X226259666Y-67672890D01*
X226297761Y-67749080D01*
X226335857Y-67787176D01*
X226412047Y-67825271D01*
%TO.C,D7*%
D11*
X208232619Y-106852380D02*
X208899285Y-106852380D01*
X208232619Y-107852380D01*
X208899285Y-107852380D01*
X209661190Y-107804761D02*
X209565952Y-107852380D01*
X209375476Y-107852380D01*
X209280238Y-107804761D01*
X209232619Y-107709523D01*
X209232619Y-107328571D01*
X209280238Y-107233333D01*
X209375476Y-107185714D01*
X209565952Y-107185714D01*
X209661190Y-107233333D01*
X209708809Y-107328571D01*
X209708809Y-107423809D01*
X209232619Y-107519047D01*
X210137380Y-107185714D02*
X210137380Y-107852380D01*
X210137380Y-107280952D02*
X210185000Y-107233333D01*
X210280238Y-107185714D01*
X210423095Y-107185714D01*
X210518333Y-107233333D01*
X210565952Y-107328571D01*
X210565952Y-107852380D01*
X211423095Y-107804761D02*
X211327857Y-107852380D01*
X211137380Y-107852380D01*
X211042142Y-107804761D01*
X210994523Y-107709523D01*
X210994523Y-107328571D01*
X211042142Y-107233333D01*
X211137380Y-107185714D01*
X211327857Y-107185714D01*
X211423095Y-107233333D01*
X211470714Y-107328571D01*
X211470714Y-107423809D01*
X210994523Y-107519047D01*
X211899285Y-107852380D02*
X211899285Y-107185714D01*
X211899285Y-107376190D02*
X211946904Y-107280952D01*
X211994523Y-107233333D01*
X212089761Y-107185714D01*
X212185000Y-107185714D01*
D12*
X209594523Y-109581904D02*
X209594523Y-108781904D01*
X209785000Y-108781904D01*
X209899285Y-108820000D01*
X209975476Y-108896190D01*
X210013571Y-108972380D01*
X210051666Y-109124761D01*
X210051666Y-109239047D01*
X210013571Y-109391428D01*
X209975476Y-109467619D01*
X209899285Y-109543809D01*
X209785000Y-109581904D01*
X209594523Y-109581904D01*
X210318333Y-108781904D02*
X210851666Y-108781904D01*
X210508809Y-109581904D01*
%TO.C,D8*%
D11*
X208232619Y-111297380D02*
X208899285Y-111297380D01*
X208232619Y-112297380D01*
X208899285Y-112297380D01*
X209661190Y-112249761D02*
X209565952Y-112297380D01*
X209375476Y-112297380D01*
X209280238Y-112249761D01*
X209232619Y-112154523D01*
X209232619Y-111773571D01*
X209280238Y-111678333D01*
X209375476Y-111630714D01*
X209565952Y-111630714D01*
X209661190Y-111678333D01*
X209708809Y-111773571D01*
X209708809Y-111868809D01*
X209232619Y-111964047D01*
X210137380Y-111630714D02*
X210137380Y-112297380D01*
X210137380Y-111725952D02*
X210185000Y-111678333D01*
X210280238Y-111630714D01*
X210423095Y-111630714D01*
X210518333Y-111678333D01*
X210565952Y-111773571D01*
X210565952Y-112297380D01*
X211423095Y-112249761D02*
X211327857Y-112297380D01*
X211137380Y-112297380D01*
X211042142Y-112249761D01*
X210994523Y-112154523D01*
X210994523Y-111773571D01*
X211042142Y-111678333D01*
X211137380Y-111630714D01*
X211327857Y-111630714D01*
X211423095Y-111678333D01*
X211470714Y-111773571D01*
X211470714Y-111868809D01*
X210994523Y-111964047D01*
X211899285Y-112297380D02*
X211899285Y-111630714D01*
X211899285Y-111821190D02*
X211946904Y-111725952D01*
X211994523Y-111678333D01*
X212089761Y-111630714D01*
X212185000Y-111630714D01*
D12*
X209594523Y-114026904D02*
X209594523Y-113226904D01*
X209785000Y-113226904D01*
X209899285Y-113265000D01*
X209975476Y-113341190D01*
X210013571Y-113417380D01*
X210051666Y-113569761D01*
X210051666Y-113684047D01*
X210013571Y-113836428D01*
X209975476Y-113912619D01*
X209899285Y-113988809D01*
X209785000Y-114026904D01*
X209594523Y-114026904D01*
X210508809Y-113569761D02*
X210432619Y-113531666D01*
X210394523Y-113493571D01*
X210356428Y-113417380D01*
X210356428Y-113379285D01*
X210394523Y-113303095D01*
X210432619Y-113265000D01*
X210508809Y-113226904D01*
X210661190Y-113226904D01*
X210737380Y-113265000D01*
X210775476Y-113303095D01*
X210813571Y-113379285D01*
X210813571Y-113417380D01*
X210775476Y-113493571D01*
X210737380Y-113531666D01*
X210661190Y-113569761D01*
X210508809Y-113569761D01*
X210432619Y-113607857D01*
X210394523Y-113645952D01*
X210356428Y-113722142D01*
X210356428Y-113874523D01*
X210394523Y-113950714D01*
X210432619Y-113988809D01*
X210508809Y-114026904D01*
X210661190Y-114026904D01*
X210737380Y-113988809D01*
X210775476Y-113950714D01*
X210813571Y-113874523D01*
X210813571Y-113722142D01*
X210775476Y-113645952D01*
X210737380Y-113607857D01*
X210661190Y-113569761D01*
%TO.C,D9*%
D11*
X199342619Y-111762380D02*
X200009285Y-111762380D01*
X199342619Y-112762380D01*
X200009285Y-112762380D01*
X200771190Y-112714761D02*
X200675952Y-112762380D01*
X200485476Y-112762380D01*
X200390238Y-112714761D01*
X200342619Y-112619523D01*
X200342619Y-112238571D01*
X200390238Y-112143333D01*
X200485476Y-112095714D01*
X200675952Y-112095714D01*
X200771190Y-112143333D01*
X200818809Y-112238571D01*
X200818809Y-112333809D01*
X200342619Y-112429047D01*
X201247380Y-112095714D02*
X201247380Y-112762380D01*
X201247380Y-112190952D02*
X201295000Y-112143333D01*
X201390238Y-112095714D01*
X201533095Y-112095714D01*
X201628333Y-112143333D01*
X201675952Y-112238571D01*
X201675952Y-112762380D01*
X202533095Y-112714761D02*
X202437857Y-112762380D01*
X202247380Y-112762380D01*
X202152142Y-112714761D01*
X202104523Y-112619523D01*
X202104523Y-112238571D01*
X202152142Y-112143333D01*
X202247380Y-112095714D01*
X202437857Y-112095714D01*
X202533095Y-112143333D01*
X202580714Y-112238571D01*
X202580714Y-112333809D01*
X202104523Y-112429047D01*
X203009285Y-112762380D02*
X203009285Y-112095714D01*
X203009285Y-112286190D02*
X203056904Y-112190952D01*
X203104523Y-112143333D01*
X203199761Y-112095714D01*
X203295000Y-112095714D01*
D12*
X200704523Y-110851904D02*
X200704523Y-110051904D01*
X200895000Y-110051904D01*
X201009285Y-110090000D01*
X201085476Y-110166190D01*
X201123571Y-110242380D01*
X201161666Y-110394761D01*
X201161666Y-110509047D01*
X201123571Y-110661428D01*
X201085476Y-110737619D01*
X201009285Y-110813809D01*
X200895000Y-110851904D01*
X200704523Y-110851904D01*
X201542619Y-110851904D02*
X201695000Y-110851904D01*
X201771190Y-110813809D01*
X201809285Y-110775714D01*
X201885476Y-110661428D01*
X201923571Y-110509047D01*
X201923571Y-110204285D01*
X201885476Y-110128095D01*
X201847380Y-110090000D01*
X201771190Y-110051904D01*
X201618809Y-110051904D01*
X201542619Y-110090000D01*
X201504523Y-110128095D01*
X201466428Y-110204285D01*
X201466428Y-110394761D01*
X201504523Y-110470952D01*
X201542619Y-110509047D01*
X201618809Y-110547142D01*
X201771190Y-110547142D01*
X201847380Y-110509047D01*
X201885476Y-110470952D01*
X201923571Y-110394761D01*
%TO.C,D10*%
D11*
X199342619Y-115572380D02*
X200009285Y-115572380D01*
X199342619Y-116572380D01*
X200009285Y-116572380D01*
X200771190Y-116524761D02*
X200675952Y-116572380D01*
X200485476Y-116572380D01*
X200390238Y-116524761D01*
X200342619Y-116429523D01*
X200342619Y-116048571D01*
X200390238Y-115953333D01*
X200485476Y-115905714D01*
X200675952Y-115905714D01*
X200771190Y-115953333D01*
X200818809Y-116048571D01*
X200818809Y-116143809D01*
X200342619Y-116239047D01*
X201247380Y-115905714D02*
X201247380Y-116572380D01*
X201247380Y-116000952D02*
X201295000Y-115953333D01*
X201390238Y-115905714D01*
X201533095Y-115905714D01*
X201628333Y-115953333D01*
X201675952Y-116048571D01*
X201675952Y-116572380D01*
X202533095Y-116524761D02*
X202437857Y-116572380D01*
X202247380Y-116572380D01*
X202152142Y-116524761D01*
X202104523Y-116429523D01*
X202104523Y-116048571D01*
X202152142Y-115953333D01*
X202247380Y-115905714D01*
X202437857Y-115905714D01*
X202533095Y-115953333D01*
X202580714Y-116048571D01*
X202580714Y-116143809D01*
X202104523Y-116239047D01*
X203009285Y-116572380D02*
X203009285Y-115905714D01*
X203009285Y-116096190D02*
X203056904Y-116000952D01*
X203104523Y-115953333D01*
X203199761Y-115905714D01*
X203295000Y-115905714D01*
D12*
X200323571Y-114661904D02*
X200323571Y-113861904D01*
X200514047Y-113861904D01*
X200628333Y-113900000D01*
X200704523Y-113976190D01*
X200742619Y-114052380D01*
X200780714Y-114204761D01*
X200780714Y-114319047D01*
X200742619Y-114471428D01*
X200704523Y-114547619D01*
X200628333Y-114623809D01*
X200514047Y-114661904D01*
X200323571Y-114661904D01*
X201542619Y-114661904D02*
X201085476Y-114661904D01*
X201314047Y-114661904D02*
X201314047Y-113861904D01*
X201237857Y-113976190D01*
X201161666Y-114052380D01*
X201085476Y-114090476D01*
X202037857Y-113861904D02*
X202114047Y-113861904D01*
X202190238Y-113900000D01*
X202228333Y-113938095D01*
X202266428Y-114014285D01*
X202304523Y-114166666D01*
X202304523Y-114357142D01*
X202266428Y-114509523D01*
X202228333Y-114585714D01*
X202190238Y-114623809D01*
X202114047Y-114661904D01*
X202037857Y-114661904D01*
X201961666Y-114623809D01*
X201923571Y-114585714D01*
X201885476Y-114509523D01*
X201847380Y-114357142D01*
X201847380Y-114166666D01*
X201885476Y-114014285D01*
X201923571Y-113938095D01*
X201961666Y-113900000D01*
X202037857Y-113861904D01*
%TO.C,D11*%
D11*
X208232619Y-94787380D02*
X208899285Y-94787380D01*
X208232619Y-95787380D01*
X208899285Y-95787380D01*
X209661190Y-95739761D02*
X209565952Y-95787380D01*
X209375476Y-95787380D01*
X209280238Y-95739761D01*
X209232619Y-95644523D01*
X209232619Y-95263571D01*
X209280238Y-95168333D01*
X209375476Y-95120714D01*
X209565952Y-95120714D01*
X209661190Y-95168333D01*
X209708809Y-95263571D01*
X209708809Y-95358809D01*
X209232619Y-95454047D01*
X210137380Y-95120714D02*
X210137380Y-95787380D01*
X210137380Y-95215952D02*
X210185000Y-95168333D01*
X210280238Y-95120714D01*
X210423095Y-95120714D01*
X210518333Y-95168333D01*
X210565952Y-95263571D01*
X210565952Y-95787380D01*
X211423095Y-95739761D02*
X211327857Y-95787380D01*
X211137380Y-95787380D01*
X211042142Y-95739761D01*
X210994523Y-95644523D01*
X210994523Y-95263571D01*
X211042142Y-95168333D01*
X211137380Y-95120714D01*
X211327857Y-95120714D01*
X211423095Y-95168333D01*
X211470714Y-95263571D01*
X211470714Y-95358809D01*
X210994523Y-95454047D01*
X211899285Y-95787380D02*
X211899285Y-95120714D01*
X211899285Y-95311190D02*
X211946904Y-95215952D01*
X211994523Y-95168333D01*
X212089761Y-95120714D01*
X212185000Y-95120714D01*
D12*
X209213571Y-97516904D02*
X209213571Y-96716904D01*
X209404047Y-96716904D01*
X209518333Y-96755000D01*
X209594523Y-96831190D01*
X209632619Y-96907380D01*
X209670714Y-97059761D01*
X209670714Y-97174047D01*
X209632619Y-97326428D01*
X209594523Y-97402619D01*
X209518333Y-97478809D01*
X209404047Y-97516904D01*
X209213571Y-97516904D01*
X210432619Y-97516904D02*
X209975476Y-97516904D01*
X210204047Y-97516904D02*
X210204047Y-96716904D01*
X210127857Y-96831190D01*
X210051666Y-96907380D01*
X209975476Y-96945476D01*
X211194523Y-97516904D02*
X210737380Y-97516904D01*
X210965952Y-97516904D02*
X210965952Y-96716904D01*
X210889761Y-96831190D01*
X210813571Y-96907380D01*
X210737380Y-96945476D01*
%TO.C,D12*%
D11*
X199342619Y-106047380D02*
X200009285Y-106047380D01*
X199342619Y-107047380D01*
X200009285Y-107047380D01*
X200771190Y-106999761D02*
X200675952Y-107047380D01*
X200485476Y-107047380D01*
X200390238Y-106999761D01*
X200342619Y-106904523D01*
X200342619Y-106523571D01*
X200390238Y-106428333D01*
X200485476Y-106380714D01*
X200675952Y-106380714D01*
X200771190Y-106428333D01*
X200818809Y-106523571D01*
X200818809Y-106618809D01*
X200342619Y-106714047D01*
X201247380Y-106380714D02*
X201247380Y-107047380D01*
X201247380Y-106475952D02*
X201295000Y-106428333D01*
X201390238Y-106380714D01*
X201533095Y-106380714D01*
X201628333Y-106428333D01*
X201675952Y-106523571D01*
X201675952Y-107047380D01*
X202533095Y-106999761D02*
X202437857Y-107047380D01*
X202247380Y-107047380D01*
X202152142Y-106999761D01*
X202104523Y-106904523D01*
X202104523Y-106523571D01*
X202152142Y-106428333D01*
X202247380Y-106380714D01*
X202437857Y-106380714D01*
X202533095Y-106428333D01*
X202580714Y-106523571D01*
X202580714Y-106618809D01*
X202104523Y-106714047D01*
X203009285Y-107047380D02*
X203009285Y-106380714D01*
X203009285Y-106571190D02*
X203056904Y-106475952D01*
X203104523Y-106428333D01*
X203199761Y-106380714D01*
X203295000Y-106380714D01*
D12*
X200323571Y-105136904D02*
X200323571Y-104336904D01*
X200514047Y-104336904D01*
X200628333Y-104375000D01*
X200704523Y-104451190D01*
X200742619Y-104527380D01*
X200780714Y-104679761D01*
X200780714Y-104794047D01*
X200742619Y-104946428D01*
X200704523Y-105022619D01*
X200628333Y-105098809D01*
X200514047Y-105136904D01*
X200323571Y-105136904D01*
X201542619Y-105136904D02*
X201085476Y-105136904D01*
X201314047Y-105136904D02*
X201314047Y-104336904D01*
X201237857Y-104451190D01*
X201161666Y-104527380D01*
X201085476Y-104565476D01*
X201847380Y-104413095D02*
X201885476Y-104375000D01*
X201961666Y-104336904D01*
X202152142Y-104336904D01*
X202228333Y-104375000D01*
X202266428Y-104413095D01*
X202304523Y-104489285D01*
X202304523Y-104565476D01*
X202266428Y-104679761D01*
X201809285Y-105136904D01*
X202304523Y-105136904D01*
%TO.C,D13*%
D11*
X199342619Y-101602380D02*
X200009285Y-101602380D01*
X199342619Y-102602380D01*
X200009285Y-102602380D01*
X200771190Y-102554761D02*
X200675952Y-102602380D01*
X200485476Y-102602380D01*
X200390238Y-102554761D01*
X200342619Y-102459523D01*
X200342619Y-102078571D01*
X200390238Y-101983333D01*
X200485476Y-101935714D01*
X200675952Y-101935714D01*
X200771190Y-101983333D01*
X200818809Y-102078571D01*
X200818809Y-102173809D01*
X200342619Y-102269047D01*
X201247380Y-101935714D02*
X201247380Y-102602380D01*
X201247380Y-102030952D02*
X201295000Y-101983333D01*
X201390238Y-101935714D01*
X201533095Y-101935714D01*
X201628333Y-101983333D01*
X201675952Y-102078571D01*
X201675952Y-102602380D01*
X202533095Y-102554761D02*
X202437857Y-102602380D01*
X202247380Y-102602380D01*
X202152142Y-102554761D01*
X202104523Y-102459523D01*
X202104523Y-102078571D01*
X202152142Y-101983333D01*
X202247380Y-101935714D01*
X202437857Y-101935714D01*
X202533095Y-101983333D01*
X202580714Y-102078571D01*
X202580714Y-102173809D01*
X202104523Y-102269047D01*
X203009285Y-102602380D02*
X203009285Y-101935714D01*
X203009285Y-102126190D02*
X203056904Y-102030952D01*
X203104523Y-101983333D01*
X203199761Y-101935714D01*
X203295000Y-101935714D01*
D12*
X200323571Y-100691904D02*
X200323571Y-99891904D01*
X200514047Y-99891904D01*
X200628333Y-99930000D01*
X200704523Y-100006190D01*
X200742619Y-100082380D01*
X200780714Y-100234761D01*
X200780714Y-100349047D01*
X200742619Y-100501428D01*
X200704523Y-100577619D01*
X200628333Y-100653809D01*
X200514047Y-100691904D01*
X200323571Y-100691904D01*
X201542619Y-100691904D02*
X201085476Y-100691904D01*
X201314047Y-100691904D02*
X201314047Y-99891904D01*
X201237857Y-100006190D01*
X201161666Y-100082380D01*
X201085476Y-100120476D01*
X201809285Y-99891904D02*
X202304523Y-99891904D01*
X202037857Y-100196666D01*
X202152142Y-100196666D01*
X202228333Y-100234761D01*
X202266428Y-100272857D01*
X202304523Y-100349047D01*
X202304523Y-100539523D01*
X202266428Y-100615714D01*
X202228333Y-100653809D01*
X202152142Y-100691904D01*
X201923571Y-100691904D01*
X201847380Y-100653809D01*
X201809285Y-100615714D01*
%TO.C,D14*%
D11*
X199125619Y-97157380D02*
X199792285Y-97157380D01*
X199125619Y-98157380D01*
X199792285Y-98157380D01*
X200554190Y-98109761D02*
X200458952Y-98157380D01*
X200268476Y-98157380D01*
X200173238Y-98109761D01*
X200125619Y-98014523D01*
X200125619Y-97633571D01*
X200173238Y-97538333D01*
X200268476Y-97490714D01*
X200458952Y-97490714D01*
X200554190Y-97538333D01*
X200601809Y-97633571D01*
X200601809Y-97728809D01*
X200125619Y-97824047D01*
X201030380Y-97490714D02*
X201030380Y-98157380D01*
X201030380Y-97585952D02*
X201078000Y-97538333D01*
X201173238Y-97490714D01*
X201316095Y-97490714D01*
X201411333Y-97538333D01*
X201458952Y-97633571D01*
X201458952Y-98157380D01*
X202316095Y-98109761D02*
X202220857Y-98157380D01*
X202030380Y-98157380D01*
X201935142Y-98109761D01*
X201887523Y-98014523D01*
X201887523Y-97633571D01*
X201935142Y-97538333D01*
X202030380Y-97490714D01*
X202220857Y-97490714D01*
X202316095Y-97538333D01*
X202363714Y-97633571D01*
X202363714Y-97728809D01*
X201887523Y-97824047D01*
X202792285Y-98157380D02*
X202792285Y-97490714D01*
X202792285Y-97681190D02*
X202839904Y-97585952D01*
X202887523Y-97538333D01*
X202982761Y-97490714D01*
X203078000Y-97490714D01*
D12*
X200106571Y-96246904D02*
X200106571Y-95446904D01*
X200297047Y-95446904D01*
X200411333Y-95485000D01*
X200487523Y-95561190D01*
X200525619Y-95637380D01*
X200563714Y-95789761D01*
X200563714Y-95904047D01*
X200525619Y-96056428D01*
X200487523Y-96132619D01*
X200411333Y-96208809D01*
X200297047Y-96246904D01*
X200106571Y-96246904D01*
X201325619Y-96246904D02*
X200868476Y-96246904D01*
X201097047Y-96246904D02*
X201097047Y-95446904D01*
X201020857Y-95561190D01*
X200944666Y-95637380D01*
X200868476Y-95675476D01*
X202011333Y-95713571D02*
X202011333Y-96246904D01*
X201820857Y-95408809D02*
X201630380Y-95980238D01*
X202125619Y-95980238D01*
%TO.C,D15*%
D11*
X199342619Y-88902380D02*
X200009285Y-88902380D01*
X199342619Y-89902380D01*
X200009285Y-89902380D01*
X200771190Y-89854761D02*
X200675952Y-89902380D01*
X200485476Y-89902380D01*
X200390238Y-89854761D01*
X200342619Y-89759523D01*
X200342619Y-89378571D01*
X200390238Y-89283333D01*
X200485476Y-89235714D01*
X200675952Y-89235714D01*
X200771190Y-89283333D01*
X200818809Y-89378571D01*
X200818809Y-89473809D01*
X200342619Y-89569047D01*
X201247380Y-89235714D02*
X201247380Y-89902380D01*
X201247380Y-89330952D02*
X201295000Y-89283333D01*
X201390238Y-89235714D01*
X201533095Y-89235714D01*
X201628333Y-89283333D01*
X201675952Y-89378571D01*
X201675952Y-89902380D01*
X202533095Y-89854761D02*
X202437857Y-89902380D01*
X202247380Y-89902380D01*
X202152142Y-89854761D01*
X202104523Y-89759523D01*
X202104523Y-89378571D01*
X202152142Y-89283333D01*
X202247380Y-89235714D01*
X202437857Y-89235714D01*
X202533095Y-89283333D01*
X202580714Y-89378571D01*
X202580714Y-89473809D01*
X202104523Y-89569047D01*
X203009285Y-89902380D02*
X203009285Y-89235714D01*
X203009285Y-89426190D02*
X203056904Y-89330952D01*
X203104523Y-89283333D01*
X203199761Y-89235714D01*
X203295000Y-89235714D01*
D12*
X200323571Y-87991904D02*
X200323571Y-87191904D01*
X200514047Y-87191904D01*
X200628333Y-87230000D01*
X200704523Y-87306190D01*
X200742619Y-87382380D01*
X200780714Y-87534761D01*
X200780714Y-87649047D01*
X200742619Y-87801428D01*
X200704523Y-87877619D01*
X200628333Y-87953809D01*
X200514047Y-87991904D01*
X200323571Y-87991904D01*
X201542619Y-87991904D02*
X201085476Y-87991904D01*
X201314047Y-87991904D02*
X201314047Y-87191904D01*
X201237857Y-87306190D01*
X201161666Y-87382380D01*
X201085476Y-87420476D01*
X202266428Y-87191904D02*
X201885476Y-87191904D01*
X201847380Y-87572857D01*
X201885476Y-87534761D01*
X201961666Y-87496666D01*
X202152142Y-87496666D01*
X202228333Y-87534761D01*
X202266428Y-87572857D01*
X202304523Y-87649047D01*
X202304523Y-87839523D01*
X202266428Y-87915714D01*
X202228333Y-87953809D01*
X202152142Y-87991904D01*
X201961666Y-87991904D01*
X201885476Y-87953809D01*
X201847380Y-87915714D01*
%TO.C,R7*%
D11*
X176832380Y-63038095D02*
X176832380Y-63609523D01*
X176832380Y-63323809D02*
X175832380Y-63323809D01*
X175975238Y-63419047D01*
X176070476Y-63514285D01*
X176118095Y-63609523D01*
X175832380Y-62419047D02*
X175832380Y-62323809D01*
X175880000Y-62228571D01*
X175927619Y-62180952D01*
X176022857Y-62133333D01*
X176213333Y-62085714D01*
X176451428Y-62085714D01*
X176641904Y-62133333D01*
X176737142Y-62180952D01*
X176784761Y-62228571D01*
X176832380Y-62323809D01*
X176832380Y-62419047D01*
X176784761Y-62514285D01*
X176737142Y-62561904D01*
X176641904Y-62609523D01*
X176451428Y-62657142D01*
X176213333Y-62657142D01*
X176022857Y-62609523D01*
X175927619Y-62561904D01*
X175880000Y-62514285D01*
X175832380Y-62419047D01*
X176832380Y-61657142D02*
X175832380Y-61657142D01*
X176451428Y-61561904D02*
X176832380Y-61276190D01*
X176165714Y-61276190D02*
X176546666Y-61657142D01*
X175832380Y-60657142D02*
X175832380Y-60466666D01*
X175880000Y-60371428D01*
X175975238Y-60276190D01*
X176165714Y-60228571D01*
X176499047Y-60228571D01*
X176689523Y-60276190D01*
X176784761Y-60371428D01*
X176832380Y-60466666D01*
X176832380Y-60657142D01*
X176784761Y-60752380D01*
X176689523Y-60847619D01*
X176499047Y-60895238D01*
X176165714Y-60895238D01*
X175975238Y-60847619D01*
X175880000Y-60752380D01*
X175832380Y-60657142D01*
X176832380Y-59800000D02*
X175832380Y-59800000D01*
X176832380Y-59371428D02*
X176308571Y-59371428D01*
X176213333Y-59419047D01*
X176165714Y-59514285D01*
X176165714Y-59657142D01*
X176213333Y-59752380D01*
X176260952Y-59800000D01*
X176832380Y-58895238D02*
X176165714Y-58895238D01*
X176260952Y-58895238D02*
X176213333Y-58847619D01*
X176165714Y-58752380D01*
X176165714Y-58609523D01*
X176213333Y-58514285D01*
X176308571Y-58466666D01*
X176832380Y-58466666D01*
X176308571Y-58466666D02*
X176213333Y-58419047D01*
X176165714Y-58323809D01*
X176165714Y-58180952D01*
X176213333Y-58085714D01*
X176308571Y-58038095D01*
X176832380Y-58038095D01*
D12*
X178561904Y-60933333D02*
X178180952Y-61200000D01*
X178561904Y-61390476D02*
X177761904Y-61390476D01*
X177761904Y-61085714D01*
X177800000Y-61009523D01*
X177838095Y-60971428D01*
X177914285Y-60933333D01*
X178028571Y-60933333D01*
X178104761Y-60971428D01*
X178142857Y-61009523D01*
X178180952Y-61085714D01*
X178180952Y-61390476D01*
X177761904Y-60666666D02*
X177761904Y-60133333D01*
X178561904Y-60476190D01*
%TO.C,R8*%
D11*
X182332380Y-62938095D02*
X182332380Y-63509523D01*
X182332380Y-63223809D02*
X181332380Y-63223809D01*
X181475238Y-63319047D01*
X181570476Y-63414285D01*
X181618095Y-63509523D01*
X181332380Y-62319047D02*
X181332380Y-62223809D01*
X181380000Y-62128571D01*
X181427619Y-62080952D01*
X181522857Y-62033333D01*
X181713333Y-61985714D01*
X181951428Y-61985714D01*
X182141904Y-62033333D01*
X182237142Y-62080952D01*
X182284761Y-62128571D01*
X182332380Y-62223809D01*
X182332380Y-62319047D01*
X182284761Y-62414285D01*
X182237142Y-62461904D01*
X182141904Y-62509523D01*
X181951428Y-62557142D01*
X181713333Y-62557142D01*
X181522857Y-62509523D01*
X181427619Y-62461904D01*
X181380000Y-62414285D01*
X181332380Y-62319047D01*
X182332380Y-61557142D02*
X181332380Y-61557142D01*
X181951428Y-61461904D02*
X182332380Y-61176190D01*
X181665714Y-61176190D02*
X182046666Y-61557142D01*
X181332380Y-60557142D02*
X181332380Y-60366666D01*
X181380000Y-60271428D01*
X181475238Y-60176190D01*
X181665714Y-60128571D01*
X181999047Y-60128571D01*
X182189523Y-60176190D01*
X182284761Y-60271428D01*
X182332380Y-60366666D01*
X182332380Y-60557142D01*
X182284761Y-60652380D01*
X182189523Y-60747619D01*
X181999047Y-60795238D01*
X181665714Y-60795238D01*
X181475238Y-60747619D01*
X181380000Y-60652380D01*
X181332380Y-60557142D01*
X182332380Y-59700000D02*
X181332380Y-59700000D01*
X182332380Y-59271428D02*
X181808571Y-59271428D01*
X181713333Y-59319047D01*
X181665714Y-59414285D01*
X181665714Y-59557142D01*
X181713333Y-59652380D01*
X181760952Y-59700000D01*
X182332380Y-58795238D02*
X181665714Y-58795238D01*
X181760952Y-58795238D02*
X181713333Y-58747619D01*
X181665714Y-58652380D01*
X181665714Y-58509523D01*
X181713333Y-58414285D01*
X181808571Y-58366666D01*
X182332380Y-58366666D01*
X181808571Y-58366666D02*
X181713333Y-58319047D01*
X181665714Y-58223809D01*
X181665714Y-58080952D01*
X181713333Y-57985714D01*
X181808571Y-57938095D01*
X182332380Y-57938095D01*
D12*
X184061904Y-60833333D02*
X183680952Y-61100000D01*
X184061904Y-61290476D02*
X183261904Y-61290476D01*
X183261904Y-60985714D01*
X183300000Y-60909523D01*
X183338095Y-60871428D01*
X183414285Y-60833333D01*
X183528571Y-60833333D01*
X183604761Y-60871428D01*
X183642857Y-60909523D01*
X183680952Y-60985714D01*
X183680952Y-61290476D01*
X183604761Y-60376190D02*
X183566666Y-60452380D01*
X183528571Y-60490476D01*
X183452380Y-60528571D01*
X183414285Y-60528571D01*
X183338095Y-60490476D01*
X183300000Y-60452380D01*
X183261904Y-60376190D01*
X183261904Y-60223809D01*
X183300000Y-60147619D01*
X183338095Y-60109523D01*
X183414285Y-60071428D01*
X183452380Y-60071428D01*
X183528571Y-60109523D01*
X183566666Y-60147619D01*
X183604761Y-60223809D01*
X183604761Y-60376190D01*
X183642857Y-60452380D01*
X183680952Y-60490476D01*
X183757142Y-60528571D01*
X183909523Y-60528571D01*
X183985714Y-60490476D01*
X184023809Y-60452380D01*
X184061904Y-60376190D01*
X184061904Y-60223809D01*
X184023809Y-60147619D01*
X183985714Y-60109523D01*
X183909523Y-60071428D01*
X183757142Y-60071428D01*
X183680952Y-60109523D01*
X183642857Y-60147619D01*
X183604761Y-60223809D01*
%TO.C,C5*%
D11*
X181572380Y-73728571D02*
X181572380Y-74300000D01*
X181572380Y-74014285D02*
X180572380Y-74014285D01*
X180715238Y-74109523D01*
X180810476Y-74204761D01*
X180858095Y-74300000D01*
X180572380Y-73109523D02*
X180572380Y-73014285D01*
X180620000Y-72919047D01*
X180667619Y-72871428D01*
X180762857Y-72823809D01*
X180953333Y-72776190D01*
X181191428Y-72776190D01*
X181381904Y-72823809D01*
X181477142Y-72871428D01*
X181524761Y-72919047D01*
X181572380Y-73014285D01*
X181572380Y-73109523D01*
X181524761Y-73204761D01*
X181477142Y-73252380D01*
X181381904Y-73300000D01*
X181191428Y-73347619D01*
X180953333Y-73347619D01*
X180762857Y-73300000D01*
X180667619Y-73252380D01*
X180620000Y-73204761D01*
X180572380Y-73109523D01*
X180905714Y-71919047D02*
X181572380Y-71919047D01*
X180905714Y-72347619D02*
X181429523Y-72347619D01*
X181524761Y-72300000D01*
X181572380Y-72204761D01*
X181572380Y-72061904D01*
X181524761Y-71966666D01*
X181477142Y-71919047D01*
X180905714Y-71585714D02*
X180905714Y-71204761D01*
X181572380Y-71442857D02*
X180715238Y-71442857D01*
X180620000Y-71395238D01*
X180572380Y-71300000D01*
X180572380Y-71204761D01*
D12*
X179585714Y-72933333D02*
X179623809Y-72971428D01*
X179661904Y-73085714D01*
X179661904Y-73161904D01*
X179623809Y-73276190D01*
X179547619Y-73352380D01*
X179471428Y-73390476D01*
X179319047Y-73428571D01*
X179204761Y-73428571D01*
X179052380Y-73390476D01*
X178976190Y-73352380D01*
X178900000Y-73276190D01*
X178861904Y-73161904D01*
X178861904Y-73085714D01*
X178900000Y-72971428D01*
X178938095Y-72933333D01*
X178861904Y-72209523D02*
X178861904Y-72590476D01*
X179242857Y-72628571D01*
X179204761Y-72590476D01*
X179166666Y-72514285D01*
X179166666Y-72323809D01*
X179204761Y-72247619D01*
X179242857Y-72209523D01*
X179319047Y-72171428D01*
X179509523Y-72171428D01*
X179585714Y-72209523D01*
X179623809Y-72247619D01*
X179661904Y-72323809D01*
X179661904Y-72514285D01*
X179623809Y-72590476D01*
X179585714Y-72628571D01*
%TO.C,R9*%
D11*
X170082380Y-75239285D02*
X170082380Y-75810714D01*
X170082380Y-75525000D02*
X169082380Y-75525000D01*
X169225238Y-75620238D01*
X169320476Y-75715476D01*
X169368095Y-75810714D01*
X169510952Y-74667857D02*
X169463333Y-74763095D01*
X169415714Y-74810714D01*
X169320476Y-74858333D01*
X169272857Y-74858333D01*
X169177619Y-74810714D01*
X169130000Y-74763095D01*
X169082380Y-74667857D01*
X169082380Y-74477380D01*
X169130000Y-74382142D01*
X169177619Y-74334523D01*
X169272857Y-74286904D01*
X169320476Y-74286904D01*
X169415714Y-74334523D01*
X169463333Y-74382142D01*
X169510952Y-74477380D01*
X169510952Y-74667857D01*
X169558571Y-74763095D01*
X169606190Y-74810714D01*
X169701428Y-74858333D01*
X169891904Y-74858333D01*
X169987142Y-74810714D01*
X170034761Y-74763095D01*
X170082380Y-74667857D01*
X170082380Y-74477380D01*
X170034761Y-74382142D01*
X169987142Y-74334523D01*
X169891904Y-74286904D01*
X169701428Y-74286904D01*
X169606190Y-74334523D01*
X169558571Y-74382142D01*
X169510952Y-74477380D01*
X169082380Y-72905952D02*
X169082380Y-72715476D01*
X169130000Y-72620238D01*
X169225238Y-72525000D01*
X169415714Y-72477380D01*
X169749047Y-72477380D01*
X169939523Y-72525000D01*
X170034761Y-72620238D01*
X170082380Y-72715476D01*
X170082380Y-72905952D01*
X170034761Y-73001190D01*
X169939523Y-73096428D01*
X169749047Y-73144047D01*
X169415714Y-73144047D01*
X169225238Y-73096428D01*
X169130000Y-73001190D01*
X169082380Y-72905952D01*
X170082380Y-72048809D02*
X169082380Y-72048809D01*
X170082380Y-71620238D02*
X169558571Y-71620238D01*
X169463333Y-71667857D01*
X169415714Y-71763095D01*
X169415714Y-71905952D01*
X169463333Y-72001190D01*
X169510952Y-72048809D01*
X170082380Y-71144047D02*
X169415714Y-71144047D01*
X169510952Y-71144047D02*
X169463333Y-71096428D01*
X169415714Y-71001190D01*
X169415714Y-70858333D01*
X169463333Y-70763095D01*
X169558571Y-70715476D01*
X170082380Y-70715476D01*
X169558571Y-70715476D02*
X169463333Y-70667857D01*
X169415714Y-70572619D01*
X169415714Y-70429761D01*
X169463333Y-70334523D01*
X169558571Y-70286904D01*
X170082380Y-70286904D01*
D12*
X171811904Y-73158333D02*
X171430952Y-73425000D01*
X171811904Y-73615476D02*
X171011904Y-73615476D01*
X171011904Y-73310714D01*
X171050000Y-73234523D01*
X171088095Y-73196428D01*
X171164285Y-73158333D01*
X171278571Y-73158333D01*
X171354761Y-73196428D01*
X171392857Y-73234523D01*
X171430952Y-73310714D01*
X171430952Y-73615476D01*
X171811904Y-72777380D02*
X171811904Y-72625000D01*
X171773809Y-72548809D01*
X171735714Y-72510714D01*
X171621428Y-72434523D01*
X171469047Y-72396428D01*
X171164285Y-72396428D01*
X171088095Y-72434523D01*
X171050000Y-72472619D01*
X171011904Y-72548809D01*
X171011904Y-72701190D01*
X171050000Y-72777380D01*
X171088095Y-72815476D01*
X171164285Y-72853571D01*
X171354761Y-72853571D01*
X171430952Y-72815476D01*
X171469047Y-72777380D01*
X171507142Y-72701190D01*
X171507142Y-72548809D01*
X171469047Y-72472619D01*
X171430952Y-72434523D01*
X171354761Y-72396428D01*
%TO.C,R10*%
D11*
X185100000Y-67032380D02*
X184528571Y-67032380D01*
X184814285Y-67032380D02*
X184814285Y-66032380D01*
X184719047Y-66175238D01*
X184623809Y-66270476D01*
X184528571Y-66318095D01*
X185719047Y-66032380D02*
X185814285Y-66032380D01*
X185909523Y-66080000D01*
X185957142Y-66127619D01*
X186004761Y-66222857D01*
X186052380Y-66413333D01*
X186052380Y-66651428D01*
X186004761Y-66841904D01*
X185957142Y-66937142D01*
X185909523Y-66984761D01*
X185814285Y-67032380D01*
X185719047Y-67032380D01*
X185623809Y-66984761D01*
X185576190Y-66937142D01*
X185528571Y-66841904D01*
X185480952Y-66651428D01*
X185480952Y-66413333D01*
X185528571Y-66222857D01*
X185576190Y-66127619D01*
X185623809Y-66080000D01*
X185719047Y-66032380D01*
X188004761Y-67032380D02*
X188004761Y-66032380D01*
X188100000Y-66651428D02*
X188385714Y-67032380D01*
X188385714Y-66365714D02*
X188004761Y-66746666D01*
X189004761Y-66032380D02*
X189195238Y-66032380D01*
X189290476Y-66080000D01*
X189385714Y-66175238D01*
X189433333Y-66365714D01*
X189433333Y-66699047D01*
X189385714Y-66889523D01*
X189290476Y-66984761D01*
X189195238Y-67032380D01*
X189004761Y-67032380D01*
X188909523Y-66984761D01*
X188814285Y-66889523D01*
X188766666Y-66699047D01*
X188766666Y-66365714D01*
X188814285Y-66175238D01*
X188909523Y-66080000D01*
X189004761Y-66032380D01*
X189861904Y-67032380D02*
X189861904Y-66032380D01*
X190290476Y-67032380D02*
X190290476Y-66508571D01*
X190242857Y-66413333D01*
X190147619Y-66365714D01*
X190004761Y-66365714D01*
X189909523Y-66413333D01*
X189861904Y-66460952D01*
X190766666Y-67032380D02*
X190766666Y-66365714D01*
X190766666Y-66460952D02*
X190814285Y-66413333D01*
X190909523Y-66365714D01*
X191052380Y-66365714D01*
X191147619Y-66413333D01*
X191195238Y-66508571D01*
X191195238Y-67032380D01*
X191195238Y-66508571D02*
X191242857Y-66413333D01*
X191338095Y-66365714D01*
X191480952Y-66365714D01*
X191576190Y-66413333D01*
X191623809Y-66508571D01*
X191623809Y-67032380D01*
D12*
X187585714Y-68761904D02*
X187319047Y-68380952D01*
X187128571Y-68761904D02*
X187128571Y-67961904D01*
X187433333Y-67961904D01*
X187509523Y-68000000D01*
X187547619Y-68038095D01*
X187585714Y-68114285D01*
X187585714Y-68228571D01*
X187547619Y-68304761D01*
X187509523Y-68342857D01*
X187433333Y-68380952D01*
X187128571Y-68380952D01*
X188347619Y-68761904D02*
X187890476Y-68761904D01*
X188119047Y-68761904D02*
X188119047Y-67961904D01*
X188042857Y-68076190D01*
X187966666Y-68152380D01*
X187890476Y-68190476D01*
X188842857Y-67961904D02*
X188919047Y-67961904D01*
X188995238Y-68000000D01*
X189033333Y-68038095D01*
X189071428Y-68114285D01*
X189109523Y-68266666D01*
X189109523Y-68457142D01*
X189071428Y-68609523D01*
X189033333Y-68685714D01*
X188995238Y-68723809D01*
X188919047Y-68761904D01*
X188842857Y-68761904D01*
X188766666Y-68723809D01*
X188728571Y-68685714D01*
X188690476Y-68609523D01*
X188652380Y-68457142D01*
X188652380Y-68266666D01*
X188690476Y-68114285D01*
X188728571Y-68038095D01*
X188766666Y-68000000D01*
X188842857Y-67961904D01*
%TO.C,R11*%
D11*
X177900000Y-67032380D02*
X177328571Y-67032380D01*
X177614285Y-67032380D02*
X177614285Y-66032380D01*
X177519047Y-66175238D01*
X177423809Y-66270476D01*
X177328571Y-66318095D01*
X178519047Y-66032380D02*
X178614285Y-66032380D01*
X178709523Y-66080000D01*
X178757142Y-66127619D01*
X178804761Y-66222857D01*
X178852380Y-66413333D01*
X178852380Y-66651428D01*
X178804761Y-66841904D01*
X178757142Y-66937142D01*
X178709523Y-66984761D01*
X178614285Y-67032380D01*
X178519047Y-67032380D01*
X178423809Y-66984761D01*
X178376190Y-66937142D01*
X178328571Y-66841904D01*
X178280952Y-66651428D01*
X178280952Y-66413333D01*
X178328571Y-66222857D01*
X178376190Y-66127619D01*
X178423809Y-66080000D01*
X178519047Y-66032380D01*
X180804761Y-67032380D02*
X180804761Y-66032380D01*
X180900000Y-66651428D02*
X181185714Y-67032380D01*
X181185714Y-66365714D02*
X180804761Y-66746666D01*
X181804761Y-66032380D02*
X181995238Y-66032380D01*
X182090476Y-66080000D01*
X182185714Y-66175238D01*
X182233333Y-66365714D01*
X182233333Y-66699047D01*
X182185714Y-66889523D01*
X182090476Y-66984761D01*
X181995238Y-67032380D01*
X181804761Y-67032380D01*
X181709523Y-66984761D01*
X181614285Y-66889523D01*
X181566666Y-66699047D01*
X181566666Y-66365714D01*
X181614285Y-66175238D01*
X181709523Y-66080000D01*
X181804761Y-66032380D01*
X182661904Y-67032380D02*
X182661904Y-66032380D01*
X183090476Y-67032380D02*
X183090476Y-66508571D01*
X183042857Y-66413333D01*
X182947619Y-66365714D01*
X182804761Y-66365714D01*
X182709523Y-66413333D01*
X182661904Y-66460952D01*
X183566666Y-67032380D02*
X183566666Y-66365714D01*
X183566666Y-66460952D02*
X183614285Y-66413333D01*
X183709523Y-66365714D01*
X183852380Y-66365714D01*
X183947619Y-66413333D01*
X183995238Y-66508571D01*
X183995238Y-67032380D01*
X183995238Y-66508571D02*
X184042857Y-66413333D01*
X184138095Y-66365714D01*
X184280952Y-66365714D01*
X184376190Y-66413333D01*
X184423809Y-66508571D01*
X184423809Y-67032380D01*
D12*
X180385714Y-68761904D02*
X180119047Y-68380952D01*
X179928571Y-68761904D02*
X179928571Y-67961904D01*
X180233333Y-67961904D01*
X180309523Y-68000000D01*
X180347619Y-68038095D01*
X180385714Y-68114285D01*
X180385714Y-68228571D01*
X180347619Y-68304761D01*
X180309523Y-68342857D01*
X180233333Y-68380952D01*
X179928571Y-68380952D01*
X181147619Y-68761904D02*
X180690476Y-68761904D01*
X180919047Y-68761904D02*
X180919047Y-67961904D01*
X180842857Y-68076190D01*
X180766666Y-68152380D01*
X180690476Y-68190476D01*
X181909523Y-68761904D02*
X181452380Y-68761904D01*
X181680952Y-68761904D02*
X181680952Y-67961904D01*
X181604761Y-68076190D01*
X181528571Y-68152380D01*
X181452380Y-68190476D01*
%TO.C,C6*%
D11*
X162735619Y-96032380D02*
X162164190Y-96032380D01*
X162449904Y-96032380D02*
X162449904Y-95032380D01*
X162354666Y-95175238D01*
X162259428Y-95270476D01*
X162164190Y-95318095D01*
X163592761Y-95365714D02*
X163592761Y-96032380D01*
X163164190Y-95365714D02*
X163164190Y-95889523D01*
X163211809Y-95984761D01*
X163307047Y-96032380D01*
X163449904Y-96032380D01*
X163545142Y-95984761D01*
X163592761Y-95937142D01*
X163926095Y-95365714D02*
X164307047Y-95365714D01*
X164068952Y-96032380D02*
X164068952Y-95175238D01*
X164116571Y-95080000D01*
X164211809Y-95032380D01*
X164307047Y-95032380D01*
D12*
X163054666Y-97685714D02*
X163016571Y-97723809D01*
X162902285Y-97761904D01*
X162826095Y-97761904D01*
X162711809Y-97723809D01*
X162635619Y-97647619D01*
X162597523Y-97571428D01*
X162559428Y-97419047D01*
X162559428Y-97304761D01*
X162597523Y-97152380D01*
X162635619Y-97076190D01*
X162711809Y-97000000D01*
X162826095Y-96961904D01*
X162902285Y-96961904D01*
X163016571Y-97000000D01*
X163054666Y-97038095D01*
X163740380Y-96961904D02*
X163588000Y-96961904D01*
X163511809Y-97000000D01*
X163473714Y-97038095D01*
X163397523Y-97152380D01*
X163359428Y-97304761D01*
X163359428Y-97609523D01*
X163397523Y-97685714D01*
X163435619Y-97723809D01*
X163511809Y-97761904D01*
X163664190Y-97761904D01*
X163740380Y-97723809D01*
X163778476Y-97685714D01*
X163816571Y-97609523D01*
X163816571Y-97419047D01*
X163778476Y-97342857D01*
X163740380Y-97304761D01*
X163664190Y-97266666D01*
X163511809Y-97266666D01*
X163435619Y-97304761D01*
X163397523Y-97342857D01*
X163359428Y-97419047D01*
%TO.C,R12*%
D11*
X157167619Y-104014285D02*
X157120000Y-103966666D01*
X157072380Y-103871428D01*
X157072380Y-103633333D01*
X157120000Y-103538095D01*
X157167619Y-103490476D01*
X157262857Y-103442857D01*
X157358095Y-103442857D01*
X157500952Y-103490476D01*
X158072380Y-104061904D01*
X158072380Y-103442857D01*
X158072380Y-102252380D02*
X157072380Y-102252380D01*
X157691428Y-102157142D02*
X158072380Y-101871428D01*
X157405714Y-101871428D02*
X157786666Y-102252380D01*
X157072380Y-101252380D02*
X157072380Y-101061904D01*
X157120000Y-100966666D01*
X157215238Y-100871428D01*
X157405714Y-100823809D01*
X157739047Y-100823809D01*
X157929523Y-100871428D01*
X158024761Y-100966666D01*
X158072380Y-101061904D01*
X158072380Y-101252380D01*
X158024761Y-101347619D01*
X157929523Y-101442857D01*
X157739047Y-101490476D01*
X157405714Y-101490476D01*
X157215238Y-101442857D01*
X157120000Y-101347619D01*
X157072380Y-101252380D01*
X158072380Y-100395238D02*
X157072380Y-100395238D01*
X158072380Y-99966666D02*
X157548571Y-99966666D01*
X157453333Y-100014285D01*
X157405714Y-100109523D01*
X157405714Y-100252380D01*
X157453333Y-100347619D01*
X157500952Y-100395238D01*
X158072380Y-99490476D02*
X157405714Y-99490476D01*
X157500952Y-99490476D02*
X157453333Y-99442857D01*
X157405714Y-99347619D01*
X157405714Y-99204761D01*
X157453333Y-99109523D01*
X157548571Y-99061904D01*
X158072380Y-99061904D01*
X157548571Y-99061904D02*
X157453333Y-99014285D01*
X157405714Y-98919047D01*
X157405714Y-98776190D01*
X157453333Y-98680952D01*
X157548571Y-98633333D01*
X158072380Y-98633333D01*
D12*
X156161904Y-101814285D02*
X155780952Y-102080952D01*
X156161904Y-102271428D02*
X155361904Y-102271428D01*
X155361904Y-101966666D01*
X155400000Y-101890476D01*
X155438095Y-101852380D01*
X155514285Y-101814285D01*
X155628571Y-101814285D01*
X155704761Y-101852380D01*
X155742857Y-101890476D01*
X155780952Y-101966666D01*
X155780952Y-102271428D01*
X156161904Y-101052380D02*
X156161904Y-101509523D01*
X156161904Y-101280952D02*
X155361904Y-101280952D01*
X155476190Y-101357142D01*
X155552380Y-101433333D01*
X155590476Y-101509523D01*
X155438095Y-100747619D02*
X155400000Y-100709523D01*
X155361904Y-100633333D01*
X155361904Y-100442857D01*
X155400000Y-100366666D01*
X155438095Y-100328571D01*
X155514285Y-100290476D01*
X155590476Y-100290476D01*
X155704761Y-100328571D01*
X156161904Y-100785714D01*
X156161904Y-100290476D01*
%TO.C,R13*%
D11*
X158610808Y-111207379D02*
X158039379Y-111207379D01*
X158325094Y-111207379D02*
X158325094Y-110207379D01*
X158229856Y-110350237D01*
X158134618Y-110445475D01*
X158039379Y-110493094D01*
X159229856Y-110207379D02*
X159325094Y-110207379D01*
X159420332Y-110254999D01*
X159467951Y-110302618D01*
X159515570Y-110397856D01*
X159563189Y-110588332D01*
X159563189Y-110826427D01*
X159515570Y-111016903D01*
X159467951Y-111112141D01*
X159420332Y-111159760D01*
X159325094Y-111207379D01*
X159229856Y-111207379D01*
X159134618Y-111159760D01*
X159086999Y-111112141D01*
X159039379Y-111016903D01*
X158991760Y-110826427D01*
X158991760Y-110588332D01*
X159039379Y-110397856D01*
X159086999Y-110302618D01*
X159134618Y-110254999D01*
X159229856Y-110207379D01*
X160182237Y-110207379D02*
X160277475Y-110207379D01*
X160372713Y-110254999D01*
X160420332Y-110302618D01*
X160467951Y-110397856D01*
X160515570Y-110588332D01*
X160515570Y-110826427D01*
X160467951Y-111016903D01*
X160420332Y-111112141D01*
X160372713Y-111159760D01*
X160277475Y-111207379D01*
X160182237Y-111207379D01*
X160086999Y-111159760D01*
X160039379Y-111112141D01*
X159991760Y-111016903D01*
X159944141Y-110826427D01*
X159944141Y-110588332D01*
X159991760Y-110397856D01*
X160039379Y-110302618D01*
X160086999Y-110254999D01*
X160182237Y-110207379D01*
X162467951Y-111207379D02*
X162467951Y-110207379D01*
X162563189Y-110826427D02*
X162848903Y-111207379D01*
X162848903Y-110540713D02*
X162467951Y-110921665D01*
X163467951Y-110207379D02*
X163658427Y-110207379D01*
X163753665Y-110254999D01*
X163848903Y-110350237D01*
X163896522Y-110540713D01*
X163896522Y-110874046D01*
X163848903Y-111064522D01*
X163753665Y-111159760D01*
X163658427Y-111207379D01*
X163467951Y-111207379D01*
X163372713Y-111159760D01*
X163277475Y-111064522D01*
X163229856Y-110874046D01*
X163229856Y-110540713D01*
X163277475Y-110350237D01*
X163372713Y-110254999D01*
X163467951Y-110207379D01*
X164325094Y-111207379D02*
X164325094Y-110207379D01*
X164753665Y-111207379D02*
X164753665Y-110683570D01*
X164706046Y-110588332D01*
X164610808Y-110540713D01*
X164467951Y-110540713D01*
X164372713Y-110588332D01*
X164325094Y-110635951D01*
X165229856Y-111207379D02*
X165229856Y-110540713D01*
X165229856Y-110635951D02*
X165277475Y-110588332D01*
X165372713Y-110540713D01*
X165515570Y-110540713D01*
X165610808Y-110588332D01*
X165658427Y-110683570D01*
X165658427Y-111207379D01*
X165658427Y-110683570D02*
X165706046Y-110588332D01*
X165801284Y-110540713D01*
X165944141Y-110540713D01*
X166039379Y-110588332D01*
X166086999Y-110683570D01*
X166086999Y-111207379D01*
D12*
X160497714Y-108361904D02*
X160231047Y-107980952D01*
X160040571Y-108361904D02*
X160040571Y-107561904D01*
X160345333Y-107561904D01*
X160421523Y-107600000D01*
X160459619Y-107638095D01*
X160497714Y-107714285D01*
X160497714Y-107828571D01*
X160459619Y-107904761D01*
X160421523Y-107942857D01*
X160345333Y-107980952D01*
X160040571Y-107980952D01*
X161259619Y-108361904D02*
X160802476Y-108361904D01*
X161031047Y-108361904D02*
X161031047Y-107561904D01*
X160954857Y-107676190D01*
X160878666Y-107752380D01*
X160802476Y-107790476D01*
X161526285Y-107561904D02*
X162021523Y-107561904D01*
X161754857Y-107866666D01*
X161869142Y-107866666D01*
X161945333Y-107904761D01*
X161983428Y-107942857D01*
X162021523Y-108019047D01*
X162021523Y-108209523D01*
X161983428Y-108285714D01*
X161945333Y-108323809D01*
X161869142Y-108361904D01*
X161640571Y-108361904D01*
X161564380Y-108323809D01*
X161526285Y-108285714D01*
%TO.C,R14*%
D11*
X164772380Y-105700000D02*
X164772380Y-106271428D01*
X164772380Y-105985714D02*
X163772380Y-105985714D01*
X163915238Y-106080952D01*
X164010476Y-106176190D01*
X164058095Y-106271428D01*
X163772380Y-105080952D02*
X163772380Y-104985714D01*
X163820000Y-104890476D01*
X163867619Y-104842857D01*
X163962857Y-104795238D01*
X164153333Y-104747619D01*
X164391428Y-104747619D01*
X164581904Y-104795238D01*
X164677142Y-104842857D01*
X164724761Y-104890476D01*
X164772380Y-104985714D01*
X164772380Y-105080952D01*
X164724761Y-105176190D01*
X164677142Y-105223809D01*
X164581904Y-105271428D01*
X164391428Y-105319047D01*
X164153333Y-105319047D01*
X163962857Y-105271428D01*
X163867619Y-105223809D01*
X163820000Y-105176190D01*
X163772380Y-105080952D01*
X164772380Y-102795238D02*
X163772380Y-102795238D01*
X164391428Y-102700000D02*
X164772380Y-102414285D01*
X164105714Y-102414285D02*
X164486666Y-102795238D01*
X163772380Y-101795238D02*
X163772380Y-101604761D01*
X163820000Y-101509523D01*
X163915238Y-101414285D01*
X164105714Y-101366666D01*
X164439047Y-101366666D01*
X164629523Y-101414285D01*
X164724761Y-101509523D01*
X164772380Y-101604761D01*
X164772380Y-101795238D01*
X164724761Y-101890476D01*
X164629523Y-101985714D01*
X164439047Y-102033333D01*
X164105714Y-102033333D01*
X163915238Y-101985714D01*
X163820000Y-101890476D01*
X163772380Y-101795238D01*
X164772380Y-100938095D02*
X163772380Y-100938095D01*
X164772380Y-100509523D02*
X164248571Y-100509523D01*
X164153333Y-100557142D01*
X164105714Y-100652380D01*
X164105714Y-100795238D01*
X164153333Y-100890476D01*
X164200952Y-100938095D01*
X164772380Y-100033333D02*
X164105714Y-100033333D01*
X164200952Y-100033333D02*
X164153333Y-99985714D01*
X164105714Y-99890476D01*
X164105714Y-99747619D01*
X164153333Y-99652380D01*
X164248571Y-99604761D01*
X164772380Y-99604761D01*
X164248571Y-99604761D02*
X164153333Y-99557142D01*
X164105714Y-99461904D01*
X164105714Y-99319047D01*
X164153333Y-99223809D01*
X164248571Y-99176190D01*
X164772380Y-99176190D01*
D12*
X162861904Y-103214285D02*
X162480952Y-103480952D01*
X162861904Y-103671428D02*
X162061904Y-103671428D01*
X162061904Y-103366666D01*
X162100000Y-103290476D01*
X162138095Y-103252380D01*
X162214285Y-103214285D01*
X162328571Y-103214285D01*
X162404761Y-103252380D01*
X162442857Y-103290476D01*
X162480952Y-103366666D01*
X162480952Y-103671428D01*
X162861904Y-102452380D02*
X162861904Y-102909523D01*
X162861904Y-102680952D02*
X162061904Y-102680952D01*
X162176190Y-102757142D01*
X162252380Y-102833333D01*
X162290476Y-102909523D01*
X162328571Y-101766666D02*
X162861904Y-101766666D01*
X162023809Y-101957142D02*
X162595238Y-102147619D01*
X162595238Y-101652380D01*
%TO.C,R15*%
D11*
X167965714Y-95271428D02*
X168632380Y-95271428D01*
X167584761Y-95509523D02*
X168299047Y-95747619D01*
X168299047Y-95128571D01*
X167632380Y-94842857D02*
X167632380Y-94176190D01*
X168632380Y-94604761D01*
X167632380Y-93604761D02*
X167632380Y-93509523D01*
X167680000Y-93414285D01*
X167727619Y-93366666D01*
X167822857Y-93319047D01*
X168013333Y-93271428D01*
X168251428Y-93271428D01*
X168441904Y-93319047D01*
X168537142Y-93366666D01*
X168584761Y-93414285D01*
X168632380Y-93509523D01*
X168632380Y-93604761D01*
X168584761Y-93700000D01*
X168537142Y-93747619D01*
X168441904Y-93795238D01*
X168251428Y-93842857D01*
X168013333Y-93842857D01*
X167822857Y-93795238D01*
X167727619Y-93747619D01*
X167680000Y-93700000D01*
X167632380Y-93604761D01*
X168632380Y-91319047D02*
X167632380Y-91319047D01*
X168251428Y-91223809D02*
X168632380Y-90938095D01*
X167965714Y-90938095D02*
X168346666Y-91319047D01*
X167632380Y-90319047D02*
X167632380Y-90128571D01*
X167680000Y-90033333D01*
X167775238Y-89938095D01*
X167965714Y-89890476D01*
X168299047Y-89890476D01*
X168489523Y-89938095D01*
X168584761Y-90033333D01*
X168632380Y-90128571D01*
X168632380Y-90319047D01*
X168584761Y-90414285D01*
X168489523Y-90509523D01*
X168299047Y-90557142D01*
X167965714Y-90557142D01*
X167775238Y-90509523D01*
X167680000Y-90414285D01*
X167632380Y-90319047D01*
X168632380Y-89461904D02*
X167632380Y-89461904D01*
X168632380Y-89033333D02*
X168108571Y-89033333D01*
X168013333Y-89080952D01*
X167965714Y-89176190D01*
X167965714Y-89319047D01*
X168013333Y-89414285D01*
X168060952Y-89461904D01*
X168632380Y-88557142D02*
X167965714Y-88557142D01*
X168060952Y-88557142D02*
X168013333Y-88509523D01*
X167965714Y-88414285D01*
X167965714Y-88271428D01*
X168013333Y-88176190D01*
X168108571Y-88128571D01*
X168632380Y-88128571D01*
X168108571Y-88128571D02*
X168013333Y-88080952D01*
X167965714Y-87985714D01*
X167965714Y-87842857D01*
X168013333Y-87747619D01*
X168108571Y-87700000D01*
X168632380Y-87700000D01*
D12*
X170361904Y-92214285D02*
X169980952Y-92480952D01*
X170361904Y-92671428D02*
X169561904Y-92671428D01*
X169561904Y-92366666D01*
X169600000Y-92290476D01*
X169638095Y-92252380D01*
X169714285Y-92214285D01*
X169828571Y-92214285D01*
X169904761Y-92252380D01*
X169942857Y-92290476D01*
X169980952Y-92366666D01*
X169980952Y-92671428D01*
X170361904Y-91452380D02*
X170361904Y-91909523D01*
X170361904Y-91680952D02*
X169561904Y-91680952D01*
X169676190Y-91757142D01*
X169752380Y-91833333D01*
X169790476Y-91909523D01*
X169561904Y-90728571D02*
X169561904Y-91109523D01*
X169942857Y-91147619D01*
X169904761Y-91109523D01*
X169866666Y-91033333D01*
X169866666Y-90842857D01*
X169904761Y-90766666D01*
X169942857Y-90728571D01*
X170019047Y-90690476D01*
X170209523Y-90690476D01*
X170285714Y-90728571D01*
X170323809Y-90766666D01*
X170361904Y-90842857D01*
X170361904Y-91033333D01*
X170323809Y-91109523D01*
X170285714Y-91147619D01*
%TO.C,R16*%
D11*
X159628571Y-91065714D02*
X159628571Y-91732380D01*
X159390476Y-90684761D02*
X159152380Y-91399047D01*
X159771428Y-91399047D01*
X160057142Y-90732380D02*
X160723809Y-90732380D01*
X160295238Y-91732380D01*
X161295238Y-90732380D02*
X161390476Y-90732380D01*
X161485714Y-90780000D01*
X161533333Y-90827619D01*
X161580952Y-90922857D01*
X161628571Y-91113333D01*
X161628571Y-91351428D01*
X161580952Y-91541904D01*
X161533333Y-91637142D01*
X161485714Y-91684761D01*
X161390476Y-91732380D01*
X161295238Y-91732380D01*
X161200000Y-91684761D01*
X161152380Y-91637142D01*
X161104761Y-91541904D01*
X161057142Y-91351428D01*
X161057142Y-91113333D01*
X161104761Y-90922857D01*
X161152380Y-90827619D01*
X161200000Y-90780000D01*
X161295238Y-90732380D01*
X163580952Y-91732380D02*
X163580952Y-90732380D01*
X163676190Y-91351428D02*
X163961904Y-91732380D01*
X163961904Y-91065714D02*
X163580952Y-91446666D01*
X164580952Y-90732380D02*
X164771428Y-90732380D01*
X164866666Y-90780000D01*
X164961904Y-90875238D01*
X165009523Y-91065714D01*
X165009523Y-91399047D01*
X164961904Y-91589523D01*
X164866666Y-91684761D01*
X164771428Y-91732380D01*
X164580952Y-91732380D01*
X164485714Y-91684761D01*
X164390476Y-91589523D01*
X164342857Y-91399047D01*
X164342857Y-91065714D01*
X164390476Y-90875238D01*
X164485714Y-90780000D01*
X164580952Y-90732380D01*
X165438095Y-91732380D02*
X165438095Y-90732380D01*
X165866666Y-91732380D02*
X165866666Y-91208571D01*
X165819047Y-91113333D01*
X165723809Y-91065714D01*
X165580952Y-91065714D01*
X165485714Y-91113333D01*
X165438095Y-91160952D01*
X166342857Y-91732380D02*
X166342857Y-91065714D01*
X166342857Y-91160952D02*
X166390476Y-91113333D01*
X166485714Y-91065714D01*
X166628571Y-91065714D01*
X166723809Y-91113333D01*
X166771428Y-91208571D01*
X166771428Y-91732380D01*
X166771428Y-91208571D02*
X166819047Y-91113333D01*
X166914285Y-91065714D01*
X167057142Y-91065714D01*
X167152380Y-91113333D01*
X167200000Y-91208571D01*
X167200000Y-91732380D01*
D12*
X162685714Y-93461904D02*
X162419047Y-93080952D01*
X162228571Y-93461904D02*
X162228571Y-92661904D01*
X162533333Y-92661904D01*
X162609523Y-92700000D01*
X162647619Y-92738095D01*
X162685714Y-92814285D01*
X162685714Y-92928571D01*
X162647619Y-93004761D01*
X162609523Y-93042857D01*
X162533333Y-93080952D01*
X162228571Y-93080952D01*
X163447619Y-93461904D02*
X162990476Y-93461904D01*
X163219047Y-93461904D02*
X163219047Y-92661904D01*
X163142857Y-92776190D01*
X163066666Y-92852380D01*
X162990476Y-92890476D01*
X164133333Y-92661904D02*
X163980952Y-92661904D01*
X163904761Y-92700000D01*
X163866666Y-92738095D01*
X163790476Y-92852380D01*
X163752380Y-93004761D01*
X163752380Y-93309523D01*
X163790476Y-93385714D01*
X163828571Y-93423809D01*
X163904761Y-93461904D01*
X164057142Y-93461904D01*
X164133333Y-93423809D01*
X164171428Y-93385714D01*
X164209523Y-93309523D01*
X164209523Y-93119047D01*
X164171428Y-93042857D01*
X164133333Y-93004761D01*
X164057142Y-92966666D01*
X163904761Y-92966666D01*
X163828571Y-93004761D01*
X163790476Y-93042857D01*
X163752380Y-93119047D01*
%TO.C,D16*%
D11*
X237104761Y-75226190D02*
X237152380Y-75083333D01*
X237152380Y-74845238D01*
X237104761Y-74750000D01*
X237057142Y-74702380D01*
X236961904Y-74654761D01*
X236866666Y-74654761D01*
X236771428Y-74702380D01*
X236723809Y-74750000D01*
X236676190Y-74845238D01*
X236628571Y-75035714D01*
X236580952Y-75130952D01*
X236533333Y-75178571D01*
X236438095Y-75226190D01*
X236342857Y-75226190D01*
X236247619Y-75178571D01*
X236200000Y-75130952D01*
X236152380Y-75035714D01*
X236152380Y-74797619D01*
X236200000Y-74654761D01*
X237104761Y-73797619D02*
X237152380Y-73892857D01*
X237152380Y-74083333D01*
X237104761Y-74178571D01*
X237057142Y-74226190D01*
X236961904Y-74273809D01*
X236676190Y-74273809D01*
X236580952Y-74226190D01*
X236533333Y-74178571D01*
X236485714Y-74083333D01*
X236485714Y-73892857D01*
X236533333Y-73797619D01*
X237152380Y-73369047D02*
X236152380Y-73369047D01*
X237152380Y-72940476D02*
X236628571Y-72940476D01*
X236533333Y-72988095D01*
X236485714Y-73083333D01*
X236485714Y-73226190D01*
X236533333Y-73321428D01*
X236580952Y-73369047D01*
X237152380Y-72321428D02*
X237104761Y-72416666D01*
X237057142Y-72464285D01*
X236961904Y-72511904D01*
X236676190Y-72511904D01*
X236580952Y-72464285D01*
X236533333Y-72416666D01*
X236485714Y-72321428D01*
X236485714Y-72178571D01*
X236533333Y-72083333D01*
X236580952Y-72035714D01*
X236676190Y-71988095D01*
X236961904Y-71988095D01*
X237057142Y-72035714D01*
X237104761Y-72083333D01*
X237152380Y-72178571D01*
X237152380Y-72321428D01*
X236485714Y-71702380D02*
X236485714Y-71321428D01*
X236152380Y-71559523D02*
X237009523Y-71559523D01*
X237104761Y-71511904D01*
X237152380Y-71416666D01*
X237152380Y-71321428D01*
X236485714Y-71130952D02*
X236485714Y-70750000D01*
X236152380Y-70988095D02*
X237009523Y-70988095D01*
X237104761Y-70940476D01*
X237152380Y-70845238D01*
X237152380Y-70750000D01*
X237152380Y-70416666D02*
X236152380Y-70416666D01*
X236771428Y-70321428D02*
X237152380Y-70035714D01*
X236485714Y-70035714D02*
X236866666Y-70416666D01*
X236485714Y-69702380D02*
X237152380Y-69464285D01*
X236485714Y-69226190D02*
X237152380Y-69464285D01*
X237390476Y-69559523D01*
X237438095Y-69607142D01*
X237485714Y-69702380D01*
X243252380Y-73464285D02*
X242252380Y-73464285D01*
X242252380Y-73226190D01*
X242300000Y-73083333D01*
X242395238Y-72988095D01*
X242490476Y-72940476D01*
X242680952Y-72892857D01*
X242823809Y-72892857D01*
X243014285Y-72940476D01*
X243109523Y-72988095D01*
X243204761Y-73083333D01*
X243252380Y-73226190D01*
X243252380Y-73464285D01*
X243252380Y-71940476D02*
X243252380Y-72511904D01*
X243252380Y-72226190D02*
X242252380Y-72226190D01*
X242395238Y-72321428D01*
X242490476Y-72416666D01*
X242538095Y-72511904D01*
X242252380Y-71083333D02*
X242252380Y-71273809D01*
X242300000Y-71369047D01*
X242347619Y-71416666D01*
X242490476Y-71511904D01*
X242680952Y-71559523D01*
X243061904Y-71559523D01*
X243157142Y-71511904D01*
X243204761Y-71464285D01*
X243252380Y-71369047D01*
X243252380Y-71178571D01*
X243204761Y-71083333D01*
X243157142Y-71035714D01*
X243061904Y-70988095D01*
X242823809Y-70988095D01*
X242728571Y-71035714D01*
X242680952Y-71083333D01*
X242633333Y-71178571D01*
X242633333Y-71369047D01*
X242680952Y-71464285D01*
X242728571Y-71511904D01*
X242823809Y-71559523D01*
%TO.C,R17*%
X172533333Y-112132380D02*
X172200000Y-111656190D01*
X171961904Y-112132380D02*
X171961904Y-111132380D01*
X172342857Y-111132380D01*
X172438095Y-111180000D01*
X172485714Y-111227619D01*
X172533333Y-111322857D01*
X172533333Y-111465714D01*
X172485714Y-111560952D01*
X172438095Y-111608571D01*
X172342857Y-111656190D01*
X171961904Y-111656190D01*
X173152380Y-111132380D02*
X173247619Y-111132380D01*
X173342857Y-111180000D01*
X173390476Y-111227619D01*
X173438095Y-111322857D01*
X173485714Y-111513333D01*
X173485714Y-111751428D01*
X173438095Y-111941904D01*
X173390476Y-112037142D01*
X173342857Y-112084761D01*
X173247619Y-112132380D01*
X173152380Y-112132380D01*
X173057142Y-112084761D01*
X173009523Y-112037142D01*
X172961904Y-111941904D01*
X172914285Y-111751428D01*
X172914285Y-111513333D01*
X172961904Y-111322857D01*
X173009523Y-111227619D01*
X173057142Y-111180000D01*
X173152380Y-111132380D01*
D12*
X172185714Y-113861904D02*
X171919047Y-113480952D01*
X171728571Y-113861904D02*
X171728571Y-113061904D01*
X172033333Y-113061904D01*
X172109523Y-113100000D01*
X172147619Y-113138095D01*
X172185714Y-113214285D01*
X172185714Y-113328571D01*
X172147619Y-113404761D01*
X172109523Y-113442857D01*
X172033333Y-113480952D01*
X171728571Y-113480952D01*
X172947619Y-113861904D02*
X172490476Y-113861904D01*
X172719047Y-113861904D02*
X172719047Y-113061904D01*
X172642857Y-113176190D01*
X172566666Y-113252380D01*
X172490476Y-113290476D01*
X173214285Y-113061904D02*
X173747619Y-113061904D01*
X173404761Y-113861904D01*
%TO.C,R18*%
D11*
X172533333Y-102732380D02*
X172200000Y-102256190D01*
X171961904Y-102732380D02*
X171961904Y-101732380D01*
X172342857Y-101732380D01*
X172438095Y-101780000D01*
X172485714Y-101827619D01*
X172533333Y-101922857D01*
X172533333Y-102065714D01*
X172485714Y-102160952D01*
X172438095Y-102208571D01*
X172342857Y-102256190D01*
X171961904Y-102256190D01*
X173152380Y-101732380D02*
X173247619Y-101732380D01*
X173342857Y-101780000D01*
X173390476Y-101827619D01*
X173438095Y-101922857D01*
X173485714Y-102113333D01*
X173485714Y-102351428D01*
X173438095Y-102541904D01*
X173390476Y-102637142D01*
X173342857Y-102684761D01*
X173247619Y-102732380D01*
X173152380Y-102732380D01*
X173057142Y-102684761D01*
X173009523Y-102637142D01*
X172961904Y-102541904D01*
X172914285Y-102351428D01*
X172914285Y-102113333D01*
X172961904Y-101922857D01*
X173009523Y-101827619D01*
X173057142Y-101780000D01*
X173152380Y-101732380D01*
D12*
X172185714Y-104461904D02*
X171919047Y-104080952D01*
X171728571Y-104461904D02*
X171728571Y-103661904D01*
X172033333Y-103661904D01*
X172109523Y-103700000D01*
X172147619Y-103738095D01*
X172185714Y-103814285D01*
X172185714Y-103928571D01*
X172147619Y-104004761D01*
X172109523Y-104042857D01*
X172033333Y-104080952D01*
X171728571Y-104080952D01*
X172947619Y-104461904D02*
X172490476Y-104461904D01*
X172719047Y-104461904D02*
X172719047Y-103661904D01*
X172642857Y-103776190D01*
X172566666Y-103852380D01*
X172490476Y-103890476D01*
X173404761Y-104004761D02*
X173328571Y-103966666D01*
X173290476Y-103928571D01*
X173252380Y-103852380D01*
X173252380Y-103814285D01*
X173290476Y-103738095D01*
X173328571Y-103700000D01*
X173404761Y-103661904D01*
X173557142Y-103661904D01*
X173633333Y-103700000D01*
X173671428Y-103738095D01*
X173709523Y-103814285D01*
X173709523Y-103852380D01*
X173671428Y-103928571D01*
X173633333Y-103966666D01*
X173557142Y-104004761D01*
X173404761Y-104004761D01*
X173328571Y-104042857D01*
X173290476Y-104080952D01*
X173252380Y-104157142D01*
X173252380Y-104309523D01*
X173290476Y-104385714D01*
X173328571Y-104423809D01*
X173404761Y-104461904D01*
X173557142Y-104461904D01*
X173633333Y-104423809D01*
X173671428Y-104385714D01*
X173709523Y-104309523D01*
X173709523Y-104157142D01*
X173671428Y-104080952D01*
X173633333Y-104042857D01*
X173557142Y-104004761D01*
%TO.C,R19*%
D11*
X168672380Y-106166666D02*
X168196190Y-106500000D01*
X168672380Y-106738095D02*
X167672380Y-106738095D01*
X167672380Y-106357142D01*
X167720000Y-106261904D01*
X167767619Y-106214285D01*
X167862857Y-106166666D01*
X168005714Y-106166666D01*
X168100952Y-106214285D01*
X168148571Y-106261904D01*
X168196190Y-106357142D01*
X168196190Y-106738095D01*
X167672380Y-105547619D02*
X167672380Y-105452380D01*
X167720000Y-105357142D01*
X167767619Y-105309523D01*
X167862857Y-105261904D01*
X168053333Y-105214285D01*
X168291428Y-105214285D01*
X168481904Y-105261904D01*
X168577142Y-105309523D01*
X168624761Y-105357142D01*
X168672380Y-105452380D01*
X168672380Y-105547619D01*
X168624761Y-105642857D01*
X168577142Y-105690476D01*
X168481904Y-105738095D01*
X168291428Y-105785714D01*
X168053333Y-105785714D01*
X167862857Y-105738095D01*
X167767619Y-105690476D01*
X167720000Y-105642857D01*
X167672380Y-105547619D01*
D12*
X166761904Y-106514285D02*
X166380952Y-106780952D01*
X166761904Y-106971428D02*
X165961904Y-106971428D01*
X165961904Y-106666666D01*
X166000000Y-106590476D01*
X166038095Y-106552380D01*
X166114285Y-106514285D01*
X166228571Y-106514285D01*
X166304761Y-106552380D01*
X166342857Y-106590476D01*
X166380952Y-106666666D01*
X166380952Y-106971428D01*
X166761904Y-105752380D02*
X166761904Y-106209523D01*
X166761904Y-105980952D02*
X165961904Y-105980952D01*
X166076190Y-106057142D01*
X166152380Y-106133333D01*
X166190476Y-106209523D01*
X166761904Y-105371428D02*
X166761904Y-105219047D01*
X166723809Y-105142857D01*
X166685714Y-105104761D01*
X166571428Y-105028571D01*
X166419047Y-104990476D01*
X166114285Y-104990476D01*
X166038095Y-105028571D01*
X166000000Y-105066666D01*
X165961904Y-105142857D01*
X165961904Y-105295238D01*
X166000000Y-105371428D01*
X166038095Y-105409523D01*
X166114285Y-105447619D01*
X166304761Y-105447619D01*
X166380952Y-105409523D01*
X166419047Y-105371428D01*
X166457142Y-105295238D01*
X166457142Y-105142857D01*
X166419047Y-105066666D01*
X166380952Y-105028571D01*
X166304761Y-104990476D01*
%TD*%
M02*
