%TF.GenerationSoftware,KiCad,Pcbnew,(6.0.0-rc1-dev-1444-gad0d9f8df)*%
%TF.CreationDate,2019-01-02T13:44:12+02:00*%
%TF.ProjectId,digiTOS-COMOD-SinBoard-routed-2,64696769-544f-4532-9d43-4f4d4f442d53,rev?*%
%TF.SameCoordinates,Original*%
%TF.FileFunction,Legend,Top*%
%TF.FilePolarity,Positive*%
%FSLAX46Y46*%
G04 Gerber Fmt 4.6, Leading zero omitted, Abs format (unit mm)*
G04 Created by KiCad (PCBNEW (6.0.0-rc1-dev-1444-gad0d9f8df)) date 02/01/2019 13:44:12*
%MOMM*%
%LPD*%
G04 APERTURE LIST*
%ADD10C,0.120000*%
%ADD11C,0.150000*%
G04 APERTURE END LIST*
D10*
%TO.C,C1*%
X214990000Y-53297936D02*
X214990000Y-54502064D01*
X216810000Y-53297936D02*
X216810000Y-54502064D01*
%TO.C,C2*%
X212837000Y-53115036D02*
X212837000Y-54319164D01*
X211017000Y-53115036D02*
X211017000Y-54319164D01*
%TO.C,C3*%
X202674936Y-59207100D02*
X203879064Y-59207100D01*
X202674936Y-61027100D02*
X203879064Y-61027100D01*
%TO.C,C4*%
X202697936Y-64910000D02*
X203902064Y-64910000D01*
X202697936Y-63090000D02*
X203902064Y-63090000D01*
%TO.C,D1*%
X201375000Y-128770000D02*
X205435000Y-128770000D01*
X201375000Y-126500000D02*
X201375000Y-128770000D01*
X205435000Y-126500000D02*
X201375000Y-126500000D01*
%TO.C,D2*%
X190805000Y-128770000D02*
X194865000Y-128770000D01*
X194865000Y-128770000D02*
X194865000Y-126500000D01*
X194865000Y-126500000D02*
X190805000Y-126500000D01*
%TO.C,D3*%
X208995000Y-128770000D02*
X213055000Y-128770000D01*
X208995000Y-126500000D02*
X208995000Y-128770000D01*
X213055000Y-126500000D02*
X208995000Y-126500000D01*
%TO.C,D4*%
X221945000Y-126500000D02*
X217885000Y-126500000D01*
X217885000Y-126500000D02*
X217885000Y-128770000D01*
X217885000Y-128770000D02*
X221945000Y-128770000D01*
%TO.C,R1*%
X203230000Y-122637064D02*
X203230000Y-121432936D01*
X201410000Y-122637064D02*
X201410000Y-121432936D01*
%TO.C,R2*%
X193200000Y-123137064D02*
X193200000Y-121932936D01*
X195020000Y-123137064D02*
X195020000Y-121932936D01*
%TO.C,R3*%
X210510000Y-122502064D02*
X210510000Y-121297936D01*
X208690000Y-122502064D02*
X208690000Y-121297936D01*
%TO.C,R4*%
X217390000Y-122302064D02*
X217390000Y-121097936D01*
X219210000Y-122302064D02*
X219210000Y-121097936D01*
%TO.C,U1*%
X202959000Y-50456500D02*
X202959000Y-51716500D01*
X202959000Y-57276500D02*
X202959000Y-56016500D01*
X206719000Y-50456500D02*
X202959000Y-50456500D01*
X208969000Y-57276500D02*
X202959000Y-57276500D01*
%TO.C,D5*%
X208585000Y-91940000D02*
X212645000Y-91940000D01*
X212645000Y-91940000D02*
X212645000Y-89670000D01*
X212645000Y-89670000D02*
X208585000Y-89670000D01*
%TO.C,D6*%
X198835000Y-92575000D02*
X202895000Y-92575000D01*
X198835000Y-90305000D02*
X198835000Y-92575000D01*
X202895000Y-90305000D02*
X198835000Y-90305000D01*
%TO.C,R5*%
X221583000Y-67394636D02*
X221583000Y-68598764D01*
X223403000Y-67394636D02*
X223403000Y-68598764D01*
%TO.C,R6*%
X227303000Y-67394636D02*
X227303000Y-68598764D01*
X225483000Y-67394636D02*
X225483000Y-68598764D01*
%TO.C,D7*%
X208585000Y-110355000D02*
X212645000Y-110355000D01*
X212645000Y-110355000D02*
X212645000Y-108085000D01*
X212645000Y-108085000D02*
X208585000Y-108085000D01*
%TO.C,D8*%
X212645000Y-112530000D02*
X208585000Y-112530000D01*
X212645000Y-114800000D02*
X212645000Y-112530000D01*
X208585000Y-114800000D02*
X212645000Y-114800000D01*
%TO.C,D9*%
X202895000Y-109355000D02*
X198835000Y-109355000D01*
X198835000Y-109355000D02*
X198835000Y-111625000D01*
X198835000Y-111625000D02*
X202895000Y-111625000D01*
%TO.C,D10*%
X198835000Y-115435000D02*
X202895000Y-115435000D01*
X198835000Y-113165000D02*
X198835000Y-115435000D01*
X202895000Y-113165000D02*
X198835000Y-113165000D01*
%TO.C,D11*%
X208585000Y-98290000D02*
X212645000Y-98290000D01*
X212645000Y-98290000D02*
X212645000Y-96020000D01*
X212645000Y-96020000D02*
X208585000Y-96020000D01*
%TO.C,D12*%
X198835000Y-105910000D02*
X202895000Y-105910000D01*
X198835000Y-103640000D02*
X198835000Y-105910000D01*
X202895000Y-103640000D02*
X198835000Y-103640000D01*
%TO.C,D13*%
X202895000Y-99195000D02*
X198835000Y-99195000D01*
X198835000Y-99195000D02*
X198835000Y-101465000D01*
X198835000Y-101465000D02*
X202895000Y-101465000D01*
%TO.C,D14*%
X202678000Y-94750000D02*
X198618000Y-94750000D01*
X198618000Y-94750000D02*
X198618000Y-97020000D01*
X198618000Y-97020000D02*
X202678000Y-97020000D01*
%TO.C,D15*%
X198835000Y-88765000D02*
X202895000Y-88765000D01*
X198835000Y-86495000D02*
X198835000Y-88765000D01*
X202895000Y-86495000D02*
X198835000Y-86495000D01*
%TO.C,R7*%
X177290000Y-60197936D02*
X177290000Y-61402064D01*
X179110000Y-60197936D02*
X179110000Y-61402064D01*
%TO.C,R8*%
X184610000Y-60097936D02*
X184610000Y-61302064D01*
X182790000Y-60097936D02*
X182790000Y-61302064D01*
%TO.C,C5*%
X178390000Y-73402064D02*
X178390000Y-72197936D01*
X180210000Y-73402064D02*
X180210000Y-72197936D01*
%TO.C,R9*%
X172360000Y-72422936D02*
X172360000Y-73627064D01*
X170540000Y-72422936D02*
X170540000Y-73627064D01*
%TO.C,R10*%
X188702064Y-69310000D02*
X187497936Y-69310000D01*
X188702064Y-67490000D02*
X187497936Y-67490000D01*
%TO.C,R11*%
X181502064Y-67490000D02*
X180297936Y-67490000D01*
X181502064Y-69310000D02*
X180297936Y-69310000D01*
%TO.C,C6*%
X163790064Y-98310000D02*
X162585936Y-98310000D01*
X163790064Y-96490000D02*
X162585936Y-96490000D01*
%TO.C,R12*%
X154890000Y-101902064D02*
X154890000Y-100697936D01*
X156710000Y-101902064D02*
X156710000Y-100697936D01*
%TO.C,R13*%
X160409936Y-108910000D02*
X161614064Y-108910000D01*
X160409936Y-107090000D02*
X161614064Y-107090000D01*
%TO.C,R14*%
X161590000Y-103302064D02*
X161590000Y-102097936D01*
X163410000Y-103302064D02*
X163410000Y-102097936D01*
%TO.C,R15*%
X170910000Y-91097936D02*
X170910000Y-92302064D01*
X169090000Y-91097936D02*
X169090000Y-92302064D01*
%TO.C,R16*%
X163802064Y-92190000D02*
X162597936Y-92190000D01*
X163802064Y-94010000D02*
X162597936Y-94010000D01*
%TO.C,D16*%
X241950000Y-68700000D02*
X237650000Y-68700000D01*
X237650000Y-68700000D02*
X237650000Y-74400000D01*
X241950000Y-68700000D02*
X241950000Y-74400000D01*
%TO.C,R17*%
X173302064Y-114410000D02*
X172097936Y-114410000D01*
X173302064Y-112590000D02*
X172097936Y-112590000D01*
%TO.C,R18*%
X173302064Y-103190000D02*
X172097936Y-103190000D01*
X173302064Y-105010000D02*
X172097936Y-105010000D01*
%TO.C,R19*%
X165490000Y-106602064D02*
X165490000Y-105397936D01*
X167310000Y-106602064D02*
X167310000Y-105397936D01*
%TO.C,J3*%
D11*
X164566666Y-56922380D02*
X164566666Y-57636666D01*
X164519047Y-57779523D01*
X164423809Y-57874761D01*
X164280952Y-57922380D01*
X164185714Y-57922380D01*
X164947619Y-56922380D02*
X165566666Y-56922380D01*
X165233333Y-57303333D01*
X165376190Y-57303333D01*
X165471428Y-57350952D01*
X165519047Y-57398571D01*
X165566666Y-57493809D01*
X165566666Y-57731904D01*
X165519047Y-57827142D01*
X165471428Y-57874761D01*
X165376190Y-57922380D01*
X165090476Y-57922380D01*
X164995238Y-57874761D01*
X164947619Y-57827142D01*
%TO.C,J4*%
X131566666Y-61572380D02*
X131566666Y-62286666D01*
X131519047Y-62429523D01*
X131423809Y-62524761D01*
X131280952Y-62572380D01*
X131185714Y-62572380D01*
X132471428Y-61905714D02*
X132471428Y-62572380D01*
X132233333Y-61524761D02*
X131995238Y-62239047D01*
X132614285Y-62239047D01*
%TO.C,C1*%
X218077142Y-54066666D02*
X218124761Y-54114285D01*
X218172380Y-54257142D01*
X218172380Y-54352380D01*
X218124761Y-54495238D01*
X218029523Y-54590476D01*
X217934285Y-54638095D01*
X217743809Y-54685714D01*
X217600952Y-54685714D01*
X217410476Y-54638095D01*
X217315238Y-54590476D01*
X217220000Y-54495238D01*
X217172380Y-54352380D01*
X217172380Y-54257142D01*
X217220000Y-54114285D01*
X217267619Y-54066666D01*
X218172380Y-53114285D02*
X218172380Y-53685714D01*
X218172380Y-53400000D02*
X217172380Y-53400000D01*
X217315238Y-53495238D01*
X217410476Y-53590476D01*
X217458095Y-53685714D01*
%TO.C,C2*%
X214104142Y-53883766D02*
X214151761Y-53931385D01*
X214199380Y-54074242D01*
X214199380Y-54169480D01*
X214151761Y-54312338D01*
X214056523Y-54407576D01*
X213961285Y-54455195D01*
X213770809Y-54502814D01*
X213627952Y-54502814D01*
X213437476Y-54455195D01*
X213342238Y-54407576D01*
X213247000Y-54312338D01*
X213199380Y-54169480D01*
X213199380Y-54074242D01*
X213247000Y-53931385D01*
X213294619Y-53883766D01*
X213294619Y-53502814D02*
X213247000Y-53455195D01*
X213199380Y-53359957D01*
X213199380Y-53121861D01*
X213247000Y-53026623D01*
X213294619Y-52979004D01*
X213389857Y-52931385D01*
X213485095Y-52931385D01*
X213627952Y-52979004D01*
X214199380Y-53550433D01*
X214199380Y-52931385D01*
%TO.C,C3*%
X203110333Y-58654242D02*
X203062714Y-58701861D01*
X202919857Y-58749480D01*
X202824619Y-58749480D01*
X202681761Y-58701861D01*
X202586523Y-58606623D01*
X202538904Y-58511385D01*
X202491285Y-58320909D01*
X202491285Y-58178052D01*
X202538904Y-57987576D01*
X202586523Y-57892338D01*
X202681761Y-57797100D01*
X202824619Y-57749480D01*
X202919857Y-57749480D01*
X203062714Y-57797100D01*
X203110333Y-57844719D01*
X203443666Y-57749480D02*
X204062714Y-57749480D01*
X203729380Y-58130433D01*
X203872238Y-58130433D01*
X203967476Y-58178052D01*
X204015095Y-58225671D01*
X204062714Y-58320909D01*
X204062714Y-58559004D01*
X204015095Y-58654242D01*
X203967476Y-58701861D01*
X203872238Y-58749480D01*
X203586523Y-58749480D01*
X203491285Y-58701861D01*
X203443666Y-58654242D01*
%TO.C,C4*%
X203133333Y-62537142D02*
X203085714Y-62584761D01*
X202942857Y-62632380D01*
X202847619Y-62632380D01*
X202704761Y-62584761D01*
X202609523Y-62489523D01*
X202561904Y-62394285D01*
X202514285Y-62203809D01*
X202514285Y-62060952D01*
X202561904Y-61870476D01*
X202609523Y-61775238D01*
X202704761Y-61680000D01*
X202847619Y-61632380D01*
X202942857Y-61632380D01*
X203085714Y-61680000D01*
X203133333Y-61727619D01*
X203990476Y-61965714D02*
X203990476Y-62632380D01*
X203752380Y-61584761D02*
X203514285Y-62299047D01*
X204133333Y-62299047D01*
%TO.C,D1*%
X203096904Y-126267380D02*
X203096904Y-125267380D01*
X203335000Y-125267380D01*
X203477857Y-125315000D01*
X203573095Y-125410238D01*
X203620714Y-125505476D01*
X203668333Y-125695952D01*
X203668333Y-125838809D01*
X203620714Y-126029285D01*
X203573095Y-126124523D01*
X203477857Y-126219761D01*
X203335000Y-126267380D01*
X203096904Y-126267380D01*
X204620714Y-126267380D02*
X204049285Y-126267380D01*
X204335000Y-126267380D02*
X204335000Y-125267380D01*
X204239761Y-125410238D01*
X204144523Y-125505476D01*
X204049285Y-125553095D01*
%TO.C,D2*%
X191666904Y-129907380D02*
X191666904Y-128907380D01*
X191905000Y-128907380D01*
X192047857Y-128955000D01*
X192143095Y-129050238D01*
X192190714Y-129145476D01*
X192238333Y-129335952D01*
X192238333Y-129478809D01*
X192190714Y-129669285D01*
X192143095Y-129764523D01*
X192047857Y-129859761D01*
X191905000Y-129907380D01*
X191666904Y-129907380D01*
X192619285Y-129002619D02*
X192666904Y-128955000D01*
X192762142Y-128907380D01*
X193000238Y-128907380D01*
X193095476Y-128955000D01*
X193143095Y-129002619D01*
X193190714Y-129097857D01*
X193190714Y-129193095D01*
X193143095Y-129335952D01*
X192571666Y-129907380D01*
X193190714Y-129907380D01*
%TO.C,D3*%
X210716904Y-126267380D02*
X210716904Y-125267380D01*
X210955000Y-125267380D01*
X211097857Y-125315000D01*
X211193095Y-125410238D01*
X211240714Y-125505476D01*
X211288333Y-125695952D01*
X211288333Y-125838809D01*
X211240714Y-126029285D01*
X211193095Y-126124523D01*
X211097857Y-126219761D01*
X210955000Y-126267380D01*
X210716904Y-126267380D01*
X211621666Y-125267380D02*
X212240714Y-125267380D01*
X211907380Y-125648333D01*
X212050238Y-125648333D01*
X212145476Y-125695952D01*
X212193095Y-125743571D01*
X212240714Y-125838809D01*
X212240714Y-126076904D01*
X212193095Y-126172142D01*
X212145476Y-126219761D01*
X212050238Y-126267380D01*
X211764523Y-126267380D01*
X211669285Y-126219761D01*
X211621666Y-126172142D01*
%TO.C,D4*%
X219706904Y-130087380D02*
X219706904Y-129087380D01*
X219945000Y-129087380D01*
X220087857Y-129135000D01*
X220183095Y-129230238D01*
X220230714Y-129325476D01*
X220278333Y-129515952D01*
X220278333Y-129658809D01*
X220230714Y-129849285D01*
X220183095Y-129944523D01*
X220087857Y-130039761D01*
X219945000Y-130087380D01*
X219706904Y-130087380D01*
X221135476Y-129420714D02*
X221135476Y-130087380D01*
X220897380Y-129039761D02*
X220659285Y-129754047D01*
X221278333Y-129754047D01*
%TO.C,R1*%
X200952380Y-122201666D02*
X200476190Y-122535000D01*
X200952380Y-122773095D02*
X199952380Y-122773095D01*
X199952380Y-122392142D01*
X200000000Y-122296904D01*
X200047619Y-122249285D01*
X200142857Y-122201666D01*
X200285714Y-122201666D01*
X200380952Y-122249285D01*
X200428571Y-122296904D01*
X200476190Y-122392142D01*
X200476190Y-122773095D01*
X200952380Y-121249285D02*
X200952380Y-121820714D01*
X200952380Y-121535000D02*
X199952380Y-121535000D01*
X200095238Y-121630238D01*
X200190476Y-121725476D01*
X200238095Y-121820714D01*
%TO.C,R2*%
X192742380Y-122701666D02*
X192266190Y-123035000D01*
X192742380Y-123273095D02*
X191742380Y-123273095D01*
X191742380Y-122892142D01*
X191790000Y-122796904D01*
X191837619Y-122749285D01*
X191932857Y-122701666D01*
X192075714Y-122701666D01*
X192170952Y-122749285D01*
X192218571Y-122796904D01*
X192266190Y-122892142D01*
X192266190Y-123273095D01*
X191837619Y-122320714D02*
X191790000Y-122273095D01*
X191742380Y-122177857D01*
X191742380Y-121939761D01*
X191790000Y-121844523D01*
X191837619Y-121796904D01*
X191932857Y-121749285D01*
X192028095Y-121749285D01*
X192170952Y-121796904D01*
X192742380Y-122368333D01*
X192742380Y-121749285D01*
%TO.C,R3*%
X208232380Y-122066666D02*
X207756190Y-122400000D01*
X208232380Y-122638095D02*
X207232380Y-122638095D01*
X207232380Y-122257142D01*
X207280000Y-122161904D01*
X207327619Y-122114285D01*
X207422857Y-122066666D01*
X207565714Y-122066666D01*
X207660952Y-122114285D01*
X207708571Y-122161904D01*
X207756190Y-122257142D01*
X207756190Y-122638095D01*
X207232380Y-121733333D02*
X207232380Y-121114285D01*
X207613333Y-121447619D01*
X207613333Y-121304761D01*
X207660952Y-121209523D01*
X207708571Y-121161904D01*
X207803809Y-121114285D01*
X208041904Y-121114285D01*
X208137142Y-121161904D01*
X208184761Y-121209523D01*
X208232380Y-121304761D01*
X208232380Y-121590476D01*
X208184761Y-121685714D01*
X208137142Y-121733333D01*
%TO.C,R4*%
X216932380Y-121866666D02*
X216456190Y-122200000D01*
X216932380Y-122438095D02*
X215932380Y-122438095D01*
X215932380Y-122057142D01*
X215980000Y-121961904D01*
X216027619Y-121914285D01*
X216122857Y-121866666D01*
X216265714Y-121866666D01*
X216360952Y-121914285D01*
X216408571Y-121961904D01*
X216456190Y-122057142D01*
X216456190Y-122438095D01*
X216265714Y-121009523D02*
X216932380Y-121009523D01*
X215884761Y-121247619D02*
X216599047Y-121485714D01*
X216599047Y-120866666D01*
%TO.C,U1*%
X204107095Y-57818880D02*
X204107095Y-58628404D01*
X204154714Y-58723642D01*
X204202333Y-58771261D01*
X204297571Y-58818880D01*
X204488047Y-58818880D01*
X204583285Y-58771261D01*
X204630904Y-58723642D01*
X204678523Y-58628404D01*
X204678523Y-57818880D01*
X205678523Y-58818880D02*
X205107095Y-58818880D01*
X205392809Y-58818880D02*
X205392809Y-57818880D01*
X205297571Y-57961738D01*
X205202333Y-58056976D01*
X205107095Y-58104595D01*
%TO.C,D5*%
X209446904Y-93077380D02*
X209446904Y-92077380D01*
X209685000Y-92077380D01*
X209827857Y-92125000D01*
X209923095Y-92220238D01*
X209970714Y-92315476D01*
X210018333Y-92505952D01*
X210018333Y-92648809D01*
X209970714Y-92839285D01*
X209923095Y-92934523D01*
X209827857Y-93029761D01*
X209685000Y-93077380D01*
X209446904Y-93077380D01*
X210923095Y-92077380D02*
X210446904Y-92077380D01*
X210399285Y-92553571D01*
X210446904Y-92505952D01*
X210542142Y-92458333D01*
X210780238Y-92458333D01*
X210875476Y-92505952D01*
X210923095Y-92553571D01*
X210970714Y-92648809D01*
X210970714Y-92886904D01*
X210923095Y-92982142D01*
X210875476Y-93029761D01*
X210780238Y-93077380D01*
X210542142Y-93077380D01*
X210446904Y-93029761D01*
X210399285Y-92982142D01*
%TO.C,D6*%
X200556904Y-90072380D02*
X200556904Y-89072380D01*
X200795000Y-89072380D01*
X200937857Y-89120000D01*
X201033095Y-89215238D01*
X201080714Y-89310476D01*
X201128333Y-89500952D01*
X201128333Y-89643809D01*
X201080714Y-89834285D01*
X201033095Y-89929523D01*
X200937857Y-90024761D01*
X200795000Y-90072380D01*
X200556904Y-90072380D01*
X201985476Y-89072380D02*
X201795000Y-89072380D01*
X201699761Y-89120000D01*
X201652142Y-89167619D01*
X201556904Y-89310476D01*
X201509285Y-89500952D01*
X201509285Y-89881904D01*
X201556904Y-89977142D01*
X201604523Y-90024761D01*
X201699761Y-90072380D01*
X201890238Y-90072380D01*
X201985476Y-90024761D01*
X202033095Y-89977142D01*
X202080714Y-89881904D01*
X202080714Y-89643809D01*
X202033095Y-89548571D01*
X201985476Y-89500952D01*
X201890238Y-89453333D01*
X201699761Y-89453333D01*
X201604523Y-89500952D01*
X201556904Y-89548571D01*
X201509285Y-89643809D01*
%TO.C,R5*%
X224765380Y-68163366D02*
X224289190Y-68496700D01*
X224765380Y-68734795D02*
X223765380Y-68734795D01*
X223765380Y-68353842D01*
X223813000Y-68258604D01*
X223860619Y-68210985D01*
X223955857Y-68163366D01*
X224098714Y-68163366D01*
X224193952Y-68210985D01*
X224241571Y-68258604D01*
X224289190Y-68353842D01*
X224289190Y-68734795D01*
X223765380Y-67258604D02*
X223765380Y-67734795D01*
X224241571Y-67782414D01*
X224193952Y-67734795D01*
X224146333Y-67639557D01*
X224146333Y-67401461D01*
X224193952Y-67306223D01*
X224241571Y-67258604D01*
X224336809Y-67210985D01*
X224574904Y-67210985D01*
X224670142Y-67258604D01*
X224717761Y-67306223D01*
X224765380Y-67401461D01*
X224765380Y-67639557D01*
X224717761Y-67734795D01*
X224670142Y-67782414D01*
%TO.C,R6*%
X228665380Y-68163366D02*
X228189190Y-68496700D01*
X228665380Y-68734795D02*
X227665380Y-68734795D01*
X227665380Y-68353842D01*
X227713000Y-68258604D01*
X227760619Y-68210985D01*
X227855857Y-68163366D01*
X227998714Y-68163366D01*
X228093952Y-68210985D01*
X228141571Y-68258604D01*
X228189190Y-68353842D01*
X228189190Y-68734795D01*
X227665380Y-67306223D02*
X227665380Y-67496700D01*
X227713000Y-67591938D01*
X227760619Y-67639557D01*
X227903476Y-67734795D01*
X228093952Y-67782414D01*
X228474904Y-67782414D01*
X228570142Y-67734795D01*
X228617761Y-67687176D01*
X228665380Y-67591938D01*
X228665380Y-67401461D01*
X228617761Y-67306223D01*
X228570142Y-67258604D01*
X228474904Y-67210985D01*
X228236809Y-67210985D01*
X228141571Y-67258604D01*
X228093952Y-67306223D01*
X228046333Y-67401461D01*
X228046333Y-67591938D01*
X228093952Y-67687176D01*
X228141571Y-67734795D01*
X228236809Y-67782414D01*
%TO.C,D7*%
X209446904Y-111492380D02*
X209446904Y-110492380D01*
X209685000Y-110492380D01*
X209827857Y-110540000D01*
X209923095Y-110635238D01*
X209970714Y-110730476D01*
X210018333Y-110920952D01*
X210018333Y-111063809D01*
X209970714Y-111254285D01*
X209923095Y-111349523D01*
X209827857Y-111444761D01*
X209685000Y-111492380D01*
X209446904Y-111492380D01*
X210351666Y-110492380D02*
X211018333Y-110492380D01*
X210589761Y-111492380D01*
%TO.C,D8*%
X209446904Y-115937380D02*
X209446904Y-114937380D01*
X209685000Y-114937380D01*
X209827857Y-114985000D01*
X209923095Y-115080238D01*
X209970714Y-115175476D01*
X210018333Y-115365952D01*
X210018333Y-115508809D01*
X209970714Y-115699285D01*
X209923095Y-115794523D01*
X209827857Y-115889761D01*
X209685000Y-115937380D01*
X209446904Y-115937380D01*
X210589761Y-115365952D02*
X210494523Y-115318333D01*
X210446904Y-115270714D01*
X210399285Y-115175476D01*
X210399285Y-115127857D01*
X210446904Y-115032619D01*
X210494523Y-114985000D01*
X210589761Y-114937380D01*
X210780238Y-114937380D01*
X210875476Y-114985000D01*
X210923095Y-115032619D01*
X210970714Y-115127857D01*
X210970714Y-115175476D01*
X210923095Y-115270714D01*
X210875476Y-115318333D01*
X210780238Y-115365952D01*
X210589761Y-115365952D01*
X210494523Y-115413571D01*
X210446904Y-115461190D01*
X210399285Y-115556428D01*
X210399285Y-115746904D01*
X210446904Y-115842142D01*
X210494523Y-115889761D01*
X210589761Y-115937380D01*
X210780238Y-115937380D01*
X210875476Y-115889761D01*
X210923095Y-115842142D01*
X210970714Y-115746904D01*
X210970714Y-115556428D01*
X210923095Y-115461190D01*
X210875476Y-115413571D01*
X210780238Y-115365952D01*
%TO.C,D9*%
X200556904Y-109122380D02*
X200556904Y-108122380D01*
X200795000Y-108122380D01*
X200937857Y-108170000D01*
X201033095Y-108265238D01*
X201080714Y-108360476D01*
X201128333Y-108550952D01*
X201128333Y-108693809D01*
X201080714Y-108884285D01*
X201033095Y-108979523D01*
X200937857Y-109074761D01*
X200795000Y-109122380D01*
X200556904Y-109122380D01*
X201604523Y-109122380D02*
X201795000Y-109122380D01*
X201890238Y-109074761D01*
X201937857Y-109027142D01*
X202033095Y-108884285D01*
X202080714Y-108693809D01*
X202080714Y-108312857D01*
X202033095Y-108217619D01*
X201985476Y-108170000D01*
X201890238Y-108122380D01*
X201699761Y-108122380D01*
X201604523Y-108170000D01*
X201556904Y-108217619D01*
X201509285Y-108312857D01*
X201509285Y-108550952D01*
X201556904Y-108646190D01*
X201604523Y-108693809D01*
X201699761Y-108741428D01*
X201890238Y-108741428D01*
X201985476Y-108693809D01*
X202033095Y-108646190D01*
X202080714Y-108550952D01*
%TO.C,D10*%
X200080714Y-112932380D02*
X200080714Y-111932380D01*
X200318809Y-111932380D01*
X200461666Y-111980000D01*
X200556904Y-112075238D01*
X200604523Y-112170476D01*
X200652142Y-112360952D01*
X200652142Y-112503809D01*
X200604523Y-112694285D01*
X200556904Y-112789523D01*
X200461666Y-112884761D01*
X200318809Y-112932380D01*
X200080714Y-112932380D01*
X201604523Y-112932380D02*
X201033095Y-112932380D01*
X201318809Y-112932380D02*
X201318809Y-111932380D01*
X201223571Y-112075238D01*
X201128333Y-112170476D01*
X201033095Y-112218095D01*
X202223571Y-111932380D02*
X202318809Y-111932380D01*
X202414047Y-111980000D01*
X202461666Y-112027619D01*
X202509285Y-112122857D01*
X202556904Y-112313333D01*
X202556904Y-112551428D01*
X202509285Y-112741904D01*
X202461666Y-112837142D01*
X202414047Y-112884761D01*
X202318809Y-112932380D01*
X202223571Y-112932380D01*
X202128333Y-112884761D01*
X202080714Y-112837142D01*
X202033095Y-112741904D01*
X201985476Y-112551428D01*
X201985476Y-112313333D01*
X202033095Y-112122857D01*
X202080714Y-112027619D01*
X202128333Y-111980000D01*
X202223571Y-111932380D01*
%TO.C,D11*%
X208970714Y-99427380D02*
X208970714Y-98427380D01*
X209208809Y-98427380D01*
X209351666Y-98475000D01*
X209446904Y-98570238D01*
X209494523Y-98665476D01*
X209542142Y-98855952D01*
X209542142Y-98998809D01*
X209494523Y-99189285D01*
X209446904Y-99284523D01*
X209351666Y-99379761D01*
X209208809Y-99427380D01*
X208970714Y-99427380D01*
X210494523Y-99427380D02*
X209923095Y-99427380D01*
X210208809Y-99427380D02*
X210208809Y-98427380D01*
X210113571Y-98570238D01*
X210018333Y-98665476D01*
X209923095Y-98713095D01*
X211446904Y-99427380D02*
X210875476Y-99427380D01*
X211161190Y-99427380D02*
X211161190Y-98427380D01*
X211065952Y-98570238D01*
X210970714Y-98665476D01*
X210875476Y-98713095D01*
%TO.C,D12*%
X200080714Y-103407380D02*
X200080714Y-102407380D01*
X200318809Y-102407380D01*
X200461666Y-102455000D01*
X200556904Y-102550238D01*
X200604523Y-102645476D01*
X200652142Y-102835952D01*
X200652142Y-102978809D01*
X200604523Y-103169285D01*
X200556904Y-103264523D01*
X200461666Y-103359761D01*
X200318809Y-103407380D01*
X200080714Y-103407380D01*
X201604523Y-103407380D02*
X201033095Y-103407380D01*
X201318809Y-103407380D02*
X201318809Y-102407380D01*
X201223571Y-102550238D01*
X201128333Y-102645476D01*
X201033095Y-102693095D01*
X201985476Y-102502619D02*
X202033095Y-102455000D01*
X202128333Y-102407380D01*
X202366428Y-102407380D01*
X202461666Y-102455000D01*
X202509285Y-102502619D01*
X202556904Y-102597857D01*
X202556904Y-102693095D01*
X202509285Y-102835952D01*
X201937857Y-103407380D01*
X202556904Y-103407380D01*
%TO.C,D13*%
X200080714Y-98962380D02*
X200080714Y-97962380D01*
X200318809Y-97962380D01*
X200461666Y-98010000D01*
X200556904Y-98105238D01*
X200604523Y-98200476D01*
X200652142Y-98390952D01*
X200652142Y-98533809D01*
X200604523Y-98724285D01*
X200556904Y-98819523D01*
X200461666Y-98914761D01*
X200318809Y-98962380D01*
X200080714Y-98962380D01*
X201604523Y-98962380D02*
X201033095Y-98962380D01*
X201318809Y-98962380D02*
X201318809Y-97962380D01*
X201223571Y-98105238D01*
X201128333Y-98200476D01*
X201033095Y-98248095D01*
X201937857Y-97962380D02*
X202556904Y-97962380D01*
X202223571Y-98343333D01*
X202366428Y-98343333D01*
X202461666Y-98390952D01*
X202509285Y-98438571D01*
X202556904Y-98533809D01*
X202556904Y-98771904D01*
X202509285Y-98867142D01*
X202461666Y-98914761D01*
X202366428Y-98962380D01*
X202080714Y-98962380D01*
X201985476Y-98914761D01*
X201937857Y-98867142D01*
%TO.C,D14*%
X199863714Y-94517380D02*
X199863714Y-93517380D01*
X200101809Y-93517380D01*
X200244666Y-93565000D01*
X200339904Y-93660238D01*
X200387523Y-93755476D01*
X200435142Y-93945952D01*
X200435142Y-94088809D01*
X200387523Y-94279285D01*
X200339904Y-94374523D01*
X200244666Y-94469761D01*
X200101809Y-94517380D01*
X199863714Y-94517380D01*
X201387523Y-94517380D02*
X200816095Y-94517380D01*
X201101809Y-94517380D02*
X201101809Y-93517380D01*
X201006571Y-93660238D01*
X200911333Y-93755476D01*
X200816095Y-93803095D01*
X202244666Y-93850714D02*
X202244666Y-94517380D01*
X202006571Y-93469761D02*
X201768476Y-94184047D01*
X202387523Y-94184047D01*
%TO.C,D15*%
X200080714Y-86262380D02*
X200080714Y-85262380D01*
X200318809Y-85262380D01*
X200461666Y-85310000D01*
X200556904Y-85405238D01*
X200604523Y-85500476D01*
X200652142Y-85690952D01*
X200652142Y-85833809D01*
X200604523Y-86024285D01*
X200556904Y-86119523D01*
X200461666Y-86214761D01*
X200318809Y-86262380D01*
X200080714Y-86262380D01*
X201604523Y-86262380D02*
X201033095Y-86262380D01*
X201318809Y-86262380D02*
X201318809Y-85262380D01*
X201223571Y-85405238D01*
X201128333Y-85500476D01*
X201033095Y-85548095D01*
X202509285Y-85262380D02*
X202033095Y-85262380D01*
X201985476Y-85738571D01*
X202033095Y-85690952D01*
X202128333Y-85643333D01*
X202366428Y-85643333D01*
X202461666Y-85690952D01*
X202509285Y-85738571D01*
X202556904Y-85833809D01*
X202556904Y-86071904D01*
X202509285Y-86167142D01*
X202461666Y-86214761D01*
X202366428Y-86262380D01*
X202128333Y-86262380D01*
X202033095Y-86214761D01*
X201985476Y-86167142D01*
%TO.C,R7*%
X180472380Y-60966666D02*
X179996190Y-61300000D01*
X180472380Y-61538095D02*
X179472380Y-61538095D01*
X179472380Y-61157142D01*
X179520000Y-61061904D01*
X179567619Y-61014285D01*
X179662857Y-60966666D01*
X179805714Y-60966666D01*
X179900952Y-61014285D01*
X179948571Y-61061904D01*
X179996190Y-61157142D01*
X179996190Y-61538095D01*
X179472380Y-60633333D02*
X179472380Y-59966666D01*
X180472380Y-60395238D01*
%TO.C,R8*%
X185972380Y-60866666D02*
X185496190Y-61200000D01*
X185972380Y-61438095D02*
X184972380Y-61438095D01*
X184972380Y-61057142D01*
X185020000Y-60961904D01*
X185067619Y-60914285D01*
X185162857Y-60866666D01*
X185305714Y-60866666D01*
X185400952Y-60914285D01*
X185448571Y-60961904D01*
X185496190Y-61057142D01*
X185496190Y-61438095D01*
X185400952Y-60295238D02*
X185353333Y-60390476D01*
X185305714Y-60438095D01*
X185210476Y-60485714D01*
X185162857Y-60485714D01*
X185067619Y-60438095D01*
X185020000Y-60390476D01*
X184972380Y-60295238D01*
X184972380Y-60104761D01*
X185020000Y-60009523D01*
X185067619Y-59961904D01*
X185162857Y-59914285D01*
X185210476Y-59914285D01*
X185305714Y-59961904D01*
X185353333Y-60009523D01*
X185400952Y-60104761D01*
X185400952Y-60295238D01*
X185448571Y-60390476D01*
X185496190Y-60438095D01*
X185591428Y-60485714D01*
X185781904Y-60485714D01*
X185877142Y-60438095D01*
X185924761Y-60390476D01*
X185972380Y-60295238D01*
X185972380Y-60104761D01*
X185924761Y-60009523D01*
X185877142Y-59961904D01*
X185781904Y-59914285D01*
X185591428Y-59914285D01*
X185496190Y-59961904D01*
X185448571Y-60009523D01*
X185400952Y-60104761D01*
%TO.C,C5*%
X177837142Y-72966666D02*
X177884761Y-73014285D01*
X177932380Y-73157142D01*
X177932380Y-73252380D01*
X177884761Y-73395238D01*
X177789523Y-73490476D01*
X177694285Y-73538095D01*
X177503809Y-73585714D01*
X177360952Y-73585714D01*
X177170476Y-73538095D01*
X177075238Y-73490476D01*
X176980000Y-73395238D01*
X176932380Y-73252380D01*
X176932380Y-73157142D01*
X176980000Y-73014285D01*
X177027619Y-72966666D01*
X176932380Y-72061904D02*
X176932380Y-72538095D01*
X177408571Y-72585714D01*
X177360952Y-72538095D01*
X177313333Y-72442857D01*
X177313333Y-72204761D01*
X177360952Y-72109523D01*
X177408571Y-72061904D01*
X177503809Y-72014285D01*
X177741904Y-72014285D01*
X177837142Y-72061904D01*
X177884761Y-72109523D01*
X177932380Y-72204761D01*
X177932380Y-72442857D01*
X177884761Y-72538095D01*
X177837142Y-72585714D01*
%TO.C,R9*%
X173722380Y-73191666D02*
X173246190Y-73525000D01*
X173722380Y-73763095D02*
X172722380Y-73763095D01*
X172722380Y-73382142D01*
X172770000Y-73286904D01*
X172817619Y-73239285D01*
X172912857Y-73191666D01*
X173055714Y-73191666D01*
X173150952Y-73239285D01*
X173198571Y-73286904D01*
X173246190Y-73382142D01*
X173246190Y-73763095D01*
X173722380Y-72715476D02*
X173722380Y-72525000D01*
X173674761Y-72429761D01*
X173627142Y-72382142D01*
X173484285Y-72286904D01*
X173293809Y-72239285D01*
X172912857Y-72239285D01*
X172817619Y-72286904D01*
X172770000Y-72334523D01*
X172722380Y-72429761D01*
X172722380Y-72620238D01*
X172770000Y-72715476D01*
X172817619Y-72763095D01*
X172912857Y-72810714D01*
X173150952Y-72810714D01*
X173246190Y-72763095D01*
X173293809Y-72715476D01*
X173341428Y-72620238D01*
X173341428Y-72429761D01*
X173293809Y-72334523D01*
X173246190Y-72286904D01*
X173150952Y-72239285D01*
%TO.C,R10*%
X187457142Y-70672380D02*
X187123809Y-70196190D01*
X186885714Y-70672380D02*
X186885714Y-69672380D01*
X187266666Y-69672380D01*
X187361904Y-69720000D01*
X187409523Y-69767619D01*
X187457142Y-69862857D01*
X187457142Y-70005714D01*
X187409523Y-70100952D01*
X187361904Y-70148571D01*
X187266666Y-70196190D01*
X186885714Y-70196190D01*
X188409523Y-70672380D02*
X187838095Y-70672380D01*
X188123809Y-70672380D02*
X188123809Y-69672380D01*
X188028571Y-69815238D01*
X187933333Y-69910476D01*
X187838095Y-69958095D01*
X189028571Y-69672380D02*
X189123809Y-69672380D01*
X189219047Y-69720000D01*
X189266666Y-69767619D01*
X189314285Y-69862857D01*
X189361904Y-70053333D01*
X189361904Y-70291428D01*
X189314285Y-70481904D01*
X189266666Y-70577142D01*
X189219047Y-70624761D01*
X189123809Y-70672380D01*
X189028571Y-70672380D01*
X188933333Y-70624761D01*
X188885714Y-70577142D01*
X188838095Y-70481904D01*
X188790476Y-70291428D01*
X188790476Y-70053333D01*
X188838095Y-69862857D01*
X188885714Y-69767619D01*
X188933333Y-69720000D01*
X189028571Y-69672380D01*
%TO.C,R11*%
X180257142Y-70672380D02*
X179923809Y-70196190D01*
X179685714Y-70672380D02*
X179685714Y-69672380D01*
X180066666Y-69672380D01*
X180161904Y-69720000D01*
X180209523Y-69767619D01*
X180257142Y-69862857D01*
X180257142Y-70005714D01*
X180209523Y-70100952D01*
X180161904Y-70148571D01*
X180066666Y-70196190D01*
X179685714Y-70196190D01*
X181209523Y-70672380D02*
X180638095Y-70672380D01*
X180923809Y-70672380D02*
X180923809Y-69672380D01*
X180828571Y-69815238D01*
X180733333Y-69910476D01*
X180638095Y-69958095D01*
X182161904Y-70672380D02*
X181590476Y-70672380D01*
X181876190Y-70672380D02*
X181876190Y-69672380D01*
X181780952Y-69815238D01*
X181685714Y-69910476D01*
X181590476Y-69958095D01*
%TO.C,C6*%
X163021333Y-99577142D02*
X162973714Y-99624761D01*
X162830857Y-99672380D01*
X162735619Y-99672380D01*
X162592761Y-99624761D01*
X162497523Y-99529523D01*
X162449904Y-99434285D01*
X162402285Y-99243809D01*
X162402285Y-99100952D01*
X162449904Y-98910476D01*
X162497523Y-98815238D01*
X162592761Y-98720000D01*
X162735619Y-98672380D01*
X162830857Y-98672380D01*
X162973714Y-98720000D01*
X163021333Y-98767619D01*
X163878476Y-98672380D02*
X163688000Y-98672380D01*
X163592761Y-98720000D01*
X163545142Y-98767619D01*
X163449904Y-98910476D01*
X163402285Y-99100952D01*
X163402285Y-99481904D01*
X163449904Y-99577142D01*
X163497523Y-99624761D01*
X163592761Y-99672380D01*
X163783238Y-99672380D01*
X163878476Y-99624761D01*
X163926095Y-99577142D01*
X163973714Y-99481904D01*
X163973714Y-99243809D01*
X163926095Y-99148571D01*
X163878476Y-99100952D01*
X163783238Y-99053333D01*
X163592761Y-99053333D01*
X163497523Y-99100952D01*
X163449904Y-99148571D01*
X163402285Y-99243809D01*
%TO.C,R12*%
X154432380Y-101942857D02*
X153956190Y-102276190D01*
X154432380Y-102514285D02*
X153432380Y-102514285D01*
X153432380Y-102133333D01*
X153480000Y-102038095D01*
X153527619Y-101990476D01*
X153622857Y-101942857D01*
X153765714Y-101942857D01*
X153860952Y-101990476D01*
X153908571Y-102038095D01*
X153956190Y-102133333D01*
X153956190Y-102514285D01*
X154432380Y-100990476D02*
X154432380Y-101561904D01*
X154432380Y-101276190D02*
X153432380Y-101276190D01*
X153575238Y-101371428D01*
X153670476Y-101466666D01*
X153718095Y-101561904D01*
X153527619Y-100609523D02*
X153480000Y-100561904D01*
X153432380Y-100466666D01*
X153432380Y-100228571D01*
X153480000Y-100133333D01*
X153527619Y-100085714D01*
X153622857Y-100038095D01*
X153718095Y-100038095D01*
X153860952Y-100085714D01*
X154432380Y-100657142D01*
X154432380Y-100038095D01*
%TO.C,R13*%
X160369142Y-106632380D02*
X160035809Y-106156190D01*
X159797714Y-106632380D02*
X159797714Y-105632380D01*
X160178666Y-105632380D01*
X160273904Y-105680000D01*
X160321523Y-105727619D01*
X160369142Y-105822857D01*
X160369142Y-105965714D01*
X160321523Y-106060952D01*
X160273904Y-106108571D01*
X160178666Y-106156190D01*
X159797714Y-106156190D01*
X161321523Y-106632380D02*
X160750095Y-106632380D01*
X161035809Y-106632380D02*
X161035809Y-105632380D01*
X160940571Y-105775238D01*
X160845333Y-105870476D01*
X160750095Y-105918095D01*
X161654857Y-105632380D02*
X162273904Y-105632380D01*
X161940571Y-106013333D01*
X162083428Y-106013333D01*
X162178666Y-106060952D01*
X162226285Y-106108571D01*
X162273904Y-106203809D01*
X162273904Y-106441904D01*
X162226285Y-106537142D01*
X162178666Y-106584761D01*
X162083428Y-106632380D01*
X161797714Y-106632380D01*
X161702476Y-106584761D01*
X161654857Y-106537142D01*
%TO.C,R14*%
X161132380Y-103342857D02*
X160656190Y-103676190D01*
X161132380Y-103914285D02*
X160132380Y-103914285D01*
X160132380Y-103533333D01*
X160180000Y-103438095D01*
X160227619Y-103390476D01*
X160322857Y-103342857D01*
X160465714Y-103342857D01*
X160560952Y-103390476D01*
X160608571Y-103438095D01*
X160656190Y-103533333D01*
X160656190Y-103914285D01*
X161132380Y-102390476D02*
X161132380Y-102961904D01*
X161132380Y-102676190D02*
X160132380Y-102676190D01*
X160275238Y-102771428D01*
X160370476Y-102866666D01*
X160418095Y-102961904D01*
X160465714Y-101533333D02*
X161132380Y-101533333D01*
X160084761Y-101771428D02*
X160799047Y-102009523D01*
X160799047Y-101390476D01*
%TO.C,R15*%
X172272380Y-92342857D02*
X171796190Y-92676190D01*
X172272380Y-92914285D02*
X171272380Y-92914285D01*
X171272380Y-92533333D01*
X171320000Y-92438095D01*
X171367619Y-92390476D01*
X171462857Y-92342857D01*
X171605714Y-92342857D01*
X171700952Y-92390476D01*
X171748571Y-92438095D01*
X171796190Y-92533333D01*
X171796190Y-92914285D01*
X172272380Y-91390476D02*
X172272380Y-91961904D01*
X172272380Y-91676190D02*
X171272380Y-91676190D01*
X171415238Y-91771428D01*
X171510476Y-91866666D01*
X171558095Y-91961904D01*
X171272380Y-90485714D02*
X171272380Y-90961904D01*
X171748571Y-91009523D01*
X171700952Y-90961904D01*
X171653333Y-90866666D01*
X171653333Y-90628571D01*
X171700952Y-90533333D01*
X171748571Y-90485714D01*
X171843809Y-90438095D01*
X172081904Y-90438095D01*
X172177142Y-90485714D01*
X172224761Y-90533333D01*
X172272380Y-90628571D01*
X172272380Y-90866666D01*
X172224761Y-90961904D01*
X172177142Y-91009523D01*
%TO.C,R16*%
X162557142Y-95372380D02*
X162223809Y-94896190D01*
X161985714Y-95372380D02*
X161985714Y-94372380D01*
X162366666Y-94372380D01*
X162461904Y-94420000D01*
X162509523Y-94467619D01*
X162557142Y-94562857D01*
X162557142Y-94705714D01*
X162509523Y-94800952D01*
X162461904Y-94848571D01*
X162366666Y-94896190D01*
X161985714Y-94896190D01*
X163509523Y-95372380D02*
X162938095Y-95372380D01*
X163223809Y-95372380D02*
X163223809Y-94372380D01*
X163128571Y-94515238D01*
X163033333Y-94610476D01*
X162938095Y-94658095D01*
X164366666Y-94372380D02*
X164176190Y-94372380D01*
X164080952Y-94420000D01*
X164033333Y-94467619D01*
X163938095Y-94610476D01*
X163890476Y-94800952D01*
X163890476Y-95181904D01*
X163938095Y-95277142D01*
X163985714Y-95324761D01*
X164080952Y-95372380D01*
X164271428Y-95372380D01*
X164366666Y-95324761D01*
X164414285Y-95277142D01*
X164461904Y-95181904D01*
X164461904Y-94943809D01*
X164414285Y-94848571D01*
X164366666Y-94800952D01*
X164271428Y-94753333D01*
X164080952Y-94753333D01*
X163985714Y-94800952D01*
X163938095Y-94848571D01*
X163890476Y-94943809D01*
%TO.C,D16*%
X243252380Y-73464285D02*
X242252380Y-73464285D01*
X242252380Y-73226190D01*
X242300000Y-73083333D01*
X242395238Y-72988095D01*
X242490476Y-72940476D01*
X242680952Y-72892857D01*
X242823809Y-72892857D01*
X243014285Y-72940476D01*
X243109523Y-72988095D01*
X243204761Y-73083333D01*
X243252380Y-73226190D01*
X243252380Y-73464285D01*
X243252380Y-71940476D02*
X243252380Y-72511904D01*
X243252380Y-72226190D02*
X242252380Y-72226190D01*
X242395238Y-72321428D01*
X242490476Y-72416666D01*
X242538095Y-72511904D01*
X242252380Y-71083333D02*
X242252380Y-71273809D01*
X242300000Y-71369047D01*
X242347619Y-71416666D01*
X242490476Y-71511904D01*
X242680952Y-71559523D01*
X243061904Y-71559523D01*
X243157142Y-71511904D01*
X243204761Y-71464285D01*
X243252380Y-71369047D01*
X243252380Y-71178571D01*
X243204761Y-71083333D01*
X243157142Y-71035714D01*
X243061904Y-70988095D01*
X242823809Y-70988095D01*
X242728571Y-71035714D01*
X242680952Y-71083333D01*
X242633333Y-71178571D01*
X242633333Y-71369047D01*
X242680952Y-71464285D01*
X242728571Y-71511904D01*
X242823809Y-71559523D01*
%TO.C,R17*%
X172057142Y-115772380D02*
X171723809Y-115296190D01*
X171485714Y-115772380D02*
X171485714Y-114772380D01*
X171866666Y-114772380D01*
X171961904Y-114820000D01*
X172009523Y-114867619D01*
X172057142Y-114962857D01*
X172057142Y-115105714D01*
X172009523Y-115200952D01*
X171961904Y-115248571D01*
X171866666Y-115296190D01*
X171485714Y-115296190D01*
X173009523Y-115772380D02*
X172438095Y-115772380D01*
X172723809Y-115772380D02*
X172723809Y-114772380D01*
X172628571Y-114915238D01*
X172533333Y-115010476D01*
X172438095Y-115058095D01*
X173342857Y-114772380D02*
X174009523Y-114772380D01*
X173580952Y-115772380D01*
%TO.C,R18*%
X172057142Y-106372380D02*
X171723809Y-105896190D01*
X171485714Y-106372380D02*
X171485714Y-105372380D01*
X171866666Y-105372380D01*
X171961904Y-105420000D01*
X172009523Y-105467619D01*
X172057142Y-105562857D01*
X172057142Y-105705714D01*
X172009523Y-105800952D01*
X171961904Y-105848571D01*
X171866666Y-105896190D01*
X171485714Y-105896190D01*
X173009523Y-106372380D02*
X172438095Y-106372380D01*
X172723809Y-106372380D02*
X172723809Y-105372380D01*
X172628571Y-105515238D01*
X172533333Y-105610476D01*
X172438095Y-105658095D01*
X173580952Y-105800952D02*
X173485714Y-105753333D01*
X173438095Y-105705714D01*
X173390476Y-105610476D01*
X173390476Y-105562857D01*
X173438095Y-105467619D01*
X173485714Y-105420000D01*
X173580952Y-105372380D01*
X173771428Y-105372380D01*
X173866666Y-105420000D01*
X173914285Y-105467619D01*
X173961904Y-105562857D01*
X173961904Y-105610476D01*
X173914285Y-105705714D01*
X173866666Y-105753333D01*
X173771428Y-105800952D01*
X173580952Y-105800952D01*
X173485714Y-105848571D01*
X173438095Y-105896190D01*
X173390476Y-105991428D01*
X173390476Y-106181904D01*
X173438095Y-106277142D01*
X173485714Y-106324761D01*
X173580952Y-106372380D01*
X173771428Y-106372380D01*
X173866666Y-106324761D01*
X173914285Y-106277142D01*
X173961904Y-106181904D01*
X173961904Y-105991428D01*
X173914285Y-105896190D01*
X173866666Y-105848571D01*
X173771428Y-105800952D01*
%TO.C,R19*%
X165032380Y-106642857D02*
X164556190Y-106976190D01*
X165032380Y-107214285D02*
X164032380Y-107214285D01*
X164032380Y-106833333D01*
X164080000Y-106738095D01*
X164127619Y-106690476D01*
X164222857Y-106642857D01*
X164365714Y-106642857D01*
X164460952Y-106690476D01*
X164508571Y-106738095D01*
X164556190Y-106833333D01*
X164556190Y-107214285D01*
X165032380Y-105690476D02*
X165032380Y-106261904D01*
X165032380Y-105976190D02*
X164032380Y-105976190D01*
X164175238Y-106071428D01*
X164270476Y-106166666D01*
X164318095Y-106261904D01*
X165032380Y-105214285D02*
X165032380Y-105023809D01*
X164984761Y-104928571D01*
X164937142Y-104880952D01*
X164794285Y-104785714D01*
X164603809Y-104738095D01*
X164222857Y-104738095D01*
X164127619Y-104785714D01*
X164080000Y-104833333D01*
X164032380Y-104928571D01*
X164032380Y-105119047D01*
X164080000Y-105214285D01*
X164127619Y-105261904D01*
X164222857Y-105309523D01*
X164460952Y-105309523D01*
X164556190Y-105261904D01*
X164603809Y-105214285D01*
X164651428Y-105119047D01*
X164651428Y-104928571D01*
X164603809Y-104833333D01*
X164556190Y-104785714D01*
X164460952Y-104738095D01*
%TD*%
M02*
