%TF.GenerationSoftware,KiCad,Pcbnew,(6.0.0-rc1-dev-1444-gad0d9f8df)*%
%TF.CreationDate,2019-01-02T13:44:12+02:00*%
%TF.ProjectId,digiTOS-COMOD-SinBoard-routed-2,64696769-544f-4532-9d43-4f4d4f442d53,rev?*%
%TF.SameCoordinates,Original*%
%TF.FileFunction,Other,User*%
%FSLAX46Y46*%
G04 Gerber Fmt 4.6, Leading zero omitted, Abs format (unit mm)*
G04 Created by KiCad (PCBNEW (6.0.0-rc1-dev-1444-gad0d9f8df)) date 02/01/2019 13:44:12*
%MOMM*%
%LPD*%
G04 APERTURE LIST*
%ADD10C,0.050000*%
G04 APERTURE END LIST*
D10*
%TO.C,T1*%
X118450000Y-87950000D02*
X118450000Y-112450000D01*
X118450000Y-87950000D02*
X140950000Y-87950000D01*
X140950000Y-112450000D02*
X118450000Y-112450000D01*
X140950000Y-112450000D02*
X140950000Y-87950000D01*
%TO.C,T2*%
X115550000Y-84850000D02*
X115550000Y-116350000D01*
X115550000Y-84850000D02*
X144050000Y-84850000D01*
X144050000Y-116350000D02*
X115550000Y-116350000D01*
X144050000Y-116350000D02*
X144050000Y-84850000D01*
%TO.C,F1*%
X167990000Y-46080000D02*
X167990000Y-53320000D01*
X167990000Y-53320000D02*
X151490000Y-53320000D01*
X151490000Y-53320000D02*
X151490000Y-46080000D01*
X151490000Y-46080000D02*
X167990000Y-46080000D01*
%TO.C,NEUT-LINE_IN1*%
X146010000Y-44200000D02*
X135510000Y-44200000D01*
X146010000Y-44200000D02*
X146010000Y-52200000D01*
X135510000Y-52200000D02*
X135510000Y-44200000D01*
X135510000Y-52200000D02*
X146010000Y-52200000D01*
%TO.C,NEUT-LINE_OUT1*%
X116300000Y-61590000D02*
X116300000Y-72090000D01*
X116300000Y-61590000D02*
X124300000Y-61590000D01*
X124300000Y-72090000D02*
X116300000Y-72090000D01*
X124300000Y-72090000D02*
X124300000Y-61590000D01*
%TO.C,RAW-GND1*%
X238000000Y-84300000D02*
X238000000Y-87850000D01*
X238000000Y-87850000D02*
X244100000Y-87850000D01*
X244100000Y-87850000D02*
X244100000Y-84300000D01*
X244100000Y-84300000D02*
X238000000Y-84300000D01*
%TO.C,RX-TX-GND1*%
X221520000Y-58930000D02*
X221520000Y-62480000D01*
X221520000Y-62480000D02*
X230170000Y-62480000D01*
X230170000Y-62480000D02*
X230170000Y-58930000D01*
X230170000Y-58930000D02*
X221520000Y-58930000D01*
%TO.C,DEV1*%
X179800000Y-54800000D02*
X183350000Y-54800000D01*
X183350000Y-54800000D02*
X183350000Y-48700000D01*
X183350000Y-48700000D02*
X179800000Y-48700000D01*
X179800000Y-48700000D02*
X179800000Y-54800000D01*
%TO.C,DEV2*%
X185500000Y-48700000D02*
X185500000Y-54800000D01*
X189050000Y-48700000D02*
X185500000Y-48700000D01*
X189050000Y-54800000D02*
X189050000Y-48700000D01*
X185500000Y-54800000D02*
X189050000Y-54800000D01*
%TO.C,RV1*%
X164300000Y-113800000D02*
X164300000Y-119200000D01*
X164300000Y-119200000D02*
X154200000Y-119200000D01*
X154200000Y-119200000D02*
X154200000Y-113800000D01*
X154200000Y-113800000D02*
X164300000Y-113800000D01*
%TO.C,J1*%
X245550000Y-117150000D02*
X245550000Y-96290000D01*
X245550000Y-96290000D02*
X236190000Y-96290000D01*
X236190000Y-96290000D02*
X236190000Y-117150000D01*
X236190000Y-117150000D02*
X245550000Y-117150000D01*
%TO.C,J2*%
X186545000Y-83925000D02*
X180445000Y-83925000D01*
X186545000Y-87475000D02*
X186545000Y-83925000D01*
X180445000Y-87475000D02*
X186545000Y-87475000D01*
X180445000Y-83925000D02*
X180445000Y-87475000D01*
%TO.C,J5*%
X183620000Y-78210000D02*
X183620000Y-81760000D01*
X183620000Y-81760000D02*
X189720000Y-81760000D01*
X189720000Y-81760000D02*
X189720000Y-78210000D01*
X189720000Y-78210000D02*
X183620000Y-78210000D01*
%TO.C,J6*%
X234170000Y-82020000D02*
X228070000Y-82020000D01*
X234170000Y-85570000D02*
X234170000Y-82020000D01*
X228070000Y-85570000D02*
X234170000Y-85570000D01*
X228070000Y-82020000D02*
X228070000Y-85570000D01*
%TO.C,J7*%
X229340000Y-93450000D02*
X229340000Y-97000000D01*
X229340000Y-97000000D02*
X235440000Y-97000000D01*
X235440000Y-97000000D02*
X235440000Y-93450000D01*
X235440000Y-93450000D02*
X229340000Y-93450000D01*
%TO.C,J8*%
X229975000Y-86592000D02*
X229975000Y-90142000D01*
X229975000Y-90142000D02*
X236075000Y-90142000D01*
X236075000Y-90142000D02*
X236075000Y-86592000D01*
X236075000Y-86592000D02*
X229975000Y-86592000D01*
%TO.C,J9*%
X234170000Y-101705000D02*
X228070000Y-101705000D01*
X234170000Y-105255000D02*
X234170000Y-101705000D01*
X228070000Y-105255000D02*
X234170000Y-105255000D01*
X228070000Y-101705000D02*
X228070000Y-105255000D01*
%TD*%
M02*
