%TF.GenerationSoftware,KiCad,Pcbnew,(6.0.0-rc1-dev-1444-gad0d9f8df)*%
%TF.CreationDate,2019-01-02T13:44:12+02:00*%
%TF.ProjectId,digiTOS-COMOD-SinBoard-routed-2,64696769-544f-4532-9d43-4f4d4f442d53,rev?*%
%TF.SameCoordinates,Original*%
%TF.FileFunction,Copper,L2,Bot*%
%TF.FilePolarity,Positive*%
%FSLAX46Y46*%
G04 Gerber Fmt 4.6, Leading zero omitted, Abs format (unit mm)*
G04 Created by KiCad (PCBNEW (6.0.0-rc1-dev-1444-gad0d9f8df)) date 02/01/2019 13:44:12*
%MOMM*%
%LPD*%
G04 APERTURE LIST*
%TA.AperFunction,ComponentPad*%
%ADD10C,2.000000*%
%TD*%
%TA.AperFunction,ComponentPad*%
%ADD11R,2.000000X2.000000*%
%TD*%
%TA.AperFunction,ComponentPad*%
%ADD12C,2.780000*%
%TD*%
%TA.AperFunction,ComponentPad*%
%ADD13R,3.000000X3.000000*%
%TD*%
%TA.AperFunction,ComponentPad*%
%ADD14C,3.000000*%
%TD*%
%TA.AperFunction,ComponentPad*%
%ADD15C,5.999480*%
%TD*%
%TA.AperFunction,ComponentPad*%
%ADD16R,1.700000X1.700000*%
%TD*%
%TA.AperFunction,ComponentPad*%
%ADD17O,1.700000X1.700000*%
%TD*%
%TA.AperFunction,ComponentPad*%
%ADD18C,1.440000*%
%TD*%
%TA.AperFunction,ComponentPad*%
%ADD19R,1.727200X1.727200*%
%TD*%
%TA.AperFunction,ComponentPad*%
%ADD20O,1.727200X1.727200*%
%TD*%
%TA.AperFunction,ComponentPad*%
%ADD21C,1.524000*%
%TD*%
%TA.AperFunction,ComponentPad*%
%ADD22C,1.520000*%
%TD*%
%TA.AperFunction,ComponentPad*%
%ADD23R,1.600000X1.600000*%
%TD*%
%TA.AperFunction,ComponentPad*%
%ADD24O,1.600000X1.600000*%
%TD*%
%TA.AperFunction,ViaPad*%
%ADD25C,1.800000*%
%TD*%
%TA.AperFunction,Conductor*%
%ADD26C,1.000000*%
%TD*%
G04 APERTURE END LIST*
D10*
%TO.P,T1,7*%
%TO.N,V_Trans_out1*%
X137200000Y-102700000D03*
%TO.P,T1,6*%
%TO.N,V_Trans_out2*%
X137200000Y-97700000D03*
%TO.P,T1,4*%
%TO.N,NEUT*%
X122200000Y-92700000D03*
D11*
%TO.P,T1,1*%
%TO.N,LINE*%
X122200000Y-107700000D03*
%TD*%
D10*
%TO.P,T2,9*%
%TO.N,V_Trans_out1*%
X139800000Y-105600000D03*
%TO.P,T2,7*%
%TO.N,V_Trans_out2*%
X139800000Y-95600000D03*
%TO.P,T2,5*%
%TO.N,NEUT*%
X119800000Y-90600000D03*
D11*
%TO.P,T2,1*%
%TO.N,LINE*%
X119800000Y-110600000D03*
%TD*%
D12*
%TO.P,F1,1*%
%TO.N,AC*%
X164700000Y-48000000D03*
X164700000Y-51400000D03*
%TO.P,F1,2*%
%TO.N,Net-(F1-Pad2)*%
X154780000Y-48000000D03*
X154780000Y-51400000D03*
%TD*%
D13*
%TO.P,NEUT-LINE_IN1,1*%
%TO.N,Net-(F1-Pad2)*%
X143300000Y-48200000D03*
D14*
%TO.P,NEUT-LINE_IN1,2*%
%TO.N,NEUT*%
X138220000Y-48200000D03*
%TD*%
D15*
%TO.P,J3,1*%
%TO.N,AC*%
X164900000Y-62550000D03*
%TD*%
%TO.P,J4,1*%
%TO.N,LINE*%
X131900000Y-67200000D03*
%TD*%
D13*
%TO.P,NEUT-LINE_OUT1,1*%
%TO.N,LINE*%
X120300000Y-64300000D03*
D14*
%TO.P,NEUT-LINE_OUT1,2*%
%TO.N,NEUT*%
X120300000Y-69380000D03*
%TD*%
D16*
%TO.P,RAW-GND1,1*%
%TO.N,+12V*%
X239800000Y-86100000D03*
D17*
%TO.P,RAW-GND1,2*%
%TO.N,GND*%
X242340000Y-86100000D03*
%TD*%
D16*
%TO.P,RX-TX-GND1,1*%
%TO.N,Net-(R5-Pad1)*%
X223320000Y-60730000D03*
D17*
%TO.P,RX-TX-GND1,2*%
%TO.N,Net-(R6-Pad1)*%
X225860000Y-60730000D03*
%TO.P,RX-TX-GND1,3*%
%TO.N,GND*%
X228400000Y-60730000D03*
%TD*%
D16*
%TO.P,DEV1,1*%
%TO.N,DEV_MODE1*%
X181600000Y-53000000D03*
D17*
%TO.P,DEV1,2*%
%TO.N,GND*%
X181600000Y-50460000D03*
%TD*%
%TO.P,DEV2,2*%
%TO.N,GND*%
X187300000Y-50460000D03*
D16*
%TO.P,DEV2,1*%
%TO.N,DEV_MODE2*%
X187300000Y-53000000D03*
%TD*%
D18*
%TO.P,RV1,1*%
%TO.N,Net-(R13-Pad2)*%
X156700000Y-116500000D03*
%TO.P,RV1,2*%
%TO.N,Net-(R17-Pad2)*%
X159240000Y-116500000D03*
%TO.P,RV1,3*%
%TO.N,Net-(R14-Pad1)*%
X161780000Y-116500000D03*
%TD*%
D19*
%TO.P,J1,1*%
%TO.N,+3V3*%
X239600000Y-111800000D03*
D20*
%TO.P,J1,2*%
%TO.N,GND*%
X242140000Y-111800000D03*
%TO.P,J1,3*%
%TO.N,CH1*%
X239600000Y-109260000D03*
%TO.P,J1,4*%
%TO.N,FAULT_FEEDBACK*%
X242140000Y-109260000D03*
%TO.P,J1,5*%
%TO.N,CH2*%
X239600000Y-106720000D03*
%TO.P,J1,6*%
%TO.N,RST*%
X242140000Y-106720000D03*
%TO.P,J1,7*%
%TO.N,CH3*%
X239600000Y-104180000D03*
%TO.P,J1,8*%
%TO.N,DC_FEEDBACK*%
X242140000Y-104180000D03*
%TO.P,J1,9*%
%TO.N,CH4*%
X239600000Y-101640000D03*
%TO.P,J1,10*%
%TO.N,+12V*%
X242140000Y-101640000D03*
%TD*%
D21*
%TO.P,T3,5*%
%TO.N,Net-(T3-Pad5)*%
X144554000Y-73080000D03*
D22*
%TO.P,T3,1*%
%TO.N,Net-(C5-Pad1)*%
X154460000Y-79176000D03*
%TO.P,T3,2*%
%TO.N,CT_out2*%
X154460000Y-64190000D03*
%TO.P,T3,4*%
%TO.N,Net-(T3-Pad5)*%
X144554000Y-81208000D03*
%TO.P,T3,3*%
X144554000Y-62158000D03*
%TD*%
D23*
%TO.P,STM321,1*%
%TO.N,+12V*%
X195005448Y-78401405D03*
D24*
%TO.P,STM321,17*%
%TO.N,Net-(STM321-Pad17)*%
X218797316Y-80860115D03*
%TO.P,STM321,2*%
%TO.N,Net-(STM321-Pad2)*%
X195005448Y-80941405D03*
%TO.P,STM321,18*%
%TO.N,Net-(STM321-Pad18)*%
X218797316Y-83400115D03*
%TO.P,STM321,3*%
%TO.N,E1*%
X195005448Y-83481405D03*
%TO.P,STM321,19*%
%TO.N,E3*%
X218797316Y-85940115D03*
%TO.P,STM321,4*%
%TO.N,E2*%
X195005448Y-86021405D03*
%TO.P,STM321,20*%
%TO.N,E4*%
X218797316Y-88480115D03*
%TO.P,STM321,5*%
%TO.N,CH3*%
X195005448Y-88561405D03*
%TO.P,STM321,21*%
%TO.N,RX*%
X218797316Y-91020115D03*
%TO.P,STM321,6*%
%TO.N,TX*%
X195005448Y-91101405D03*
%TO.P,STM321,22*%
%TO.N,LED1*%
X218797316Y-93560115D03*
%TO.P,STM321,7*%
%TO.N,DEV_MODE1*%
X195005448Y-93641405D03*
%TO.P,STM321,23*%
%TO.N,E5*%
X218797316Y-96100115D03*
%TO.P,STM321,8*%
%TO.N,CH4*%
X195005448Y-96181405D03*
%TO.P,STM321,24*%
%TO.N,RST*%
X218797316Y-98640115D03*
%TO.P,STM321,9*%
%TO.N,LED2*%
X195005448Y-98721405D03*
%TO.P,STM321,25*%
%TO.N,LED3*%
X218797316Y-101180115D03*
%TO.P,STM321,10*%
%TO.N,CH2*%
X195005448Y-101261405D03*
%TO.P,STM321,26*%
%TO.N,LED4*%
X218797316Y-103720115D03*
%TO.P,STM321,11*%
%TO.N,CH1*%
X195005448Y-103801405D03*
%TO.P,STM321,27*%
%TO.N,E6*%
X218797316Y-106260115D03*
%TO.P,STM321,12*%
%TO.N,DC_FEEDBACK*%
X195005448Y-106341405D03*
%TO.P,STM321,28*%
%TO.N,V_OUT*%
X218797316Y-108800115D03*
%TO.P,STM321,13*%
%TO.N,DEV_MODE2*%
X195005448Y-108881405D03*
%TO.P,STM321,29*%
%TO.N,CT_out2*%
X218797316Y-111340115D03*
%TO.P,STM321,14*%
%TO.N,FAULT_FEEDBACK*%
X195005448Y-111421405D03*
%TO.P,STM321,30*%
%TO.N,GND*%
X218797316Y-113880115D03*
%TO.P,STM321,15*%
X195005448Y-113961405D03*
%TO.P,STM321,16*%
%TO.N,+12V*%
X218797316Y-78320115D03*
%TD*%
D17*
%TO.P,J2,2*%
%TO.N,E2*%
X184785000Y-85725000D03*
D16*
%TO.P,J2,1*%
X182245000Y-85725000D03*
%TD*%
%TO.P,J5,1*%
%TO.N,E1*%
X185420000Y-80010000D03*
D17*
%TO.P,J5,2*%
X187960000Y-80010000D03*
%TD*%
%TO.P,J6,2*%
%TO.N,E3*%
X232410000Y-83820000D03*
D16*
%TO.P,J6,1*%
X229870000Y-83820000D03*
%TD*%
%TO.P,J7,1*%
%TO.N,E5*%
X231140000Y-95250000D03*
D17*
%TO.P,J7,2*%
X233680000Y-95250000D03*
%TD*%
D16*
%TO.P,J8,1*%
%TO.N,E4*%
X231775000Y-88392000D03*
D17*
%TO.P,J8,2*%
X234315000Y-88392000D03*
%TD*%
%TO.P,J9,2*%
%TO.N,E6*%
X232410000Y-103505000D03*
D16*
%TO.P,J9,1*%
X229870000Y-103505000D03*
%TD*%
D25*
%TO.N,GND*%
X246380000Y-86360000D03*
X248285000Y-86360000D03*
X244475000Y-56515000D03*
X242570000Y-56515000D03*
X176530000Y-50165000D03*
X178435000Y-50165000D03*
X192405000Y-50165000D03*
X190500000Y-50165000D03*
X234950000Y-123825000D03*
X233045000Y-123825000D03*
X227330000Y-114300000D03*
X225425000Y-114300000D03*
X187960000Y-114300000D03*
X189865000Y-114300000D03*
%TO.N,+12V*%
X239395000Y-81915000D03*
X237490000Y-81915000D03*
X243545000Y-94400600D03*
X245450000Y-94400600D03*
%TO.N,+3V3*%
X198500000Y-64000000D03*
X170000000Y-86800000D03*
X187800000Y-62300000D03*
X234315000Y-118745000D03*
X232410000Y-118745000D03*
%TO.N,LED1*%
X206676600Y-122634900D03*
X226060000Y-93345000D03*
X224155000Y-93345000D03*
%TO.N,LED2*%
X187960000Y-98425000D03*
X189865000Y-98425000D03*
%TO.N,LED3*%
X211961400Y-122634900D03*
X226060000Y-100965000D03*
X224155000Y-100965000D03*
%TO.N,LED4*%
X221180200Y-122054900D03*
X226060000Y-103505000D03*
X224155000Y-103505000D03*
%TO.N,RX*%
X226060000Y-90805000D03*
X224155000Y-90805000D03*
%TO.N,TX*%
X214152100Y-79952300D03*
X187960000Y-90805000D03*
X189865000Y-90805000D03*
%TO.N,CH1*%
X232410000Y-113665000D03*
X234315000Y-113665000D03*
X187960000Y-103505000D03*
X189865000Y-103505000D03*
%TO.N,FAULT_FEEDBACK*%
X247303000Y-111143000D03*
X247303000Y-113048000D03*
X187960000Y-111125000D03*
X189865000Y-111125000D03*
%TO.N,CH2*%
X229656100Y-113311400D03*
X232410000Y-106680000D03*
X234315000Y-106680000D03*
X187960000Y-100965000D03*
X189865000Y-100965000D03*
%TO.N,RST*%
X248004000Y-105052000D03*
X248004000Y-106957000D03*
X226060000Y-98425000D03*
X224155000Y-98425000D03*
%TO.N,CH3*%
X201997600Y-69199200D03*
X233045000Y-98425000D03*
X234950000Y-98425000D03*
X187960000Y-88265000D03*
X189865000Y-88265000D03*
%TO.N,DC_FEEDBACK*%
X247904000Y-98552000D03*
X247904000Y-100584000D03*
X187960000Y-106045000D03*
X189865000Y-106045000D03*
%TO.N,CH4*%
X200549100Y-67185300D03*
X238893000Y-94575200D03*
X236988000Y-94575200D03*
X187960000Y-95885000D03*
X189865000Y-95885000D03*
%TO.N,Net-(R5-Pad1)*%
X220980000Y-57150000D03*
X222885000Y-57150000D03*
%TO.N,Net-(R6-Pad1)*%
X226060000Y-55245000D03*
X226060000Y-57150000D03*
%TO.N,CT_out2*%
X165735000Y-71755000D03*
X167640000Y-71755000D03*
X226060000Y-111125000D03*
X224155000Y-111125000D03*
%TO.N,DEV_MODE1*%
X178435000Y-55245000D03*
X178435000Y-53340000D03*
X187960000Y-93345000D03*
X189865000Y-93345000D03*
%TO.N,DEV_MODE2*%
X190500000Y-55245000D03*
X190500000Y-53340000D03*
X187960000Y-108585000D03*
X189865000Y-108585000D03*
%TO.N,Net-(C5-Pad1)*%
X175318800Y-66475900D03*
%TO.N,V_OUT*%
X214998700Y-123471700D03*
X179070000Y-113665000D03*
X177165000Y-113665000D03*
X226060000Y-108585000D03*
X224155000Y-108585000D03*
%TO.N,Net-(C1-Pad1)*%
X231669100Y-60598500D03*
X215800000Y-48600000D03*
%TO.N,Net-(R13-Pad2)*%
X156845000Y-120650000D03*
X154940000Y-120650000D03*
%TO.N,Net-(R14-Pad1)*%
X161925000Y-120650000D03*
X163830000Y-120650000D03*
%TO.N,Net-(R17-Pad2)*%
X159385000Y-120650000D03*
X159385000Y-122555000D03*
%TO.N,Net-(T3-Pad5)*%
X142240000Y-73025000D03*
X147320000Y-62230000D03*
X147320000Y-81280000D03*
%TD*%
D26*
%TO.N,+12V*%
X218797300Y-78320100D02*
X216997300Y-78320100D01*
X216997300Y-78320100D02*
X216829200Y-78152000D01*
X216829200Y-78152000D02*
X197054800Y-78152000D01*
X197054800Y-78152000D02*
X196805400Y-78401400D01*
X239800000Y-86100000D02*
X239800000Y-87950000D01*
X239800000Y-87950000D02*
X243545000Y-91695000D01*
X243545000Y-91695000D02*
X243545000Y-94400600D01*
X195005400Y-78401400D02*
X196805400Y-78401400D01*
%TO.N,+3V3*%
X198500000Y-64000000D02*
X198500000Y-68267000D01*
X198500000Y-68267000D02*
X203762100Y-73529100D01*
X203762100Y-73529100D02*
X218503700Y-73529100D01*
X218503700Y-73529100D02*
X221898100Y-76923500D01*
X221898100Y-76923500D02*
X221898100Y-103803100D01*
X221898100Y-103803100D02*
X224140000Y-106045000D01*
X224140000Y-106045000D02*
X228742900Y-106045000D01*
X228742900Y-106045000D02*
X234497900Y-111800000D01*
X234497900Y-111800000D02*
X239600000Y-111800000D01*
X187800000Y-62300000D02*
X187800000Y-69000000D01*
X187800000Y-69000000D02*
X170000000Y-86800000D01*
%TO.N,LED1*%
X218797300Y-93560100D02*
X206676600Y-105680800D01*
X206676600Y-105680800D02*
X206676600Y-122634900D01*
%TO.N,LED3*%
X218797300Y-101180100D02*
X211961400Y-108016000D01*
X211961400Y-108016000D02*
X211961400Y-122634900D01*
%TO.N,LED4*%
X221180200Y-122054900D02*
X217053200Y-117927900D01*
X217053200Y-117927900D02*
X217053200Y-105464200D01*
X217053200Y-105464200D02*
X218797300Y-103720100D01*
%TO.N,TX*%
X195005400Y-91101400D02*
X203003000Y-91101400D01*
X203003000Y-91101400D02*
X214152100Y-79952300D01*
%TO.N,CH1*%
X195005400Y-103801400D02*
X202535500Y-111331500D01*
X202535500Y-111331500D02*
X202535500Y-123022100D01*
X202535500Y-123022100D02*
X206233200Y-126719800D01*
X206233200Y-126719800D02*
X223033200Y-126719800D01*
X223033200Y-126719800D02*
X227976400Y-121776600D01*
X227976400Y-121776600D02*
X227976400Y-119796300D01*
X227976400Y-119796300D02*
X232410000Y-115362700D01*
X232410000Y-115362700D02*
X232410000Y-113665000D01*
%TO.N,FAULT_FEEDBACK*%
X195005400Y-111421400D02*
X199734900Y-116150900D01*
X199734900Y-116150900D02*
X199734900Y-124182100D01*
X199734900Y-124182100D02*
X205073200Y-129520400D01*
X205073200Y-129520400D02*
X231856600Y-129520400D01*
X231856600Y-129520400D02*
X238306200Y-123070800D01*
X238306200Y-123070800D02*
X238306200Y-120516100D01*
X238306200Y-120516100D02*
X245774300Y-113048000D01*
X245774300Y-113048000D02*
X247303000Y-113048000D01*
%TO.N,CH2*%
X195005400Y-101261400D02*
X204368900Y-110624900D01*
X204368900Y-110624900D02*
X204368900Y-122875200D01*
X204368900Y-122875200D02*
X206813200Y-125319500D01*
X206813200Y-125319500D02*
X222453200Y-125319500D01*
X222453200Y-125319500D02*
X226080900Y-121691800D01*
X226080900Y-121691800D02*
X226080900Y-119711300D01*
X226080900Y-119711300D02*
X229656100Y-116136100D01*
X229656100Y-116136100D02*
X229656100Y-113311400D01*
%TO.N,RST*%
X226060000Y-98425000D02*
X227951300Y-98425000D01*
X227951300Y-98425000D02*
X229754300Y-100228000D01*
X229754300Y-100228000D02*
X238259400Y-100228000D01*
X238259400Y-100228000D02*
X238639400Y-99848000D01*
X238639400Y-99848000D02*
X242899400Y-99848000D01*
X242899400Y-99848000D02*
X248004000Y-104952600D01*
X248004000Y-104952600D02*
X248004000Y-105052000D01*
%TO.N,CH3*%
X201997600Y-69199200D02*
X216154300Y-69199200D01*
X216154300Y-69199200D02*
X224720700Y-77765600D01*
X224720700Y-77765600D02*
X224720700Y-86292300D01*
X224720700Y-86292300D02*
X228507200Y-90078800D01*
X228507200Y-90078800D02*
X228507200Y-95638400D01*
X228507200Y-95638400D02*
X231293800Y-98425000D01*
X231293800Y-98425000D02*
X233045000Y-98425000D01*
%TO.N,DC_FEEDBACK*%
X195005400Y-106341400D02*
X201135200Y-112471200D01*
X201135200Y-112471200D02*
X201135200Y-123602100D01*
X201135200Y-123602100D02*
X205653200Y-128120100D01*
X205653200Y-128120100D02*
X223613200Y-128120100D01*
X223613200Y-128120100D02*
X230130800Y-121602500D01*
X230130800Y-121602500D02*
X234889500Y-121602500D01*
X234889500Y-121602500D02*
X243953800Y-112538200D01*
X243953800Y-112538200D02*
X243953800Y-105993800D01*
X243953800Y-105993800D02*
X242140000Y-104180000D01*
%TO.N,CH4*%
X236988000Y-94575200D02*
X235296100Y-92883300D01*
X235296100Y-92883300D02*
X233292200Y-92883300D01*
X233292200Y-92883300D02*
X226616200Y-86207300D01*
X226616200Y-86207300D02*
X226616200Y-77663700D01*
X226616200Y-77663700D02*
X216137800Y-67185300D01*
X216137800Y-67185300D02*
X200549100Y-67185300D01*
%TO.N,CT_out2*%
X154460000Y-64190000D02*
X156899900Y-64190000D01*
X156899900Y-64190000D02*
X172728800Y-48361100D01*
X172728800Y-48361100D02*
X193215400Y-48361100D01*
X193215400Y-48361100D02*
X195088400Y-50234100D01*
X195088400Y-50234100D02*
X195088400Y-66861500D01*
X195088400Y-66861500D02*
X203880100Y-75653200D01*
X203880100Y-75653200D02*
X218627500Y-75653200D01*
X218627500Y-75653200D02*
X220497700Y-77523400D01*
X220497700Y-77523400D02*
X220497700Y-109639700D01*
X220497700Y-109639700D02*
X218797300Y-111340100D01*
%TO.N,DEV_MODE1*%
X181600000Y-53000000D02*
X181600000Y-54850000D01*
X189865000Y-93345000D02*
X189977700Y-93345000D01*
X189977700Y-93345000D02*
X191665400Y-91657300D01*
X191665400Y-91657300D02*
X191665400Y-63619200D01*
X191665400Y-63619200D02*
X182896200Y-54850000D01*
X182896200Y-54850000D02*
X181600000Y-54850000D01*
%TO.N,DEV_MODE2*%
X189865000Y-108585000D02*
X189985600Y-108585000D01*
X189985600Y-108585000D02*
X193065700Y-105504900D01*
X193065700Y-105504900D02*
X193065700Y-57810700D01*
X193065700Y-57810700D02*
X190500000Y-55245000D01*
%TO.N,Net-(C5-Pad1)*%
X154460000Y-79176000D02*
X167160100Y-66475900D01*
X167160100Y-66475900D02*
X175318800Y-66475900D01*
%TO.N,V_OUT*%
X224155000Y-108585000D02*
X224032700Y-108585000D01*
X224032700Y-108585000D02*
X222302000Y-110315700D01*
X222302000Y-110315700D02*
X222302000Y-120630700D01*
X222302000Y-120630700D02*
X222980500Y-121309200D01*
X222980500Y-121309200D02*
X222980500Y-122800600D01*
X222980500Y-122800600D02*
X221908300Y-123872800D01*
X221908300Y-123872800D02*
X215399800Y-123872800D01*
X215399800Y-123872800D02*
X214998700Y-123471700D01*
%TO.N,Net-(C1-Pad1)*%
X215800000Y-48600000D02*
X222034300Y-48600000D01*
X222034300Y-48600000D02*
X231669100Y-58234800D01*
X231669100Y-58234800D02*
X231669100Y-60598500D01*
%TD*%
M02*
